<svg width="1429" height="662" viewBox="0 0 1429 662" fill="none" xmlns="http://www.w3.org/2000/svg">
<path d="M70.416 29.856C73.344 29.856 76.128 27.6 76.128 24.192V2.928H83.184V24.192C83.184 31.68 77.184 36.48 70.416 36.48C63.648 36.48 57.552 31.68 57.552 24.192V2.928H64.704V24.192C64.704 27.6 67.488 29.856 70.416 29.856ZM114.703 2.928L104.287 18.384L115.759 36H107.455L100.111 24L92.7668 36H84.5108L95.9348 18.384L85.5188 2.928H93.9668L100.111 12.816L106.303 2.928H114.703ZM133.727 9.312V29.616H139.679C144.911 29.616 147.599 24.96 147.599 19.536C147.599 14.064 144.911 9.312 139.679 9.312H133.727ZM139.679 36H126.719V2.928H139.679C149.135 2.928 154.607 10.128 154.607 19.536C154.607 28.944 149.135 36 139.679 36ZM172.95 28.608L177.798 31.92C175.494 35.28 171.414 36.48 167.574 36.48C161.19 36.48 155.862 31.776 155.862 24.72C155.862 17.616 161.19 13.104 167.574 13.104C173.958 13.104 179.046 17.856 179.046 24.912C179.046 25.488 178.998 26.4 178.95 26.976H162.534C162.918 29.568 165.654 30.72 168.054 30.72C169.926 30.72 171.846 30.096 172.95 28.608ZM162.63 22.8H172.326C171.942 20.064 169.542 18.96 167.622 18.96C165.798 18.96 163.158 19.92 162.63 22.8ZM189.933 27.552L187.005 26.784C180.237 25.008 180.285 21.552 180.285 19.488C180.285 16.176 184.317 13.104 189.021 13.104C193.437 13.104 198.237 15.024 198.237 20.544H191.949C191.901 18.864 190.509 18.576 189.405 18.576C187.917 18.576 187.005 19.248 187.053 20.256C187.101 20.976 187.677 21.6 189.021 21.936L192.813 22.944C198.237 24.48 198.909 27.984 198.909 29.472C198.909 34.224 193.917 36.48 189.213 36.48C184.701 36.48 179.853 33.744 179.853 28.752H186.093C186.141 30.048 187.533 31.344 189.405 31.344C190.893 31.296 192.141 30.624 192.141 29.472C192.141 28.512 191.613 27.984 189.933 27.552ZM207.827 13.584V36H201.203V13.584H207.827ZM200.339 5.28C200.339 3.072 202.259 1.392 204.515 1.392C206.771 1.392 208.595 3.024 208.595 5.28C208.595 7.44 206.819 9.216 204.515 9.216C202.259 9.216 200.339 7.44 200.339 5.28ZM227.969 24.72C227.969 21.408 225.329 19.44 222.545 19.44C219.665 19.44 217.169 21.552 217.169 24.72C217.169 28.032 219.665 30.192 222.545 30.192C225.281 30.192 227.969 28.032 227.969 24.72ZM210.881 40.224L216.257 37.584C217.025 39.696 219.665 41.184 221.921 41.184C227.057 41.184 228.353 37.632 228.113 33.216C227.009 35.28 224.225 36.48 221.393 36.48C215.633 36.48 210.209 31.968 210.209 24.864C210.209 17.664 215.633 13.104 221.393 13.104C224.177 13.104 226.961 14.352 228.113 16.368V13.584H234.593V32.88C234.593 42.528 229.841 47.184 221.921 47.184C216.977 47.184 212.801 44.4 210.881 40.224ZM245.028 24.144V36H238.356V13.584H245.028V16.848C246.228 14.592 248.82 13.104 251.508 13.104C256.548 13.104 259.716 16.224 259.716 22.608V36H253.044V24.048C253.044 21.024 251.412 19.584 249.156 19.584C246.804 19.584 245.028 20.736 245.028 24.144ZM286.812 9.12H280.428V18.432H286.62C289.356 18.432 290.796 15.888 290.796 13.776C290.796 11.712 289.5 9.12 286.812 9.12ZM273.372 36V2.928H286.956C294.492 2.928 297.852 8.352 297.852 13.776C297.852 19.296 294.492 24.576 286.956 24.576H280.428V36H273.372ZM306.032 28.176V36H299.36V13.584H306.032V19.008C307.184 14.832 310.064 13.104 312.368 13.104C313.952 13.104 315.104 13.392 316.208 13.92L315.008 19.92C313.808 19.344 312.704 19.248 311.6 19.248C307.76 19.248 306.032 22.224 306.032 28.176ZM327.153 29.856C329.985 29.856 332.241 27.84 332.241 24.72C332.241 21.648 329.985 19.632 327.153 19.632C324.417 19.632 322.113 21.648 322.113 24.72C322.113 27.84 324.417 29.856 327.153 29.856ZM327.153 36.384C320.769 36.384 315.537 31.776 315.537 24.72C315.537 17.616 320.769 13.104 327.153 13.104C333.489 13.104 338.817 17.616 338.817 24.72C338.817 31.776 333.489 36.384 327.153 36.384ZM339.856 24.72C339.856 17.616 345.664 13.104 352.048 13.104C356.08 13.104 359.632 14.784 361.792 17.856L356.368 21.744C355.456 20.256 353.776 19.488 352.048 19.488C349.216 19.488 346.48 21.504 346.48 24.72C346.48 27.936 349.216 30.096 352.048 30.096C353.776 30.096 355.456 29.328 356.368 27.84L361.792 31.68C359.68 34.752 356.08 36.48 352.048 36.48C345.664 36.48 339.856 31.776 339.856 24.72ZM379.482 28.608L384.33 31.92C382.026 35.28 377.946 36.48 374.106 36.48C367.722 36.48 362.394 31.776 362.394 24.72C362.394 17.616 367.722 13.104 374.106 13.104C380.49 13.104 385.578 17.856 385.578 24.912C385.578 25.488 385.53 26.4 385.482 26.976H369.066C369.45 29.568 372.186 30.72 374.586 30.72C376.458 30.72 378.378 30.096 379.482 28.608ZM369.162 22.8H378.858C378.474 20.064 376.074 18.96 374.154 18.96C372.33 18.96 369.69 19.92 369.162 22.8ZM396.464 27.552L393.536 26.784C386.768 25.008 386.816 21.552 386.816 19.488C386.816 16.176 390.848 13.104 395.552 13.104C399.968 13.104 404.768 15.024 404.768 20.544H398.48C398.432 18.864 397.04 18.576 395.936 18.576C394.448 18.576 393.536 19.248 393.584 20.256C393.632 20.976 394.208 21.6 395.552 21.936L399.344 22.944C404.768 24.48 405.44 27.984 405.44 29.472C405.44 34.224 400.448 36.48 395.744 36.48C391.232 36.48 386.384 33.744 386.384 28.752H392.624C392.672 30.048 394.064 31.344 395.936 31.344C397.424 31.296 398.672 30.624 398.672 29.472C398.672 28.512 398.144 27.984 396.464 27.552ZM416.471 27.552L413.543 26.784C406.775 25.008 406.823 21.552 406.823 19.488C406.823 16.176 410.855 13.104 415.559 13.104C419.975 13.104 424.775 15.024 424.775 20.544H418.487C418.439 18.864 417.047 18.576 415.943 18.576C414.455 18.576 413.543 19.248 413.591 20.256C413.639 20.976 414.215 21.6 415.559 21.936L419.351 22.944C424.775 24.48 425.447 27.984 425.447 29.472C425.447 34.224 420.455 36.48 415.751 36.48C411.239 36.48 406.391 33.744 406.391 28.752H412.631C412.679 30.048 414.071 31.344 415.943 31.344C417.431 31.296 418.679 30.624 418.679 29.472C418.679 28.512 418.151 27.984 416.471 27.552Z" fill="#1F1F1F"/>
<g filter="url(#filter0_d_536_6710)">
<rect x="54" y="108" width="129" height="128" rx="21.4461" fill="#0755E9"/>
</g>
<path d="M92.5 157C98.299 157 103 152.299 103 146.5C103 140.701 98.299 136 92.5 136C86.701 136 82 140.701 82 146.5C82 152.299 86.701 157 92.5 157Z" stroke="white" stroke-width="2" stroke-linecap="round" stroke-linejoin="round"/>
<path d="M99.925 153.925L106 160" stroke="white" stroke-width="2" stroke-linecap="round" stroke-linejoin="round"/>
<path d="M90.456 206L88.944 201.992H82.776L81.264 206H78L84.192 189.464H87.504L93.696 206H90.456ZM85.848 192.992L83.808 199.304H87.936L85.848 192.992ZM97.0871 200.024V206H94.1591V194.792H97.0871V196.448C97.7351 195.224 99.1031 194.552 100.423 194.552C103.039 194.552 104.599 196.184 104.599 199.376V206H101.671V199.904C101.671 198.272 100.807 197.408 99.5351 197.408C98.1911 197.408 97.0871 198.08 97.0871 200.024ZM115.072 206V204.56C114.376 205.712 112.672 206.216 111.592 206.216C108.64 206.216 105.88 203.96 105.88 200.384C105.88 196.808 108.64 194.552 111.592 194.552C112.624 194.552 114.232 194.96 115.072 196.184V194.792H118V206H115.072ZM108.904 200.384C108.904 202.208 110.368 203.408 112 203.408C113.608 203.408 115.072 202.304 115.072 200.384C115.072 198.464 113.536 197.36 112 197.36C110.368 197.36 108.904 198.56 108.904 200.384ZM120.119 206V188.696H123.047V206H120.119ZM135.545 194.792L128.609 211.472H125.513L128.081 205.136L123.713 194.792H126.833L129.617 201.776L132.425 194.792H135.545ZM140.318 201.704L138.782 201.32C135.878 200.552 135.614 199.184 135.614 197.888C135.614 196.064 137.534 194.552 139.742 194.552C141.878 194.552 143.99 195.512 144.11 198.08H141.326C141.254 197.24 140.486 196.928 139.814 196.928C139.07 196.928 138.398 197.192 138.398 198.032C138.398 198.488 138.926 198.8 139.574 198.968L141.446 199.424C144.038 200.144 144.374 201.872 144.374 202.784C144.374 205.088 142.118 206.24 139.79 206.24C137.582 206.24 135.35 204.872 135.278 202.472H138.014C138.086 203.264 138.998 203.96 140.078 203.888C140.918 203.864 141.542 203.408 141.542 202.76C141.566 202.184 141.158 201.896 140.318 201.704ZM148.673 194.792V206H145.769V194.792H148.673ZM145.337 190.448C145.337 189.464 146.201 188.696 147.233 188.696C148.265 188.696 149.081 189.464 149.081 190.448C149.081 191.48 148.265 192.224 147.233 192.224C146.201 192.224 145.337 191.48 145.337 190.448ZM155.027 201.704L153.491 201.32C150.587 200.552 150.323 199.184 150.323 197.888C150.323 196.064 152.243 194.552 154.451 194.552C156.587 194.552 158.699 195.512 158.819 198.08H156.035C155.963 197.24 155.195 196.928 154.523 196.928C153.779 196.928 153.107 197.192 153.107 198.032C153.107 198.488 153.635 198.8 154.283 198.968L156.155 199.424C158.747 200.144 159.083 201.872 159.083 202.784C159.083 205.088 156.827 206.24 154.499 206.24C152.291 206.24 150.059 204.872 149.987 202.472H152.723C152.795 203.264 153.707 203.96 154.787 203.888C155.627 203.864 156.251 203.408 156.251 202.76C156.275 202.184 155.867 201.896 155.027 201.704Z" fill="white"/>
<g filter="url(#filter1_d_536_6710)">
<rect x="642" y="108" width="285" height="128" rx="21.4461" fill="#0755E9"/>
</g>
<path d="M680.5 152C681.881 152 683 150.881 683 149.5C683 148.119 681.881 147 680.5 147C679.119 147 678 148.119 678 149.5C678 150.881 679.119 152 680.5 152Z" stroke="white" stroke-width="2" stroke-linecap="round" stroke-linejoin="round"/>
<path d="M670 160L678.738 151.262" stroke="white" stroke-width="2" stroke-linecap="round" stroke-linejoin="round"/>
<path d="M670 160L687.438 157.1C687.61 157.071 687.771 156.996 687.905 156.884C688.039 156.772 688.141 156.627 688.2 156.462L691 149L681 139L673.537 141.8C673.373 141.863 673.228 141.967 673.116 142.103C673.004 142.239 672.93 142.402 672.9 142.575L670 160Z" stroke="white" stroke-width="2" stroke-linecap="round" stroke-linejoin="round"/>
<path d="M691 149L694.288 145.713C694.382 145.619 694.457 145.509 694.508 145.386C694.559 145.264 694.586 145.133 694.586 145C694.586 144.867 694.559 144.736 694.508 144.614C694.457 144.491 694.382 144.381 694.288 144.288L685.712 135.713C685.619 135.618 685.509 135.543 685.386 135.492C685.264 135.441 685.133 135.414 685 135.414C684.867 135.414 684.736 135.441 684.614 135.492C684.491 135.543 684.381 135.618 684.288 135.713L681 139" stroke="white" stroke-width="2" stroke-linecap="round" stroke-linejoin="round"/>
<path d="M667.104 201.176H670.176C670.248 202.4 671.256 203.504 673.032 203.504C674.688 203.504 675.696 202.64 675.768 201.512C675.84 200.432 675.072 199.688 673.488 199.256L671.448 198.728C667.848 197.696 667.272 195.56 667.272 194.12C667.272 191.216 669.792 189.272 672.84 189.272C675.96 189.272 678.336 191.192 678.336 194.264H675.264C675.264 192.944 674.328 192.104 672.792 192.104C671.424 192.104 670.32 192.872 670.32 194.048C670.32 194.528 670.512 195.512 672.288 195.944L674.328 196.544C678.048 197.576 678.96 199.64 678.84 201.584C678.72 204.56 676.032 206.264 673.032 206.264C669.504 206.264 667.104 204.008 667.104 201.176ZM687.436 206L683.212 201.2V206H680.308V188.696H683.212V198.152L686.308 194.792H690.1L685.396 199.712L691.108 206H687.436ZM701.626 200.36C701.626 200.648 701.602 201.104 701.578 201.368H693.034C693.226 202.88 694.474 203.768 696.13 203.768C697.258 203.768 698.386 203.288 698.938 202.328C699.634 202.712 700.426 203.144 701.17 203.528C700.138 205.448 698.002 206.24 695.938 206.24C692.746 206.24 690.13 203.888 690.13 200.36C690.13 196.808 692.746 194.552 695.938 194.552C699.106 194.552 701.626 196.808 701.626 200.36ZM693.01 199.376H698.77C698.554 197.84 697.402 197 695.962 197C694.426 197 693.226 197.84 693.01 199.376ZM706.732 190.52V194.792H709.108V197.144H706.732V206H703.828V197.144H701.788V194.792H703.828V190.52H706.732ZM709.245 200.36C709.245 196.808 712.077 194.552 715.293 194.552C717.189 194.552 718.893 195.32 719.949 196.736L717.621 198.488C717.069 197.744 716.229 197.384 715.293 197.384C713.661 197.384 712.149 198.536 712.149 200.36C712.149 202.184 713.661 203.432 715.293 203.432C716.229 203.432 717.069 203.048 717.621 202.304L719.973 204.032C718.917 205.448 717.213 206.24 715.293 206.24C712.077 206.24 709.245 203.888 709.245 200.36ZM724.162 200.024V206H721.234V188.696H724.162V196.52C724.666 195.176 726.538 194.552 727.642 194.552C730.546 194.552 732.154 196.472 732.154 199.76V206H729.226V199.904C729.226 198.296 728.05 197.408 726.85 197.408C725.626 197.408 724.162 198.08 724.162 200.024ZM737.024 194.792V206H734.12V194.792H737.024ZM733.688 190.448C733.688 189.464 734.552 188.696 735.584 188.696C736.616 188.696 737.432 189.464 737.432 190.448C737.432 191.48 736.616 192.224 735.584 192.224C734.552 192.224 733.688 191.48 733.688 190.448ZM742.059 200.024V206H739.131V194.792H742.059V196.448C742.707 195.224 744.075 194.552 745.395 194.552C748.011 194.552 749.571 196.184 749.571 199.376V206H746.643V199.904C746.643 198.272 745.779 197.408 744.507 197.408C743.163 197.408 742.059 198.08 742.059 200.024ZM759.972 200.384C759.972 198.464 758.532 197.36 756.924 197.36C755.292 197.36 753.9 198.56 753.9 200.384C753.9 202.256 755.292 203.456 756.924 203.456C758.436 203.456 759.972 202.28 759.972 200.384ZM753.66 207.08C754.14 208.208 755.46 208.928 756.636 208.928C759.468 208.928 760.236 206.816 760.044 204.464C759.468 205.592 757.908 206.24 756.468 206.24C753.54 206.24 750.852 203.984 750.852 200.432C750.852 196.832 753.54 194.552 756.468 194.552C757.932 194.552 759.396 195.176 760.044 196.304V194.792H762.9V204.392C762.9 209.384 760.524 211.592 756.636 211.592C754.308 211.592 752.268 210.32 751.284 208.28C751.932 207.968 753.012 207.392 753.66 207.08ZM778.245 198.344H775.245C773.085 198.344 772.341 200.024 772.461 201.08C772.629 202.496 773.613 203.384 775.245 203.384C776.781 203.384 778.245 202.304 778.245 200V198.344ZM774.909 206.24C771.717 206.24 769.365 204.128 769.365 201.248C769.365 199.232 770.277 197.72 772.005 196.976C770.973 196.472 770.229 195.32 770.229 193.784C770.229 191.432 772.173 189.464 774.861 189.344C776.781 189.272 778.389 190.184 779.349 191.552L776.877 193.064C776.493 192.56 775.965 192.176 775.221 192.176C773.997 192.176 773.349 193.064 773.349 193.952C773.349 194.408 773.661 195.968 775.341 195.968H778.245V194H780.981V195.968H782.973V198.344H780.981V201.08C780.981 202.928 781.317 203.648 783.309 203.648V206.24C781.005 206.216 779.541 205.808 778.965 204.272C778.269 205.52 776.373 206.24 774.909 206.24ZM802.454 200.984L806.006 189.464H809.342L803.726 206H801.254L798.71 196.616L796.214 206H793.718L788.15 189.464H791.462L794.99 200.984L797.51 191.768H799.958L802.454 200.984ZM812.788 194.792V206H809.884V194.792H812.788ZM809.452 190.448C809.452 189.464 810.316 188.696 811.348 188.696C812.38 188.696 813.196 189.464 813.196 190.448C813.196 191.48 812.38 192.224 811.348 192.224C810.316 192.224 809.452 191.48 809.452 190.448ZM817.823 202.04V206H814.895V194.792H817.823V197.432C818.399 195.392 819.719 194.552 820.991 194.552C821.783 194.552 822.383 194.696 822.839 194.96L822.335 197.6C821.639 197.288 820.919 197.288 820.631 197.288C818.639 197.288 817.823 199.064 817.823 202.04ZM830.594 188.696V191.504H829.37C828.002 191.504 827.546 192.536 827.546 193.904V194.792H829.922V197.144H827.546V206H824.594V197.144H822.458V194.792H824.594V193.904C824.594 190.616 826.202 188.696 829.37 188.696H830.594ZM833.868 202.04V206H830.94V194.792H833.868V197.432C834.444 195.392 835.764 194.552 837.036 194.552C837.828 194.552 838.428 194.696 838.884 194.96L838.38 197.6C837.684 197.288 836.964 197.288 836.676 197.288C834.684 197.288 833.868 199.064 833.868 202.04ZM847.869 206V204.56C847.173 205.712 845.469 206.216 844.389 206.216C841.437 206.216 838.677 203.96 838.677 200.384C838.677 196.808 841.437 194.552 844.389 194.552C845.421 194.552 847.029 194.96 847.869 196.184V194.792H850.797V206H847.869ZM841.701 200.384C841.701 202.208 843.165 203.408 844.797 203.408C846.405 203.408 847.869 202.304 847.869 200.384C847.869 198.464 846.333 197.36 844.797 197.36C843.165 197.36 841.701 198.56 841.701 200.384ZM865.467 197.408C864.123 197.408 863.187 198.296 863.187 200.024V206H860.259V199.832C860.235 198.272 859.347 197.408 858.195 197.408C856.995 197.408 855.843 198.104 855.843 200.024V206H852.915V194.792H855.843V196.448C856.491 195.08 857.979 194.576 859.059 194.576C860.859 194.672 861.987 195.296 862.635 196.664C863.667 194.792 865.299 194.552 866.163 194.552C868.875 194.552 870.483 196.304 870.483 199.592V206H867.579V199.904C867.579 198.272 866.691 197.408 865.467 197.408ZM875.362 194.792V206H872.458V194.792H875.362ZM872.026 190.448C872.026 189.464 872.89 188.696 873.922 188.696C874.954 188.696 875.77 189.464 875.77 190.448C875.77 191.48 874.954 192.224 873.922 192.224C872.89 192.224 872.026 191.48 872.026 190.448ZM880.397 200.024V206H877.469V194.792H880.397V196.448C881.045 195.224 882.413 194.552 883.733 194.552C886.349 194.552 887.909 196.184 887.909 199.376V206H884.981V199.904C884.981 198.272 884.117 197.408 882.845 197.408C881.501 197.408 880.397 198.08 880.397 200.024ZM898.31 200.384C898.31 198.464 896.87 197.36 895.262 197.36C893.63 197.36 892.238 198.56 892.238 200.384C892.238 202.256 893.63 203.456 895.262 203.456C896.774 203.456 898.31 202.28 898.31 200.384ZM891.998 207.08C892.478 208.208 893.798 208.928 894.974 208.928C897.806 208.928 898.574 206.816 898.382 204.464C897.806 205.592 896.246 206.24 894.806 206.24C891.878 206.24 889.19 203.984 889.19 200.432C889.19 196.832 891.878 194.552 894.806 194.552C896.27 194.552 897.734 195.176 898.382 196.304V194.792H901.238V204.392C901.238 209.384 898.862 211.592 894.974 211.592C892.646 211.592 890.606 210.32 889.622 208.28C890.27 207.968 891.35 207.392 891.998 207.08Z" fill="white"/>
<g filter="url(#filter2_d_536_6710)">
<rect x="343" y="440" width="225" height="128" rx="21.4461" fill="#0755E9"/>
</g>
<path d="M382.48 523.792L380.224 525.76C379.264 524.776 377.992 524.152 376.48 524.152C373.456 524.152 371.128 526.672 371.128 529.768C371.128 532.84 373.456 535.408 376.48 535.408C378.664 535.408 380.872 534.088 380.944 531.976H376.408V529.456H384.472C384.472 535.528 381.232 538.24 376.48 538.24C371.752 538.24 368.056 534.424 368.056 529.768C368.056 525.088 371.752 521.272 376.48 521.272C378.904 521.272 381.04 522.256 382.48 523.792ZM388.525 534.04V538H385.597V526.792H388.525V529.432C389.101 527.392 390.421 526.552 391.693 526.552C392.485 526.552 393.085 526.696 393.541 526.96L393.037 529.6C392.341 529.288 391.621 529.288 391.333 529.288C389.341 529.288 388.525 531.064 388.525 534.04ZM402.525 538V536.56C401.829 537.712 400.125 538.216 399.045 538.216C396.093 538.216 393.333 535.96 393.333 532.384C393.333 528.808 396.093 526.552 399.045 526.552C400.077 526.552 401.685 526.96 402.525 528.184V526.792H405.453V538H402.525ZM396.357 532.384C396.357 534.208 397.821 535.408 399.453 535.408C401.061 535.408 402.525 534.304 402.525 532.384C402.525 530.464 400.989 529.36 399.453 529.36C397.821 529.36 396.357 530.56 396.357 532.384ZM410.5 526.792V528.304C411.1 527.176 412.54 526.552 414.004 526.552C416.932 526.552 419.476 528.856 419.476 532.384C419.476 535.96 416.932 538.24 414.004 538.24C412.54 538.24 411.1 537.64 410.5 536.512V543.448H407.572V526.792H410.5ZM410.548 532.432C410.548 534.352 411.988 535.456 413.524 535.456C415.132 535.456 416.476 534.256 416.476 532.432C416.476 530.584 415.132 529.36 413.524 529.36C411.916 529.36 410.548 530.56 410.548 532.432ZM423.831 532.024V538H420.903V520.696H423.831V528.52C424.335 527.176 426.207 526.552 427.311 526.552C430.215 526.552 431.823 528.472 431.823 531.76V538H428.895V531.904C428.895 530.296 427.719 529.408 426.519 529.408C425.295 529.408 423.831 530.08 423.831 532.024ZM436.693 526.792V538H433.789V526.792H436.693ZM433.357 522.448C433.357 521.464 434.221 520.696 435.253 520.696C436.285 520.696 437.101 521.464 437.101 522.448C437.101 523.48 436.285 524.224 435.253 524.224C434.221 524.224 433.357 523.48 433.357 522.448ZM438.08 532.36C438.08 528.808 440.912 526.552 444.128 526.552C446.024 526.552 447.728 527.32 448.784 528.736L446.456 530.488C445.904 529.744 445.064 529.384 444.128 529.384C442.496 529.384 440.984 530.536 440.984 532.36C440.984 534.184 442.496 535.432 444.128 535.432C445.064 535.432 445.904 535.048 446.456 534.304L448.808 536.032C447.752 537.448 446.048 538.24 444.128 538.24C440.912 538.24 438.08 535.888 438.08 532.36ZM455.23 538V521.464H458.278V538H455.23ZM463.721 532.024V538H460.793V526.792H463.721V528.448C464.369 527.224 465.737 526.552 467.057 526.552C469.673 526.552 471.233 528.184 471.233 531.376V538H468.305V531.904C468.305 530.272 467.441 529.408 466.169 529.408C464.825 529.408 463.721 530.08 463.721 532.024ZM477.051 522.52V526.792H479.427V529.144H477.051V538H474.147V529.144H472.107V526.792H474.147V522.52H477.051ZM491.084 532.36C491.084 532.648 491.06 533.104 491.036 533.368H482.492C482.684 534.88 483.932 535.768 485.588 535.768C486.716 535.768 487.844 535.288 488.396 534.328C489.092 534.712 489.884 535.144 490.628 535.528C489.596 537.448 487.46 538.24 485.396 538.24C482.204 538.24 479.588 535.888 479.588 532.36C479.588 528.808 482.204 526.552 485.396 526.552C488.564 526.552 491.084 528.808 491.084 532.36ZM482.468 531.376H488.228C488.012 529.84 486.86 529 485.42 529C483.884 529 482.684 529.84 482.468 531.376ZM495.278 534.04V538H492.35V526.792H495.278V529.432C495.854 527.392 497.174 526.552 498.446 526.552C499.238 526.552 499.838 526.696 500.294 526.96L499.79 529.6C499.094 529.288 498.374 529.288 498.086 529.288C496.094 529.288 495.278 531.064 495.278 534.04ZM508.049 520.696V523.504H506.825C505.457 523.504 505.001 524.536 505.001 525.904V526.792H507.377V529.144H505.001V538H502.049V529.144H499.913V526.792H502.049V525.904C502.049 522.616 503.657 520.696 506.825 520.696H508.049ZM516.75 538V536.56C516.054 537.712 514.35 538.216 513.27 538.216C510.318 538.216 507.558 535.96 507.558 532.384C507.558 528.808 510.318 526.552 513.27 526.552C514.302 526.552 515.91 526.96 516.75 528.184V526.792H519.678V538H516.75ZM510.582 532.384C510.582 534.208 512.046 535.408 513.678 535.408C515.286 535.408 516.75 534.304 516.75 532.384C516.75 530.464 515.214 529.36 513.678 529.36C512.046 529.36 510.582 530.56 510.582 532.384ZM521.077 532.36C521.077 528.808 523.909 526.552 527.125 526.552C529.021 526.552 530.725 527.32 531.781 528.736L529.453 530.488C528.901 529.744 528.061 529.384 527.125 529.384C525.493 529.384 523.981 530.536 523.981 532.36C523.981 534.184 525.493 535.432 527.125 535.432C528.061 535.432 528.901 535.048 529.453 534.304L531.805 536.032C530.749 537.448 529.045 538.24 527.125 538.24C523.909 538.24 521.077 535.888 521.077 532.36ZM543.701 532.36C543.701 532.648 543.677 533.104 543.653 533.368H535.109C535.301 534.88 536.549 535.768 538.205 535.768C539.333 535.768 540.461 535.288 541.013 534.328C541.709 534.712 542.501 535.144 543.245 535.528C542.213 537.448 540.077 538.24 538.013 538.24C534.821 538.24 532.205 535.888 532.205 532.36C532.205 528.808 534.821 526.552 538.013 526.552C541.181 526.552 543.701 528.808 543.701 532.36ZM535.085 531.376H540.845C540.629 529.84 539.477 529 538.037 529C536.501 529 535.301 529.84 535.085 531.376Z" fill="white"/>
<path d="M380 477V490" stroke="white" stroke-width="2" stroke-linecap="round" stroke-linejoin="round"/>
<path d="M371 477H395" stroke="white" stroke-width="2" stroke-linecap="round" stroke-linejoin="round"/>
<path d="M394 470H372C371.448 470 371 470.448 371 471V489C371 489.552 371.448 490 372 490H394C394.552 490 395 489.552 395 489V471C395 470.448 394.552 470 394 470Z" stroke="white" stroke-width="2" stroke-linecap="round" stroke-linejoin="round"/>
<g filter="url(#filter3_d_536_6710)">
<rect x="946" y="440" width="178" height="128" rx="21.4461" fill="#0755E9"/>
</g>
<path d="M978.184 535.336C979.84 535.336 981.376 534.088 981.376 532.168V521.464H984.448V532.168C984.448 535.864 981.544 538.24 978.184 538.24C974.8 538.24 971.896 535.864 971.896 532.168V521.464H975.016V532.168C975.016 534.088 976.528 535.336 978.184 535.336ZM987.2 538V521.464H990.248V538H987.2ZM1011.34 523.792L1009.08 525.76C1008.12 524.776 1006.85 524.152 1005.34 524.152C1002.32 524.152 999.989 526.672 999.989 529.768C999.989 532.84 1002.32 535.408 1005.34 535.408C1007.52 535.408 1009.73 534.088 1009.8 531.976H1005.27V529.456H1013.33C1013.33 535.528 1010.09 538.24 1005.34 538.24C1000.61 538.24 996.917 534.424 996.917 529.768C996.917 525.088 1000.61 521.272 1005.34 521.272C1007.76 521.272 1009.9 522.256 1011.34 523.792ZM1021.83 532.768V526.792H1024.75V538H1021.83V536.416C1021.2 537.616 1019.86 538.24 1018.73 538.24C1016.07 538.24 1014.31 536.584 1014.31 533.416V526.792H1017.27V532.888C1017.27 534.712 1018.37 535.384 1019.4 535.384C1020.63 535.384 1021.83 534.712 1021.83 532.768ZM1029.78 526.792V538H1026.87V526.792H1029.78ZM1026.44 522.448C1026.44 521.464 1027.31 520.696 1028.34 520.696C1029.37 520.696 1030.19 521.464 1030.19 522.448C1030.19 523.48 1029.37 524.224 1028.34 524.224C1027.31 524.224 1026.44 523.48 1026.44 522.448ZM1040.21 538V536.488C1039.57 537.616 1038.15 538.24 1036.69 538.24C1033.73 538.24 1031.19 535.96 1031.19 532.408C1031.19 528.832 1033.73 526.552 1036.69 526.552C1038.2 526.552 1039.57 527.152 1040.21 528.28V520.696H1043.12V538H1040.21ZM1040.17 532.36C1040.17 530.44 1038.7 529.336 1037.17 529.336C1035.53 529.336 1034.21 530.536 1034.21 532.36C1034.21 534.208 1035.53 535.432 1037.17 535.432C1038.77 535.432 1040.17 534.232 1040.17 532.36ZM1056.04 532.36C1056.04 532.648 1056.02 533.104 1055.99 533.368H1047.45C1047.64 534.88 1048.89 535.768 1050.54 535.768C1051.67 535.768 1052.8 535.288 1053.35 534.328C1054.05 534.712 1054.84 535.144 1055.58 535.528C1054.55 537.448 1052.42 538.24 1050.35 538.24C1047.16 538.24 1044.54 535.888 1044.54 532.36C1044.54 528.808 1047.16 526.552 1050.35 526.552C1053.52 526.552 1056.04 528.808 1056.04 532.36ZM1047.42 531.376H1053.18C1052.97 529.84 1051.82 529 1050.38 529C1048.84 529 1047.64 529.84 1047.42 531.376ZM1057.31 538V520.696H1060.23V538H1057.31ZM1065.24 526.792V538H1062.34V526.792H1065.24ZM1061.91 522.448C1061.91 521.464 1062.77 520.696 1063.8 520.696C1064.84 520.696 1065.65 521.464 1065.65 522.448C1065.65 523.48 1064.84 524.224 1063.8 524.224C1062.77 524.224 1061.91 523.48 1061.91 522.448ZM1070.28 532.024V538H1067.35V526.792H1070.28V528.448C1070.93 527.224 1072.3 526.552 1073.62 526.552C1076.23 526.552 1077.79 528.184 1077.79 531.376V538H1074.86V531.904C1074.86 530.272 1074 529.408 1072.73 529.408C1071.38 529.408 1070.28 530.08 1070.28 532.024ZM1090.57 532.36C1090.57 532.648 1090.54 533.104 1090.52 533.368H1081.98C1082.17 534.88 1083.42 535.768 1085.07 535.768C1086.2 535.768 1087.33 535.288 1087.88 534.328C1088.58 534.712 1089.37 535.144 1090.11 535.528C1089.08 537.448 1086.94 538.24 1084.88 538.24C1081.69 538.24 1079.07 535.888 1079.07 532.36C1079.07 528.808 1081.69 526.552 1084.88 526.552C1088.05 526.552 1090.57 528.808 1090.57 532.36ZM1081.95 531.376H1087.71C1087.5 529.84 1086.34 529 1084.9 529C1083.37 529 1082.17 529.84 1081.95 531.376ZM1096.08 533.704L1094.55 533.32C1091.64 532.552 1091.38 531.184 1091.38 529.888C1091.38 528.064 1093.3 526.552 1095.51 526.552C1097.64 526.552 1099.75 527.512 1099.87 530.08H1097.09C1097.02 529.24 1096.25 528.928 1095.58 528.928C1094.83 528.928 1094.16 529.192 1094.16 530.032C1094.16 530.488 1094.69 530.8 1095.34 530.968L1097.21 531.424C1099.8 532.144 1100.14 533.872 1100.14 534.784C1100.14 537.088 1097.88 538.24 1095.55 538.24C1093.35 538.24 1091.11 536.872 1091.04 534.472H1093.78C1093.85 535.264 1094.76 535.96 1095.84 535.888C1096.68 535.864 1097.31 535.408 1097.31 534.76C1097.33 534.184 1096.92 533.896 1096.08 533.704Z" fill="white"/>
<path d="M986 475C986 473.939 986.421 472.922 987.172 472.172C987.922 471.421 988.939 471 990 471H998C998.265 471 998.52 471.105 998.707 471.293C998.895 471.48 999 471.735 999 472V488C999 488.265 998.895 488.52 998.707 488.707C998.52 488.895 998.265 489 998 489H990C988.939 489 987.922 489.421 987.172 490.172C986.421 490.922 986 491.939 986 493" stroke="white" stroke-width="2" stroke-linecap="round" stroke-linejoin="round"/>
<path d="M973 488C973 488.265 973.105 488.52 973.293 488.707C973.48 488.895 973.735 489 974 489H982C983.061 489 984.078 489.421 984.828 490.172C985.579 490.922 986 491.939 986 493V475C986 473.939 985.579 472.922 984.828 472.172C984.078 471.421 983.061 471 982 471H974C973.735 471 973.48 471.105 973.293 471.293C973.105 471.48 973 471.735 973 472V488Z" stroke="white" stroke-width="2" stroke-linecap="round" stroke-linejoin="round"/>
<g filter="url(#filter4_d_536_6710)">
<rect x="1182" y="372" width="193" height="128" rx="21.4461" fill="#1B232E"/>
</g>
<path d="M1211.14 456.272V467.192H1214.52C1217.45 467.192 1218.91 464.744 1218.91 461.768C1218.91 458.768 1217.45 456.272 1214.52 456.272H1211.14ZM1214.52 470H1208.06V453.464H1214.52C1219.25 453.464 1221.98 457.064 1221.98 461.768C1221.98 466.472 1219.25 470 1214.52 470ZM1234.27 464.36C1234.27 464.648 1234.25 465.104 1234.22 465.368H1225.68C1225.87 466.88 1227.12 467.768 1228.78 467.768C1229.9 467.768 1231.03 467.288 1231.58 466.328C1232.28 466.712 1233.07 467.144 1233.82 467.528C1232.78 469.448 1230.65 470.24 1228.58 470.24C1225.39 470.24 1222.78 467.888 1222.78 464.36C1222.78 460.808 1225.39 458.552 1228.58 458.552C1231.75 458.552 1234.27 460.808 1234.27 464.36ZM1225.66 463.376H1231.42C1231.2 461.84 1230.05 461 1228.61 461C1227.07 461 1225.87 461.84 1225.66 463.376ZM1239.79 465.704L1238.25 465.32C1235.35 464.552 1235.08 463.184 1235.08 461.888C1235.08 460.064 1237 458.552 1239.21 458.552C1241.35 458.552 1243.46 459.512 1243.58 462.08H1240.79C1240.72 461.24 1239.95 460.928 1239.28 460.928C1238.54 460.928 1237.87 461.192 1237.87 462.032C1237.87 462.488 1238.39 462.8 1239.04 462.968L1240.91 463.424C1243.51 464.144 1243.84 465.872 1243.84 466.784C1243.84 469.088 1241.59 470.24 1239.26 470.24C1237.05 470.24 1234.82 468.872 1234.75 466.472H1237.48C1237.55 467.264 1238.47 467.96 1239.55 467.888C1240.39 467.864 1241.01 467.408 1241.01 466.76C1241.03 466.184 1240.63 465.896 1239.79 465.704ZM1248.14 458.792V470H1245.24V458.792H1248.14ZM1244.8 454.448C1244.8 453.464 1245.67 452.696 1246.7 452.696C1247.73 452.696 1248.55 453.464 1248.55 454.448C1248.55 455.48 1247.73 456.224 1246.7 456.224C1245.67 456.224 1244.8 455.48 1244.8 454.448ZM1258.67 464.384C1258.67 462.464 1257.23 461.36 1255.62 461.36C1253.99 461.36 1252.6 462.56 1252.6 464.384C1252.6 466.256 1253.99 467.456 1255.62 467.456C1257.13 467.456 1258.67 466.28 1258.67 464.384ZM1252.36 471.08C1252.84 472.208 1254.16 472.928 1255.33 472.928C1258.17 472.928 1258.93 470.816 1258.74 468.464C1258.17 469.592 1256.61 470.24 1255.17 470.24C1252.24 470.24 1249.55 467.984 1249.55 464.432C1249.55 460.832 1252.24 458.552 1255.17 458.552C1256.63 458.552 1258.09 459.176 1258.74 460.304V458.792H1261.6V468.392C1261.6 473.384 1259.22 475.592 1255.33 475.592C1253.01 475.592 1250.97 474.32 1249.98 472.28C1250.63 471.968 1251.71 471.392 1252.36 471.08ZM1266.65 464.024V470H1263.72V458.792H1266.65V460.448C1267.29 459.224 1268.66 458.552 1269.98 458.552C1272.6 458.552 1274.16 460.184 1274.16 463.376V470H1271.23V463.904C1271.23 462.272 1270.37 461.408 1269.09 461.408C1267.75 461.408 1266.65 462.08 1266.65 464.024ZM1287.78 456.2H1284.37V461.384H1287.68C1289.31 461.384 1290.01 460.04 1290.01 458.816C1290.01 457.616 1289.31 456.2 1287.78 456.2ZM1289 464L1293.22 470H1289.53L1285.64 464.12H1284.37V470H1281.3V453.464H1287.92C1291.57 453.464 1293.2 456.128 1293.2 458.816C1293.2 461.168 1291.95 463.544 1289 464ZM1305.16 464.36C1305.16 464.648 1305.14 465.104 1305.11 465.368H1296.57C1296.76 466.88 1298.01 467.768 1299.66 467.768C1300.79 467.768 1301.92 467.288 1302.47 466.328C1303.17 466.712 1303.96 467.144 1304.7 467.528C1303.67 469.448 1301.54 470.24 1299.47 470.24C1296.28 470.24 1293.66 467.888 1293.66 464.36C1293.66 460.808 1296.28 458.552 1299.47 458.552C1302.64 458.552 1305.16 460.808 1305.16 464.36ZM1296.54 463.376H1302.3C1302.09 461.84 1300.94 461 1299.5 461C1297.96 461 1296.76 461.84 1296.54 463.376ZM1309.5 470L1304.8 458.792H1307.92L1310.8 466.256L1313.68 458.792H1316.82L1312.09 470H1309.5ZM1320.36 458.792V470H1317.46V458.792H1320.36ZM1317.03 454.448C1317.03 453.464 1317.89 452.696 1318.92 452.696C1319.96 452.696 1320.77 453.464 1320.77 454.448C1320.77 455.48 1319.96 456.224 1318.92 456.224C1317.89 456.224 1317.03 455.48 1317.03 454.448ZM1333.27 464.36C1333.27 464.648 1333.25 465.104 1333.22 465.368H1324.68C1324.87 466.88 1326.12 467.768 1327.78 467.768C1328.9 467.768 1330.03 467.288 1330.58 466.328C1331.28 466.712 1332.07 467.144 1332.82 467.528C1331.78 469.448 1329.65 470.24 1327.58 470.24C1324.39 470.24 1321.78 467.888 1321.78 464.36C1321.78 460.808 1324.39 458.552 1327.58 458.552C1330.75 458.552 1333.27 460.808 1333.27 464.36ZM1324.66 463.376H1330.42C1330.2 461.84 1329.05 461 1327.61 461C1326.07 461 1324.87 461.84 1324.66 463.376ZM1350.96 458.792L1346.95 470H1344.5L1342 462.488L1339.58 470H1337.16L1333.03 458.792H1336.15L1338.43 465.872L1340.68 458.792H1343.28L1345.56 465.872L1347.84 458.792H1350.96Z" fill="white"/>
<path d="M1220.5 421C1226.3 421 1231 416.299 1231 410.5C1231 404.701 1226.3 400 1220.5 400C1214.7 400 1210 404.701 1210 410.5C1210 416.299 1214.7 421 1220.5 421Z" stroke="white" stroke-width="2" stroke-linecap="round" stroke-linejoin="round"/>
<path d="M1227.93 417.925L1234 424" stroke="white" stroke-width="2" stroke-linecap="round" stroke-linejoin="round"/>
<g filter="url(#filter5_d_536_6710)">
<rect x="1258" y="108" width="117" height="128" rx="21.4461" fill="#0755E9"/>
</g>
<path d="M1284.06 206V189.464H1294.29V192.2H1287.11V196.496H1293.4V199.208H1287.11V203.264H1294.53V206H1284.06ZM1304.24 206V204.488C1303.59 205.616 1302.17 206.24 1300.71 206.24C1297.76 206.24 1295.21 203.96 1295.21 200.408C1295.21 196.832 1297.76 194.552 1300.71 194.552C1302.22 194.552 1303.59 195.152 1304.24 196.28V188.696H1307.14V206H1304.24ZM1304.19 200.36C1304.19 198.44 1302.73 197.336 1301.19 197.336C1299.56 197.336 1298.24 198.536 1298.24 200.36C1298.24 202.208 1299.56 203.432 1301.19 203.432C1302.8 203.432 1304.19 202.232 1304.19 200.36ZM1312.17 194.792V206H1309.26V194.792H1312.17ZM1308.83 190.448C1308.83 189.464 1309.7 188.696 1310.73 188.696C1311.76 188.696 1312.58 189.464 1312.58 190.448C1312.58 191.48 1311.76 192.224 1310.73 192.224C1309.7 192.224 1308.83 191.48 1308.83 190.448ZM1318.11 190.52V194.792H1320.49V197.144H1318.11V206H1315.21V197.144H1313.17V194.792H1315.21V190.52H1318.11ZM1324.39 194.792V206H1321.49V194.792H1324.39ZM1321.06 190.448C1321.06 189.464 1321.92 188.696 1322.95 188.696C1323.98 188.696 1324.8 189.464 1324.8 190.448C1324.8 191.48 1323.98 192.224 1322.95 192.224C1321.92 192.224 1321.06 191.48 1321.06 190.448ZM1329.43 200.024V206H1326.5V194.792H1329.43V196.448C1330.08 195.224 1331.44 194.552 1332.76 194.552C1335.38 194.552 1336.94 196.184 1336.94 199.376V206H1334.01V199.904C1334.01 198.272 1333.15 197.408 1331.88 197.408C1330.53 197.408 1329.43 198.08 1329.43 200.024ZM1347.34 200.384C1347.34 198.464 1345.9 197.36 1344.29 197.36C1342.66 197.36 1341.27 198.56 1341.27 200.384C1341.27 202.256 1342.66 203.456 1344.29 203.456C1345.8 203.456 1347.34 202.28 1347.34 200.384ZM1341.03 207.08C1341.51 208.208 1342.83 208.928 1344 208.928C1346.84 208.928 1347.6 206.816 1347.41 204.464C1346.84 205.592 1345.28 206.24 1343.84 206.24C1340.91 206.24 1338.22 203.984 1338.22 200.432C1338.22 196.832 1340.91 194.552 1343.84 194.552C1345.3 194.552 1346.76 195.176 1347.41 196.304V194.792H1350.27V204.392C1350.27 209.384 1347.89 211.592 1344 211.592C1341.68 211.592 1339.64 210.32 1338.65 208.28C1339.3 207.968 1340.38 207.392 1341.03 207.08Z" fill="white"/>
<path d="M1284 142H1295" stroke="white" stroke-width="2" stroke-linecap="round" stroke-linejoin="round"/>
<path d="M1301 142H1312" stroke="white" stroke-width="2" stroke-linecap="round" stroke-linejoin="round"/>
<path d="M1298 145C1299.66 145 1301 143.657 1301 142C1301 140.343 1299.66 139 1298 139C1296.34 139 1295 140.343 1295 142C1295 143.657 1296.34 145 1298 145Z" stroke="white" stroke-width="2" stroke-linecap="round" stroke-linejoin="round"/>
<path d="M1287 157C1288.66 157 1290 155.657 1290 154C1290 152.343 1288.66 151 1287 151C1285.34 151 1284 152.343 1284 154C1284 155.657 1285.34 157 1287 157Z" stroke="white" stroke-width="2" stroke-linecap="round" stroke-linejoin="round"/>
<path d="M1309 157C1310.66 157 1312 155.657 1312 154C1312 152.343 1310.66 151 1309 151C1307.34 151 1306 152.343 1306 154C1306 155.657 1307.34 157 1309 157Z" stroke="white" stroke-width="2" stroke-linecap="round" stroke-linejoin="round"/>
<path d="M1300.97 142.412C1302.95 142.968 1304.74 144.067 1306.13 145.585C1307.51 147.103 1308.45 148.978 1308.82 151" stroke="white" stroke-width="2" stroke-linecap="round" stroke-linejoin="round"/>
<path d="M1287.18 151C1287.55 148.978 1288.49 147.103 1289.87 145.585C1291.26 144.067 1293.05 142.968 1295.03 142.412" stroke="white" stroke-width="2" stroke-linecap="round" stroke-linejoin="round"/>
<path d="M258 232H232.5C225.873 232 220.5 226.627 220.5 220L220.5 188C220.5 181.373 215.127 176 208.5 176H183" stroke="#0755E9" stroke-width="2" stroke-linecap="round"/>
<path d="M257 232L254 232" stroke="#0755E9" stroke-width="2" stroke-linecap="round"/>
<path d="M250 240L258 232L250 224" stroke="#0755E9" stroke-width="2" stroke-linecap="round" stroke-linejoin="round"/>
<rect opacity="0.4" x="203" y="156" width="40" height="40" rx="20" transform="rotate(90 203 156)" fill="#0755E9"/>
<rect x="202" y="157" width="38" height="38" rx="19" transform="rotate(90 202 157)" stroke="#0755E9" stroke-width="2"/>
<circle cx="183" cy="176" r="4.5" transform="rotate(90 183 176)" fill="white" stroke="#0755E9" stroke-width="3"/>
<path d="M335 496H321.5C314.873 496 309.5 490.627 309.5 484L309.5 452C309.5 445.373 304.127 440 297.5 440H284" stroke="#0755E9" stroke-width="2" stroke-linecap="round"/>
<path d="M334 496L331 496" stroke="#0755E9" stroke-width="2" stroke-linecap="round"/>
<path d="M327 504L335 496L327 488" stroke="#0755E9" stroke-width="2" stroke-linecap="round" stroke-linejoin="round"/>
<rect opacity="0.4" x="304" y="420" width="40" height="40" rx="20" transform="rotate(90 304 420)" fill="#0755E9"/>
<rect x="303" y="421" width="38" height="38" rx="19" transform="rotate(90 303 421)" stroke="#0755E9" stroke-width="2"/>
<circle cx="284" cy="440" r="4.5" transform="rotate(90 284 440)" fill="white" stroke="#0755E9" stroke-width="3"/>
<path d="M938 496H925C918.373 496 913 490.627 913 484L913 452C913 445.373 907.627 440 901 440H888" stroke="#0755E9" stroke-width="2" stroke-linecap="round"/>
<path d="M937 496L934 496" stroke="#0755E9" stroke-width="2" stroke-linecap="round"/>
<path d="M930 504L938 496L930 488" stroke="#0755E9" stroke-width="2" stroke-linecap="round" stroke-linejoin="round"/>
<rect opacity="0.4" x="908" y="420" width="40" height="40" rx="20" transform="rotate(90 908 420)" fill="#0755E9"/>
<rect x="907" y="421" width="38" height="38" rx="19" transform="rotate(90 907 421)" stroke="#0755E9" stroke-width="2"/>
<circle cx="888" cy="440" r="4.5" transform="rotate(90 888 440)" fill="white" stroke="#0755E9" stroke-width="3"/>
<path d="M1002 232H976.5C969.873 232 964.5 226.627 964.5 220L964.5 188C964.5 181.373 959.127 176 952.5 176H927" stroke="#0755E9" stroke-width="2" stroke-linecap="round"/>
<path d="M1001 232L998 232" stroke="#0755E9" stroke-width="2" stroke-linecap="round"/>
<path d="M994 240L1002 232L994 224" stroke="#0755E9" stroke-width="2" stroke-linecap="round" stroke-linejoin="round"/>
<rect opacity="0.4" x="947" y="156" width="40" height="40" rx="20" transform="rotate(90 947 156)" fill="#0755E9"/>
<rect x="946" y="157" width="38" height="38" rx="19" transform="rotate(90 946 157)" stroke="#0755E9" stroke-width="2"/>
<circle cx="927" cy="176" r="4.5" transform="rotate(90 927 176)" fill="white" stroke="#0755E9" stroke-width="3"/>
<path d="M634 164H608.5C601.873 164 596.5 169.373 596.5 176L596.5 232C596.5 238.627 591.127 244 584.5 244H559" stroke="#0755E9" stroke-width="2" stroke-linecap="round"/>
<path d="M633 164L630 164" stroke="#0755E9" stroke-width="2" stroke-linecap="round"/>
<path d="M626 156L634 164L626 172" stroke="#0755E9" stroke-width="2" stroke-linecap="round" stroke-linejoin="round"/>
<rect opacity="0.4" width="40" height="40" rx="20" transform="matrix(0 -1 -1 0 579 264)" fill="#0755E9"/>
<rect x="-1" y="-1" width="38" height="38" rx="19" transform="matrix(0 -1 -1 0 577 262)" stroke="#0755E9" stroke-width="2"/>
<circle cx="6" cy="6" r="4.5" transform="matrix(0 -1 -1 0 565 250)" fill="white" stroke="#0755E9" stroke-width="3"/>
<path d="M618 428H605C598.373 428 593 433.373 593 440L593 496C593 502.627 587.627 508 581 508H568" stroke="#0755E9" stroke-width="2" stroke-linecap="round"/>
<path d="M617 428L614 428" stroke="#0755E9" stroke-width="2" stroke-linecap="round"/>
<path d="M610 420L618 428L610 436" stroke="#0755E9" stroke-width="2" stroke-linecap="round" stroke-linejoin="round"/>
<rect opacity="0.4" width="40" height="40" rx="20" transform="matrix(0 -1 -1 0 588 528)" fill="#0755E9"/>
<rect x="-1" y="-1" width="38" height="38" rx="19" transform="matrix(0 -1 -1 0 586 526)" stroke="#0755E9" stroke-width="2"/>
<circle cx="6" cy="6" r="4.5" transform="matrix(0 -1 -1 0 574 514)" fill="white" stroke="#0755E9" stroke-width="3"/>
<path d="M1174 428H1161C1154.37 428 1149 433.373 1149 440L1149 496C1149 502.627 1143.63 508 1137 508H1124" stroke="#0755E9" stroke-width="2" stroke-linecap="round"/>
<path d="M1173 428L1170 428" stroke="#0755E9" stroke-width="2" stroke-linecap="round"/>
<path d="M1166 420L1174 428L1166 436" stroke="#0755E9" stroke-width="2" stroke-linecap="round" stroke-linejoin="round"/>
<rect opacity="0.4" width="40" height="40" rx="20" transform="matrix(0 -1 -1 0 1144 528)" fill="#0755E9"/>
<rect x="-1" y="-1" width="38" height="38" rx="19" transform="matrix(0 -1 -1 0 1142 526)" stroke="#0755E9" stroke-width="2"/>
<circle cx="6" cy="6" r="4.5" transform="matrix(0 -1 -1 0 1130 514)" fill="white" stroke="#0755E9" stroke-width="3"/>
<path d="M1250 164H1224C1217.37 164 1212 169.373 1212 176L1212 232C1212 238.627 1206.63 244 1200 244H1174" stroke="#0755E9" stroke-width="2" stroke-linecap="round"/>
<path d="M1249 164L1246 164" stroke="#0755E9" stroke-width="2" stroke-linecap="round"/>
<path d="M1242 156L1250 164L1242 172" stroke="#0755E9" stroke-width="2" stroke-linecap="round" stroke-linejoin="round"/>
<rect opacity="0.4" width="40" height="40" rx="20" transform="matrix(0 -1 -1 0 1194 264)" fill="#0755E9"/>
<rect x="-1" y="-1" width="38" height="38" rx="19" transform="matrix(0 -1 -1 0 1192 262)" stroke="#0755E9" stroke-width="2"/>
<circle cx="6" cy="6" r="4.5" transform="matrix(0 -1 -1 0 1180 250)" fill="white" stroke="#0755E9" stroke-width="3"/>
<g filter="url(#filter6_d_536_6710)">
<rect x="266" y="176" width="293" height="128" rx="21.4461" fill="#1B232E"/>
</g>
<path d="M292.064 274V257.464H295.112V274H292.064ZM300.556 268.024V274H297.628V262.792H300.556V264.448C301.204 263.224 302.572 262.552 303.892 262.552C306.508 262.552 308.068 264.184 308.068 267.376V274H305.14V267.904C305.14 266.272 304.276 265.408 303.004 265.408C301.66 265.408 300.556 266.08 300.556 268.024ZM317.077 256.696V259.504H315.853C314.485 259.504 314.029 260.536 314.029 261.904V262.792H316.405V265.144H314.029V274H311.077V265.144H308.941V262.792H311.077V261.904C311.077 258.616 312.685 256.696 315.853 256.696H317.077ZM322.419 271.36C324.051 271.36 325.347 270.184 325.347 268.36C325.347 266.56 324.051 265.432 322.419 265.432C320.787 265.432 319.491 266.56 319.491 268.36C319.491 270.184 320.787 271.36 322.419 271.36ZM322.419 274.216C319.251 274.216 316.587 271.888 316.587 268.36C316.587 264.808 319.251 262.552 322.419 262.552C325.587 262.552 328.251 264.808 328.251 268.36C328.251 271.888 325.587 274.216 322.419 274.216ZM332.604 270.04V274H329.676V262.792H332.604V265.432C333.18 263.392 334.5 262.552 335.772 262.552C336.564 262.552 337.164 262.696 337.62 262.96L337.116 265.6C336.42 265.288 335.7 265.288 335.412 265.288C333.42 265.288 332.604 267.064 332.604 270.04ZM350.896 265.408C349.552 265.408 348.616 266.296 348.616 268.024V274H345.688V267.832C345.664 266.272 344.776 265.408 343.624 265.408C342.424 265.408 341.272 266.104 341.272 268.024V274H338.344V262.792H341.272V264.448C341.92 263.08 343.408 262.576 344.488 262.576C346.288 262.672 347.416 263.296 348.064 264.664C349.096 262.792 350.728 262.552 351.592 262.552C354.304 262.552 355.912 264.304 355.912 267.592V274H353.008V267.904C353.008 266.272 352.12 265.408 350.896 265.408ZM366.382 274V272.56C365.686 273.712 363.982 274.216 362.902 274.216C359.95 274.216 357.19 271.96 357.19 268.384C357.19 264.808 359.95 262.552 362.902 262.552C363.934 262.552 365.542 262.96 366.382 264.184V262.792H369.31V274H366.382ZM360.214 268.384C360.214 270.208 361.678 271.408 363.31 271.408C364.918 271.408 366.382 270.304 366.382 268.384C366.382 266.464 364.846 265.36 363.31 265.36C361.678 265.36 360.214 266.56 360.214 268.384ZM375.268 258.52V262.792H377.644V265.144H375.268V274H372.364V265.144H370.324V262.792H372.364V258.52H375.268ZM381.546 262.792V274H378.642V262.792H381.546ZM378.21 258.448C378.21 257.464 379.074 256.696 380.106 256.696C381.138 256.696 381.954 257.464 381.954 258.448C381.954 259.48 381.138 260.224 380.106 260.224C379.074 260.224 378.21 259.48 378.21 258.448ZM388.789 271.36C390.421 271.36 391.717 270.184 391.717 268.36C391.717 266.56 390.421 265.432 388.789 265.432C387.157 265.432 385.861 266.56 385.861 268.36C385.861 270.184 387.157 271.36 388.789 271.36ZM388.789 274.216C385.621 274.216 382.957 271.888 382.957 268.36C382.957 264.808 385.621 262.552 388.789 262.552C391.957 262.552 394.621 264.808 394.621 268.36C394.621 271.888 391.957 274.216 388.789 274.216ZM398.975 268.024V274H396.047V262.792H398.975V264.448C399.623 263.224 400.991 262.552 402.311 262.552C404.927 262.552 406.487 264.184 406.487 267.376V274H403.559V267.904C403.559 266.272 402.695 265.408 401.423 265.408C400.079 265.408 398.975 266.08 398.975 268.024ZM424.017 274L422.505 269.992H416.337L414.825 274H411.561L417.753 257.464H421.065L427.257 274H424.017ZM419.409 260.992L417.369 267.304H421.497L419.409 260.992ZM430.648 270.04V274H427.72V262.792H430.648V265.432C431.224 263.392 432.544 262.552 433.816 262.552C434.608 262.552 435.208 262.696 435.664 262.96L435.16 265.6C434.464 265.288 433.744 265.288 433.456 265.288C431.464 265.288 430.648 267.064 430.648 270.04ZM435.433 268.36C435.433 264.808 438.265 262.552 441.481 262.552C443.377 262.552 445.081 263.32 446.137 264.736L443.809 266.488C443.257 265.744 442.417 265.384 441.481 265.384C439.849 265.384 438.337 266.536 438.337 268.36C438.337 270.184 439.849 271.432 441.481 271.432C442.417 271.432 443.257 271.048 443.809 270.304L446.161 272.032C445.105 273.448 443.401 274.24 441.481 274.24C438.265 274.24 435.433 271.888 435.433 268.36ZM450.35 268.024V274H447.422V256.696H450.35V264.52C450.854 263.176 452.726 262.552 453.83 262.552C456.734 262.552 458.342 264.472 458.342 267.76V274H455.414V267.904C455.414 266.296 454.238 265.408 453.038 265.408C451.814 265.408 450.35 266.08 450.35 268.024ZM463.212 262.792V274H460.308V262.792H463.212ZM459.876 258.448C459.876 257.464 460.74 256.696 461.772 256.696C462.804 256.696 463.62 257.464 463.62 258.448C463.62 259.48 462.804 260.224 461.772 260.224C460.74 260.224 459.876 259.48 459.876 258.448ZM469.159 258.52V262.792H471.535V265.144H469.159V274H466.255V265.144H464.215V262.792H466.255V258.52H469.159ZM483.192 268.36C483.192 268.648 483.168 269.104 483.144 269.368H474.6C474.792 270.88 476.04 271.768 477.696 271.768C478.824 271.768 479.952 271.288 480.504 270.328C481.2 270.712 481.992 271.144 482.736 271.528C481.704 273.448 479.568 274.24 477.504 274.24C474.312 274.24 471.696 271.888 471.696 268.36C471.696 264.808 474.312 262.552 477.504 262.552C480.672 262.552 483.192 264.808 483.192 268.36ZM474.576 267.376H480.336C480.12 265.84 478.968 265 477.528 265C475.992 265 474.792 265.84 474.576 267.376ZM483.738 268.36C483.738 264.808 486.57 262.552 489.786 262.552C491.682 262.552 493.386 263.32 494.442 264.736L492.114 266.488C491.562 265.744 490.722 265.384 489.786 265.384C488.154 265.384 486.642 266.536 486.642 268.36C486.642 270.184 488.154 271.432 489.786 271.432C490.722 271.432 491.562 271.048 492.114 270.304L494.466 272.032C493.41 273.448 491.706 274.24 489.786 274.24C486.57 274.24 483.738 271.888 483.738 268.36ZM499.566 258.52V262.792H501.942V265.144H499.566V274H496.662V265.144H494.622V262.792H496.662V258.52H499.566ZM510.308 268.768V262.792H513.236V274H510.308V272.416C509.684 273.616 508.34 274.24 507.212 274.24C504.548 274.24 502.796 272.584 502.796 269.416V262.792H505.748V268.888C505.748 270.712 506.852 271.384 507.884 271.384C509.108 271.384 510.308 270.712 510.308 268.768ZM518.286 270.04V274H515.358V262.792H518.286V265.432C518.862 263.392 520.182 262.552 521.454 262.552C522.246 262.552 522.846 262.696 523.302 262.96L522.798 265.6C522.102 265.288 521.382 265.288 521.094 265.288C519.102 265.288 518.286 267.064 518.286 270.04ZM534.59 268.36C534.59 268.648 534.566 269.104 534.542 269.368H525.998C526.19 270.88 527.438 271.768 529.094 271.768C530.222 271.768 531.35 271.288 531.902 270.328C532.598 270.712 533.39 271.144 534.134 271.528C533.102 273.448 530.966 274.24 528.902 274.24C525.71 274.24 523.094 271.888 523.094 268.36C523.094 264.808 525.71 262.552 528.902 262.552C532.07 262.552 534.59 264.808 534.59 268.36ZM525.974 267.376H531.734C531.518 265.84 530.366 265 528.926 265C527.39 265 526.19 265.84 525.974 267.376Z" fill="white"/>
<path d="M306 227C307.933 227 309.5 225.433 309.5 223.5C309.5 221.567 307.933 220 306 220C304.067 220 302.5 221.567 302.5 223.5C302.5 225.433 304.067 227 306 227Z" stroke="white" stroke-width="2" stroke-linecap="round" stroke-linejoin="round"/>
<path d="M313.5 212C315.433 212 317 210.433 317 208.5C317 206.567 315.433 205 313.5 205C311.567 205 310 206.567 310 208.5C310 210.433 311.567 212 313.5 212Z" stroke="white" stroke-width="2" stroke-linecap="round" stroke-linejoin="round"/>
<path d="M298.5 212C300.433 212 302 210.433 302 208.5C302 206.567 300.433 205 298.5 205C296.567 205 295 206.567 295 208.5C295 210.433 296.567 212 298.5 212Z" stroke="white" stroke-width="2" stroke-linecap="round" stroke-linejoin="round"/>
<path d="M298.5 212V213C298.498 213.394 298.575 213.785 298.725 214.15C298.875 214.515 299.096 214.846 299.375 215.125C299.654 215.404 299.985 215.625 300.35 215.775C300.715 215.925 301.106 216.002 301.5 216H310.5C310.894 216.002 311.285 215.925 311.65 215.775C312.015 215.625 312.346 215.404 312.625 215.125C312.904 214.846 313.125 214.515 313.275 214.15C313.425 213.785 313.502 213.394 313.5 213V212" stroke="white" stroke-width="2" stroke-linecap="round" stroke-linejoin="round"/>
<path d="M306 216V220" stroke="white" stroke-width="2" stroke-linecap="round" stroke-linejoin="round"/>
<g filter="url(#filter7_d_536_6710)">
<rect x="54" y="372" width="231" height="128" rx="21.4461" fill="#1B232E"/>
</g>
<path d="M92.5 421C98.299 421 103 416.299 103 410.5C103 404.701 98.299 400 92.5 400C86.701 400 82 404.701 82 410.5C82 416.299 86.701 421 92.5 421Z" stroke="white" stroke-width="2" stroke-linecap="round" stroke-linejoin="round"/>
<path d="M99.925 417.925L106 424" stroke="white" stroke-width="2" stroke-linecap="round" stroke-linejoin="round"/>
<path d="M83.136 456.272V467.192H86.52C89.448 467.192 90.912 464.744 90.912 461.768C90.912 458.768 89.448 456.272 86.52 456.272H83.136ZM86.52 470H80.064V453.464H86.52C91.248 453.464 93.984 457.064 93.984 461.768C93.984 466.472 91.248 470 86.52 470ZM106.272 464.36C106.272 464.648 106.248 465.104 106.224 465.368H97.6796C97.8716 466.88 99.1196 467.768 100.776 467.768C101.904 467.768 103.032 467.288 103.584 466.328C104.28 466.712 105.072 467.144 105.816 467.528C104.784 469.448 102.648 470.24 100.584 470.24C97.3916 470.24 94.7756 467.888 94.7756 464.36C94.7756 460.808 97.3916 458.552 100.584 458.552C103.752 458.552 106.272 460.808 106.272 464.36ZM97.6556 463.376H103.416C103.2 461.84 102.048 461 100.608 461C99.0716 461 97.8716 461.84 97.6556 463.376ZM111.785 465.704L110.249 465.32C107.345 464.552 107.081 463.184 107.081 461.888C107.081 460.064 109.001 458.552 111.209 458.552C113.345 458.552 115.457 459.512 115.577 462.08H112.793C112.721 461.24 111.953 460.928 111.281 460.928C110.537 460.928 109.865 461.192 109.865 462.032C109.865 462.488 110.393 462.8 111.041 462.968L112.913 463.424C115.505 464.144 115.841 465.872 115.841 466.784C115.841 469.088 113.585 470.24 111.257 470.24C109.049 470.24 106.817 468.872 106.745 466.472H109.481C109.553 467.264 110.465 467.96 111.545 467.888C112.385 467.864 113.009 467.408 113.009 466.76C113.033 466.184 112.625 465.896 111.785 465.704ZM120.14 458.792V470H117.236V458.792H120.14ZM116.804 454.448C116.804 453.464 117.668 452.696 118.7 452.696C119.732 452.696 120.548 453.464 120.548 454.448C120.548 455.48 119.732 456.224 118.7 456.224C117.668 456.224 116.804 455.48 116.804 454.448ZM130.671 464.384C130.671 462.464 129.231 461.36 127.623 461.36C125.991 461.36 124.599 462.56 124.599 464.384C124.599 466.256 125.991 467.456 127.623 467.456C129.135 467.456 130.671 466.28 130.671 464.384ZM124.359 471.08C124.839 472.208 126.159 472.928 127.335 472.928C130.167 472.928 130.935 470.816 130.743 468.464C130.167 469.592 128.607 470.24 127.167 470.24C124.239 470.24 121.551 467.984 121.551 464.432C121.551 460.832 124.239 458.552 127.167 458.552C128.631 458.552 130.095 459.176 130.743 460.304V458.792H133.599V468.392C133.599 473.384 131.223 475.592 127.335 475.592C125.007 475.592 122.967 474.32 121.983 472.28C122.631 471.968 123.711 471.392 124.359 471.08ZM138.647 464.024V470H135.719V458.792H138.647V460.448C139.295 459.224 140.663 458.552 141.983 458.552C144.599 458.552 146.159 460.184 146.159 463.376V470H143.231V463.904C143.231 462.272 142.367 461.408 141.095 461.408C139.751 461.408 138.647 462.08 138.647 464.024ZM159.969 456.2H156.369V461.384H159.873C161.457 461.384 162.201 460.04 162.201 458.816C162.201 457.616 161.505 456.2 159.969 456.2ZM153.297 470V453.464H160.017C163.689 453.464 165.273 456.128 165.273 458.816C165.273 461.504 163.689 464.12 160.017 464.12H156.369V470H153.297ZM169.172 466.04V470H166.244V458.792H169.172V461.432C169.748 459.392 171.068 458.552 172.34 458.552C173.132 458.552 173.732 458.696 174.188 458.96L173.684 461.6C172.988 461.288 172.268 461.288 171.98 461.288C169.988 461.288 169.172 463.064 169.172 466.04ZM185.476 464.36C185.476 464.648 185.452 465.104 185.428 465.368H176.884C177.076 466.88 178.324 467.768 179.98 467.768C181.108 467.768 182.236 467.288 182.788 466.328C183.484 466.712 184.276 467.144 185.02 467.528C183.988 469.448 181.852 470.24 179.788 470.24C176.596 470.24 173.98 467.888 173.98 464.36C173.98 460.808 176.596 458.552 179.788 458.552C182.956 458.552 185.476 460.808 185.476 464.36ZM176.86 463.376H182.62C182.404 461.84 181.252 461 179.812 461C178.276 461 177.076 461.84 176.86 463.376ZM193.774 452.696V455.504H192.55C191.182 455.504 190.726 456.536 190.726 457.904V458.792H193.102V461.144H190.726V470H187.774V461.144H185.638V458.792H187.774V457.904C187.774 454.616 189.382 452.696 192.55 452.696H193.774ZM204.779 464.36C204.779 464.648 204.755 465.104 204.731 465.368H196.187C196.379 466.88 197.627 467.768 199.283 467.768C200.411 467.768 201.539 467.288 202.091 466.328C202.787 466.712 203.579 467.144 204.323 467.528C203.291 469.448 201.155 470.24 199.091 470.24C195.899 470.24 193.283 467.888 193.283 464.36C193.283 460.808 195.899 458.552 199.091 458.552C202.259 458.552 204.779 460.808 204.779 464.36ZM196.163 463.376H201.923C201.707 461.84 200.555 461 199.115 461C197.579 461 196.379 461.84 196.163 463.376ZM208.973 466.04V470H206.045V458.792H208.973V461.432C209.549 459.392 210.869 458.552 212.141 458.552C212.933 458.552 213.533 458.696 213.989 458.96L213.485 461.6C212.789 461.288 212.069 461.288 211.781 461.288C209.789 461.288 208.973 463.064 208.973 466.04ZM225.278 464.36C225.278 464.648 225.254 465.104 225.23 465.368H216.686C216.878 466.88 218.126 467.768 219.782 467.768C220.91 467.768 222.038 467.288 222.59 466.328C223.286 466.712 224.078 467.144 224.822 467.528C223.79 469.448 221.654 470.24 219.59 470.24C216.398 470.24 213.782 467.888 213.782 464.36C213.782 460.808 216.398 458.552 219.59 458.552C222.758 458.552 225.278 460.808 225.278 464.36ZM216.662 463.376H222.422C222.206 461.84 221.054 461 219.614 461C218.078 461 216.878 461.84 216.662 463.376ZM229.471 464.024V470H226.543V458.792H229.471V460.448C230.119 459.224 231.487 458.552 232.807 458.552C235.423 458.552 236.983 460.184 236.983 463.376V470H234.055V463.904C234.055 462.272 233.191 461.408 231.919 461.408C230.575 461.408 229.471 462.08 229.471 464.024ZM238.241 464.36C238.241 460.808 241.073 458.552 244.289 458.552C246.185 458.552 247.889 459.32 248.945 460.736L246.617 462.488C246.065 461.744 245.225 461.384 244.289 461.384C242.657 461.384 241.145 462.536 241.145 464.36C241.145 466.184 242.657 467.432 244.289 467.432C245.225 467.432 246.065 467.048 246.617 466.304L248.969 468.032C247.913 469.448 246.209 470.24 244.289 470.24C241.073 470.24 238.241 467.888 238.241 464.36ZM260.865 464.36C260.865 464.648 260.841 465.104 260.817 465.368H252.273C252.465 466.88 253.713 467.768 255.369 467.768C256.497 467.768 257.625 467.288 258.177 466.328C258.873 466.712 259.665 467.144 260.409 467.528C259.377 469.448 257.241 470.24 255.177 470.24C251.985 470.24 249.369 467.888 249.369 464.36C249.369 460.808 251.985 458.552 255.177 458.552C258.345 458.552 260.865 460.808 260.865 464.36ZM252.249 463.376H258.009C257.793 461.84 256.641 461 255.201 461C253.665 461 252.465 461.84 252.249 463.376Z" fill="white"/>
<g filter="url(#filter8_d_536_6710)">
<rect x="626" y="364" width="262" height="136" rx="21.4461" fill="#1B232E"/>
</g>
<path d="M655.5 421.5C657.433 421.5 659 419.933 659 418C659 416.067 657.433 414.5 655.5 414.5C653.567 414.5 652 416.067 652 418C652 419.933 653.567 421.5 655.5 421.5Z" stroke="white" stroke-width="2" stroke-linecap="round" stroke-linejoin="round"/>
<path d="M675 401L680 406L675 411" stroke="white" stroke-width="2" stroke-linecap="round" stroke-linejoin="round"/>
<path d="M659 418H660C661.591 418 663.117 417.368 664.243 416.243C665.368 415.117 666 413.591 666 412C666 410.409 666.632 408.883 667.757 407.757C668.883 406.632 670.409 406 672 406H680" stroke="white" stroke-width="2" stroke-linecap="round" stroke-linejoin="round"/>
<path d="M662.456 470L660.944 465.992H654.776L653.264 470H650L656.192 453.464H659.504L665.696 470H662.456ZM657.848 456.992L655.808 463.304H659.936L657.848 456.992ZM669.087 464.024V470H666.159V458.792H669.087V460.448C669.735 459.224 671.103 458.552 672.423 458.552C675.039 458.552 676.599 460.184 676.599 463.376V470H673.671V463.904C673.671 462.272 672.807 461.408 671.535 461.408C670.191 461.408 669.087 462.08 669.087 464.024ZM681.48 458.792V470H678.576V458.792H681.48ZM678.144 454.448C678.144 453.464 679.008 452.696 680.04 452.696C681.072 452.696 681.888 453.464 681.888 454.448C681.888 455.48 681.072 456.224 680.04 456.224C679.008 456.224 678.144 455.48 678.144 454.448ZM696.139 461.408C694.795 461.408 693.859 462.296 693.859 464.024V470H690.931V463.832C690.907 462.272 690.019 461.408 688.867 461.408C687.667 461.408 686.515 462.104 686.515 464.024V470H683.587V458.792H686.515V460.448C687.163 459.08 688.651 458.576 689.731 458.576C691.531 458.672 692.659 459.296 693.307 460.664C694.339 458.792 695.971 458.552 696.835 458.552C699.547 458.552 701.155 460.304 701.155 463.592V470H698.251V463.904C698.251 462.272 697.363 461.408 696.139 461.408ZM711.625 470V468.56C710.929 469.712 709.225 470.216 708.145 470.216C705.193 470.216 702.433 467.96 702.433 464.384C702.433 460.808 705.193 458.552 708.145 458.552C709.177 458.552 710.785 458.96 711.625 460.184V458.792H714.553V470H711.625ZM705.457 464.384C705.457 466.208 706.921 467.408 708.553 467.408C710.161 467.408 711.625 466.304 711.625 464.384C711.625 462.464 710.089 461.36 708.553 461.36C706.921 461.36 705.457 462.56 705.457 464.384ZM720.512 454.52V458.792H722.888V461.144H720.512V470H717.608V461.144H715.568V458.792H717.608V454.52H720.512ZM726.79 458.792V470H723.886V458.792H726.79ZM723.454 454.448C723.454 453.464 724.318 452.696 725.35 452.696C726.382 452.696 727.198 453.464 727.198 454.448C727.198 455.48 726.382 456.224 725.35 456.224C724.318 456.224 723.454 455.48 723.454 454.448ZM734.033 467.36C735.665 467.36 736.961 466.184 736.961 464.36C736.961 462.56 735.665 461.432 734.033 461.432C732.401 461.432 731.105 462.56 731.105 464.36C731.105 466.184 732.401 467.36 734.033 467.36ZM734.033 470.216C730.865 470.216 728.201 467.888 728.201 464.36C728.201 460.808 730.865 458.552 734.033 458.552C737.201 458.552 739.865 460.808 739.865 464.36C739.865 467.888 737.201 470.216 734.033 470.216ZM744.218 464.024V470H741.29V458.792H744.218V460.448C744.866 459.224 746.234 458.552 747.554 458.552C750.17 458.552 751.73 460.184 751.73 463.376V470H748.802V463.904C748.802 462.272 747.938 461.408 746.666 461.408C745.322 461.408 744.218 462.08 744.218 464.024ZM765.541 456.2H761.941V461.384H765.445C767.029 461.384 767.773 460.04 767.773 458.816C767.773 457.616 767.077 456.2 765.541 456.2ZM758.869 470V453.464H765.589C769.261 453.464 770.845 456.128 770.845 458.816C770.845 461.504 769.261 464.12 765.589 464.12H761.941V470H758.869ZM774.743 466.04V470H771.815V458.792H774.743V461.432C775.319 459.392 776.639 458.552 777.911 458.552C778.703 458.552 779.303 458.696 779.759 458.96L779.255 461.6C778.559 461.288 777.839 461.288 777.551 461.288C775.559 461.288 774.743 463.064 774.743 466.04ZM785.384 467.36C787.016 467.36 788.312 466.184 788.312 464.36C788.312 462.56 787.016 461.432 785.384 461.432C783.752 461.432 782.456 462.56 782.456 464.36C782.456 466.184 783.752 467.36 785.384 467.36ZM785.384 470.216C782.216 470.216 779.552 467.888 779.552 464.36C779.552 460.808 782.216 458.552 785.384 458.552C788.552 458.552 791.216 460.808 791.216 464.36C791.216 467.888 788.552 470.216 785.384 470.216ZM796.482 454.52V458.792H798.858V461.144H796.482V470H793.578V461.144H791.538V458.792H793.578V454.52H796.482ZM804.851 467.36C806.483 467.36 807.779 466.184 807.779 464.36C807.779 462.56 806.483 461.432 804.851 461.432C803.219 461.432 801.923 462.56 801.923 464.36C801.923 466.184 803.219 467.36 804.851 467.36ZM804.851 470.216C801.683 470.216 799.019 467.888 799.019 464.36C799.019 460.808 801.683 458.552 804.851 458.552C808.019 458.552 810.683 460.808 810.683 464.36C810.683 467.888 808.019 470.216 804.851 470.216ZM815.949 454.52V458.792H818.325V461.144H815.949V470H813.045V461.144H811.005V458.792H813.045V454.52H815.949ZM829.715 458.792L822.779 475.472H819.683L822.251 469.136L817.883 458.792H821.003L823.787 465.776L826.595 458.792H829.715ZM833.309 458.792V460.304C833.909 459.176 835.349 458.552 836.813 458.552C839.741 458.552 842.285 460.856 842.285 464.384C842.285 467.96 839.741 470.24 836.813 470.24C835.349 470.24 833.909 469.64 833.309 468.512V475.448H830.381V458.792H833.309ZM833.357 464.432C833.357 466.352 834.797 467.456 836.333 467.456C837.941 467.456 839.285 466.256 839.285 464.432C839.285 462.584 837.941 461.36 836.333 461.36C834.725 461.36 833.357 462.56 833.357 464.432ZM854.512 464.36C854.512 464.648 854.488 465.104 854.464 465.368H845.92C846.112 466.88 847.36 467.768 849.016 467.768C850.144 467.768 851.272 467.288 851.824 466.328C852.52 466.712 853.312 467.144 854.056 467.528C853.024 469.448 850.888 470.24 848.824 470.24C845.632 470.24 843.016 467.888 843.016 464.36C843.016 460.808 845.632 458.552 848.824 458.552C851.992 458.552 854.512 460.808 854.512 464.36ZM845.896 463.376H851.656C851.44 461.84 850.288 461 848.848 461C847.312 461 846.112 461.84 845.896 463.376ZM860.026 465.704L858.49 465.32C855.586 464.552 855.322 463.184 855.322 461.888C855.322 460.064 857.242 458.552 859.45 458.552C861.586 458.552 863.698 459.512 863.818 462.08H861.034C860.962 461.24 860.194 460.928 859.522 460.928C858.778 460.928 858.106 461.192 858.106 462.032C858.106 462.488 858.634 462.8 859.282 462.968L861.154 463.424C863.746 464.144 864.082 465.872 864.082 466.784C864.082 469.088 861.826 470.24 859.498 470.24C857.29 470.24 855.058 468.872 854.986 466.472H857.722C857.794 467.264 858.706 467.96 859.786 467.888C860.626 467.864 861.25 467.408 861.25 466.76C861.274 466.184 860.866 465.896 860.026 465.704Z" fill="white"/>
<g filter="url(#filter9_d_536_6710)">
<rect x="1010" y="176" width="165" height="128" rx="21.4461" fill="#1B232E"/>
</g>
<path d="M1039.5 225.5C1041.43 225.5 1043 223.933 1043 222C1043 220.067 1041.43 218.5 1039.5 218.5C1037.57 218.5 1036 220.067 1036 222C1036 223.933 1037.57 225.5 1039.5 225.5Z" stroke="white" stroke-width="2" stroke-linecap="round" stroke-linejoin="round"/>
<path d="M1059 205L1064 210L1059 215" stroke="white" stroke-width="2" stroke-linecap="round" stroke-linejoin="round"/>
<path d="M1043 222H1044C1045.59 222 1047.12 221.368 1048.24 220.243C1049.37 219.117 1050 217.591 1050 216C1050 214.409 1050.63 212.883 1051.76 211.757C1052.88 210.632 1054.41 210 1056 210H1064" stroke="white" stroke-width="2" stroke-linecap="round" stroke-linejoin="round"/>
<path d="M1042.74 260.2H1039.14V265.384H1042.64C1044.22 265.384 1044.97 264.04 1044.97 262.816C1044.97 261.616 1044.27 260.2 1042.74 260.2ZM1036.06 274V257.464H1042.78C1046.46 257.464 1048.04 260.128 1048.04 262.816C1048.04 265.504 1046.46 268.12 1042.78 268.12H1039.14V274H1036.06ZM1051.94 270.04V274H1049.01V262.792H1051.94V265.432C1052.51 263.392 1053.83 262.552 1055.11 262.552C1055.9 262.552 1056.5 262.696 1056.95 262.96L1056.45 265.6C1055.75 265.288 1055.03 265.288 1054.75 265.288C1052.75 265.288 1051.94 267.064 1051.94 270.04ZM1062.58 271.36C1064.21 271.36 1065.51 270.184 1065.51 268.36C1065.51 266.56 1064.21 265.432 1062.58 265.432C1060.95 265.432 1059.65 266.56 1059.65 268.36C1059.65 270.184 1060.95 271.36 1062.58 271.36ZM1062.58 274.216C1059.41 274.216 1056.75 271.888 1056.75 268.36C1056.75 264.808 1059.41 262.552 1062.58 262.552C1065.75 262.552 1068.41 264.808 1068.41 268.36C1068.41 271.888 1065.75 274.216 1062.58 274.216ZM1073.68 258.52V262.792H1076.05V265.144H1073.68V274H1070.77V265.144H1068.73V262.792H1070.77V258.52H1073.68ZM1082.05 271.36C1083.68 271.36 1084.97 270.184 1084.97 268.36C1084.97 266.56 1083.68 265.432 1082.05 265.432C1080.41 265.432 1079.12 266.56 1079.12 268.36C1079.12 270.184 1080.41 271.36 1082.05 271.36ZM1082.05 274.216C1078.88 274.216 1076.21 271.888 1076.21 268.36C1076.21 264.808 1078.88 262.552 1082.05 262.552C1085.21 262.552 1087.88 264.808 1087.88 268.36C1087.88 271.888 1085.21 274.216 1082.05 274.216ZM1093.14 258.52V262.792H1095.52V265.144H1093.14V274H1090.24V265.144H1088.2V262.792H1090.24V258.52H1093.14ZM1106.91 262.792L1099.97 279.472H1096.88L1099.45 273.136L1095.08 262.792H1098.2L1100.98 269.776L1103.79 262.792H1106.91ZM1110.5 262.792V264.304C1111.1 263.176 1112.54 262.552 1114.01 262.552C1116.94 262.552 1119.48 264.856 1119.48 268.384C1119.48 271.96 1116.94 274.24 1114.01 274.24C1112.54 274.24 1111.1 273.64 1110.5 272.512V279.448H1107.58V262.792H1110.5ZM1110.55 268.432C1110.55 270.352 1111.99 271.456 1113.53 271.456C1115.14 271.456 1116.48 270.256 1116.48 268.432C1116.48 266.584 1115.14 265.36 1113.53 265.36C1111.92 265.36 1110.55 266.56 1110.55 268.432ZM1123.81 262.792V274H1120.91V262.792H1123.81ZM1120.48 258.448C1120.48 257.464 1121.34 256.696 1122.37 256.696C1123.4 256.696 1124.22 257.464 1124.22 258.448C1124.22 259.48 1123.4 260.224 1122.37 260.224C1121.34 260.224 1120.48 259.48 1120.48 258.448ZM1128.85 268.024V274H1125.92V262.792H1128.85V264.448C1129.49 263.224 1130.86 262.552 1132.18 262.552C1134.8 262.552 1136.36 264.184 1136.36 267.376V274H1133.43V267.904C1133.43 266.272 1132.57 265.408 1131.29 265.408C1129.95 265.408 1128.85 266.08 1128.85 268.024ZM1146.76 268.384C1146.76 266.464 1145.32 265.36 1143.71 265.36C1142.08 265.36 1140.69 266.56 1140.69 268.384C1140.69 270.256 1142.08 271.456 1143.71 271.456C1145.22 271.456 1146.76 270.28 1146.76 268.384ZM1140.45 275.08C1140.93 276.208 1142.25 276.928 1143.42 276.928C1146.26 276.928 1147.02 274.816 1146.83 272.464C1146.26 273.592 1144.7 274.24 1143.26 274.24C1140.33 274.24 1137.64 271.984 1137.64 268.432C1137.64 264.832 1140.33 262.552 1143.26 262.552C1144.72 262.552 1146.18 263.176 1146.83 264.304V262.792H1149.69V272.392C1149.69 277.384 1147.31 279.592 1143.42 279.592C1141.1 279.592 1139.06 278.32 1138.07 276.28C1138.72 275.968 1139.8 275.392 1140.45 275.08Z" fill="white"/>
<defs>
<filter id="filter0_d_536_6710" x="0.384777" y="94.5962" width="236.23" height="235.23" filterUnits="userSpaceOnUse" color-interpolation-filters="sRGB">
<feFlood flood-opacity="0" result="BackgroundImageFix"/>
<feColorMatrix in="SourceAlpha" type="matrix" values="0 0 0 0 0 0 0 0 0 0 0 0 0 0 0 0 0 0 127 0" result="hardAlpha"/>
<feOffset dy="40.2114"/>
<feGaussianBlur stdDeviation="26.8076"/>
<feColorMatrix type="matrix" values="0 0 0 0 0.831373 0 0 0 0 0.85098 0 0 0 0 0.909804 0 0 0 0.3 0"/>
<feBlend mode="normal" in2="BackgroundImageFix" result="effect1_dropShadow_536_6710"/>
<feBlend mode="normal" in="SourceGraphic" in2="effect1_dropShadow_536_6710" result="shape"/>
</filter>
<filter id="filter1_d_536_6710" x="588.385" y="94.5962" width="392.23" height="235.23" filterUnits="userSpaceOnUse" color-interpolation-filters="sRGB">
<feFlood flood-opacity="0" result="BackgroundImageFix"/>
<feColorMatrix in="SourceAlpha" type="matrix" values="0 0 0 0 0 0 0 0 0 0 0 0 0 0 0 0 0 0 127 0" result="hardAlpha"/>
<feOffset dy="40.2114"/>
<feGaussianBlur stdDeviation="26.8076"/>
<feColorMatrix type="matrix" values="0 0 0 0 0.831373 0 0 0 0 0.85098 0 0 0 0 0.909804 0 0 0 0.3 0"/>
<feBlend mode="normal" in2="BackgroundImageFix" result="effect1_dropShadow_536_6710"/>
<feBlend mode="normal" in="SourceGraphic" in2="effect1_dropShadow_536_6710" result="shape"/>
</filter>
<filter id="filter2_d_536_6710" x="289.385" y="426.596" width="332.23" height="235.23" filterUnits="userSpaceOnUse" color-interpolation-filters="sRGB">
<feFlood flood-opacity="0" result="BackgroundImageFix"/>
<feColorMatrix in="SourceAlpha" type="matrix" values="0 0 0 0 0 0 0 0 0 0 0 0 0 0 0 0 0 0 127 0" result="hardAlpha"/>
<feOffset dy="40.2114"/>
<feGaussianBlur stdDeviation="26.8076"/>
<feColorMatrix type="matrix" values="0 0 0 0 0.831373 0 0 0 0 0.85098 0 0 0 0 0.909804 0 0 0 0.3 0"/>
<feBlend mode="normal" in2="BackgroundImageFix" result="effect1_dropShadow_536_6710"/>
<feBlend mode="normal" in="SourceGraphic" in2="effect1_dropShadow_536_6710" result="shape"/>
</filter>
<filter id="filter3_d_536_6710" x="892.385" y="426.596" width="285.23" height="235.23" filterUnits="userSpaceOnUse" color-interpolation-filters="sRGB">
<feFlood flood-opacity="0" result="BackgroundImageFix"/>
<feColorMatrix in="SourceAlpha" type="matrix" values="0 0 0 0 0 0 0 0 0 0 0 0 0 0 0 0 0 0 127 0" result="hardAlpha"/>
<feOffset dy="40.2114"/>
<feGaussianBlur stdDeviation="26.8076"/>
<feColorMatrix type="matrix" values="0 0 0 0 0.831373 0 0 0 0 0.85098 0 0 0 0 0.909804 0 0 0 0.3 0"/>
<feBlend mode="normal" in2="BackgroundImageFix" result="effect1_dropShadow_536_6710"/>
<feBlend mode="normal" in="SourceGraphic" in2="effect1_dropShadow_536_6710" result="shape"/>
</filter>
<filter id="filter4_d_536_6710" x="1128.38" y="358.596" width="300.23" height="235.23" filterUnits="userSpaceOnUse" color-interpolation-filters="sRGB">
<feFlood flood-opacity="0" result="BackgroundImageFix"/>
<feColorMatrix in="SourceAlpha" type="matrix" values="0 0 0 0 0 0 0 0 0 0 0 0 0 0 0 0 0 0 127 0" result="hardAlpha"/>
<feOffset dy="40.2114"/>
<feGaussianBlur stdDeviation="26.8076"/>
<feColorMatrix type="matrix" values="0 0 0 0 0.831373 0 0 0 0 0.85098 0 0 0 0 0.909804 0 0 0 0.3 0"/>
<feBlend mode="normal" in2="BackgroundImageFix" result="effect1_dropShadow_536_6710"/>
<feBlend mode="normal" in="SourceGraphic" in2="effect1_dropShadow_536_6710" result="shape"/>
</filter>
<filter id="filter5_d_536_6710" x="1204.38" y="94.5962" width="224.23" height="235.23" filterUnits="userSpaceOnUse" color-interpolation-filters="sRGB">
<feFlood flood-opacity="0" result="BackgroundImageFix"/>
<feColorMatrix in="SourceAlpha" type="matrix" values="0 0 0 0 0 0 0 0 0 0 0 0 0 0 0 0 0 0 127 0" result="hardAlpha"/>
<feOffset dy="40.2114"/>
<feGaussianBlur stdDeviation="26.8076"/>
<feColorMatrix type="matrix" values="0 0 0 0 0.831373 0 0 0 0 0.85098 0 0 0 0 0.909804 0 0 0 0.3 0"/>
<feBlend mode="normal" in2="BackgroundImageFix" result="effect1_dropShadow_536_6710"/>
<feBlend mode="normal" in="SourceGraphic" in2="effect1_dropShadow_536_6710" result="shape"/>
</filter>
<filter id="filter6_d_536_6710" x="212.385" y="162.596" width="400.23" height="235.23" filterUnits="userSpaceOnUse" color-interpolation-filters="sRGB">
<feFlood flood-opacity="0" result="BackgroundImageFix"/>
<feColorMatrix in="SourceAlpha" type="matrix" values="0 0 0 0 0 0 0 0 0 0 0 0 0 0 0 0 0 0 127 0" result="hardAlpha"/>
<feOffset dy="40.2114"/>
<feGaussianBlur stdDeviation="26.8076"/>
<feColorMatrix type="matrix" values="0 0 0 0 0.831373 0 0 0 0 0.85098 0 0 0 0 0.909804 0 0 0 0.3 0"/>
<feBlend mode="normal" in2="BackgroundImageFix" result="effect1_dropShadow_536_6710"/>
<feBlend mode="normal" in="SourceGraphic" in2="effect1_dropShadow_536_6710" result="shape"/>
</filter>
<filter id="filter7_d_536_6710" x="0.384777" y="358.596" width="338.23" height="235.23" filterUnits="userSpaceOnUse" color-interpolation-filters="sRGB">
<feFlood flood-opacity="0" result="BackgroundImageFix"/>
<feColorMatrix in="SourceAlpha" type="matrix" values="0 0 0 0 0 0 0 0 0 0 0 0 0 0 0 0 0 0 127 0" result="hardAlpha"/>
<feOffset dy="40.2114"/>
<feGaussianBlur stdDeviation="26.8076"/>
<feColorMatrix type="matrix" values="0 0 0 0 0.831373 0 0 0 0 0.85098 0 0 0 0 0.909804 0 0 0 0.3 0"/>
<feBlend mode="normal" in2="BackgroundImageFix" result="effect1_dropShadow_536_6710"/>
<feBlend mode="normal" in="SourceGraphic" in2="effect1_dropShadow_536_6710" result="shape"/>
</filter>
<filter id="filter8_d_536_6710" x="572.385" y="350.596" width="369.23" height="243.23" filterUnits="userSpaceOnUse" color-interpolation-filters="sRGB">
<feFlood flood-opacity="0" result="BackgroundImageFix"/>
<feColorMatrix in="SourceAlpha" type="matrix" values="0 0 0 0 0 0 0 0 0 0 0 0 0 0 0 0 0 0 127 0" result="hardAlpha"/>
<feOffset dy="40.2114"/>
<feGaussianBlur stdDeviation="26.8076"/>
<feColorMatrix type="matrix" values="0 0 0 0 0.831373 0 0 0 0 0.85098 0 0 0 0 0.909804 0 0 0 0.3 0"/>
<feBlend mode="normal" in2="BackgroundImageFix" result="effect1_dropShadow_536_6710"/>
<feBlend mode="normal" in="SourceGraphic" in2="effect1_dropShadow_536_6710" result="shape"/>
</filter>
<filter id="filter9_d_536_6710" x="956.385" y="162.596" width="272.23" height="235.23" filterUnits="userSpaceOnUse" color-interpolation-filters="sRGB">
<feFlood flood-opacity="0" result="BackgroundImageFix"/>
<feColorMatrix in="SourceAlpha" type="matrix" values="0 0 0 0 0 0 0 0 0 0 0 0 0 0 0 0 0 0 127 0" result="hardAlpha"/>
<feOffset dy="40.2114"/>
<feGaussianBlur stdDeviation="26.8076"/>
<feColorMatrix type="matrix" values="0 0 0 0 0.831373 0 0 0 0 0.85098 0 0 0 0 0.909804 0 0 0 0.3 0"/>
<feBlend mode="normal" in2="BackgroundImageFix" result="effect1_dropShadow_536_6710"/>
<feBlend mode="normal" in="SourceGraphic" in2="effect1_dropShadow_536_6710" result="shape"/>
</filter>
</defs>
</svg>
