<svg width="398" height="48" viewBox="0 0 398 48" fill="none" xmlns="http://www.w3.org/2000/svg">
<path opacity="0.4" d="M170.758 0.00012207L252.197 0.00012207L250.743 47.2873H170.758V0.00012207Z" fill="#0755E9"/>
<ellipse cx="180.098" cy="23.6437" rx="9.34067" ry="23.6436" fill="#0755E9"/>
<rect x="178.932" y="23.3516" width="51.9575" height="2.04327" rx="1.02164" fill="#EEEEEE"/>
<rect x="178.932" y="9.92468" width="29.7734" height="2.04327" rx="1.02164" fill="#EEEEEE"/>
<rect x="178.932" y="36.7783" width="11.9677" height="2.04327" rx="1.02164" fill="#EEEEEE"/>
<rect x="194.402" y="36.7783" width="24.5193" height="2.04327" rx="1.02164" fill="#EEEEEE"/>
<rect x="222.424" y="36.7783" width="28.3139" height="2.04327" rx="1.02164" fill="#EEEEEE"/>
<rect x="212.209" y="9.92468" width="16.93" height="2.04327" rx="1.02164" fill="#EEEEEE"/>
<rect x="232.641" y="9.92468" width="18.0975" height="2.04327" rx="1.02164" fill="#EEEEEE"/>
<rect x="234.393" y="23.3516" width="16.3462" height="2.04327" rx="1.02164" fill="#EEEEEE"/>
<path d="M385.008 18.0978L329.84 0.14624L338.773 10.0707L386.03 20.1411C385.755 19.1823 385.872 18.8541 385.008 18.0978Z" fill="#DB9994"/>
<path d="M386.717 23.352L341.809 23.0601L338.598 9.9248L386.171 20.1764C386.576 21.428 386.876 22.1286 386.717 23.352Z" fill="#E7AFAB"/>
<path d="M338.887 36.1954L341.792 23.0601L386.612 23.352C386.572 24.3481 386.302 25.0852 386.028 26.125L338.887 36.1954Z" fill="#DB9994"/>
<path d="M329.256 47.2876L338.888 36.1956L386.176 25.9792C385.861 27.0316 385.79 27.7026 385.154 28.6063L329.256 47.2876Z" fill="#E7AFAB"/>
<path d="M397.997 23.3515L385.008 18.0974C387.282 21.9221 386.824 24.2851 385.154 28.6057L397.997 23.3515Z" fill="#1B232E"/>
<rect opacity="0.4" x="92.2383" y="0.00012207" width="79.9795" height="47.2871" fill="#0755E9"/>
<ellipse cx="92.8231" cy="23.6437" rx="9.34067" ry="23.6436" fill="#0755E9"/>
<rect x="93.6992" y="23.3516" width="78.52" height="2.04327" fill="#EEEEEE"/>
<path d="M85.4589 9.98755C85.5382 9.8461 172.22 9.98755 172.22 9.98755V11.968L84.9434 11.968C84.9434 11.968 85.3796 10.129 85.4589 9.98755Z" fill="#EEEEEE"/>
<path d="M85.8426 38.8223H172.219V36.779C172.219 36.779 85.3533 36.779 85.2456 36.779C85.1379 36.779 85.8426 38.8223 85.8426 38.8223Z" fill="#EEEEEE"/>
<path d="M245.828 8.51768L253.581 0.00012207L260.955 10.2165L262.707 23.0599L260.955 36.779L253.761 47.2873H252.319L245.468 37.3012L244.025 22.9094L245.828 8.51768Z" fill="#0755E9"/>
<path d="M338.728 10.2168L260.955 10.2168L262.587 23.0602H341.81L338.728 10.2168Z" fill="#0755E9"/>
<path opacity="0.9" d="M329.843 0.14607L253.658 0.00012207L260.912 10.2165L339.184 10.3624L329.843 0.14607Z" fill="#0755E9"/>
<path opacity="0.9" d="M260.955 36.7786L262.587 23.0594L341.81 23.0594L338.91 36.2009L260.955 36.7786Z" fill="#0755E9"/>
<path d="M329.26 47.2874L338.892 36.1953L260.746 36.7869L253.658 47.2874H329.26Z" fill="#0755E9"/>
<rect opacity="0.4" x="10.8008" y="0.00012207" width="79.9795" height="47.2871" fill="#0755E9"/>
<ellipse cx="10.9461" cy="23.6436" rx="10.9461" ry="23.6436" fill="#0755E9"/>
<path d="M10.8008 24.2276C10.8008 22.6155 12.1076 21.3086 13.7197 21.3086L82.0234 21.3086V27.1465H13.7197C12.1076 27.1465 10.8008 25.8397 10.8008 24.2276Z" fill="#EEEEEE"/>
</svg>
