<svg width="229" height="159" viewBox="0 0 229 159" fill="none" xmlns="http://www.w3.org/2000/svg">
<path d="M185.728 60.7738L1.94922 0.972656L31.709 34.0334L189.132 67.5804C188.217 64.3863 188.606 63.293 185.728 60.7738Z" fill="#DB9994"/>
<path d="M191.418 78.2765L41.8172 77.3041L31.1211 33.5472L189.601 67.6979C190.948 71.867 191.949 74.2009 191.418 78.2765Z" fill="#E7AFAB"/>
<path d="M32.0938 121.061L41.773 77.3041L191.077 78.2765C190.945 81.5949 190.046 84.0503 189.133 87.5141L32.0938 121.061Z" fill="#DB9994"/>
<path d="M0.00390625 158.011L32.0923 121.061L189.617 87.0279C188.568 90.5336 188.332 92.7688 186.214 95.7793L0.00390625 158.011Z" fill="#E7AFAB"/>
<path d="M228.997 78.2765L185.727 60.7738C193.302 73.5146 191.778 81.3863 186.213 95.7793L228.997 78.2765Z" fill="#1B232E"/>
</svg>
