<svg width="32" height="32" viewBox="0 0 32 32" fill="none" xmlns="http://www.w3.org/2000/svg">
<path d="M28.187 16.0004H24.187C23.6566 16.0004 23.1479 16.2111 22.7728 16.5862C22.3977 16.9613 22.187 17.47 22.187 18.0004V23.0004C22.187 23.5308 22.3977 24.0396 22.7728 24.4146C23.1479 24.7897 23.6566 25.0004 24.187 25.0004H26.187C26.7174 25.0004 27.2262 24.7897 27.6012 24.4146C27.9763 24.0396 28.187 23.5308 28.187 23.0004V16.0004ZM28.187 16.0004C28.1871 14.4161 27.8734 12.8475 27.2641 11.385C26.6548 9.92254 25.7619 8.5952 24.637 7.47958C23.5121 6.36396 22.1774 5.48214 20.7099 4.885C19.2425 4.28786 17.6713 3.98721 16.087 4.00042C14.5038 3.98887 12.934 4.29074 11.4679 4.88863C10.0019 5.48651 8.6687 6.36859 7.54511 7.48405C6.42152 8.5995 5.52978 9.92628 4.92126 11.3879C4.31273 12.8496 3.99947 14.4172 3.99951 16.0004V23.0004C3.99951 23.5308 4.21023 24.0396 4.5853 24.4146C4.96037 24.7897 5.46908 25.0004 5.99951 25.0004H7.99951C8.52994 25.0004 9.03865 24.7897 9.41372 24.4146C9.7888 24.0396 9.99951 23.5308 9.99951 23.0004V18.0004C9.99951 17.47 9.7888 16.9613 9.41372 16.5862C9.03865 16.2111 8.52994 16.0004 7.99951 16.0004H3.99951" stroke="white" stroke-width="2" stroke-linecap="round" stroke-linejoin="round"/>
<path d="M28.187 23V26C28.187 27.0609 27.7656 28.0783 27.0154 28.8284C26.2653 29.5786 25.2479 30 24.187 30H16.9995" stroke="white" stroke-width="2" stroke-linecap="round" stroke-linejoin="round"/>
</svg>
