<svg width="32" height="32" viewBox="0 0 32 32" fill="none" xmlns="http://www.w3.org/2000/svg">
<path d="M9.99951 16C9.99951 14.0222 10.586 12.0888 11.6848 10.4443C12.7836 8.79981 14.3454 7.51809 16.1727 6.76121C17.9999 6.00433 20.0106 5.8063 21.9504 6.19215C23.8902 6.578 25.6721 7.53041 27.0706 8.92894C28.4691 10.3275 29.4215 12.1093 29.8074 14.0491C30.1932 15.9889 29.9952 17.9996 29.2383 19.8268C28.4814 21.6541 27.1997 23.2159 25.5552 24.3147C23.9107 25.4135 21.9773 26 19.9995 26H8.99951C7.143 26 5.36252 25.2625 4.04976 23.9498C2.73701 22.637 1.99951 20.8565 1.99951 19C1.99951 17.1435 2.73701 15.363 4.04976 14.0503C5.36252 12.7375 7.143 12 8.99951 12C9.58517 11.9998 10.1687 12.0711 10.737 12.2125" stroke="white" stroke-width="2" stroke-linecap="round" stroke-linejoin="round"/>
<path d="M23.9995 14.5L17.9995 20.5L14.9995 17.5" stroke="white" stroke-width="2" stroke-linecap="round" stroke-linejoin="round"/>
</svg>
