<svg width="32" height="32" viewBox="0 0 32 32" fill="none" xmlns="http://www.w3.org/2000/svg">
<path d="M15.9995 22C21.5224 22 25.9995 17.5228 25.9995 12C25.9995 6.47715 21.5224 2 15.9995 2C10.4767 2 5.99951 6.47715 5.99951 12C5.99951 17.5228 10.4767 22 15.9995 22Z" stroke="white" stroke-width="2" stroke-linecap="round" stroke-linejoin="round"/>
<path d="M15.9995 18C19.3132 18 21.9995 15.3137 21.9995 12C21.9995 8.68629 19.3132 6 15.9995 6C12.6858 6 9.99951 8.68629 9.99951 12C9.99951 15.3137 12.6858 18 15.9995 18Z" stroke="white" stroke-width="2" stroke-linecap="round" stroke-linejoin="round"/>
<path d="M21.9995 20V30L15.9995 27L9.99951 30V20" stroke="white" stroke-width="2" stroke-linecap="round" stroke-linejoin="round"/>
</svg>
