<svg width="648" height="399" viewBox="0 0 648 399" fill="none" xmlns="http://www.w3.org/2000/svg">
<rect width="648" height="399" rx="10" fill="#E0EBFF"/>
<rect width="648" height="399" rx="10" fill="#29263C"/>
<rect opacity="0.2" x="294.273" y="97" width="66.91" height="60.0717" rx="5" transform="rotate(34.7875 294.273 97)" fill="white"/>
<rect opacity="0.2" x="315.273" y="214" width="66.91" height="60.0717" rx="5" transform="rotate(34.7875 315.273 214)" fill="white"/>
<g filter="url(#filter0_d_750_33343)">
<rect x="112" y="114" width="203" height="93" rx="6" shape-rendering="crispEdges"/>
</g>
<g filter="url(#filter1_d_750_33343)">
<rect x="333" y="180" width="203" height="93" rx="6" shape-rendering="crispEdges"/>
</g>
<path d="M51.736 336.464H54.832V353H51.736V346.16H45.112V353H42.064V336.464H45.112V343.4H51.736V336.464ZM60.2584 341.792V353H57.3544V341.792H60.2584ZM56.9224 337.448C56.9224 336.464 57.7864 335.696 58.8184 335.696C59.8504 335.696 60.6664 336.464 60.6664 337.448C60.6664 338.48 59.8504 339.224 58.8184 339.224C57.7864 339.224 56.9224 338.48 56.9224 337.448ZM65.2934 349.04V353H62.3654V341.792H65.2934V344.432C65.8694 342.392 67.1894 341.552 68.4614 341.552C69.2534 341.552 69.8534 341.696 70.3094 341.96L69.8054 344.6C69.1094 344.288 68.3894 344.288 68.1014 344.288C66.1094 344.288 65.2934 346.064 65.2934 349.04ZM81.5982 347.36C81.5982 347.648 81.5742 348.104 81.5502 348.368H73.0062C73.1982 349.88 74.4462 350.768 76.1022 350.768C77.2302 350.768 78.3582 350.288 78.9102 349.328C79.6062 349.712 80.3982 350.144 81.1422 350.528C80.1102 352.448 77.9742 353.24 75.9102 353.24C72.7182 353.24 70.1022 350.888 70.1022 347.36C70.1022 343.808 72.7182 341.552 75.9102 341.552C79.0782 341.552 81.5982 343.808 81.5982 347.36ZM72.9822 346.376H78.7422C78.5262 344.84 77.3742 344 75.9342 344C74.3982 344 73.1982 344.84 72.9822 346.376ZM91.3598 353V351.56C90.6638 352.712 88.9598 353.216 87.8798 353.216C84.9278 353.216 82.1678 350.96 82.1678 347.384C82.1678 343.808 84.9278 341.552 87.8798 341.552C88.9118 341.552 90.5198 341.96 91.3598 343.184V341.792H94.2878V353H91.3598ZM85.1918 347.384C85.1918 349.208 86.6558 350.408 88.2878 350.408C89.8958 350.408 91.3598 349.304 91.3598 347.384C91.3598 345.464 89.8238 344.36 88.2878 344.36C86.6558 344.36 85.1918 345.56 85.1918 347.384ZM103.438 335.696V338.504H102.214C100.846 338.504 100.39 339.536 100.39 340.904V341.792H102.766V344.144H100.39V353H97.438V344.144H95.302V341.792H97.438V340.904C97.438 337.616 99.046 335.696 102.214 335.696H103.438ZM106.712 349.04V353H103.784V341.792H106.712V344.432C107.288 342.392 108.608 341.552 109.88 341.552C110.672 341.552 111.272 341.696 111.728 341.96L111.224 344.6C110.528 344.288 109.808 344.288 109.52 344.288C107.528 344.288 106.712 346.064 106.712 349.04ZM120.713 353V351.56C120.017 352.712 118.313 353.216 117.233 353.216C114.281 353.216 111.521 350.96 111.521 347.384C111.521 343.808 114.281 341.552 117.233 341.552C118.265 341.552 119.873 341.96 120.713 343.184V341.792H123.641V353H120.713ZM114.545 347.384C114.545 349.208 116.009 350.408 117.641 350.408C119.249 350.408 120.713 349.304 120.713 347.384C120.713 345.464 119.177 344.36 117.641 344.36C116.009 344.36 114.545 345.56 114.545 347.384ZM125.039 347.36C125.039 343.808 127.871 341.552 131.087 341.552C132.983 341.552 134.687 342.32 135.743 343.736L133.415 345.488C132.863 344.744 132.023 344.384 131.087 344.384C129.455 344.384 127.943 345.536 127.943 347.36C127.943 349.184 129.455 350.432 131.087 350.432C132.023 350.432 132.863 350.048 133.415 349.304L135.767 351.032C134.711 352.448 133.007 353.24 131.087 353.24C127.871 353.24 125.039 350.888 125.039 347.36ZM140.868 337.52V341.792H143.244V344.144H140.868V353H137.964V344.144H135.924V341.792H137.964V337.52H140.868ZM147.146 341.792V353H144.242V341.792H147.146ZM143.81 337.448C143.81 336.464 144.674 335.696 145.706 335.696C146.738 335.696 147.554 336.464 147.554 337.448C147.554 338.48 146.738 339.224 145.706 339.224C144.674 339.224 143.81 338.48 143.81 337.448ZM154.389 350.36C156.021 350.36 157.317 349.184 157.317 347.36C157.317 345.56 156.021 344.432 154.389 344.432C152.757 344.432 151.461 345.56 151.461 347.36C151.461 349.184 152.757 350.36 154.389 350.36ZM154.389 353.216C151.221 353.216 148.557 350.888 148.557 347.36C148.557 343.808 151.221 341.552 154.389 341.552C157.557 341.552 160.221 343.808 160.221 347.36C160.221 350.888 157.557 353.216 154.389 353.216ZM164.575 347.024V353H161.647V341.792H164.575V343.448C165.223 342.224 166.591 341.552 167.911 341.552C170.527 341.552 172.087 343.184 172.087 346.376V353H169.159V346.904C169.159 345.272 168.295 344.408 167.023 344.408C165.679 344.408 164.575 345.08 164.575 347.024ZM182.56 353V351.56C181.864 352.712 180.16 353.216 179.08 353.216C176.128 353.216 173.368 350.96 173.368 347.384C173.368 343.808 176.128 341.552 179.08 341.552C180.112 341.552 181.72 341.96 182.56 343.184V341.792H185.488V353H182.56ZM176.392 347.384C176.392 349.208 177.856 350.408 179.488 350.408C181.096 350.408 182.56 349.304 182.56 347.384C182.56 345.464 181.024 344.36 179.488 344.36C177.856 344.36 176.392 345.56 176.392 347.384ZM187.606 353V335.696H190.534V353H187.606Z" fill="white"/>
<defs>
<filter id="filter0_d_750_33343" x="89.4767" y="94.2068" width="248.047" height="138.047" filterUnits="userSpaceOnUse" color-interpolation-filters="sRGB">
<feFlood flood-opacity="0" result="BackgroundImageFix"/>
<feColorMatrix in="SourceAlpha" type="matrix" values="0 0 0 0 0 0 0 0 0 0 0 0 0 0 0 0 0 0 127 0" result="hardAlpha"/>
<feOffset dy="2.7301"/>
<feGaussianBlur stdDeviation="11.2617"/>
<feComposite in2="hardAlpha" operator="out"/>
<feColorMatrix type="matrix" values="0 0 0 0 0 0 0 0 0 0 0 0 0 0 0 0 0 0 0.33 0"/>
<feBlend mode="normal" in2="BackgroundImageFix" result="effect1_dropShadow_750_33343"/>
<feBlend mode="normal" in="SourceGraphic" in2="effect1_dropShadow_750_33343" result="shape"/>
</filter>
<filter id="filter1_d_750_33343" x="310.477" y="160.207" width="248.047" height="138.047" filterUnits="userSpaceOnUse" color-interpolation-filters="sRGB">
<feFlood flood-opacity="0" result="BackgroundImageFix"/>
<feColorMatrix in="SourceAlpha" type="matrix" values="0 0 0 0 0 0 0 0 0 0 0 0 0 0 0 0 0 0 127 0" result="hardAlpha"/>
<feOffset dy="2.7301"/>
<feGaussianBlur stdDeviation="11.2617"/>
<feComposite in2="hardAlpha" operator="out"/>
<feColorMatrix type="matrix" values="0 0 0 0 0 0 0 0 0 0 0 0 0 0 0 0 0 0 0.33 0"/>
<feBlend mode="normal" in2="BackgroundImageFix" result="effect1_dropShadow_750_33343"/>
<feBlend mode="normal" in="SourceGraphic" in2="effect1_dropShadow_750_33343" result="shape"/>
</filter>
</defs>
</svg>
