<svg width="20" height="20" viewBox="0 0 20 20" fill="none" xmlns="http://www.w3.org/2000/svg">
<path d="M11.6667 2.72416C11.6667 2.13999 11.1933 1.66666 10.6092 1.66666H9.39166C8.80666 1.66666 8.33332 2.13999 8.33332 2.72416C8.33332 3.20582 8.00332 3.61916 7.55416 3.79582C7.48332 3.82416 7.41249 3.85416 7.34332 3.88416C6.90082 4.07582 6.37499 4.01749 6.03332 3.67666C5.83502 3.4785 5.56616 3.36719 5.28582 3.36719C5.00549 3.36719 4.73662 3.4785 4.53832 3.67666L3.67666 4.53832C3.4785 4.73662 3.36719 5.00549 3.36719 5.28582C3.36719 5.56616 3.4785 5.83502 3.67666 6.03332C4.01832 6.37499 4.07666 6.89999 3.88332 7.34332C3.85295 7.41309 3.82378 7.48338 3.79582 7.55416C3.61916 8.00332 3.20582 8.33332 2.72416 8.33332C2.13999 8.33332 1.66666 8.80666 1.66666 9.39082V10.6092C1.66666 11.1933 2.13999 11.6667 2.72416 11.6667C3.20582 11.6667 3.61916 11.9967 3.79582 12.4458C3.82416 12.5167 3.85416 12.5875 3.88332 12.6567C4.07582 13.0992 4.01749 13.625 3.67666 13.9667C3.4785 14.165 3.36719 14.4338 3.36719 14.7142C3.36719 14.9945 3.4785 15.2634 3.67666 15.4617L4.53832 16.3233C4.73662 16.5215 5.00549 16.6328 5.28582 16.6328C5.56616 16.6328 5.83502 16.5215 6.03332 16.3233C6.37499 15.9817 6.89999 15.9233 7.34332 16.1158C7.41249 16.1467 7.48332 16.1758 7.55416 16.2042C8.00332 16.3808 8.33332 16.7942 8.33332 17.2758C8.33332 17.86 8.80666 18.3333 9.39082 18.3333H10.6092C11.1933 18.3333 11.6667 17.86 11.6667 17.2758C11.6667 16.7942 11.9967 16.3808 12.4458 16.2033C12.5167 16.1758 12.5875 16.1467 12.6567 16.1167C13.0992 15.9233 13.625 15.9825 13.9658 16.3233C14.064 16.4216 14.1806 16.4995 14.309 16.5527C14.4373 16.6058 14.5748 16.6332 14.7137 16.6332C14.8526 16.6332 14.9902 16.6058 15.1185 16.5527C15.2469 16.4995 15.3635 16.4216 15.4617 16.3233L16.3233 15.4617C16.5215 15.2634 16.6328 14.9945 16.6328 14.7142C16.6328 14.4338 16.5215 14.165 16.3233 13.9667C15.9817 13.625 15.9233 13.1 16.1158 12.6567C16.1467 12.5875 16.1758 12.5167 16.2042 12.4458C16.3808 11.9967 16.7942 11.6667 17.2758 11.6667C17.86 11.6667 18.3333 11.1933 18.3333 10.6092V9.39166C18.3333 8.80749 17.86 8.33416 17.2758 8.33416C16.7942 8.33416 16.3808 8.00416 16.2033 7.55499C16.1754 7.4842 16.1462 7.41391 16.1158 7.34416C15.9242 6.90166 15.9825 6.37582 16.3233 6.03416C16.5215 5.83586 16.6328 5.56699 16.6328 5.28666C16.6328 5.00632 16.5215 4.73745 16.3233 4.53916L15.4617 3.67749C15.2634 3.47933 14.9945 3.36802 14.7142 3.36802C14.4338 3.36802 14.165 3.47933 13.9667 3.67749C13.625 4.01916 13.1 4.07749 12.6567 3.88499C12.5869 3.85433 12.5166 3.82488 12.4458 3.79666C11.9967 3.61916 11.6667 3.20499 11.6667 2.72416Z" stroke="#A3A3A3" stroke-width="1.66667"/>
<path d="M13.3333 9.99999C13.3333 10.884 12.9821 11.7319 12.357 12.357C11.7319 12.9821 10.884 13.3333 9.99999 13.3333C9.11593 13.3333 8.26809 12.9821 7.64297 12.357C7.01785 11.7319 6.66666 10.884 6.66666 9.99999C6.66666 9.11593 7.01785 8.26809 7.64297 7.64297C8.26809 7.01785 9.11593 6.66666 9.99999 6.66666C10.884 6.66666 11.7319 7.01785 12.357 7.64297C12.9821 8.26809 13.3333 9.11593 13.3333 9.99999Z" stroke="#A3A3A3" stroke-width="1.66667"/>
</svg>
