<svg width="1429" height="568" viewBox="0 0 1429 568" fill="none" xmlns="http://www.w3.org/2000/svg">
<g filter="url(#filter0_d_773_7678)">
<rect x="54" y="14" width="129" height="128" rx="21.4461" fill="#0755E9"/>
</g>
<path d="M92.5 63C98.299 63 103 58.299 103 52.5C103 46.701 98.299 42 92.5 42C86.701 42 82 46.701 82 52.5C82 58.299 86.701 63 92.5 63Z" stroke="white" stroke-width="2" stroke-linecap="round" stroke-linejoin="round"/>
<path d="M99.9248 59.925L106 66" stroke="white" stroke-width="2" stroke-linecap="round" stroke-linejoin="round"/>
<path d="M90.456 112L88.944 107.992H82.776L81.264 112H78L84.192 95.464H87.504L93.696 112H90.456ZM85.848 98.992L83.808 105.304H87.936L85.848 98.992ZM97.0871 106.024V112H94.1591V100.792H97.0871V102.448C97.7351 101.224 99.1031 100.552 100.423 100.552C103.039 100.552 104.599 102.184 104.599 105.376V112H101.671V105.904C101.671 104.272 100.807 103.408 99.5351 103.408C98.1911 103.408 97.0871 104.08 97.0871 106.024ZM115.072 112V110.56C114.376 111.712 112.672 112.216 111.592 112.216C108.64 112.216 105.88 109.96 105.88 106.384C105.88 102.808 108.64 100.552 111.592 100.552C112.624 100.552 114.232 100.96 115.072 102.184V100.792H118V112H115.072ZM108.904 106.384C108.904 108.208 110.368 109.408 112 109.408C113.608 109.408 115.072 108.304 115.072 106.384C115.072 104.464 113.536 103.36 112 103.36C110.368 103.36 108.904 104.56 108.904 106.384ZM120.119 112V94.696H123.047V112H120.119ZM135.545 100.792L128.609 117.472H125.513L128.081 111.136L123.713 100.792H126.833L129.617 107.776L132.425 100.792H135.545ZM140.318 107.704L138.782 107.32C135.878 106.552 135.614 105.184 135.614 103.888C135.614 102.064 137.534 100.552 139.742 100.552C141.878 100.552 143.99 101.512 144.11 104.08H141.326C141.254 103.24 140.486 102.928 139.814 102.928C139.07 102.928 138.398 103.192 138.398 104.032C138.398 104.488 138.926 104.8 139.574 104.968L141.446 105.424C144.038 106.144 144.374 107.872 144.374 108.784C144.374 111.088 142.118 112.24 139.79 112.24C137.582 112.24 135.35 110.872 135.278 108.472H138.014C138.086 109.264 138.998 109.96 140.078 109.888C140.918 109.864 141.542 109.408 141.542 108.76C141.566 108.184 141.158 107.896 140.318 107.704ZM148.673 100.792V112H145.769V100.792H148.673ZM145.337 96.448C145.337 95.464 146.201 94.696 147.233 94.696C148.265 94.696 149.081 95.464 149.081 96.448C149.081 97.48 148.265 98.224 147.233 98.224C146.201 98.224 145.337 97.48 145.337 96.448ZM155.027 107.704L153.491 107.32C150.587 106.552 150.323 105.184 150.323 103.888C150.323 102.064 152.243 100.552 154.451 100.552C156.587 100.552 158.699 101.512 158.819 104.08H156.035C155.963 103.24 155.195 102.928 154.523 102.928C153.779 102.928 153.107 103.192 153.107 104.032C153.107 104.488 153.635 104.8 154.283 104.968L156.155 105.424C158.747 106.144 159.083 107.872 159.083 108.784C159.083 111.088 156.827 112.24 154.499 112.24C152.291 112.24 150.059 110.872 149.987 108.472H152.723C152.795 109.264 153.707 109.96 154.787 109.888C155.627 109.864 156.251 109.408 156.251 108.76C156.275 108.184 155.867 107.896 155.027 107.704Z" fill="white"/>
<g filter="url(#filter1_d_773_7678)">
<rect x="642" y="14" width="285" height="128" rx="21.4461" fill="#0755E9"/>
</g>
<path d="M680.5 58C681.881 58 683 56.8807 683 55.5C683 54.1193 681.881 53 680.5 53C679.119 53 678 54.1193 678 55.5C678 56.8807 679.119 58 680.5 58Z" stroke="white" stroke-width="2" stroke-linecap="round" stroke-linejoin="round"/>
<path d="M670 66L678.738 57.2625" stroke="white" stroke-width="2" stroke-linecap="round" stroke-linejoin="round"/>
<path d="M670 66L687.438 63.1C687.61 63.0706 687.771 62.9962 687.905 62.8842C688.039 62.7722 688.141 62.6267 688.2 62.4625L691 55L681 45L673.537 47.8C673.373 47.8626 673.228 47.9671 673.116 48.103C673.004 48.2389 672.93 48.4016 672.9 48.575L670 66Z" stroke="white" stroke-width="2" stroke-linecap="round" stroke-linejoin="round"/>
<path d="M691 55L694.288 51.7125C694.382 51.6195 694.457 51.5086 694.508 51.3862C694.559 51.2639 694.586 51.1326 694.586 51C694.586 50.8674 694.559 50.7361 694.508 50.6138C694.457 50.4915 694.382 50.3806 694.288 50.2875L685.712 41.7125C685.619 41.618 685.509 41.543 685.386 41.4918C685.264 41.4406 685.133 41.4142 685 41.4142C684.867 41.4142 684.736 41.4406 684.614 41.4918C684.491 41.543 684.381 41.618 684.288 41.7125L681 45" stroke="white" stroke-width="2" stroke-linecap="round" stroke-linejoin="round"/>
<path d="M667.104 107.176H670.176C670.248 108.4 671.256 109.504 673.032 109.504C674.688 109.504 675.696 108.64 675.768 107.512C675.84 106.432 675.072 105.688 673.488 105.256L671.448 104.728C667.848 103.696 667.272 101.56 667.272 100.12C667.272 97.216 669.792 95.272 672.84 95.272C675.96 95.272 678.336 97.192 678.336 100.264H675.264C675.264 98.944 674.328 98.104 672.792 98.104C671.424 98.104 670.32 98.872 670.32 100.048C670.32 100.528 670.512 101.512 672.288 101.944L674.328 102.544C678.048 103.576 678.96 105.64 678.84 107.584C678.72 110.56 676.032 112.264 673.032 112.264C669.504 112.264 667.104 110.008 667.104 107.176ZM687.436 112L683.212 107.2V112H680.308V94.696H683.212V104.152L686.308 100.792H690.1L685.396 105.712L691.108 112H687.436ZM701.626 106.36C701.626 106.648 701.602 107.104 701.578 107.368H693.034C693.226 108.88 694.474 109.768 696.13 109.768C697.258 109.768 698.386 109.288 698.938 108.328C699.634 108.712 700.426 109.144 701.17 109.528C700.138 111.448 698.002 112.24 695.938 112.24C692.746 112.24 690.13 109.888 690.13 106.36C690.13 102.808 692.746 100.552 695.938 100.552C699.106 100.552 701.626 102.808 701.626 106.36ZM693.01 105.376H698.77C698.554 103.84 697.402 103 695.962 103C694.426 103 693.226 103.84 693.01 105.376ZM706.732 96.52V100.792H709.108V103.144H706.732V112H703.828V103.144H701.788V100.792H703.828V96.52H706.732ZM709.245 106.36C709.245 102.808 712.077 100.552 715.293 100.552C717.189 100.552 718.893 101.32 719.949 102.736L717.621 104.488C717.069 103.744 716.229 103.384 715.293 103.384C713.661 103.384 712.149 104.536 712.149 106.36C712.149 108.184 713.661 109.432 715.293 109.432C716.229 109.432 717.069 109.048 717.621 108.304L719.973 110.032C718.917 111.448 717.213 112.24 715.293 112.24C712.077 112.24 709.245 109.888 709.245 106.36ZM724.162 106.024V112H721.234V94.696H724.162V102.52C724.666 101.176 726.538 100.552 727.642 100.552C730.546 100.552 732.154 102.472 732.154 105.76V112H729.226V105.904C729.226 104.296 728.05 103.408 726.85 103.408C725.626 103.408 724.162 104.08 724.162 106.024ZM737.024 100.792V112H734.12V100.792H737.024ZM733.688 96.448C733.688 95.464 734.552 94.696 735.584 94.696C736.616 94.696 737.432 95.464 737.432 96.448C737.432 97.48 736.616 98.224 735.584 98.224C734.552 98.224 733.688 97.48 733.688 96.448ZM742.059 106.024V112H739.131V100.792H742.059V102.448C742.707 101.224 744.075 100.552 745.395 100.552C748.011 100.552 749.571 102.184 749.571 105.376V112H746.643V105.904C746.643 104.272 745.779 103.408 744.507 103.408C743.163 103.408 742.059 104.08 742.059 106.024ZM759.972 106.384C759.972 104.464 758.532 103.36 756.924 103.36C755.292 103.36 753.9 104.56 753.9 106.384C753.9 108.256 755.292 109.456 756.924 109.456C758.436 109.456 759.972 108.28 759.972 106.384ZM753.66 113.08C754.14 114.208 755.46 114.928 756.636 114.928C759.468 114.928 760.236 112.816 760.044 110.464C759.468 111.592 757.908 112.24 756.468 112.24C753.54 112.24 750.852 109.984 750.852 106.432C750.852 102.832 753.54 100.552 756.468 100.552C757.932 100.552 759.396 101.176 760.044 102.304V100.792H762.9V110.392C762.9 115.384 760.524 117.592 756.636 117.592C754.308 117.592 752.268 116.32 751.284 114.28C751.932 113.968 753.012 113.392 753.66 113.08ZM778.245 104.344H775.245C773.085 104.344 772.341 106.024 772.461 107.08C772.629 108.496 773.613 109.384 775.245 109.384C776.781 109.384 778.245 108.304 778.245 106V104.344ZM774.909 112.24C771.717 112.24 769.365 110.128 769.365 107.248C769.365 105.232 770.277 103.72 772.005 102.976C770.973 102.472 770.229 101.32 770.229 99.784C770.229 97.432 772.173 95.464 774.861 95.344C776.781 95.272 778.389 96.184 779.349 97.552L776.877 99.064C776.493 98.56 775.965 98.176 775.221 98.176C773.997 98.176 773.349 99.064 773.349 99.952C773.349 100.408 773.661 101.968 775.341 101.968H778.245V100H780.981V101.968H782.973V104.344H780.981V107.08C780.981 108.928 781.317 109.648 783.309 109.648V112.24C781.005 112.216 779.541 111.808 778.965 110.272C778.269 111.52 776.373 112.24 774.909 112.24ZM802.454 106.984L806.006 95.464H809.342L803.726 112H801.254L798.71 102.616L796.214 112H793.718L788.15 95.464H791.462L794.99 106.984L797.51 97.768H799.958L802.454 106.984ZM812.788 100.792V112H809.884V100.792H812.788ZM809.452 96.448C809.452 95.464 810.316 94.696 811.348 94.696C812.38 94.696 813.196 95.464 813.196 96.448C813.196 97.48 812.38 98.224 811.348 98.224C810.316 98.224 809.452 97.48 809.452 96.448ZM817.823 108.04V112H814.895V100.792H817.823V103.432C818.399 101.392 819.719 100.552 820.991 100.552C821.783 100.552 822.383 100.696 822.839 100.96L822.335 103.6C821.639 103.288 820.919 103.288 820.631 103.288C818.639 103.288 817.823 105.064 817.823 108.04ZM830.594 94.696V97.504H829.37C828.002 97.504 827.546 98.536 827.546 99.904V100.792H829.922V103.144H827.546V112H824.594V103.144H822.458V100.792H824.594V99.904C824.594 96.616 826.202 94.696 829.37 94.696H830.594ZM833.868 108.04V112H830.94V100.792H833.868V103.432C834.444 101.392 835.764 100.552 837.036 100.552C837.828 100.552 838.428 100.696 838.884 100.96L838.38 103.6C837.684 103.288 836.964 103.288 836.676 103.288C834.684 103.288 833.868 105.064 833.868 108.04ZM847.869 112V110.56C847.173 111.712 845.469 112.216 844.389 112.216C841.437 112.216 838.677 109.96 838.677 106.384C838.677 102.808 841.437 100.552 844.389 100.552C845.421 100.552 847.029 100.96 847.869 102.184V100.792H850.797V112H847.869ZM841.701 106.384C841.701 108.208 843.165 109.408 844.797 109.408C846.405 109.408 847.869 108.304 847.869 106.384C847.869 104.464 846.333 103.36 844.797 103.36C843.165 103.36 841.701 104.56 841.701 106.384ZM865.467 103.408C864.123 103.408 863.187 104.296 863.187 106.024V112H860.259V105.832C860.235 104.272 859.347 103.408 858.195 103.408C856.995 103.408 855.843 104.104 855.843 106.024V112H852.915V100.792H855.843V102.448C856.491 101.08 857.979 100.576 859.059 100.576C860.859 100.672 861.987 101.296 862.635 102.664C863.667 100.792 865.299 100.552 866.163 100.552C868.875 100.552 870.483 102.304 870.483 105.592V112H867.579V105.904C867.579 104.272 866.691 103.408 865.467 103.408ZM875.362 100.792V112H872.458V100.792H875.362ZM872.026 96.448C872.026 95.464 872.89 94.696 873.922 94.696C874.954 94.696 875.77 95.464 875.77 96.448C875.77 97.48 874.954 98.224 873.922 98.224C872.89 98.224 872.026 97.48 872.026 96.448ZM880.397 106.024V112H877.469V100.792H880.397V102.448C881.045 101.224 882.413 100.552 883.733 100.552C886.349 100.552 887.909 102.184 887.909 105.376V112H884.981V105.904C884.981 104.272 884.117 103.408 882.845 103.408C881.501 103.408 880.397 104.08 880.397 106.024ZM898.31 106.384C898.31 104.464 896.87 103.36 895.262 103.36C893.63 103.36 892.238 104.56 892.238 106.384C892.238 108.256 893.63 109.456 895.262 109.456C896.774 109.456 898.31 108.28 898.31 106.384ZM891.998 113.08C892.478 114.208 893.798 114.928 894.974 114.928C897.806 114.928 898.574 112.816 898.382 110.464C897.806 111.592 896.246 112.24 894.806 112.24C891.878 112.24 889.19 109.984 889.19 106.432C889.19 102.832 891.878 100.552 894.806 100.552C896.27 100.552 897.734 101.176 898.382 102.304V100.792H901.238V110.392C901.238 115.384 898.862 117.592 894.974 117.592C892.646 117.592 890.606 116.32 889.622 114.28C890.27 113.968 891.35 113.392 891.998 113.08Z" fill="white"/>
<g filter="url(#filter2_d_773_7678)">
<rect x="343" y="346" width="225" height="128" rx="21.4461" fill="#0755E9"/>
</g>
<path d="M382.48 429.792L380.224 431.76C379.264 430.776 377.992 430.152 376.48 430.152C373.456 430.152 371.128 432.672 371.128 435.768C371.128 438.84 373.456 441.408 376.48 441.408C378.664 441.408 380.872 440.088 380.944 437.976H376.408V435.456H384.472C384.472 441.528 381.232 444.24 376.48 444.24C371.752 444.24 368.056 440.424 368.056 435.768C368.056 431.088 371.752 427.272 376.48 427.272C378.904 427.272 381.04 428.256 382.48 429.792ZM388.525 440.04V444H385.597V432.792H388.525V435.432C389.101 433.392 390.421 432.552 391.693 432.552C392.485 432.552 393.085 432.696 393.541 432.96L393.037 435.6C392.341 435.288 391.621 435.288 391.333 435.288C389.341 435.288 388.525 437.064 388.525 440.04ZM402.525 444V442.56C401.829 443.712 400.125 444.216 399.045 444.216C396.093 444.216 393.333 441.96 393.333 438.384C393.333 434.808 396.093 432.552 399.045 432.552C400.077 432.552 401.685 432.96 402.525 434.184V432.792H405.453V444H402.525ZM396.357 438.384C396.357 440.208 397.821 441.408 399.453 441.408C401.061 441.408 402.525 440.304 402.525 438.384C402.525 436.464 400.989 435.36 399.453 435.36C397.821 435.36 396.357 436.56 396.357 438.384ZM410.5 432.792V434.304C411.1 433.176 412.54 432.552 414.004 432.552C416.932 432.552 419.476 434.856 419.476 438.384C419.476 441.96 416.932 444.24 414.004 444.24C412.54 444.24 411.1 443.64 410.5 442.512V449.448H407.572V432.792H410.5ZM410.548 438.432C410.548 440.352 411.988 441.456 413.524 441.456C415.132 441.456 416.476 440.256 416.476 438.432C416.476 436.584 415.132 435.36 413.524 435.36C411.916 435.36 410.548 436.56 410.548 438.432ZM423.831 438.024V444H420.903V426.696H423.831V434.52C424.335 433.176 426.207 432.552 427.311 432.552C430.215 432.552 431.823 434.472 431.823 437.76V444H428.895V437.904C428.895 436.296 427.719 435.408 426.519 435.408C425.295 435.408 423.831 436.08 423.831 438.024ZM436.693 432.792V444H433.789V432.792H436.693ZM433.357 428.448C433.357 427.464 434.221 426.696 435.253 426.696C436.285 426.696 437.101 427.464 437.101 428.448C437.101 429.48 436.285 430.224 435.253 430.224C434.221 430.224 433.357 429.48 433.357 428.448ZM438.08 438.36C438.08 434.808 440.912 432.552 444.128 432.552C446.024 432.552 447.728 433.32 448.784 434.736L446.456 436.488C445.904 435.744 445.064 435.384 444.128 435.384C442.496 435.384 440.984 436.536 440.984 438.36C440.984 440.184 442.496 441.432 444.128 441.432C445.064 441.432 445.904 441.048 446.456 440.304L448.808 442.032C447.752 443.448 446.048 444.24 444.128 444.24C440.912 444.24 438.08 441.888 438.08 438.36ZM455.23 444V427.464H458.278V444H455.23ZM463.721 438.024V444H460.793V432.792H463.721V434.448C464.369 433.224 465.737 432.552 467.057 432.552C469.673 432.552 471.233 434.184 471.233 437.376V444H468.305V437.904C468.305 436.272 467.441 435.408 466.169 435.408C464.825 435.408 463.721 436.08 463.721 438.024ZM477.051 428.52V432.792H479.427V435.144H477.051V444H474.147V435.144H472.107V432.792H474.147V428.52H477.051ZM491.084 438.36C491.084 438.648 491.06 439.104 491.036 439.368H482.492C482.684 440.88 483.932 441.768 485.588 441.768C486.716 441.768 487.844 441.288 488.396 440.328C489.092 440.712 489.884 441.144 490.628 441.528C489.596 443.448 487.46 444.24 485.396 444.24C482.204 444.24 479.588 441.888 479.588 438.36C479.588 434.808 482.204 432.552 485.396 432.552C488.564 432.552 491.084 434.808 491.084 438.36ZM482.468 437.376H488.228C488.012 435.84 486.86 435 485.42 435C483.884 435 482.684 435.84 482.468 437.376ZM495.278 440.04V444H492.35V432.792H495.278V435.432C495.854 433.392 497.174 432.552 498.446 432.552C499.238 432.552 499.838 432.696 500.294 432.96L499.79 435.6C499.094 435.288 498.374 435.288 498.086 435.288C496.094 435.288 495.278 437.064 495.278 440.04ZM508.049 426.696V429.504H506.825C505.457 429.504 505.001 430.536 505.001 431.904V432.792H507.377V435.144H505.001V444H502.049V435.144H499.913V432.792H502.049V431.904C502.049 428.616 503.657 426.696 506.825 426.696H508.049ZM516.75 444V442.56C516.054 443.712 514.35 444.216 513.27 444.216C510.318 444.216 507.558 441.96 507.558 438.384C507.558 434.808 510.318 432.552 513.27 432.552C514.302 432.552 515.91 432.96 516.75 434.184V432.792H519.678V444H516.75ZM510.582 438.384C510.582 440.208 512.046 441.408 513.678 441.408C515.286 441.408 516.75 440.304 516.75 438.384C516.75 436.464 515.214 435.36 513.678 435.36C512.046 435.36 510.582 436.56 510.582 438.384ZM521.077 438.36C521.077 434.808 523.909 432.552 527.125 432.552C529.021 432.552 530.725 433.32 531.781 434.736L529.453 436.488C528.901 435.744 528.061 435.384 527.125 435.384C525.493 435.384 523.981 436.536 523.981 438.36C523.981 440.184 525.493 441.432 527.125 441.432C528.061 441.432 528.901 441.048 529.453 440.304L531.805 442.032C530.749 443.448 529.045 444.24 527.125 444.24C523.909 444.24 521.077 441.888 521.077 438.36ZM543.701 438.36C543.701 438.648 543.677 439.104 543.653 439.368H535.109C535.301 440.88 536.549 441.768 538.205 441.768C539.333 441.768 540.461 441.288 541.013 440.328C541.709 440.712 542.501 441.144 543.245 441.528C542.213 443.448 540.077 444.24 538.013 444.24C534.821 444.24 532.205 441.888 532.205 438.36C532.205 434.808 534.821 432.552 538.013 432.552C541.181 432.552 543.701 434.808 543.701 438.36ZM535.085 437.376H540.845C540.629 435.84 539.477 435 538.037 435C536.501 435 535.301 435.84 535.085 437.376Z" fill="white"/>
<path d="M380 383V396" stroke="white" stroke-width="2" stroke-linecap="round" stroke-linejoin="round"/>
<path d="M371 383H395" stroke="white" stroke-width="2" stroke-linecap="round" stroke-linejoin="round"/>
<path d="M394 376H372C371.448 376 371 376.448 371 377V395C371 395.552 371.448 396 372 396H394C394.552 396 395 395.552 395 395V377C395 376.448 394.552 376 394 376Z" stroke="white" stroke-width="2" stroke-linecap="round" stroke-linejoin="round"/>
<g filter="url(#filter3_d_773_7678)">
<rect x="946" y="346" width="178" height="128" rx="21.4461" fill="#0755E9"/>
</g>
<path d="M978.184 441.336C979.84 441.336 981.376 440.088 981.376 438.168V427.464H984.448V438.168C984.448 441.864 981.544 444.24 978.184 444.24C974.8 444.24 971.896 441.864 971.896 438.168V427.464H975.016V438.168C975.016 440.088 976.528 441.336 978.184 441.336ZM987.2 444V427.464H990.248V444H987.2ZM1011.34 429.792L1009.08 431.76C1008.12 430.776 1006.85 430.152 1005.34 430.152C1002.32 430.152 999.989 432.672 999.989 435.768C999.989 438.84 1002.32 441.408 1005.34 441.408C1007.52 441.408 1009.73 440.088 1009.8 437.976H1005.27V435.456H1013.33C1013.33 441.528 1010.09 444.24 1005.34 444.24C1000.61 444.24 996.917 440.424 996.917 435.768C996.917 431.088 1000.61 427.272 1005.34 427.272C1007.76 427.272 1009.9 428.256 1011.34 429.792ZM1021.83 438.768V432.792H1024.75V444H1021.83V442.416C1021.2 443.616 1019.86 444.24 1018.73 444.24C1016.07 444.24 1014.31 442.584 1014.31 439.416V432.792H1017.27V438.888C1017.27 440.712 1018.37 441.384 1019.4 441.384C1020.63 441.384 1021.83 440.712 1021.83 438.768ZM1029.78 432.792V444H1026.87V432.792H1029.78ZM1026.44 428.448C1026.44 427.464 1027.31 426.696 1028.34 426.696C1029.37 426.696 1030.19 427.464 1030.19 428.448C1030.19 429.48 1029.37 430.224 1028.34 430.224C1027.31 430.224 1026.44 429.48 1026.44 428.448ZM1040.21 444V442.488C1039.57 443.616 1038.15 444.24 1036.69 444.24C1033.73 444.24 1031.19 441.96 1031.19 438.408C1031.19 434.832 1033.73 432.552 1036.69 432.552C1038.2 432.552 1039.57 433.152 1040.21 434.28V426.696H1043.12V444H1040.21ZM1040.17 438.36C1040.17 436.44 1038.7 435.336 1037.17 435.336C1035.53 435.336 1034.21 436.536 1034.21 438.36C1034.21 440.208 1035.53 441.432 1037.17 441.432C1038.77 441.432 1040.17 440.232 1040.17 438.36ZM1056.04 438.36C1056.04 438.648 1056.02 439.104 1055.99 439.368H1047.45C1047.64 440.88 1048.89 441.768 1050.54 441.768C1051.67 441.768 1052.8 441.288 1053.35 440.328C1054.05 440.712 1054.84 441.144 1055.58 441.528C1054.55 443.448 1052.42 444.24 1050.35 444.24C1047.16 444.24 1044.54 441.888 1044.54 438.36C1044.54 434.808 1047.16 432.552 1050.35 432.552C1053.52 432.552 1056.04 434.808 1056.04 438.36ZM1047.42 437.376H1053.18C1052.97 435.84 1051.82 435 1050.38 435C1048.84 435 1047.64 435.84 1047.42 437.376ZM1057.31 444V426.696H1060.23V444H1057.31ZM1065.24 432.792V444H1062.34V432.792H1065.24ZM1061.91 428.448C1061.91 427.464 1062.77 426.696 1063.8 426.696C1064.84 426.696 1065.65 427.464 1065.65 428.448C1065.65 429.48 1064.84 430.224 1063.8 430.224C1062.77 430.224 1061.91 429.48 1061.91 428.448ZM1070.28 438.024V444H1067.35V432.792H1070.28V434.448C1070.93 433.224 1072.3 432.552 1073.62 432.552C1076.23 432.552 1077.79 434.184 1077.79 437.376V444H1074.86V437.904C1074.86 436.272 1074 435.408 1072.73 435.408C1071.38 435.408 1070.28 436.08 1070.28 438.024ZM1090.57 438.36C1090.57 438.648 1090.54 439.104 1090.52 439.368H1081.98C1082.17 440.88 1083.42 441.768 1085.07 441.768C1086.2 441.768 1087.33 441.288 1087.88 440.328C1088.58 440.712 1089.37 441.144 1090.11 441.528C1089.08 443.448 1086.94 444.24 1084.88 444.24C1081.69 444.24 1079.07 441.888 1079.07 438.36C1079.07 434.808 1081.69 432.552 1084.88 432.552C1088.05 432.552 1090.57 434.808 1090.57 438.36ZM1081.95 437.376H1087.71C1087.5 435.84 1086.34 435 1084.9 435C1083.37 435 1082.17 435.84 1081.95 437.376ZM1096.08 439.704L1094.55 439.32C1091.64 438.552 1091.38 437.184 1091.38 435.888C1091.38 434.064 1093.3 432.552 1095.51 432.552C1097.64 432.552 1099.75 433.512 1099.87 436.08H1097.09C1097.02 435.24 1096.25 434.928 1095.58 434.928C1094.83 434.928 1094.16 435.192 1094.16 436.032C1094.16 436.488 1094.69 436.8 1095.34 436.968L1097.21 437.424C1099.8 438.144 1100.14 439.872 1100.14 440.784C1100.14 443.088 1097.88 444.24 1095.55 444.24C1093.35 444.24 1091.11 442.872 1091.04 440.472H1093.78C1093.85 441.264 1094.76 441.96 1095.84 441.888C1096.68 441.864 1097.31 441.408 1097.31 440.76C1097.33 440.184 1096.92 439.896 1096.08 439.704Z" fill="white"/>
<path d="M986 381C986 379.939 986.421 378.922 987.172 378.172C987.922 377.421 988.939 377 990 377H998C998.265 377 998.52 377.105 998.707 377.293C998.895 377.48 999 377.735 999 378V394C999 394.265 998.895 394.52 998.707 394.707C998.52 394.895 998.265 395 998 395H990C988.939 395 987.922 395.421 987.172 396.172C986.421 396.922 986 397.939 986 399" stroke="white" stroke-width="2" stroke-linecap="round" stroke-linejoin="round"/>
<path d="M973 394C973 394.265 973.105 394.52 973.293 394.707C973.48 394.895 973.735 395 974 395H982C983.061 395 984.078 395.421 984.828 396.172C985.579 396.922 986 397.939 986 399V381C986 379.939 985.579 378.922 984.828 378.172C984.078 377.421 983.061 377 982 377H974C973.735 377 973.48 377.105 973.293 377.293C973.105 377.48 973 377.735 973 378V394Z" stroke="white" stroke-width="2" stroke-linecap="round" stroke-linejoin="round"/>
<g filter="url(#filter4_d_773_7678)">
<rect x="1182" y="278" width="193" height="128" rx="21.4461" fill="#1B232E"/>
</g>
<path d="M1211.14 362.272V373.192H1214.52C1217.45 373.192 1218.91 370.744 1218.91 367.768C1218.91 364.768 1217.45 362.272 1214.52 362.272H1211.14ZM1214.52 376H1208.06V359.464H1214.52C1219.25 359.464 1221.98 363.064 1221.98 367.768C1221.98 372.472 1219.25 376 1214.52 376ZM1234.27 370.36C1234.27 370.648 1234.25 371.104 1234.22 371.368H1225.68C1225.87 372.88 1227.12 373.768 1228.78 373.768C1229.9 373.768 1231.03 373.288 1231.58 372.328C1232.28 372.712 1233.07 373.144 1233.82 373.528C1232.78 375.448 1230.65 376.24 1228.58 376.24C1225.39 376.24 1222.78 373.888 1222.78 370.36C1222.78 366.808 1225.39 364.552 1228.58 364.552C1231.75 364.552 1234.27 366.808 1234.27 370.36ZM1225.66 369.376H1231.42C1231.2 367.84 1230.05 367 1228.61 367C1227.07 367 1225.87 367.84 1225.66 369.376ZM1239.79 371.704L1238.25 371.32C1235.35 370.552 1235.08 369.184 1235.08 367.888C1235.08 366.064 1237 364.552 1239.21 364.552C1241.35 364.552 1243.46 365.512 1243.58 368.08H1240.79C1240.72 367.24 1239.95 366.928 1239.28 366.928C1238.54 366.928 1237.87 367.192 1237.87 368.032C1237.87 368.488 1238.39 368.8 1239.04 368.968L1240.91 369.424C1243.51 370.144 1243.84 371.872 1243.84 372.784C1243.84 375.088 1241.59 376.24 1239.26 376.24C1237.05 376.24 1234.82 374.872 1234.75 372.472H1237.48C1237.55 373.264 1238.47 373.96 1239.55 373.888C1240.39 373.864 1241.01 373.408 1241.01 372.76C1241.03 372.184 1240.63 371.896 1239.79 371.704ZM1248.14 364.792V376H1245.24V364.792H1248.14ZM1244.8 360.448C1244.8 359.464 1245.67 358.696 1246.7 358.696C1247.73 358.696 1248.55 359.464 1248.55 360.448C1248.55 361.48 1247.73 362.224 1246.7 362.224C1245.67 362.224 1244.8 361.48 1244.8 360.448ZM1258.67 370.384C1258.67 368.464 1257.23 367.36 1255.62 367.36C1253.99 367.36 1252.6 368.56 1252.6 370.384C1252.6 372.256 1253.99 373.456 1255.62 373.456C1257.13 373.456 1258.67 372.28 1258.67 370.384ZM1252.36 377.08C1252.84 378.208 1254.16 378.928 1255.33 378.928C1258.17 378.928 1258.93 376.816 1258.74 374.464C1258.17 375.592 1256.61 376.24 1255.17 376.24C1252.24 376.24 1249.55 373.984 1249.55 370.432C1249.55 366.832 1252.24 364.552 1255.17 364.552C1256.63 364.552 1258.09 365.176 1258.74 366.304V364.792H1261.6V374.392C1261.6 379.384 1259.22 381.592 1255.33 381.592C1253.01 381.592 1250.97 380.32 1249.98 378.28C1250.63 377.968 1251.71 377.392 1252.36 377.08ZM1266.65 370.024V376H1263.72V364.792H1266.65V366.448C1267.29 365.224 1268.66 364.552 1269.98 364.552C1272.6 364.552 1274.16 366.184 1274.16 369.376V376H1271.23V369.904C1271.23 368.272 1270.37 367.408 1269.09 367.408C1267.75 367.408 1266.65 368.08 1266.65 370.024ZM1287.78 362.2H1284.37V367.384H1287.68C1289.31 367.384 1290.01 366.04 1290.01 364.816C1290.01 363.616 1289.31 362.2 1287.78 362.2ZM1289 370L1293.22 376H1289.53L1285.64 370.12H1284.37V376H1281.3V359.464H1287.92C1291.57 359.464 1293.2 362.128 1293.2 364.816C1293.2 367.168 1291.95 369.544 1289 370ZM1305.16 370.36C1305.16 370.648 1305.14 371.104 1305.11 371.368H1296.57C1296.76 372.88 1298.01 373.768 1299.66 373.768C1300.79 373.768 1301.92 373.288 1302.47 372.328C1303.17 372.712 1303.96 373.144 1304.7 373.528C1303.67 375.448 1301.54 376.24 1299.47 376.24C1296.28 376.24 1293.66 373.888 1293.66 370.36C1293.66 366.808 1296.28 364.552 1299.47 364.552C1302.64 364.552 1305.16 366.808 1305.16 370.36ZM1296.54 369.376H1302.3C1302.09 367.84 1300.94 367 1299.5 367C1297.96 367 1296.76 367.84 1296.54 369.376ZM1309.5 376L1304.8 364.792H1307.92L1310.8 372.256L1313.68 364.792H1316.82L1312.09 376H1309.5ZM1320.36 364.792V376H1317.46V364.792H1320.36ZM1317.03 360.448C1317.03 359.464 1317.89 358.696 1318.92 358.696C1319.96 358.696 1320.77 359.464 1320.77 360.448C1320.77 361.48 1319.96 362.224 1318.92 362.224C1317.89 362.224 1317.03 361.48 1317.03 360.448ZM1333.27 370.36C1333.27 370.648 1333.25 371.104 1333.22 371.368H1324.68C1324.87 372.88 1326.12 373.768 1327.78 373.768C1328.9 373.768 1330.03 373.288 1330.58 372.328C1331.28 372.712 1332.07 373.144 1332.82 373.528C1331.78 375.448 1329.65 376.24 1327.58 376.24C1324.39 376.24 1321.78 373.888 1321.78 370.36C1321.78 366.808 1324.39 364.552 1327.58 364.552C1330.75 364.552 1333.27 366.808 1333.27 370.36ZM1324.66 369.376H1330.42C1330.2 367.84 1329.05 367 1327.61 367C1326.07 367 1324.87 367.84 1324.66 369.376ZM1350.96 364.792L1346.95 376H1344.5L1342 368.488L1339.58 376H1337.16L1333.03 364.792H1336.15L1338.43 371.872L1340.68 364.792H1343.28L1345.56 371.872L1347.84 364.792H1350.96Z" fill="white"/>
<path d="M1220.5 327C1226.3 327 1231 322.299 1231 316.5C1231 310.701 1226.3 306 1220.5 306C1214.7 306 1210 310.701 1210 316.5C1210 322.299 1214.7 327 1220.5 327Z" stroke="white" stroke-width="2" stroke-linecap="round" stroke-linejoin="round"/>
<path d="M1227.92 323.925L1234 330" stroke="white" stroke-width="2" stroke-linecap="round" stroke-linejoin="round"/>
<g filter="url(#filter5_d_773_7678)">
<rect x="1258" y="14" width="117" height="128" rx="21.4461" fill="#0755E9"/>
</g>
<path d="M1284.06 112V95.464H1294.29V98.2H1287.11V102.496H1293.4V105.208H1287.11V109.264H1294.53V112H1284.06ZM1304.24 112V110.488C1303.59 111.616 1302.17 112.24 1300.71 112.24C1297.76 112.24 1295.21 109.96 1295.21 106.408C1295.21 102.832 1297.76 100.552 1300.71 100.552C1302.22 100.552 1303.59 101.152 1304.24 102.28V94.696H1307.14V112H1304.24ZM1304.19 106.36C1304.19 104.44 1302.73 103.336 1301.19 103.336C1299.56 103.336 1298.24 104.536 1298.24 106.36C1298.24 108.208 1299.56 109.432 1301.19 109.432C1302.8 109.432 1304.19 108.232 1304.19 106.36ZM1312.17 100.792V112H1309.26V100.792H1312.17ZM1308.83 96.448C1308.83 95.464 1309.7 94.696 1310.73 94.696C1311.76 94.696 1312.58 95.464 1312.58 96.448C1312.58 97.48 1311.76 98.224 1310.73 98.224C1309.7 98.224 1308.83 97.48 1308.83 96.448ZM1318.11 96.52V100.792H1320.49V103.144H1318.11V112H1315.21V103.144H1313.17V100.792H1315.21V96.52H1318.11ZM1324.39 100.792V112H1321.49V100.792H1324.39ZM1321.06 96.448C1321.06 95.464 1321.92 94.696 1322.95 94.696C1323.98 94.696 1324.8 95.464 1324.8 96.448C1324.8 97.48 1323.98 98.224 1322.95 98.224C1321.92 98.224 1321.06 97.48 1321.06 96.448ZM1329.43 106.024V112H1326.5V100.792H1329.43V102.448C1330.08 101.224 1331.44 100.552 1332.76 100.552C1335.38 100.552 1336.94 102.184 1336.94 105.376V112H1334.01V105.904C1334.01 104.272 1333.15 103.408 1331.88 103.408C1330.53 103.408 1329.43 104.08 1329.43 106.024ZM1347.34 106.384C1347.34 104.464 1345.9 103.36 1344.29 103.36C1342.66 103.36 1341.27 104.56 1341.27 106.384C1341.27 108.256 1342.66 109.456 1344.29 109.456C1345.8 109.456 1347.34 108.28 1347.34 106.384ZM1341.03 113.08C1341.51 114.208 1342.83 114.928 1344 114.928C1346.84 114.928 1347.6 112.816 1347.41 110.464C1346.84 111.592 1345.28 112.24 1343.84 112.24C1340.91 112.24 1338.22 109.984 1338.22 106.432C1338.22 102.832 1340.91 100.552 1343.84 100.552C1345.3 100.552 1346.76 101.176 1347.41 102.304V100.792H1350.27V110.392C1350.27 115.384 1347.89 117.592 1344 117.592C1341.68 117.592 1339.64 116.32 1338.65 114.28C1339.3 113.968 1340.38 113.392 1341.03 113.08Z" fill="white"/>
<path d="M1284 48H1295" stroke="white" stroke-width="2" stroke-linecap="round" stroke-linejoin="round"/>
<path d="M1301 48H1312" stroke="white" stroke-width="2" stroke-linecap="round" stroke-linejoin="round"/>
<path d="M1298 51C1299.66 51 1301 49.6569 1301 48C1301 46.3431 1299.66 45 1298 45C1296.34 45 1295 46.3431 1295 48C1295 49.6569 1296.34 51 1298 51Z" stroke="white" stroke-width="2" stroke-linecap="round" stroke-linejoin="round"/>
<path d="M1287 63C1288.66 63 1290 61.6569 1290 60C1290 58.3431 1288.66 57 1287 57C1285.34 57 1284 58.3431 1284 60C1284 61.6569 1285.34 63 1287 63Z" stroke="white" stroke-width="2" stroke-linecap="round" stroke-linejoin="round"/>
<path d="M1309 63C1310.66 63 1312 61.6569 1312 60C1312 58.3431 1310.66 57 1309 57C1307.34 57 1306 58.3431 1306 60C1306 61.6569 1307.34 63 1309 63Z" stroke="white" stroke-width="2" stroke-linecap="round" stroke-linejoin="round"/>
<path d="M1300.98 48.4125C1302.95 48.9683 1304.74 50.0672 1306.13 51.5849C1307.51 53.1026 1308.45 54.9784 1308.83 57" stroke="white" stroke-width="2" stroke-linecap="round" stroke-linejoin="round"/>
<path d="M1287.17 57C1287.55 54.9784 1288.49 53.1026 1289.87 51.5849C1291.26 50.0672 1293.05 48.9683 1295.02 48.4125" stroke="white" stroke-width="2" stroke-linecap="round" stroke-linejoin="round"/>
<path d="M258 138H232.5C225.873 138 220.5 132.627 220.5 126L220.5 94C220.5 87.3726 215.127 82 208.5 82H183" stroke="#0755E9" stroke-width="2" stroke-linecap="round"/>
<path d="M257 138L254 138" stroke="#0755E9" stroke-width="2" stroke-linecap="round"/>
<path d="M250 146L258 138L250 130" stroke="#0755E9" stroke-width="2" stroke-linecap="round" stroke-linejoin="round"/>
<rect opacity="0.4" x="203" y="62" width="40" height="40" rx="20" transform="rotate(90 203 62)" fill="#0755E9"/>
<rect x="202" y="63" width="38" height="38" rx="19" transform="rotate(90 202 63)" stroke="#0755E9" stroke-width="2"/>
<circle cx="183" cy="82.0001" r="4.5" transform="rotate(90 183 82.0001)" fill="white" stroke="#0755E9" stroke-width="3"/>
<path d="M335 402H321.5C314.873 402 309.5 396.627 309.5 390L309.5 358C309.5 351.373 304.127 346 297.5 346H284" stroke="#0755E9" stroke-width="2" stroke-linecap="round"/>
<path d="M334 402L331 402" stroke="#0755E9" stroke-width="2" stroke-linecap="round"/>
<path d="M327 410L335 402L327 394" stroke="#0755E9" stroke-width="2" stroke-linecap="round" stroke-linejoin="round"/>
<rect opacity="0.4" x="304" y="326" width="40" height="40" rx="20" transform="rotate(90 304 326)" fill="#0755E9"/>
<rect x="303" y="327" width="38" height="38" rx="19" transform="rotate(90 303 327)" stroke="#0755E9" stroke-width="2"/>
<circle cx="284" cy="346" r="4.5" transform="rotate(90 284 346)" fill="white" stroke="#0755E9" stroke-width="3"/>
<path d="M938 402H925C918.373 402 913 396.627 913 390L913 358C913 351.373 907.627 346 901 346H888" stroke="#0755E9" stroke-width="2" stroke-linecap="round"/>
<path d="M937 402L934 402" stroke="#0755E9" stroke-width="2" stroke-linecap="round"/>
<path d="M930 410L938 402L930 394" stroke="#0755E9" stroke-width="2" stroke-linecap="round" stroke-linejoin="round"/>
<rect opacity="0.4" x="908" y="326" width="40" height="40" rx="20" transform="rotate(90 908 326)" fill="#0755E9"/>
<rect x="907" y="327" width="38" height="38" rx="19" transform="rotate(90 907 327)" stroke="#0755E9" stroke-width="2"/>
<circle cx="888" cy="346" r="4.5" transform="rotate(90 888 346)" fill="white" stroke="#0755E9" stroke-width="3"/>
<path d="M1002 138H976.5C969.873 138 964.5 132.627 964.5 126L964.5 94C964.5 87.3726 959.127 82 952.5 82H927" stroke="#0755E9" stroke-width="2" stroke-linecap="round"/>
<path d="M1001 138L998 138" stroke="#0755E9" stroke-width="2" stroke-linecap="round"/>
<path d="M994 146L1002 138L994 130" stroke="#0755E9" stroke-width="2" stroke-linecap="round" stroke-linejoin="round"/>
<rect opacity="0.4" x="947" y="62" width="40" height="40" rx="20" transform="rotate(90 947 62)" fill="#0755E9"/>
<rect x="946" y="63" width="38" height="38" rx="19" transform="rotate(90 946 63)" stroke="#0755E9" stroke-width="2"/>
<circle cx="927" cy="82.0001" r="4.5" transform="rotate(90 927 82.0001)" fill="white" stroke="#0755E9" stroke-width="3"/>
<path d="M634 70H608.5C601.873 70 596.5 75.3726 596.5 82L596.5 138C596.5 144.627 591.127 150 584.5 150H559" stroke="#0755E9" stroke-width="2" stroke-linecap="round"/>
<path d="M633 70L630 70" stroke="#0755E9" stroke-width="2" stroke-linecap="round"/>
<path d="M626 62L634 70L626 78" stroke="#0755E9" stroke-width="2" stroke-linecap="round" stroke-linejoin="round"/>
<rect opacity="0.4" width="40" height="40" rx="20" transform="matrix(0 -1 -1 0 579 170)" fill="#0755E9"/>
<rect x="-1" y="-1" width="38" height="38" rx="19" transform="matrix(0 -1 -1 0 577 168)" stroke="#0755E9" stroke-width="2"/>
<circle cx="6" cy="6" r="4.5" transform="matrix(0 -1 -1 0 565 156)" fill="white" stroke="#0755E9" stroke-width="3"/>
<path d="M618 334H605C598.373 334 593 339.373 593 346L593 402C593 408.627 587.627 414 581 414H568" stroke="#0755E9" stroke-width="2" stroke-linecap="round"/>
<path d="M617 334L614 334" stroke="#0755E9" stroke-width="2" stroke-linecap="round"/>
<path d="M610 326L618 334L610 342" stroke="#0755E9" stroke-width="2" stroke-linecap="round" stroke-linejoin="round"/>
<rect opacity="0.4" width="40" height="40" rx="20" transform="matrix(0 -1 -1 0 588 434)" fill="#0755E9"/>
<rect x="-1" y="-1" width="38" height="38" rx="19" transform="matrix(0 -1 -1 0 586 432)" stroke="#0755E9" stroke-width="2"/>
<circle cx="6" cy="6" r="4.5" transform="matrix(0 -1 -1 0 574 420)" fill="white" stroke="#0755E9" stroke-width="3"/>
<path d="M1174 334H1161C1154.37 334 1149 339.373 1149 346L1149 402C1149 408.627 1143.63 414 1137 414H1124" stroke="#0755E9" stroke-width="2" stroke-linecap="round"/>
<path d="M1173 334L1170 334" stroke="#0755E9" stroke-width="2" stroke-linecap="round"/>
<path d="M1166 326L1174 334L1166 342" stroke="#0755E9" stroke-width="2" stroke-linecap="round" stroke-linejoin="round"/>
<rect opacity="0.4" width="40" height="40" rx="20" transform="matrix(0 -1 -1 0 1144 434)" fill="#0755E9"/>
<rect x="-1" y="-1" width="38" height="38" rx="19" transform="matrix(0 -1 -1 0 1142 432)" stroke="#0755E9" stroke-width="2"/>
<circle cx="6" cy="6" r="4.5" transform="matrix(0 -1 -1 0 1130 420)" fill="white" stroke="#0755E9" stroke-width="3"/>
<path d="M1250 70H1224C1217.37 70 1212 75.3726 1212 82L1212 138C1212 144.627 1206.63 150 1200 150H1174" stroke="#0755E9" stroke-width="2" stroke-linecap="round"/>
<path d="M1249 70L1246 70" stroke="#0755E9" stroke-width="2" stroke-linecap="round"/>
<path d="M1242 62L1250 70L1242 78" stroke="#0755E9" stroke-width="2" stroke-linecap="round" stroke-linejoin="round"/>
<rect opacity="0.4" width="40" height="40" rx="20" transform="matrix(0 -1 -1 0 1194 170)" fill="#0755E9"/>
<rect x="-1" y="-1" width="38" height="38" rx="19" transform="matrix(0 -1 -1 0 1192 168)" stroke="#0755E9" stroke-width="2"/>
<circle cx="6" cy="6" r="4.5" transform="matrix(0 -1 -1 0 1180 156)" fill="white" stroke="#0755E9" stroke-width="3"/>
<g filter="url(#filter6_d_773_7678)">
<rect x="266" y="82" width="293" height="128" rx="21.4461" fill="#1B232E"/>
</g>
<path d="M292.064 180V163.464H295.112V180H292.064ZM300.556 174.024V180H297.628V168.792H300.556V170.448C301.204 169.224 302.572 168.552 303.892 168.552C306.508 168.552 308.068 170.184 308.068 173.376V180H305.14V173.904C305.14 172.272 304.276 171.408 303.004 171.408C301.66 171.408 300.556 172.08 300.556 174.024ZM317.077 162.696V165.504H315.853C314.485 165.504 314.029 166.536 314.029 167.904V168.792H316.405V171.144H314.029V180H311.077V171.144H308.941V168.792H311.077V167.904C311.077 164.616 312.685 162.696 315.853 162.696H317.077ZM322.419 177.36C324.051 177.36 325.347 176.184 325.347 174.36C325.347 172.56 324.051 171.432 322.419 171.432C320.787 171.432 319.491 172.56 319.491 174.36C319.491 176.184 320.787 177.36 322.419 177.36ZM322.419 180.216C319.251 180.216 316.587 177.888 316.587 174.36C316.587 170.808 319.251 168.552 322.419 168.552C325.587 168.552 328.251 170.808 328.251 174.36C328.251 177.888 325.587 180.216 322.419 180.216ZM332.604 176.04V180H329.676V168.792H332.604V171.432C333.18 169.392 334.5 168.552 335.772 168.552C336.564 168.552 337.164 168.696 337.62 168.96L337.116 171.6C336.42 171.288 335.7 171.288 335.412 171.288C333.42 171.288 332.604 173.064 332.604 176.04ZM350.896 171.408C349.552 171.408 348.616 172.296 348.616 174.024V180H345.688V173.832C345.664 172.272 344.776 171.408 343.624 171.408C342.424 171.408 341.272 172.104 341.272 174.024V180H338.344V168.792H341.272V170.448C341.92 169.08 343.408 168.576 344.488 168.576C346.288 168.672 347.416 169.296 348.064 170.664C349.096 168.792 350.728 168.552 351.592 168.552C354.304 168.552 355.912 170.304 355.912 173.592V180H353.008V173.904C353.008 172.272 352.12 171.408 350.896 171.408ZM366.382 180V178.56C365.686 179.712 363.982 180.216 362.902 180.216C359.95 180.216 357.19 177.96 357.19 174.384C357.19 170.808 359.95 168.552 362.902 168.552C363.934 168.552 365.542 168.96 366.382 170.184V168.792H369.31V180H366.382ZM360.214 174.384C360.214 176.208 361.678 177.408 363.31 177.408C364.918 177.408 366.382 176.304 366.382 174.384C366.382 172.464 364.846 171.36 363.31 171.36C361.678 171.36 360.214 172.56 360.214 174.384ZM375.268 164.52V168.792H377.644V171.144H375.268V180H372.364V171.144H370.324V168.792H372.364V164.52H375.268ZM381.546 168.792V180H378.642V168.792H381.546ZM378.21 164.448C378.21 163.464 379.074 162.696 380.106 162.696C381.138 162.696 381.954 163.464 381.954 164.448C381.954 165.48 381.138 166.224 380.106 166.224C379.074 166.224 378.21 165.48 378.21 164.448ZM388.789 177.36C390.421 177.36 391.717 176.184 391.717 174.36C391.717 172.56 390.421 171.432 388.789 171.432C387.157 171.432 385.861 172.56 385.861 174.36C385.861 176.184 387.157 177.36 388.789 177.36ZM388.789 180.216C385.621 180.216 382.957 177.888 382.957 174.36C382.957 170.808 385.621 168.552 388.789 168.552C391.957 168.552 394.621 170.808 394.621 174.36C394.621 177.888 391.957 180.216 388.789 180.216ZM398.975 174.024V180H396.047V168.792H398.975V170.448C399.623 169.224 400.991 168.552 402.311 168.552C404.927 168.552 406.487 170.184 406.487 173.376V180H403.559V173.904C403.559 172.272 402.695 171.408 401.423 171.408C400.079 171.408 398.975 172.08 398.975 174.024ZM424.017 180L422.505 175.992H416.337L414.825 180H411.561L417.753 163.464H421.065L427.257 180H424.017ZM419.409 166.992L417.369 173.304H421.497L419.409 166.992ZM430.648 176.04V180H427.72V168.792H430.648V171.432C431.224 169.392 432.544 168.552 433.816 168.552C434.608 168.552 435.208 168.696 435.664 168.96L435.16 171.6C434.464 171.288 433.744 171.288 433.456 171.288C431.464 171.288 430.648 173.064 430.648 176.04ZM435.433 174.36C435.433 170.808 438.265 168.552 441.481 168.552C443.377 168.552 445.081 169.32 446.137 170.736L443.809 172.488C443.257 171.744 442.417 171.384 441.481 171.384C439.849 171.384 438.337 172.536 438.337 174.36C438.337 176.184 439.849 177.432 441.481 177.432C442.417 177.432 443.257 177.048 443.809 176.304L446.161 178.032C445.105 179.448 443.401 180.24 441.481 180.24C438.265 180.24 435.433 177.888 435.433 174.36ZM450.35 174.024V180H447.422V162.696H450.35V170.52C450.854 169.176 452.726 168.552 453.83 168.552C456.734 168.552 458.342 170.472 458.342 173.76V180H455.414V173.904C455.414 172.296 454.238 171.408 453.038 171.408C451.814 171.408 450.35 172.08 450.35 174.024ZM463.212 168.792V180H460.308V168.792H463.212ZM459.876 164.448C459.876 163.464 460.74 162.696 461.772 162.696C462.804 162.696 463.62 163.464 463.62 164.448C463.62 165.48 462.804 166.224 461.772 166.224C460.74 166.224 459.876 165.48 459.876 164.448ZM469.159 164.52V168.792H471.535V171.144H469.159V180H466.255V171.144H464.215V168.792H466.255V164.52H469.159ZM483.192 174.36C483.192 174.648 483.168 175.104 483.144 175.368H474.6C474.792 176.88 476.04 177.768 477.696 177.768C478.824 177.768 479.952 177.288 480.504 176.328C481.2 176.712 481.992 177.144 482.736 177.528C481.704 179.448 479.568 180.24 477.504 180.24C474.312 180.24 471.696 177.888 471.696 174.36C471.696 170.808 474.312 168.552 477.504 168.552C480.672 168.552 483.192 170.808 483.192 174.36ZM474.576 173.376H480.336C480.12 171.84 478.968 171 477.528 171C475.992 171 474.792 171.84 474.576 173.376ZM483.738 174.36C483.738 170.808 486.57 168.552 489.786 168.552C491.682 168.552 493.386 169.32 494.442 170.736L492.114 172.488C491.562 171.744 490.722 171.384 489.786 171.384C488.154 171.384 486.642 172.536 486.642 174.36C486.642 176.184 488.154 177.432 489.786 177.432C490.722 177.432 491.562 177.048 492.114 176.304L494.466 178.032C493.41 179.448 491.706 180.24 489.786 180.24C486.57 180.24 483.738 177.888 483.738 174.36ZM499.566 164.52V168.792H501.942V171.144H499.566V180H496.662V171.144H494.622V168.792H496.662V164.52H499.566ZM510.308 174.768V168.792H513.236V180H510.308V178.416C509.684 179.616 508.34 180.24 507.212 180.24C504.548 180.24 502.796 178.584 502.796 175.416V168.792H505.748V174.888C505.748 176.712 506.852 177.384 507.884 177.384C509.108 177.384 510.308 176.712 510.308 174.768ZM518.286 176.04V180H515.358V168.792H518.286V171.432C518.862 169.392 520.182 168.552 521.454 168.552C522.246 168.552 522.846 168.696 523.302 168.96L522.798 171.6C522.102 171.288 521.382 171.288 521.094 171.288C519.102 171.288 518.286 173.064 518.286 176.04ZM534.59 174.36C534.59 174.648 534.566 175.104 534.542 175.368H525.998C526.19 176.88 527.438 177.768 529.094 177.768C530.222 177.768 531.35 177.288 531.902 176.328C532.598 176.712 533.39 177.144 534.134 177.528C533.102 179.448 530.966 180.24 528.902 180.24C525.71 180.24 523.094 177.888 523.094 174.36C523.094 170.808 525.71 168.552 528.902 168.552C532.07 168.552 534.59 170.808 534.59 174.36ZM525.974 173.376H531.734C531.518 171.84 530.366 171 528.926 171C527.39 171 526.19 171.84 525.974 173.376Z" fill="white"/>
<path d="M306 133C307.933 133 309.5 131.433 309.5 129.5C309.5 127.567 307.933 126 306 126C304.067 126 302.5 127.567 302.5 129.5C302.5 131.433 304.067 133 306 133Z" stroke="white" stroke-width="2" stroke-linecap="round" stroke-linejoin="round"/>
<path d="M313.5 118C315.433 118 317 116.433 317 114.5C317 112.567 315.433 111 313.5 111C311.567 111 310 112.567 310 114.5C310 116.433 311.567 118 313.5 118Z" stroke="white" stroke-width="2" stroke-linecap="round" stroke-linejoin="round"/>
<path d="M298.5 118C300.433 118 302 116.433 302 114.5C302 112.567 300.433 111 298.5 111C296.567 111 295 112.567 295 114.5C295 116.433 296.567 118 298.5 118Z" stroke="white" stroke-width="2" stroke-linecap="round" stroke-linejoin="round"/>
<path d="M298.5 118V119C298.498 119.394 298.575 119.785 298.725 120.15C298.875 120.515 299.096 120.846 299.375 121.125C299.654 121.404 299.985 121.625 300.35 121.775C300.715 121.925 301.106 122.002 301.5 122H310.5C310.894 122.002 311.285 121.925 311.65 121.775C312.015 121.625 312.346 121.404 312.625 121.125C312.904 120.846 313.125 120.515 313.275 120.15C313.425 119.785 313.502 119.394 313.5 119V118" stroke="white" stroke-width="2" stroke-linecap="round" stroke-linejoin="round"/>
<path d="M306 122V126" stroke="white" stroke-width="2" stroke-linecap="round" stroke-linejoin="round"/>
<g filter="url(#filter7_d_773_7678)">
<rect x="54" y="278" width="231" height="128" rx="21.4461" fill="#1B232E"/>
</g>
<path d="M92.5 327C98.299 327 103 322.299 103 316.5C103 310.701 98.299 306 92.5 306C86.701 306 82 310.701 82 316.5C82 322.299 86.701 327 92.5 327Z" stroke="white" stroke-width="2" stroke-linecap="round" stroke-linejoin="round"/>
<path d="M99.9248 323.925L106 330" stroke="white" stroke-width="2" stroke-linecap="round" stroke-linejoin="round"/>
<path d="M83.136 362.272V373.192H86.52C89.448 373.192 90.912 370.744 90.912 367.768C90.912 364.768 89.448 362.272 86.52 362.272H83.136ZM86.52 376H80.064V359.464H86.52C91.248 359.464 93.984 363.064 93.984 367.768C93.984 372.472 91.248 376 86.52 376ZM106.272 370.36C106.272 370.648 106.248 371.104 106.224 371.368H97.6796C97.8716 372.88 99.1196 373.768 100.776 373.768C101.904 373.768 103.032 373.288 103.584 372.328C104.28 372.712 105.072 373.144 105.816 373.528C104.784 375.448 102.648 376.24 100.584 376.24C97.3916 376.24 94.7756 373.888 94.7756 370.36C94.7756 366.808 97.3916 364.552 100.584 364.552C103.752 364.552 106.272 366.808 106.272 370.36ZM97.6556 369.376H103.416C103.2 367.84 102.048 367 100.608 367C99.0716 367 97.8716 367.84 97.6556 369.376ZM111.785 371.704L110.249 371.32C107.345 370.552 107.081 369.184 107.081 367.888C107.081 366.064 109.001 364.552 111.209 364.552C113.345 364.552 115.457 365.512 115.577 368.08H112.793C112.721 367.24 111.953 366.928 111.281 366.928C110.537 366.928 109.865 367.192 109.865 368.032C109.865 368.488 110.393 368.8 111.041 368.968L112.913 369.424C115.505 370.144 115.841 371.872 115.841 372.784C115.841 375.088 113.585 376.24 111.257 376.24C109.049 376.24 106.817 374.872 106.745 372.472H109.481C109.553 373.264 110.465 373.96 111.545 373.888C112.385 373.864 113.009 373.408 113.009 372.76C113.033 372.184 112.625 371.896 111.785 371.704ZM120.14 364.792V376H117.236V364.792H120.14ZM116.804 360.448C116.804 359.464 117.668 358.696 118.7 358.696C119.732 358.696 120.548 359.464 120.548 360.448C120.548 361.48 119.732 362.224 118.7 362.224C117.668 362.224 116.804 361.48 116.804 360.448ZM130.671 370.384C130.671 368.464 129.231 367.36 127.623 367.36C125.991 367.36 124.599 368.56 124.599 370.384C124.599 372.256 125.991 373.456 127.623 373.456C129.135 373.456 130.671 372.28 130.671 370.384ZM124.359 377.08C124.839 378.208 126.159 378.928 127.335 378.928C130.167 378.928 130.935 376.816 130.743 374.464C130.167 375.592 128.607 376.24 127.167 376.24C124.239 376.24 121.551 373.984 121.551 370.432C121.551 366.832 124.239 364.552 127.167 364.552C128.631 364.552 130.095 365.176 130.743 366.304V364.792H133.599V374.392C133.599 379.384 131.223 381.592 127.335 381.592C125.007 381.592 122.967 380.32 121.983 378.28C122.631 377.968 123.711 377.392 124.359 377.08ZM138.647 370.024V376H135.719V364.792H138.647V366.448C139.295 365.224 140.663 364.552 141.983 364.552C144.599 364.552 146.159 366.184 146.159 369.376V376H143.231V369.904C143.231 368.272 142.367 367.408 141.095 367.408C139.751 367.408 138.647 368.08 138.647 370.024ZM159.969 362.2H156.369V367.384H159.873C161.457 367.384 162.201 366.04 162.201 364.816C162.201 363.616 161.505 362.2 159.969 362.2ZM153.297 376V359.464H160.017C163.689 359.464 165.273 362.128 165.273 364.816C165.273 367.504 163.689 370.12 160.017 370.12H156.369V376H153.297ZM169.172 372.04V376H166.244V364.792H169.172V367.432C169.748 365.392 171.068 364.552 172.34 364.552C173.132 364.552 173.732 364.696 174.188 364.96L173.684 367.6C172.988 367.288 172.268 367.288 171.98 367.288C169.988 367.288 169.172 369.064 169.172 372.04ZM185.476 370.36C185.476 370.648 185.452 371.104 185.428 371.368H176.884C177.076 372.88 178.324 373.768 179.98 373.768C181.108 373.768 182.236 373.288 182.788 372.328C183.484 372.712 184.276 373.144 185.02 373.528C183.988 375.448 181.852 376.24 179.788 376.24C176.596 376.24 173.98 373.888 173.98 370.36C173.98 366.808 176.596 364.552 179.788 364.552C182.956 364.552 185.476 366.808 185.476 370.36ZM176.86 369.376H182.62C182.404 367.84 181.252 367 179.812 367C178.276 367 177.076 367.84 176.86 369.376ZM193.774 358.696V361.504H192.55C191.182 361.504 190.726 362.536 190.726 363.904V364.792H193.102V367.144H190.726V376H187.774V367.144H185.638V364.792H187.774V363.904C187.774 360.616 189.382 358.696 192.55 358.696H193.774ZM204.779 370.36C204.779 370.648 204.755 371.104 204.731 371.368H196.187C196.379 372.88 197.627 373.768 199.283 373.768C200.411 373.768 201.539 373.288 202.091 372.328C202.787 372.712 203.579 373.144 204.323 373.528C203.291 375.448 201.155 376.24 199.091 376.24C195.899 376.24 193.283 373.888 193.283 370.36C193.283 366.808 195.899 364.552 199.091 364.552C202.259 364.552 204.779 366.808 204.779 370.36ZM196.163 369.376H201.923C201.707 367.84 200.555 367 199.115 367C197.579 367 196.379 367.84 196.163 369.376ZM208.973 372.04V376H206.045V364.792H208.973V367.432C209.549 365.392 210.869 364.552 212.141 364.552C212.933 364.552 213.533 364.696 213.989 364.96L213.485 367.6C212.789 367.288 212.069 367.288 211.781 367.288C209.789 367.288 208.973 369.064 208.973 372.04ZM225.278 370.36C225.278 370.648 225.254 371.104 225.23 371.368H216.686C216.878 372.88 218.126 373.768 219.782 373.768C220.91 373.768 222.038 373.288 222.59 372.328C223.286 372.712 224.078 373.144 224.822 373.528C223.79 375.448 221.654 376.24 219.59 376.24C216.398 376.24 213.782 373.888 213.782 370.36C213.782 366.808 216.398 364.552 219.59 364.552C222.758 364.552 225.278 366.808 225.278 370.36ZM216.662 369.376H222.422C222.206 367.84 221.054 367 219.614 367C218.078 367 216.878 367.84 216.662 369.376ZM229.471 370.024V376H226.543V364.792H229.471V366.448C230.119 365.224 231.487 364.552 232.807 364.552C235.423 364.552 236.983 366.184 236.983 369.376V376H234.055V369.904C234.055 368.272 233.191 367.408 231.919 367.408C230.575 367.408 229.471 368.08 229.471 370.024ZM238.241 370.36C238.241 366.808 241.073 364.552 244.289 364.552C246.185 364.552 247.889 365.32 248.945 366.736L246.617 368.488C246.065 367.744 245.225 367.384 244.289 367.384C242.657 367.384 241.145 368.536 241.145 370.36C241.145 372.184 242.657 373.432 244.289 373.432C245.225 373.432 246.065 373.048 246.617 372.304L248.969 374.032C247.913 375.448 246.209 376.24 244.289 376.24C241.073 376.24 238.241 373.888 238.241 370.36ZM260.865 370.36C260.865 370.648 260.841 371.104 260.817 371.368H252.273C252.465 372.88 253.713 373.768 255.369 373.768C256.497 373.768 257.625 373.288 258.177 372.328C258.873 372.712 259.665 373.144 260.409 373.528C259.377 375.448 257.241 376.24 255.177 376.24C251.985 376.24 249.369 373.888 249.369 370.36C249.369 366.808 251.985 364.552 255.177 364.552C258.345 364.552 260.865 366.808 260.865 370.36ZM252.249 369.376H258.009C257.793 367.84 256.641 367 255.201 367C253.665 367 252.465 367.84 252.249 369.376Z" fill="white"/>
<g filter="url(#filter8_d_773_7678)">
<rect x="626" y="270" width="262" height="136" rx="21.4461" fill="#1B232E"/>
</g>
<path d="M655.5 327.5C657.433 327.5 659 325.933 659 324C659 322.067 657.433 320.5 655.5 320.5C653.567 320.5 652 322.067 652 324C652 325.933 653.567 327.5 655.5 327.5Z" stroke="white" stroke-width="2" stroke-linecap="round" stroke-linejoin="round"/>
<path d="M675 307L680 312L675 317" stroke="white" stroke-width="2" stroke-linecap="round" stroke-linejoin="round"/>
<path d="M659 324H660C661.591 324 663.117 323.368 664.243 322.243C665.368 321.117 666 319.591 666 318C666 316.409 666.632 314.883 667.757 313.757C668.883 312.632 670.409 312 672 312H680" stroke="white" stroke-width="2" stroke-linecap="round" stroke-linejoin="round"/>
<path d="M662.456 376L660.944 371.992H654.776L653.264 376H650L656.192 359.464H659.504L665.696 376H662.456ZM657.848 362.992L655.808 369.304H659.936L657.848 362.992ZM669.087 370.024V376H666.159V364.792H669.087V366.448C669.735 365.224 671.103 364.552 672.423 364.552C675.039 364.552 676.599 366.184 676.599 369.376V376H673.671V369.904C673.671 368.272 672.807 367.408 671.535 367.408C670.191 367.408 669.087 368.08 669.087 370.024ZM681.48 364.792V376H678.576V364.792H681.48ZM678.144 360.448C678.144 359.464 679.008 358.696 680.04 358.696C681.072 358.696 681.888 359.464 681.888 360.448C681.888 361.48 681.072 362.224 680.04 362.224C679.008 362.224 678.144 361.48 678.144 360.448ZM696.139 367.408C694.795 367.408 693.859 368.296 693.859 370.024V376H690.931V369.832C690.907 368.272 690.019 367.408 688.867 367.408C687.667 367.408 686.515 368.104 686.515 370.024V376H683.587V364.792H686.515V366.448C687.163 365.08 688.651 364.576 689.731 364.576C691.531 364.672 692.659 365.296 693.307 366.664C694.339 364.792 695.971 364.552 696.835 364.552C699.547 364.552 701.155 366.304 701.155 369.592V376H698.251V369.904C698.251 368.272 697.363 367.408 696.139 367.408ZM711.625 376V374.56C710.929 375.712 709.225 376.216 708.145 376.216C705.193 376.216 702.433 373.96 702.433 370.384C702.433 366.808 705.193 364.552 708.145 364.552C709.177 364.552 710.785 364.96 711.625 366.184V364.792H714.553V376H711.625ZM705.457 370.384C705.457 372.208 706.921 373.408 708.553 373.408C710.161 373.408 711.625 372.304 711.625 370.384C711.625 368.464 710.089 367.36 708.553 367.36C706.921 367.36 705.457 368.56 705.457 370.384ZM720.512 360.52V364.792H722.888V367.144H720.512V376H717.608V367.144H715.568V364.792H717.608V360.52H720.512ZM726.79 364.792V376H723.886V364.792H726.79ZM723.454 360.448C723.454 359.464 724.318 358.696 725.35 358.696C726.382 358.696 727.198 359.464 727.198 360.448C727.198 361.48 726.382 362.224 725.35 362.224C724.318 362.224 723.454 361.48 723.454 360.448ZM734.033 373.36C735.665 373.36 736.961 372.184 736.961 370.36C736.961 368.56 735.665 367.432 734.033 367.432C732.401 367.432 731.105 368.56 731.105 370.36C731.105 372.184 732.401 373.36 734.033 373.36ZM734.033 376.216C730.865 376.216 728.201 373.888 728.201 370.36C728.201 366.808 730.865 364.552 734.033 364.552C737.201 364.552 739.865 366.808 739.865 370.36C739.865 373.888 737.201 376.216 734.033 376.216ZM744.218 370.024V376H741.29V364.792H744.218V366.448C744.866 365.224 746.234 364.552 747.554 364.552C750.17 364.552 751.73 366.184 751.73 369.376V376H748.802V369.904C748.802 368.272 747.938 367.408 746.666 367.408C745.322 367.408 744.218 368.08 744.218 370.024ZM765.541 362.2H761.941V367.384H765.445C767.029 367.384 767.773 366.04 767.773 364.816C767.773 363.616 767.077 362.2 765.541 362.2ZM758.869 376V359.464H765.589C769.261 359.464 770.845 362.128 770.845 364.816C770.845 367.504 769.261 370.12 765.589 370.12H761.941V376H758.869ZM774.743 372.04V376H771.815V364.792H774.743V367.432C775.319 365.392 776.639 364.552 777.911 364.552C778.703 364.552 779.303 364.696 779.759 364.96L779.255 367.6C778.559 367.288 777.839 367.288 777.551 367.288C775.559 367.288 774.743 369.064 774.743 372.04ZM785.384 373.36C787.016 373.36 788.312 372.184 788.312 370.36C788.312 368.56 787.016 367.432 785.384 367.432C783.752 367.432 782.456 368.56 782.456 370.36C782.456 372.184 783.752 373.36 785.384 373.36ZM785.384 376.216C782.216 376.216 779.552 373.888 779.552 370.36C779.552 366.808 782.216 364.552 785.384 364.552C788.552 364.552 791.216 366.808 791.216 370.36C791.216 373.888 788.552 376.216 785.384 376.216ZM796.482 360.52V364.792H798.858V367.144H796.482V376H793.578V367.144H791.538V364.792H793.578V360.52H796.482ZM804.851 373.36C806.483 373.36 807.779 372.184 807.779 370.36C807.779 368.56 806.483 367.432 804.851 367.432C803.219 367.432 801.923 368.56 801.923 370.36C801.923 372.184 803.219 373.36 804.851 373.36ZM804.851 376.216C801.683 376.216 799.019 373.888 799.019 370.36C799.019 366.808 801.683 364.552 804.851 364.552C808.019 364.552 810.683 366.808 810.683 370.36C810.683 373.888 808.019 376.216 804.851 376.216ZM815.949 360.52V364.792H818.325V367.144H815.949V376H813.045V367.144H811.005V364.792H813.045V360.52H815.949ZM829.715 364.792L822.779 381.472H819.683L822.251 375.136L817.883 364.792H821.003L823.787 371.776L826.595 364.792H829.715ZM833.309 364.792V366.304C833.909 365.176 835.349 364.552 836.813 364.552C839.741 364.552 842.285 366.856 842.285 370.384C842.285 373.96 839.741 376.24 836.813 376.24C835.349 376.24 833.909 375.64 833.309 374.512V381.448H830.381V364.792H833.309ZM833.357 370.432C833.357 372.352 834.797 373.456 836.333 373.456C837.941 373.456 839.285 372.256 839.285 370.432C839.285 368.584 837.941 367.36 836.333 367.36C834.725 367.36 833.357 368.56 833.357 370.432ZM854.512 370.36C854.512 370.648 854.488 371.104 854.464 371.368H845.92C846.112 372.88 847.36 373.768 849.016 373.768C850.144 373.768 851.272 373.288 851.824 372.328C852.52 372.712 853.312 373.144 854.056 373.528C853.024 375.448 850.888 376.24 848.824 376.24C845.632 376.24 843.016 373.888 843.016 370.36C843.016 366.808 845.632 364.552 848.824 364.552C851.992 364.552 854.512 366.808 854.512 370.36ZM845.896 369.376H851.656C851.44 367.84 850.288 367 848.848 367C847.312 367 846.112 367.84 845.896 369.376ZM860.026 371.704L858.49 371.32C855.586 370.552 855.322 369.184 855.322 367.888C855.322 366.064 857.242 364.552 859.45 364.552C861.586 364.552 863.698 365.512 863.818 368.08H861.034C860.962 367.24 860.194 366.928 859.522 366.928C858.778 366.928 858.106 367.192 858.106 368.032C858.106 368.488 858.634 368.8 859.282 368.968L861.154 369.424C863.746 370.144 864.082 371.872 864.082 372.784C864.082 375.088 861.826 376.24 859.498 376.24C857.29 376.24 855.058 374.872 854.986 372.472H857.722C857.794 373.264 858.706 373.96 859.786 373.888C860.626 373.864 861.25 373.408 861.25 372.76C861.274 372.184 860.866 371.896 860.026 371.704Z" fill="white"/>
<g filter="url(#filter9_d_773_7678)">
<rect x="1010" y="82" width="165" height="128" rx="21.4461" fill="#1B232E"/>
</g>
<path d="M1039.5 131.5C1041.43 131.5 1043 129.933 1043 128C1043 126.067 1041.43 124.5 1039.5 124.5C1037.57 124.5 1036 126.067 1036 128C1036 129.933 1037.57 131.5 1039.5 131.5Z" stroke="white" stroke-width="2" stroke-linecap="round" stroke-linejoin="round"/>
<path d="M1059 111L1064 116L1059 121" stroke="white" stroke-width="2" stroke-linecap="round" stroke-linejoin="round"/>
<path d="M1043 128H1044C1045.59 128 1047.12 127.368 1048.24 126.243C1049.37 125.117 1050 123.591 1050 122C1050 120.409 1050.63 118.883 1051.76 117.757C1052.88 116.632 1054.41 116 1056 116H1064" stroke="white" stroke-width="2" stroke-linecap="round" stroke-linejoin="round"/>
<path d="M1042.74 166.2H1039.14V171.384H1042.64C1044.22 171.384 1044.97 170.04 1044.97 168.816C1044.97 167.616 1044.27 166.2 1042.74 166.2ZM1036.06 180V163.464H1042.78C1046.46 163.464 1048.04 166.128 1048.04 168.816C1048.04 171.504 1046.46 174.12 1042.78 174.12H1039.14V180H1036.06ZM1051.94 176.04V180H1049.01V168.792H1051.94V171.432C1052.51 169.392 1053.83 168.552 1055.11 168.552C1055.9 168.552 1056.5 168.696 1056.95 168.96L1056.45 171.6C1055.75 171.288 1055.03 171.288 1054.75 171.288C1052.75 171.288 1051.94 173.064 1051.94 176.04ZM1062.58 177.36C1064.21 177.36 1065.51 176.184 1065.51 174.36C1065.51 172.56 1064.21 171.432 1062.58 171.432C1060.95 171.432 1059.65 172.56 1059.65 174.36C1059.65 176.184 1060.95 177.36 1062.58 177.36ZM1062.58 180.216C1059.41 180.216 1056.75 177.888 1056.75 174.36C1056.75 170.808 1059.41 168.552 1062.58 168.552C1065.75 168.552 1068.41 170.808 1068.41 174.36C1068.41 177.888 1065.75 180.216 1062.58 180.216ZM1073.68 164.52V168.792H1076.05V171.144H1073.68V180H1070.77V171.144H1068.73V168.792H1070.77V164.52H1073.68ZM1082.05 177.36C1083.68 177.36 1084.97 176.184 1084.97 174.36C1084.97 172.56 1083.68 171.432 1082.05 171.432C1080.41 171.432 1079.12 172.56 1079.12 174.36C1079.12 176.184 1080.41 177.36 1082.05 177.36ZM1082.05 180.216C1078.88 180.216 1076.21 177.888 1076.21 174.36C1076.21 170.808 1078.88 168.552 1082.05 168.552C1085.21 168.552 1087.88 170.808 1087.88 174.36C1087.88 177.888 1085.21 180.216 1082.05 180.216ZM1093.14 164.52V168.792H1095.52V171.144H1093.14V180H1090.24V171.144H1088.2V168.792H1090.24V164.52H1093.14ZM1106.91 168.792L1099.97 185.472H1096.88L1099.45 179.136L1095.08 168.792H1098.2L1100.98 175.776L1103.79 168.792H1106.91ZM1110.5 168.792V170.304C1111.1 169.176 1112.54 168.552 1114.01 168.552C1116.94 168.552 1119.48 170.856 1119.48 174.384C1119.48 177.96 1116.94 180.24 1114.01 180.24C1112.54 180.24 1111.1 179.64 1110.5 178.512V185.448H1107.58V168.792H1110.5ZM1110.55 174.432C1110.55 176.352 1111.99 177.456 1113.53 177.456C1115.14 177.456 1116.48 176.256 1116.48 174.432C1116.48 172.584 1115.14 171.36 1113.53 171.36C1111.92 171.36 1110.55 172.56 1110.55 174.432ZM1123.81 168.792V180H1120.91V168.792H1123.81ZM1120.48 164.448C1120.48 163.464 1121.34 162.696 1122.37 162.696C1123.4 162.696 1124.22 163.464 1124.22 164.448C1124.22 165.48 1123.4 166.224 1122.37 166.224C1121.34 166.224 1120.48 165.48 1120.48 164.448ZM1128.85 174.024V180H1125.92V168.792H1128.85V170.448C1129.49 169.224 1130.86 168.552 1132.18 168.552C1134.8 168.552 1136.36 170.184 1136.36 173.376V180H1133.43V173.904C1133.43 172.272 1132.57 171.408 1131.29 171.408C1129.95 171.408 1128.85 172.08 1128.85 174.024ZM1146.76 174.384C1146.76 172.464 1145.32 171.36 1143.71 171.36C1142.08 171.36 1140.69 172.56 1140.69 174.384C1140.69 176.256 1142.08 177.456 1143.71 177.456C1145.22 177.456 1146.76 176.28 1146.76 174.384ZM1140.45 181.08C1140.93 182.208 1142.25 182.928 1143.42 182.928C1146.26 182.928 1147.02 180.816 1146.83 178.464C1146.26 179.592 1144.7 180.24 1143.26 180.24C1140.33 180.24 1137.64 177.984 1137.64 174.432C1137.64 170.832 1140.33 168.552 1143.26 168.552C1144.72 168.552 1146.18 169.176 1146.83 170.304V168.792H1149.69V178.392C1149.69 183.384 1147.31 185.592 1143.42 185.592C1141.1 185.592 1139.06 184.32 1138.07 182.28C1138.72 181.968 1139.8 181.392 1140.45 181.08Z" fill="white"/>
<defs>
<filter id="filter0_d_773_7678" x="0.384777" y="0.596195" width="236.23" height="235.23" filterUnits="userSpaceOnUse" color-interpolation-filters="sRGB">
<feFlood flood-opacity="0" result="BackgroundImageFix"/>
<feColorMatrix in="SourceAlpha" type="matrix" values="0 0 0 0 0 0 0 0 0 0 0 0 0 0 0 0 0 0 127 0" result="hardAlpha"/>
<feOffset dy="40.2114"/>
<feGaussianBlur stdDeviation="26.8076"/>
<feColorMatrix type="matrix" values="0 0 0 0 0.831373 0 0 0 0 0.85098 0 0 0 0 0.909804 0 0 0 0.3 0"/>
<feBlend mode="normal" in2="BackgroundImageFix" result="effect1_dropShadow_773_7678"/>
<feBlend mode="normal" in="SourceGraphic" in2="effect1_dropShadow_773_7678" result="shape"/>
</filter>
<filter id="filter1_d_773_7678" x="588.385" y="0.596195" width="392.23" height="235.23" filterUnits="userSpaceOnUse" color-interpolation-filters="sRGB">
<feFlood flood-opacity="0" result="BackgroundImageFix"/>
<feColorMatrix in="SourceAlpha" type="matrix" values="0 0 0 0 0 0 0 0 0 0 0 0 0 0 0 0 0 0 127 0" result="hardAlpha"/>
<feOffset dy="40.2114"/>
<feGaussianBlur stdDeviation="26.8076"/>
<feColorMatrix type="matrix" values="0 0 0 0 0.831373 0 0 0 0 0.85098 0 0 0 0 0.909804 0 0 0 0.3 0"/>
<feBlend mode="normal" in2="BackgroundImageFix" result="effect1_dropShadow_773_7678"/>
<feBlend mode="normal" in="SourceGraphic" in2="effect1_dropShadow_773_7678" result="shape"/>
</filter>
<filter id="filter2_d_773_7678" x="289.385" y="332.596" width="332.23" height="235.23" filterUnits="userSpaceOnUse" color-interpolation-filters="sRGB">
<feFlood flood-opacity="0" result="BackgroundImageFix"/>
<feColorMatrix in="SourceAlpha" type="matrix" values="0 0 0 0 0 0 0 0 0 0 0 0 0 0 0 0 0 0 127 0" result="hardAlpha"/>
<feOffset dy="40.2114"/>
<feGaussianBlur stdDeviation="26.8076"/>
<feColorMatrix type="matrix" values="0 0 0 0 0.831373 0 0 0 0 0.85098 0 0 0 0 0.909804 0 0 0 0.3 0"/>
<feBlend mode="normal" in2="BackgroundImageFix" result="effect1_dropShadow_773_7678"/>
<feBlend mode="normal" in="SourceGraphic" in2="effect1_dropShadow_773_7678" result="shape"/>
</filter>
<filter id="filter3_d_773_7678" x="892.385" y="332.596" width="285.23" height="235.23" filterUnits="userSpaceOnUse" color-interpolation-filters="sRGB">
<feFlood flood-opacity="0" result="BackgroundImageFix"/>
<feColorMatrix in="SourceAlpha" type="matrix" values="0 0 0 0 0 0 0 0 0 0 0 0 0 0 0 0 0 0 127 0" result="hardAlpha"/>
<feOffset dy="40.2114"/>
<feGaussianBlur stdDeviation="26.8076"/>
<feColorMatrix type="matrix" values="0 0 0 0 0.831373 0 0 0 0 0.85098 0 0 0 0 0.909804 0 0 0 0.3 0"/>
<feBlend mode="normal" in2="BackgroundImageFix" result="effect1_dropShadow_773_7678"/>
<feBlend mode="normal" in="SourceGraphic" in2="effect1_dropShadow_773_7678" result="shape"/>
</filter>
<filter id="filter4_d_773_7678" x="1128.38" y="264.596" width="300.23" height="235.23" filterUnits="userSpaceOnUse" color-interpolation-filters="sRGB">
<feFlood flood-opacity="0" result="BackgroundImageFix"/>
<feColorMatrix in="SourceAlpha" type="matrix" values="0 0 0 0 0 0 0 0 0 0 0 0 0 0 0 0 0 0 127 0" result="hardAlpha"/>
<feOffset dy="40.2114"/>
<feGaussianBlur stdDeviation="26.8076"/>
<feColorMatrix type="matrix" values="0 0 0 0 0.831373 0 0 0 0 0.85098 0 0 0 0 0.909804 0 0 0 0.3 0"/>
<feBlend mode="normal" in2="BackgroundImageFix" result="effect1_dropShadow_773_7678"/>
<feBlend mode="normal" in="SourceGraphic" in2="effect1_dropShadow_773_7678" result="shape"/>
</filter>
<filter id="filter5_d_773_7678" x="1204.38" y="0.596195" width="224.23" height="235.23" filterUnits="userSpaceOnUse" color-interpolation-filters="sRGB">
<feFlood flood-opacity="0" result="BackgroundImageFix"/>
<feColorMatrix in="SourceAlpha" type="matrix" values="0 0 0 0 0 0 0 0 0 0 0 0 0 0 0 0 0 0 127 0" result="hardAlpha"/>
<feOffset dy="40.2114"/>
<feGaussianBlur stdDeviation="26.8076"/>
<feColorMatrix type="matrix" values="0 0 0 0 0.831373 0 0 0 0 0.85098 0 0 0 0 0.909804 0 0 0 0.3 0"/>
<feBlend mode="normal" in2="BackgroundImageFix" result="effect1_dropShadow_773_7678"/>
<feBlend mode="normal" in="SourceGraphic" in2="effect1_dropShadow_773_7678" result="shape"/>
</filter>
<filter id="filter6_d_773_7678" x="212.385" y="68.5962" width="400.23" height="235.23" filterUnits="userSpaceOnUse" color-interpolation-filters="sRGB">
<feFlood flood-opacity="0" result="BackgroundImageFix"/>
<feColorMatrix in="SourceAlpha" type="matrix" values="0 0 0 0 0 0 0 0 0 0 0 0 0 0 0 0 0 0 127 0" result="hardAlpha"/>
<feOffset dy="40.2114"/>
<feGaussianBlur stdDeviation="26.8076"/>
<feColorMatrix type="matrix" values="0 0 0 0 0.831373 0 0 0 0 0.85098 0 0 0 0 0.909804 0 0 0 0.3 0"/>
<feBlend mode="normal" in2="BackgroundImageFix" result="effect1_dropShadow_773_7678"/>
<feBlend mode="normal" in="SourceGraphic" in2="effect1_dropShadow_773_7678" result="shape"/>
</filter>
<filter id="filter7_d_773_7678" x="0.384777" y="264.596" width="338.23" height="235.23" filterUnits="userSpaceOnUse" color-interpolation-filters="sRGB">
<feFlood flood-opacity="0" result="BackgroundImageFix"/>
<feColorMatrix in="SourceAlpha" type="matrix" values="0 0 0 0 0 0 0 0 0 0 0 0 0 0 0 0 0 0 127 0" result="hardAlpha"/>
<feOffset dy="40.2114"/>
<feGaussianBlur stdDeviation="26.8076"/>
<feColorMatrix type="matrix" values="0 0 0 0 0.831373 0 0 0 0 0.85098 0 0 0 0 0.909804 0 0 0 0.3 0"/>
<feBlend mode="normal" in2="BackgroundImageFix" result="effect1_dropShadow_773_7678"/>
<feBlend mode="normal" in="SourceGraphic" in2="effect1_dropShadow_773_7678" result="shape"/>
</filter>
<filter id="filter8_d_773_7678" x="572.385" y="256.596" width="369.23" height="243.23" filterUnits="userSpaceOnUse" color-interpolation-filters="sRGB">
<feFlood flood-opacity="0" result="BackgroundImageFix"/>
<feColorMatrix in="SourceAlpha" type="matrix" values="0 0 0 0 0 0 0 0 0 0 0 0 0 0 0 0 0 0 127 0" result="hardAlpha"/>
<feOffset dy="40.2114"/>
<feGaussianBlur stdDeviation="26.8076"/>
<feColorMatrix type="matrix" values="0 0 0 0 0.831373 0 0 0 0 0.85098 0 0 0 0 0.909804 0 0 0 0.3 0"/>
<feBlend mode="normal" in2="BackgroundImageFix" result="effect1_dropShadow_773_7678"/>
<feBlend mode="normal" in="SourceGraphic" in2="effect1_dropShadow_773_7678" result="shape"/>
</filter>
<filter id="filter9_d_773_7678" x="956.385" y="68.5962" width="272.23" height="235.23" filterUnits="userSpaceOnUse" color-interpolation-filters="sRGB">
<feFlood flood-opacity="0" result="BackgroundImageFix"/>
<feColorMatrix in="SourceAlpha" type="matrix" values="0 0 0 0 0 0 0 0 0 0 0 0 0 0 0 0 0 0 127 0" result="hardAlpha"/>
<feOffset dy="40.2114"/>
<feGaussianBlur stdDeviation="26.8076"/>
<feColorMatrix type="matrix" values="0 0 0 0 0.831373 0 0 0 0 0.85098 0 0 0 0 0.909804 0 0 0 0.3 0"/>
<feBlend mode="normal" in2="BackgroundImageFix" result="effect1_dropShadow_773_7678"/>
<feBlend mode="normal" in="SourceGraphic" in2="effect1_dropShadow_773_7678" result="shape"/>
</filter>
</defs>
</svg>
