<svg width="122" height="140" viewBox="0 0 122 140" fill="none" xmlns="http://www.w3.org/2000/svg">
<path d="M81.6432 9.43241L80.0933 11.7208C91.8519 17.0794 99.8117 27.2288 99.8117 38.8434H22.1849C22.1849 27.2288 30.1446 17.0794 41.9116 11.7208L40.3534 9.43241L38.8035 7.17699L35.3501 2.10644C34.9289 1.48084 35.1058 0.641224 35.7376 0.229655C36.3777 -0.181915 37.2369 -0.0172697 37.6664 0.608295L42.9308 8.32116L44.506 10.6424C49.5177 8.74099 55.1105 7.67912 60.9983 7.67912C66.8944 7.67912 72.4789 8.74099 77.4906 10.6424L84.3469 0.608295C84.7597 -0.0172697 85.6272 -0.19014 86.259 0.229655C86.8991 0.641224 87.076 1.48084 86.6464 2.10644L83.193 7.17699L81.6432 9.43241Z" fill="white"/>
<path d="M22.1849 44.2601H99.8117V103.872C99.8117 108.605 95.8865 112.458 91.0349 112.458H84.6923C84.9113 113.174 85.0376 113.923 85.0376 114.713V131.876C85.0376 136.362 81.3062 140 76.7073 140C72.1167 140 68.3937 136.362 68.3937 131.876V114.713C68.3937 113.923 68.5116 113.174 68.7222 112.458H53.2743C53.4849 113.174 53.6113 113.923 53.6113 114.713V131.876C53.6113 136.362 49.8798 140 45.2893 140C40.6987 140 36.9673 136.362 36.9673 131.876V114.713C36.9673 113.923 37.0853 113.174 37.3042 112.458H30.9701C26.1184 112.458 22.1849 108.605 22.1849 103.872V44.2601Z" fill="white"/>
<path d="M8.32197 44.2601C3.72299 44.2601 0 47.8984 0 52.3845V87.1624C0 91.6485 3.72299 95.2868 8.32197 95.2868C12.9125 95.2868 16.6355 91.6485 16.6355 87.1624V52.3845C16.6355 47.8984 12.9125 44.2601 8.32197 44.2601Z" fill="white"/>
<path d="M105.364 52.3845C105.364 47.8984 109.087 44.2601 113.686 44.2601C118.277 44.2601 122 47.8984 122 52.3845V87.1624C122 91.6485 118.277 95.2868 113.686 95.2868C109.087 95.2868 105.364 91.6485 105.364 87.1624V52.3845Z" fill="white"/>
</svg>
