<svg width="153" height="175" viewBox="0 0 153 175" fill="none" xmlns="http://www.w3.org/2000/svg">
<path d="M102.389 11.7905L100.445 14.651C115.191 21.3493 125.174 34.036 125.174 48.5542H27.822C27.822 34.036 37.8044 21.3493 52.5613 14.651L50.6071 11.7905L48.6634 8.97124L44.3325 2.63305C43.8043 1.85105 44.0261 0.80153 44.8184 0.287068C45.6212 -0.227394 46.6987 -0.0215871 47.2374 0.760369L53.8395 10.4015L55.8148 13.3031C62.1 10.9262 69.1141 9.5989 76.4978 9.5989C83.8922 9.5989 90.8956 10.9262 97.1808 13.3031L105.779 0.760369C106.297 -0.0215871 107.385 -0.237675 108.177 0.287068C108.98 0.80153 109.202 1.85105 108.663 2.63305L104.332 8.97124L102.389 11.7905Z" fill="white"/>
<path d="M27.822 55.3251H125.174V129.84C125.174 135.757 120.251 140.572 114.167 140.572H106.212C106.487 141.467 106.646 142.404 106.646 143.391V164.844C106.646 170.452 101.966 175 96.1984 175C90.4414 175 85.7724 170.452 85.7724 164.844V143.391C85.7724 142.404 85.9203 141.467 86.1844 140.572H66.8113C67.0753 141.467 67.2338 142.404 67.2338 143.391V164.844C67.2338 170.452 62.5542 175 56.7972 175C51.0402 175 46.3607 170.452 46.3607 164.844V143.391C46.3607 142.404 46.5086 141.467 46.7832 140.572H38.8396C32.7551 140.572 27.822 135.757 27.822 129.84V55.3251Z" fill="white"/>
<path d="M10.4366 55.3251C4.66899 55.3251 0 59.873 0 65.4806V108.953C0 114.561 4.66899 119.108 10.4366 119.108C16.1936 119.108 20.8626 114.561 20.8626 108.953V65.4806C20.8626 59.873 16.1936 55.3251 10.4366 55.3251Z" fill="white"/>
<path d="M132.137 65.4806C132.137 59.873 136.806 55.3251 142.574 55.3251C148.331 55.3251 153 59.873 153 65.4806V108.953C153 114.561 148.331 119.108 142.574 119.108C136.806 119.108 132.137 114.561 132.137 108.953V65.4806Z" fill="white"/>
</svg>
