<svg width="32" height="32" viewBox="0 0 32 32" fill="none" xmlns="http://www.w3.org/2000/svg">
<path d="M20.5 21C21.3284 21 22 20.3284 22 19.5C22 18.6716 21.3284 18 20.5 18C19.6716 18 19 18.6716 19 19.5C19 20.3284 19.6716 21 20.5 21Z" fill="#0755E9"/>
<path d="M11.5 21C12.3284 21 13 20.3284 13 19.5C13 18.6716 12.3284 18 11.5 18C10.6716 18 10 18.6716 10 19.5C10 20.3284 10.6716 21 11.5 21Z" fill="#0755E9"/>
<path d="M3 24.0001V21.1376C3 13.9501 8.775 8.0251 15.95 8.0001C17.6614 7.99351 19.3572 8.32491 20.9402 8.97527C22.5232 9.62564 23.9623 10.5822 25.1747 11.79C26.3872 12.9978 27.3492 14.4331 28.0057 16.0136C28.6621 17.5941 29 19.2887 29 21.0001V24.0001C29 24.2653 28.8946 24.5197 28.7071 24.7072C28.5196 24.8947 28.2652 25.0001 28 25.0001H4C3.73478 25.0001 3.48043 24.8947 3.29289 24.7072C3.10536 24.5197 3 24.2653 3 24.0001Z" stroke="#0755E9" stroke-width="2" stroke-linecap="round" stroke-linejoin="round"/>
<path d="M4 7L7.8875 10.8875" stroke="#0755E9" stroke-width="2" stroke-linecap="round" stroke-linejoin="round"/>
<path d="M28.0002 7L24.1377 10.8625" stroke="#0755E9" stroke-width="2" stroke-linecap="round" stroke-linejoin="round"/>
</svg>
