<svg width="1674" height="1673" viewBox="0 0 1674 1673" fill="none" xmlns="http://www.w3.org/2000/svg">
<path d="M179.893 431.45C487.775 399.632 780.085 280.246 1022.14 87.4408C1106.24 20.4417 1231.19 72.8802 1242.27 179.786C1274.1 487.484 1393.56 779.619 1586.48 1021.52C1653.52 1105.58 1601.05 1230.46 1494.08 1241.53C1186.2 1273.34 893.89 1392.73 651.84 1585.53C567.739 1652.53 442.782 1600.09 431.708 1493.19C399.871 1185.49 280.413 893.356 87.4928 651.45C20.4536 567.4 72.9235 442.518 179.893 431.45Z" stroke="url(#paint0_linear_67_638)" stroke-width="3" stroke-miterlimit="10"/>
<path d="M152.116 480.37C456.863 426.211 739.691 285.87 967.069 75.9616C1046.08 3.03039 1174.53 46.1985 1193.34 152.026C1247.53 456.59 1387.96 739.25 1597.99 966.492C1670.97 1045.46 1627.77 1173.83 1521.88 1192.63C1217.14 1246.79 934.308 1387.13 706.93 1597.04C627.917 1669.97 499.466 1626.8 480.657 1520.97C426.465 1216.41 286.04 933.75 76.0064 706.508C3.00589 627.568 46.2255 499.193 152.116 480.37Z" stroke="url(#paint1_linear_67_638)" stroke-width="3" stroke-miterlimit="10"/>
<path d="M127.988 531.192C427.981 454.999 699.838 294.422 911.285 68.5154C984.748 -9.98835 1116.03 23.7295 1142.52 127.913C1218.76 427.727 1379.43 699.421 1605.47 910.742C1684.02 984.161 1650.28 1115.36 1546.04 1141.84C1246.04 1218.03 974.187 1378.61 762.74 1604.51C689.277 1683.02 558 1649.3 531.508 1545.11C455.27 1245.3 294.597 973.606 68.5548 762.286C-9.9958 688.841 23.7422 557.668 127.988 531.192Z" stroke="url(#paint2_linear_67_638)" stroke-width="3" stroke-miterlimit="10"/>
<path d="M107.612 583.604C401.258 485.763 660.679 305.849 855.115 65.1247C922.668 -18.515 1056.05 5.57279 1090.05 107.522C1187.95 400.993 1367.97 660.259 1608.84 854.579C1692.53 922.092 1668.42 1055.4 1566.41 1089.37C1272.77 1187.21 1013.35 1367.13 818.91 1607.85C751.357 1691.49 617.973 1667.4 583.978 1565.45C486.079 1271.98 306.057 1012.72 65.189 818.396C-18.5007 750.883 5.5758 617.604 107.612 583.604Z" stroke="url(#paint3_linear_67_638)" stroke-width="3" stroke-miterlimit="10"/>
<path d="M91.1161 637.378C376.848 518.429 622.47 320.076 798.843 65.8701C860.126 -22.469 994.898 -8.16528 1036.24 91.0622C1155.26 376.624 1353.73 622.099 1608.09 798.366C1696.48 859.613 1682.17 994.305 1582.88 1035.62C1297.15 1154.57 1051.53 1352.93 875.158 1607.13C813.875 1695.47 679.103 1681.17 637.759 1581.94C518.738 1296.38 320.267 1050.9 65.909 874.636C-22.4829 813.389 -8.17065 678.723 91.1161 637.378Z" stroke="url(#paint4_linear_67_638)" stroke-width="3" stroke-miterlimit="10"/>
<path d="M78.5764 692.203C354.878 552.761 585.391 337.075 742.749 70.6964C797.429 -21.8543 932.895 -17.4116 981.356 78.5288C1120.88 354.666 1336.7 585.041 1603.23 742.305C1695.84 796.952 1691.4 932.337 1595.4 980.77C1319.1 1120.21 1088.58 1335.9 931.225 1602.28C876.545 1694.83 741.079 1690.38 692.618 1594.44C553.092 1318.31 337.277 1087.93 70.7393 930.668C-21.8667 876.021 -17.4214 740.662 78.5764 692.203Z" stroke="url(#paint5_linear_67_638)" stroke-width="3" stroke-miterlimit="10"/>
<path d="M70.097 747.801C335.504 588.611 549.675 356.72 687.222 79.582C735.015 -16.718 870.43 -22.1364 925.778 70.029C1085.06 335.278 1317.09 549.32 1594.4 686.785C1690.75 734.55 1696.18 869.884 1603.95 925.198C1338.55 1084.39 1124.38 1316.28 986.83 1593.42C939.036 1689.72 803.622 1695.14 748.274 1602.97C588.989 1337.72 356.934 1123.68 79.6299 986.214C-16.7019 938.449 -22.1493 803.116 70.097 747.801Z" stroke="url(#paint6_linear_67_638)" stroke-width="3" stroke-miterlimit="10"/>
<path d="M65.6515 803.861C318.751 625.771 515.449 378.909 632.439 92.4999C673.089 -7.01007 807.733 -22.2897 869.659 65.6129C1047.86 318.561 1294.87 515.141 1581.45 632.062C1681.01 672.688 1696.3 807.251 1608.35 869.14C1355.25 1047.23 1158.55 1294.09 1041.56 1580.5C1000.91 1680.01 866.267 1695.29 804.341 1607.39C626.144 1354.44 379.135 1157.86 92.5546 1040.94C-7.0149 1000.34 -22.2779 865.75 65.6515 803.861Z" stroke="url(#paint7_linear_67_638)" stroke-width="3" stroke-miterlimit="10"/>
<path d="M65.318 860.126C304.773 664.085 482.944 403.562 578.737 109.397C612.012 7.19099 745.217 -17.847 813.361 65.3048C1009.52 304.617 1270.2 482.682 1564.54 578.417C1666.81 611.672 1691.86 744.797 1608.66 812.901C1369.2 1008.94 1191.03 1269.47 1095.24 1563.63C1061.96 1665.84 928.759 1690.87 860.614 1607.72C664.482 1368.41 403.777 1190.35 109.437 1094.61C7.16946 1061.33 -17.8835 928.23 65.318 860.126Z" stroke="url(#paint8_linear_67_638)" stroke-width="3" stroke-miterlimit="10"/>
<path d="M69.0943 916.237C293.62 703.299 452.34 430.475 526.42 130.121C552.167 25.7579 683.187 -8.91005 757.216 69.0801C970.281 293.472 1243.27 452.097 1543.8 526.133C1648.23 551.864 1682.92 682.806 1604.88 756.79C1380.35 969.729 1221.63 1242.55 1147.55 1542.91C1121.81 1647.27 990.786 1681.94 916.758 1603.95C703.692 1379.56 430.705 1220.93 130.172 1146.89C25.7719 1121.16 -8.91677 990.221 69.0943 916.237Z" stroke="url(#paint9_linear_67_638)" stroke-width="3" stroke-miterlimit="10"/>
<path d="M76.9577 971.91C285.373 743.178 423.768 459.543 475.775 154.593C493.839 48.6374 621.982 4.51918 701.509 76.9111C930.377 285.201 1214.18 423.514 1519.31 475.49C1625.33 493.543 1669.48 621.609 1597.04 701.089C1388.63 929.821 1250.23 1213.46 1198.23 1518.41C1180.16 1624.36 1052.02 1668.48 972.492 1596.09C743.649 1387.82 459.818 1249.49 154.686 1197.51C48.6672 1179.46 4.52257 1051.39 76.9577 971.91Z" stroke="url(#paint10_linear_67_638)" stroke-width="3" stroke-miterlimit="10"/>
<path d="M88.8286 1026.89C280.002 783.599 397.378 490.616 427.031 182.713C437.335 75.7299 561.906 22.3926 646.495 88.801C889.932 279.86 1183.06 397.166 1491.18 426.801C1598.22 437.099 1651.59 561.595 1585.15 646.134C1393.97 889.426 1276.6 1182.38 1246.94 1490.31C1236.64 1597.3 1112.07 1650.63 1027.48 1584.22C784.042 1393.16 490.909 1275.86 182.796 1246.22C75.7497 1235.93 22.4062 1111.43 88.8286 1026.89Z" stroke="url(#paint11_linear_67_638)" stroke-width="3" stroke-miterlimit="10"/>
<path d="M104.709 1080.85C277.638 824.277 373.354 523.539 380.471 214.275C382.938 106.804 503.321 44.5814 592.509 104.621C849.231 277.448 1150.15 373.106 1459.6 380.219C1567.13 382.684 1629.39 502.995 1569.32 592.13C1396.39 848.699 1300.67 1149.44 1293.56 1458.7C1291.09 1566.17 1170.71 1628.39 1081.52 1568.35C824.795 1395.53 523.877 1299.87 214.428 1292.76C106.893 1290.29 44.6074 1170.01 104.709 1080.85Z" stroke="url(#paint12_linear_67_638)" stroke-width="3" stroke-miterlimit="10"/>
<path d="M124.469 1133.52C278.255 865.057 351.77 558.129 336.327 249.173C330.956 141.831 446.483 70.9799 539.808 124.394C808.427 278.089 1115.54 351.559 1424.68 336.126C1532.09 330.759 1602.98 446.216 1549.53 539.486C1395.75 807.944 1322.23 1114.87 1337.67 1423.83C1343.04 1531.17 1227.52 1602.02 1134.19 1548.61C865.574 1394.91 558.463 1321.44 249.322 1336.88C141.916 1342.24 71.0223 1226.81 124.469 1133.52Z" stroke="url(#paint13_linear_67_638)" stroke-width="3" stroke-miterlimit="10"/>
<path d="M148.005 1184.59C281.801 905.631 332.78 594.184 294.854 287.179C281.672 180.505 391.725 101.436 488.7 147.917C767.828 281.633 1079.46 332.582 1386.65 294.678C1493.39 281.504 1572.5 391.492 1525.99 488.408C1392.2 767.37 1341.22 1078.82 1379.15 1385.82C1392.33 1492.5 1282.27 1571.56 1185.3 1525.08C906.172 1391.37 594.539 1340.42 287.351 1378.32C180.612 1391.5 101.496 1281.53 148.005 1184.59Z" stroke="url(#paint14_linear_67_638)" stroke-width="3" stroke-miterlimit="10"/>
<path d="M175.217 1233.85C288.327 945.896 316.464 631.573 256.26 328.113C235.344 222.671 339.333 135.821 439.442 175.086C727.564 288.129 1042.07 316.249 1345.72 256.08C1451.22 235.177 1538.12 339.104 1498.84 439.153C1385.72 727.103 1357.59 1041.43 1417.79 1344.89C1438.71 1450.33 1334.72 1537.18 1234.61 1497.91C946.488 1384.87 631.977 1356.75 328.335 1416.92C222.804 1437.82 135.903 1333.9 175.217 1233.85Z" stroke="url(#paint15_linear_67_638)" stroke-width="3" stroke-miterlimit="10"/>
<path d="M205.922 1280.97C297.757 985.546 302.897 670.016 220.749 371.743C192.201 268.098 289.586 173.904 392.291 205.799C687.89 297.579 1003.61 302.715 1302.06 220.616C1405.77 192.086 1500.02 289.413 1468.1 392.056C1376.27 687.478 1371.13 1003.01 1453.28 1301.28C1481.82 1404.93 1384.44 1499.12 1281.73 1467.23C986.136 1375.45 670.417 1370.31 371.966 1452.41C268.285 1480.94 174.009 1383.61 205.922 1280.97Z" stroke="url(#paint16_linear_67_638)" stroke-width="3" stroke-miterlimit="10"/>
<path d="M239.994 1325.73C310.04 1024.4 292.182 709.332 188.501 417.838C152.476 316.556 242.718 215.531 347.504 239.85C649.013 309.854 964.269 292.006 1255.94 188.388C1357.28 152.384 1458.36 242.572 1434.03 347.295C1363.99 648.624 1381.84 963.692 1485.52 1255.19C1521.55 1356.47 1431.31 1457.49 1326.52 1433.17C1025.01 1363.17 709.756 1381.02 418.089 1484.64C316.746 1520.61 215.661 1430.43 239.994 1325.73Z" stroke="url(#paint17_linear_67_638)" stroke-width="3" stroke-miterlimit="10"/>
<path d="M277.227 1367.9C325.123 1062.28 284.345 749.342 159.697 466.169C116.374 367.789 199.036 260.447 305.286 277.087C611.087 324.955 924.21 284.201 1207.55 159.627C1305.99 116.331 1413.4 198.943 1396.75 305.13C1348.85 610.747 1389.63 923.684 1514.28 1206.86C1557.6 1305.24 1474.94 1412.58 1368.69 1395.94C1062.89 1348.07 749.764 1388.83 466.422 1513.4C368.009 1556.67 260.602 1474.08 277.227 1367.9Z" stroke="url(#paint18_linear_67_638)" stroke-width="3" stroke-miterlimit="10"/>
<path d="M317.466 1407.24C342.955 1098.95 279.488 789.814 134.515 516.476C84.152 421.512 158.746 308.417 265.947 317.276C574.419 342.751 883.74 279.321 1157.24 134.435C1252.26 84.1022 1365.42 158.651 1356.56 265.788C1331.07 574.076 1394.54 883.212 1539.51 1156.55C1589.87 1251.51 1515.28 1364.61 1408.08 1355.75C1099.61 1330.28 790.286 1393.7 516.784 1538.59C421.737 1588.9 308.601 1514.35 317.466 1407.24Z" stroke="url(#paint19_linear_67_638)" stroke-width="3" stroke-miterlimit="10"/>
<path d="M360.428 1443.52C363.409 1134.21 277.535 830.491 113.059 568.452C55.9126 477.391 122.078 359.186 229.613 360.213C539.139 363.167 843.012 277.37 1105.21 112.966C1196.32 55.8541 1314.6 121.98 1313.57 229.451C1310.62 538.792 1396.46 842.484 1560.97 1104.52C1618.11 1195.58 1551.95 1313.79 1444.41 1312.76C1134.89 1309.81 831.013 1395.61 568.817 1560.01C477.676 1617.15 359.4 1551.02 360.428 1443.52Z" stroke="url(#paint20_linear_67_638)" stroke-width="3" stroke-miterlimit="10"/>
<path d="M360.428 1443.52C363.409 1134.21 277.535 830.491 113.059 568.452C55.9126 477.391 122.078 359.186 229.613 360.213C539.139 363.167 843.012 277.37 1105.21 112.966C1196.32 55.8541 1314.6 121.98 1313.57 229.451C1310.62 538.792 1396.46 842.484 1560.97 1104.52C1618.11 1195.58 1551.95 1313.79 1444.41 1312.76C1134.89 1309.81 831.013 1395.61 568.817 1560.01C477.676 1617.15 359.4 1551.02 360.428 1443.52Z" stroke="url(#paint21_linear_67_638)" stroke-width="3" stroke-miterlimit="10"/>
<path d="M405.935 1476.62C386.355 1167.9 278.589 871.27 95.4328 621.866C31.7854 535.222 89.1632 412.497 196.493 405.692C505.402 386.124 802.209 278.422 1051.76 95.3749C1138.46 31.7656 1261.26 89.109 1268.07 196.374C1287.65 505.099 1395.41 801.729 1578.57 1051.13C1642.22 1137.78 1584.84 1260.5 1477.51 1267.31C1168.6 1286.88 871.792 1394.58 622.239 1577.62C535.543 1641.23 412.745 1583.89 405.935 1476.62Z" stroke="url(#paint22_linear_67_638)" stroke-width="3" stroke-miterlimit="10"/>
<defs>
<linearGradient id="paint0_linear_67_638" x1="836.987" y1="57.625" x2="836.987" y2="1615.35" gradientUnits="userSpaceOnUse">
<stop stop-color="#00C2FF"/>
<stop offset="1" stop-color="#FF03D7"/>
</linearGradient>
<linearGradient id="paint1_linear_67_638" x1="836.994" y1="39.7344" x2="836.994" y2="1633.27" gradientUnits="userSpaceOnUse">
<stop stop-color="#00C2FF"/>
<stop offset="1" stop-color="#FF03D7"/>
</linearGradient>
<linearGradient id="paint2_linear_67_638" x1="837.012" y1="25.3398" x2="837.012" y2="1647.69" gradientUnits="userSpaceOnUse">
<stop stop-color="#00C2FF"/>
<stop offset="1" stop-color="#FF03D7"/>
</linearGradient>
<linearGradient id="paint3_linear_67_638" x1="837.009" y1="14.5156" x2="837.009" y2="1658.46" gradientUnits="userSpaceOnUse">
<stop stop-color="#00C2FF"/>
<stop offset="1" stop-color="#FF03D7"/>
</linearGradient>
<linearGradient id="paint4_linear_67_638" x1="837.001" y1="7.35156" x2="837.001" y2="1665.65" gradientUnits="userSpaceOnUse">
<stop stop-color="#00C2FF"/>
<stop offset="1" stop-color="#FF03D7"/>
</linearGradient>
<linearGradient id="paint5_linear_67_638" x1="836.987" y1="3.85352" x2="836.987" y2="1669.12" gradientUnits="userSpaceOnUse">
<stop stop-color="#00C2FF"/>
<stop offset="1" stop-color="#FF03D7"/>
</linearGradient>
<linearGradient id="paint6_linear_67_638" x1="837.019" y1="4.01953" x2="837.019" y2="1668.98" gradientUnits="userSpaceOnUse">
<stop stop-color="#00C2FF"/>
<stop offset="1" stop-color="#FF03D7"/>
</linearGradient>
<linearGradient id="paint7_linear_67_638" x1="837.005" y1="7.89062" x2="837.005" y2="1665.11" gradientUnits="userSpaceOnUse">
<stop stop-color="#00C2FF"/>
<stop offset="1" stop-color="#FF03D7"/>
</linearGradient>
<linearGradient id="paint8_linear_67_638" x1="836.988" y1="15.4492" x2="836.988" y2="1657.58" gradientUnits="userSpaceOnUse">
<stop stop-color="#00C2FF"/>
<stop offset="1" stop-color="#FF03D7"/>
</linearGradient>
<linearGradient id="paint9_linear_67_638" x1="836.996" y1="26.6016" x2="836.996" y2="1646.43" gradientUnits="userSpaceOnUse">
<stop stop-color="#00C2FF"/>
<stop offset="1" stop-color="#FF03D7"/>
</linearGradient>
<linearGradient id="paint10_linear_67_638" x1="837" y1="41.3262" x2="837" y2="1631.67" gradientUnits="userSpaceOnUse">
<stop stop-color="#00C2FF"/>
<stop offset="1" stop-color="#FF03D7"/>
</linearGradient>
<linearGradient id="paint11_linear_67_638" x1="836.993" y1="59.5781" x2="836.993" y2="1613.45" gradientUnits="userSpaceOnUse">
<stop stop-color="#00C2FF"/>
<stop offset="1" stop-color="#FF03D7"/>
</linearGradient>
<linearGradient id="paint12_linear_67_638" x1="837.008" y1="81.2109" x2="837.008" y2="1591.77" gradientUnits="userSpaceOnUse">
<stop stop-color="#00C2FF"/>
<stop offset="1" stop-color="#FF03D7"/>
</linearGradient>
<linearGradient id="paint13_linear_67_638" x1="837" y1="106.186" x2="837" y2="1566.82" gradientUnits="userSpaceOnUse">
<stop stop-color="#00C2FF"/>
<stop offset="1" stop-color="#FF03D7"/>
</linearGradient>
<linearGradient id="paint14_linear_67_638" x1="837" y1="134.311" x2="837" y2="1538.69" gradientUnits="userSpaceOnUse">
<stop stop-color="#00C2FF"/>
<stop offset="1" stop-color="#FF03D7"/>
</linearGradient>
<linearGradient id="paint15_linear_67_638" x1="837.02" y1="165.465" x2="837.02" y2="1507.53" gradientUnits="userSpaceOnUse">
<stop stop-color="#00C2FF"/>
<stop offset="1" stop-color="#FF03D7"/>
</linearGradient>
<linearGradient id="paint16_linear_67_638" x1="837.013" y1="199.488" x2="837.013" y2="1473.54" gradientUnits="userSpaceOnUse">
<stop stop-color="#00C2FF"/>
<stop offset="1" stop-color="#FF03D7"/>
</linearGradient>
<linearGradient id="paint17_linear_67_638" x1="837.013" y1="180.324" x2="837.013" y2="1492.69" gradientUnits="userSpaceOnUse">
<stop stop-color="#00C2FF"/>
<stop offset="1" stop-color="#FF03D7"/>
</linearGradient>
<linearGradient id="paint18_linear_67_638" x1="836.987" y1="147.877" x2="836.987" y2="1525.14" gradientUnits="userSpaceOnUse">
<stop stop-color="#00C2FF"/>
<stop offset="1" stop-color="#FF03D7"/>
</linearGradient>
<linearGradient id="paint19_linear_67_638" x1="837.013" y1="118.365" x2="837.013" y2="1554.65" gradientUnits="userSpaceOnUse">
<stop stop-color="#00C2FF"/>
<stop offset="1" stop-color="#FF03D7"/>
</linearGradient>
<linearGradient id="paint20_linear_67_638" x1="837.012" y1="91.957" x2="837.012" y2="1581.03" gradientUnits="userSpaceOnUse">
<stop stop-color="#00C2FF"/>
<stop offset="1" stop-color="#FF03D7"/>
</linearGradient>
<linearGradient id="paint21_linear_67_638" x1="837.012" y1="91.957" x2="837.012" y2="1581.03" gradientUnits="userSpaceOnUse">
<stop stop-color="#00C2FF"/>
<stop offset="1" stop-color="#FF03D7"/>
</linearGradient>
<linearGradient id="paint22_linear_67_638" x1="837" y1="68.8164" x2="837" y2="1604.18" gradientUnits="userSpaceOnUse">
<stop stop-color="#00C2FF"/>
<stop offset="1" stop-color="#FF03D7"/>
</linearGradient>
</defs>
</svg>
