<svg width="125" height="146" viewBox="0 0 125 146" fill="none" xmlns="http://www.w3.org/2000/svg">
<path d="M89.9332 0C91.2418 8.86805 87.6238 17.5558 82.8511 23.7025C77.7448 30.2956 68.9436 35.3949 60.416 35.1288C58.8593 26.6385 62.8451 17.8906 67.6948 12.0101C73.0149 5.51999 82.1326 0.540839 89.9332 0Z" fill="white"/>
<path d="M120.766 48.9827C96.2014 62.4951 100.179 97.7011 125 107.119C121.587 114.708 119.945 118.098 115.549 124.82C109.416 134.203 100.769 145.887 90.0431 145.973C85.634 146.021 82.7405 144.689 79.6204 143.254C76.0038 141.589 72.0829 139.785 65.1447 139.826C58.2471 139.863 54.2633 141.646 50.5981 143.286C47.3958 144.719 44.4366 146.043 39.9897 145.999C29.2725 145.904 21.0786 135.362 14.9459 125.979C-2.21183 99.7615 -4.01655 68.9851 6.56376 52.614C14.0906 40.9903 25.9624 34.1911 37.1158 34.1911C43.0581 34.1911 47.847 35.9042 52.4103 37.5366C56.5631 39.0221 60.5292 40.4408 65.0078 40.4408C69.1523 40.4408 72.5598 39.146 76.277 37.7335C80.7377 36.0385 85.6444 34.174 92.8057 34.174C102.745 34.174 113.274 39.6081 120.766 48.9827Z" fill="white"/>
</svg>
