<svg width="154" height="180" viewBox="0 0 154 180" fill="none" xmlns="http://www.w3.org/2000/svg">
<path d="M110.798 0C112.41 10.9332 107.952 21.6442 102.073 29.2223C95.7816 37.3507 84.9385 43.6376 74.4325 43.3095C72.5147 32.842 77.4252 22.0569 83.4 14.8069C89.9544 6.80547 101.187 0.666788 110.798 0Z" fill="white"/>
<path d="M148.784 60.3896C118.52 77.0487 123.42 120.453 154 132.064C149.796 141.42 147.772 145.601 142.356 153.888C134.801 165.456 124.147 179.861 110.933 179.967C105.501 180.026 101.936 178.384 98.0924 176.614C93.6367 174.562 88.8062 172.338 80.2582 172.389C71.7604 172.434 66.8524 174.632 62.3368 176.654C58.3916 178.42 54.7459 180.053 49.2673 179.999C36.0637 179.882 25.9688 166.885 18.4134 155.317C-2.72497 122.994 -4.94839 85.0502 8.08655 64.8666C17.3596 50.5359 31.9857 42.1535 45.7267 42.1535C53.0476 42.1535 58.9475 44.2654 64.5695 46.278C69.6858 48.1094 74.5719 49.8586 80.0896 49.8586C85.1956 49.8586 89.3936 48.2622 93.9733 46.5207C99.4689 44.431 105.514 42.1323 114.337 42.1323C126.581 42.1323 139.553 48.8319 148.784 60.3896Z" fill="white"/>
</svg>
