<svg width="95" height="103" viewBox="0 0 95 103" fill="none" xmlns="http://www.w3.org/2000/svg">
<path fill-rule="evenodd" clip-rule="evenodd" d="M41.3823 5.27624L46.4207 2.3666L46.4572 2.34651L46.8317 2.12915L46.8499 2.15655C48.0691 1.67252 49.724 1.88805 51.5377 2.92369L86.3849 22.8218C90.0927 24.9378 93.1111 29.7105 93.0937 33.4284L92.8928 75.5634C92.8837 77.242 92.2581 78.4283 91.2307 79.0338L91.2252 79.0365L91.216 79.0402L86.1155 81.9873L85.7812 82.179L85.7676 82.1608C84.541 82.6786 82.857 82.4777 81.0113 81.421L46.165 61.5202C42.4572 59.406 39.4398 54.6324 39.4571 50.9154L39.658 8.78133C39.6672 7.06806 40.3192 5.86804 41.3823 5.27624Z" fill="white"/>
<path fill-rule="evenodd" clip-rule="evenodd" d="M40.393 3.6407L40.4021 3.63614C40.4359 3.61513 40.4706 3.59687 40.5062 3.57769L45.4698 0.711883L45.4972 0.695444V0.691791L45.8716 0.474436C46.0954 0.34658 46.3337 0.266213 46.5748 0.234249C47.4114 -0.0159841 48.3392 -0.0689532 49.3237 0.0908671C50.321 0.255254 51.3877 0.638822 52.4791 1.25984L87.3272 21.1597C89.4587 22.3762 91.3784 24.3342 92.7519 26.506C94.1474 28.7161 95.0113 31.2047 95.0004 33.4349L94.7995 75.5699C94.7931 76.6841 94.5739 77.664 94.1784 78.4896C93.7236 79.4439 93.046 80.1791 92.1948 80.6796L92.1885 80.6832L92.1793 80.6896C92.1583 80.7015 92.1373 80.7115 92.1154 80.7261L87.0696 83.6358L87.0742 83.6394L86.739 83.834C86.5564 83.939 86.3628 84.0102 86.1664 84.0513C85.3034 84.3463 84.3289 84.4212 83.2869 84.2614C82.2668 84.1025 81.1773 83.7134 80.0723 83.0833L45.2223 63.1861C43.0917 61.9696 41.172 60.0125 39.7975 57.839C38.4003 55.6289 37.5381 53.1421 37.5509 50.9101L37.7518 8.77779C37.7573 7.63895 37.9847 6.64259 38.3957 5.80695C38.8614 4.86082 39.5437 4.13295 40.3957 3.64253L40.393 3.6407ZM47.3703 4.02245L42.4204 6.88095C42.3839 6.90469 42.3474 6.92661 42.3108 6.94853C42.1081 7.06086 41.9419 7.24077 41.8222 7.48278C41.6606 7.81156 41.5702 8.24992 41.5683 8.78874L41.3656 50.9238C41.3592 52.4087 41.9958 54.1658 43.0305 55.8006C44.088 57.4737 45.5328 58.9632 47.1082 59.86L81.9554 79.7581C82.6604 80.1599 83.3043 80.3974 83.8696 80.486C84.3317 80.5572 84.7226 80.5252 85.0203 80.3965L85.0221 80.4001L85.0614 80.3819L85.1591 80.3271L85.1609 80.3298L85.1646 80.3261L90.2058 77.4147L90.2514 77.3873H90.2587L90.2679 77.3781C90.4767 77.2513 90.6412 77.0631 90.7391 76.8393C90.8962 76.5142 90.983 76.0841 90.9857 75.5516L91.1866 33.4175C91.1957 31.9316 90.5565 30.1754 89.5227 28.538C88.466 26.8667 87.0203 25.3781 85.4468 24.4794L50.5941 4.58593C49.9073 4.19323 49.2726 3.95578 48.7109 3.86445C48.2781 3.79413 47.9109 3.80966 47.6214 3.90738C47.5758 3.92838 47.5301 3.94665 47.4826 3.96217L47.4169 4.00144V3.99779L47.4105 4.00236L47.3739 4.02062L47.3703 4.02245Z" fill="#9699A6"/>
<path fill-rule="evenodd" clip-rule="evenodd" d="M44.5655 47.9674L44.7418 11.0919L41.3828 5.27624L46.4213 2.3666L46.4578 2.34651L46.8322 2.12915L46.8505 2.15655C48.0688 1.67252 49.7236 1.88805 51.5373 2.92369L86.3873 22.8218C90.0951 24.9378 93.1134 29.7105 93.0961 33.4284L92.8952 75.5634C92.886 77.242 92.2605 78.4283 91.233 79.0338L91.2276 79.0365L91.2184 79.0402L85.7845 82.1781L82.4265 76.3607L51.2725 58.574C47.5647 56.4589 44.5482 51.6853 44.5655 47.9684V47.9674Z" fill="#F6F6F6"/>
<path fill-rule="evenodd" clip-rule="evenodd" d="M44.1809 47.9656L44.3572 11.1941L41.0512 5.46801L40.8594 5.1365L41.1918 4.94746L46.2302 2.03873L46.2668 2.01772L46.6412 1.80037L46.9746 1.60858L47.0248 1.69717C47.6367 1.51634 48.3307 1.48073 49.0796 1.6031C49.9043 1.73826 50.7993 2.06338 51.7281 2.59307L86.5735 22.4875C88.4822 23.5779 90.2119 25.3478 91.4594 27.3214C92.7124 29.3004 93.4841 31.4968 93.475 33.4293L93.2722 75.5643C93.2695 76.4456 93.1023 77.2082 92.8028 77.831C92.5763 78.3174 92.2421 78.7458 91.8256 79.084L91.853 79.1096L91.4256 79.3607L91.4192 79.3671L91.4137 79.3689L91.4046 79.3726L85.9707 82.5105L85.6419 82.7023L85.4502 82.3699L82.1442 76.6438L51.0815 58.9083C49.1728 57.8187 47.4431 56.047 46.1955 54.0771C44.9444 52.0954 44.1718 49.8999 44.1809 47.9674V47.9656ZM45.1216 11.0937L44.9453 47.9693C44.9362 49.7538 45.664 51.8022 46.8449 53.668C48.0275 55.5402 49.6614 57.216 51.4605 58.2416L82.6117 76.0282L82.7515 76.1707L85.9177 81.6557L91.0229 78.7086H91.0247L91.0338 78.7032H91.0375C91.4941 78.4337 91.8594 78.031 92.1151 77.5013C92.3653 76.9771 92.5051 76.3259 92.5078 75.5606L92.7106 33.4274C92.7197 31.6438 91.9918 29.5945 90.8128 27.7287C89.6292 25.8565 87.9936 24.1807 86.1972 23.1551L51.3482 3.25427C50.4988 2.77025 49.6915 2.47344 48.9554 2.35289C48.212 2.23234 47.5463 2.28896 46.9883 2.51088L46.8056 2.58394L46.6467 2.67527L46.6102 2.69536V2.69719L41.9032 5.41413L45.0695 10.8973L45.1243 11.0919L45.1216 11.0937Z" fill="#9699A6"/>
<path fill-rule="evenodd" clip-rule="evenodd" d="M39.4571 50.9156L39.658 8.78145C39.6763 5.06449 42.7238 3.75396 46.4317 5.8709L81.2798 25.7681C84.9876 27.885 88.005 32.6577 87.9877 36.3756L87.7868 78.5097C87.7685 82.2248 84.721 83.5363 81.0131 81.4211L46.165 61.5203C42.4572 59.4061 39.4398 54.6325 39.4571 50.9156Z" fill="white"/>
<path fill-rule="evenodd" clip-rule="evenodd" d="M39.0781 50.9139L39.279 8.77981C39.2845 7.77523 39.4982 6.92864 39.8818 6.25922C40.1961 5.69563 40.6634 5.23244 41.2298 4.92312C41.7805 4.6254 42.4243 4.47288 43.1385 4.47562C44.1796 4.4811 45.3714 4.82449 46.6235 5.53957L81.4689 25.4377C83.3776 26.5263 85.1073 28.2962 86.3548 30.2688C87.6078 32.2487 88.3795 34.4451 88.3704 36.3785L88.1685 78.5108C88.1649 79.5154 87.9494 80.3619 87.5694 81.0295C87.2558 81.594 86.788 82.0574 86.2206 82.3656C85.6689 82.6634 85.0242 82.8168 84.3118 82.815C83.2707 82.8077 82.0789 82.4679 80.8268 81.7501L45.9815 61.8548C44.0727 60.768 42.343 58.9963 41.0955 57.0236C39.8443 55.0446 39.0708 52.8482 39.08 50.9139H39.0781ZM40.0444 8.78346L39.8434 50.9167C39.8343 52.6993 40.5613 54.7469 41.7403 56.6127C42.9248 58.4848 44.5577 60.1607 46.3568 61.1881L81.2049 81.0853C82.3401 81.7337 83.4013 82.0442 84.3164 82.0487C84.8963 82.0487 85.4151 81.93 85.8562 81.6926C86.2881 81.4551 86.6452 81.1053 86.9046 80.6515C87.2242 80.0925 87.4023 79.3729 87.4069 78.5053L87.6078 36.3712C87.6169 34.5867 86.8891 32.5373 85.71 30.6725C84.5265 28.8003 82.8917 27.1254 81.0944 26.097L46.2445 6.20442C45.1093 5.55601 44.0472 5.2455 43.1339 5.24093C42.554 5.23728 42.0334 5.35966 41.5942 5.5971C41.1538 5.83797 40.7904 6.19821 40.5457 6.63639C40.2261 7.19622 40.0471 7.91496 40.0434 8.78255L40.0444 8.78346Z" fill="#9699A6"/>
<path fill-rule="evenodd" clip-rule="evenodd" d="M83.6022 83.8785L71.0011 91.1526L54.9953 100.395L54.988 100.398C52.6108 101.722 50.7139 102.454 48.8271 102.533C46.9312 102.613 45.0791 102.033 42.8069 100.731V100.729L26.2203 91.1526L10.2109 81.9104L10.2072 81.9077C7.87112 80.5131 6.28753 79.2336 5.27747 77.6427C4.2601 76.0409 3.83634 74.1468 3.82812 71.5239V33.883C3.87105 31.1634 4.1843 29.1524 5.06102 27.4811C5.94049 25.7989 7.36883 24.4856 9.6328 23.1669H9.63463L26.2194 13.5904L38.2379 6.64966L38.6196 7.31177L26.6011 14.2525L10.0127 23.8281C7.87751 25.0701 6.5405 26.292 5.7341 27.8345C4.9213 29.3871 4.62905 31.2921 4.58887 33.8949V71.5257C4.598 73.9915 4.98796 75.7605 5.92223 77.2336C6.85923 78.7104 8.36246 79.9186 10.5917 81.2501L26.5975 90.4923L43.1823 100.068C45.3284 101.295 47.0545 101.842 48.7933 101.769C50.5413 101.696 52.3368 100.998 54.6071 99.7327L70.6129 90.4905L83.2159 83.2173L83.5995 83.8812L83.6022 83.8785Z" fill="#9699A6"/>
<path fill-rule="evenodd" clip-rule="evenodd" d="M38.1052 34.9078L38.0413 34.9443L33.359 37.6476L32.2494 35.7261C31.5069 34.4402 30.274 33.7489 29.5114 34.1891L28.2749 34.9033L27.0383 35.6156L22.8465 38.0357L26.5086 44.4906L24.7716 43.5153C24.2392 43.2166 23.7533 43.1956 23.3972 43.4002L17.9688 46.5327L25.0191 60.2681L31.0156 69.9578L38.3974 81.7872L43.772 78.6867C44.1281 78.4812 44.3528 78.0474 44.3601 77.4355L44.4021 73.9222L48.141 81.8429L52.3329 79.4246L53.0397 79.0164L54.805 77.9963C55.5694 77.5579 55.5868 76.1424 54.8434 74.8574L53.6927 72.8629L58.4325 70.2208C58.7951 70.0171 59.0261 69.5815 59.0325 68.9651L59.0809 65.007C59.0992 63.786 58.2371 62.2983 57.1722 61.701L54.1073 59.9795C53.8139 58.5529 53.4078 57.1518 52.8927 55.7895L55.0891 54.52C55.8507 54.0817 55.8681 52.6661 55.1256 51.3812L52.7201 47.2131C51.9767 45.9272 50.7456 45.2359 49.9803 45.677L47.7848 46.9464C46.8637 45.817 45.8528 44.7639 44.7619 43.7975L44.8058 40.2814C44.8213 39.0604 43.9619 37.5727 42.8971 36.9754L39.4477 35.0375C38.9271 34.7498 38.455 34.7206 38.1015 34.906L38.1052 34.9078ZM36.1079 48.4725L45.7519 63.7458L45.5537 65.2371C42.8121 66.6143 38.5728 64.1686 35.9736 59.6644C33.3161 55.0589 33.3754 50.0496 36.1079 48.4725Z" fill="#F6F6F6"/>
<path fill-rule="evenodd" clip-rule="evenodd" d="M37.1565 33.2474L37.1875 33.2291V33.2318L37.2149 33.2136C37.7387 32.9412 38.3313 32.8299 38.9182 32.8939C39.4352 32.9494 39.9351 33.1111 40.3867 33.3688L43.837 35.3068C44.6754 35.7762 45.4078 36.5579 45.9156 37.4374C46.4233 38.3159 46.732 39.3424 46.7192 40.305L46.6873 42.9653C47.2121 43.4587 47.7178 43.972 48.2033 44.5042L48.8791 44.1142C48.9887 44.0366 49.1101 43.9681 49.2389 43.9133C50.2024 43.4539 51.2937 43.5663 52.2983 44.1297C53.0408 44.5453 53.7623 45.2412 54.3011 46.1252L54.3194 46.1526V46.1544L54.3778 46.2549L54.3806 46.2576L56.7861 50.4258H56.7824L56.7861 50.4331C57.3322 51.3774 57.5989 52.402 57.587 53.2916C57.5724 54.5336 57.0573 55.5975 56.0527 56.1775L56.0509 56.1738L56.0445 56.1775L55.218 56.6551C55.4344 57.3391 55.6263 58.0305 55.7934 58.7282L58.113 60.036C58.9496 60.5017 59.6839 61.2835 60.1925 62.1639C60.6985 63.0424 61.0081 64.0698 60.9962 65.0333L60.9478 68.9896C60.9465 69.5331 60.8275 70.0699 60.5989 70.5631C60.3454 71.1079 59.9319 71.5625 59.4135 71.8663L59.3651 71.8937L56.324 73.5906L56.5021 73.9011L56.4993 73.9029L56.5021 73.9084C57.0473 74.8527 57.313 75.8783 57.303 76.7687C57.2866 78.008 56.7715 79.0701 55.7596 79.6546L54.1011 80.6135C54.069 80.6356 54.0354 80.6554 54.0006 80.6729L53.2938 81.0839L49.1348 83.4839C49.0891 83.5113 49.0398 83.5387 48.9905 83.5624L47.8635 84.2145L47.8654 84.2163C46.8517 84.8036 45.6736 84.7186 44.5932 84.1113C43.8443 83.693 43.1155 82.988 42.5749 82.0893V82.0921L42.5566 82.0601L42.5146 81.9871H42.5164L42.5137 81.9798L42.3584 81.7122L39.4698 83.3798C39.4488 83.3926 39.4287 83.4044 39.4086 83.4191C39.3739 83.441 39.3392 83.4629 39.3027 83.483C38.8406 83.7495 38.3144 83.8843 37.7812 83.8729C37.1673 83.8573 36.567 83.6894 36.0341 83.3843L32.5838 81.4455C31.7473 80.9752 31.013 80.1943 30.5061 79.3149C29.9993 78.4354 29.6897 77.4098 29.7025 76.4472L29.7344 73.7869C29.3892 73.4618 29.0522 73.1294 28.7253 72.7851C28.5554 72.609 28.3879 72.4306 28.223 72.2499L27.3947 72.7275H27.3855C26.3764 73.312 25.201 73.2271 24.1225 72.6225C23.3508 72.1869 22.5973 71.4444 22.0457 70.4928L22.043 70.4946L19.6977 66.4306L19.6886 66.4151L19.6365 66.3256L19.6393 66.3238L19.6365 66.3183C19.0913 65.3749 18.8256 64.3475 18.8365 63.457C18.8521 62.2196 19.3662 61.1584 20.3735 60.5775L20.3708 60.5739L21.2046 60.0899C21.1315 59.857 21.0603 59.6241 20.9927 59.3866C20.8614 58.9346 20.7414 58.4794 20.6329 58.0213L18.3114 56.7163C17.4749 56.2469 16.7406 55.4651 16.2337 54.5866C15.7269 53.7071 15.4173 52.6797 15.4301 51.7171L15.4776 47.76C15.4867 47.0823 15.6438 46.4869 15.9159 46.0001C16.1753 45.5389 16.5369 45.169 16.9826 44.9024L16.9963 44.8932L17.0173 44.8814V44.8795C17.0584 44.8558 17.0995 44.8339 17.1452 44.8101L20.0813 43.1151L19.9233 42.843C19.3799 41.8987 19.1142 40.874 19.1242 39.9826C19.1397 38.7443 19.6557 37.6812 20.6676 37.0967L21.8 36.4447C21.8302 36.4228 21.864 36.4036 21.8969 36.3835L26.0887 33.9633L26.0915 33.967L26.096 33.9633L27.3344 33.2492L28.4668 32.5953L28.5636 32.535C29.5774 31.9505 30.7536 32.0327 31.8331 32.641C32.6121 33.0766 33.3656 33.8209 33.9117 34.7643L33.9144 34.7688L34.0697 35.0401L37.0012 33.3487C37.0537 33.314 37.1073 33.2811 37.162 33.2501L37.1565 33.2474ZM27.654 68.1567L24.2932 62.7228L22.6658 63.6634C22.6932 63.8525 22.7663 64.0717 22.885 64.3027V64.3L22.9453 64.405L25.3508 68.5713V68.5786C25.5042 68.8434 25.6841 69.0535 25.8622 69.1905L27.655 68.1558L27.654 68.1567ZM40.8872 51.2961C40.1845 50.4385 39.428 49.6265 38.6223 48.865L46.0379 60.6095C45.9265 60.2789 45.8069 59.9428 45.6781 59.6004L45.1064 58.0807L46.5092 57.2679L48.3284 56.2204C48.301 56.0286 48.2279 55.8122 48.1092 55.5811L48.0489 55.477L45.6434 51.3098V51.3025C45.5142 51.0681 45.3405 50.8612 45.132 50.6933L43.321 51.7381L41.9146 52.5482L40.8872 51.2943V51.2961ZM37.4286 47.0887L37.4314 46.9124L37.4734 43.3964C37.4761 43.1379 37.3638 42.8119 37.1784 42.4904C36.993 42.1726 36.7647 41.9105 36.5364 41.7827L33.9574 40.3352L33.9263 42.8466L33.8962 45.2457L31.5674 44.6823C31.1452 44.5806 30.716 44.5113 30.2833 44.475C29.8954 44.44 29.5052 44.4388 29.1171 44.4713L28.423 44.5307C28.4165 44.8563 28.3269 45.1748 28.1627 45.456C27.9985 45.7373 27.7652 45.9719 27.4849 46.1377C27.2046 46.3034 26.8866 46.3948 26.5611 46.4032C26.2355 46.4116 25.9132 46.3366 25.6248 46.1855L25.2777 46.685C25.0555 47.0035 24.8617 47.3408 24.6987 47.6933C24.5175 48.0872 24.3661 48.4941 24.2458 48.9107L23.5672 51.2157L22.0941 50.3892L26.6787 59.3191L27.4458 60.5611C26.9207 58.9903 26.6677 57.4469 26.6851 56.0459C26.7189 53.3518 27.7353 51.1089 29.7299 49.9545L29.7271 49.9527C30.7089 49.3865 31.8002 49.1563 32.9327 49.2248C33.4423 48.2111 34.1838 47.3828 35.1647 46.8184C35.5209 46.6132 35.9339 46.5286 36.342 46.5773C36.7502 46.6261 37.1317 46.8054 37.4296 47.0887H37.4286ZM37.077 76.0573L37.0953 74.6362L39.4241 75.1997C39.8369 75.2974 40.2643 75.3678 40.7072 75.407C41.1091 75.4436 41.499 75.4436 41.8762 75.4107L42.4771 75.3595L42.4954 73.9002C42.5017 73.3934 42.7088 72.9099 43.0713 72.5558C43.4338 72.2017 43.922 72.0059 44.4288 72.0115C45.0635 72.0207 45.6233 72.3348 45.9631 72.817C46.0818 72.6161 46.1932 72.4088 46.2964 72.1869C46.4699 71.8216 46.6206 71.4134 46.7503 70.9722L47.4279 68.6672L49.5211 69.8407L51.7157 71.0736L51.7522 68.1211C51.754 67.8617 51.6426 67.5347 51.4563 67.2142C51.2737 66.8964 51.0453 66.6343 50.817 66.5064L47.7512 64.7858L47.5649 64.6799L47.4571 65.4836C47.3658 66.1731 46.9183 66.7292 46.3247 66.9904C45.4434 67.4087 44.4854 67.5786 43.4936 67.5201C42.9877 68.532 42.2461 69.3585 41.268 69.9257L41.2707 69.9293C39.2725 71.0837 36.8186 70.8426 34.4669 69.5229C33.5099 68.9841 32.5582 68.258 31.6614 67.3676L32.6404 68.9503L32.6432 68.9485L37.0798 76.0536L37.077 76.0573ZM42.2707 47.0997C42.4388 47.2732 42.6059 47.454 42.773 47.6367L43.6014 47.159H43.6105C44.0577 46.8987 44.5662 46.7622 45.0836 46.7636L44.9439 46.6156C44.4829 46.1347 44.0027 45.6725 43.5046 45.2302C43.298 45.0481 43.1335 44.8232 43.0223 44.5713C42.9111 44.3193 42.856 44.0462 42.8607 43.7708L42.9046 40.2612C42.9073 40.0036 42.795 39.6767 42.6096 39.3552C42.4251 39.0374 42.1968 38.7753 41.9685 38.6475L38.6625 36.7935L37.0917 37.6995L38.4122 38.4411C39.2479 38.9086 39.983 39.6922 40.489 40.569C40.9958 41.4484 41.3054 42.4749 41.2927 43.4366L41.2607 46.0969C41.6077 46.4239 41.9456 46.7563 42.2707 47.0978V47.0997ZM48.501 48.7207C48.6608 48.9307 48.8115 49.1554 48.9485 49.3929H48.9521L51.2992 53.4569L51.3084 53.4751L51.3604 53.5619L51.3577 53.5637L51.3604 53.5692C51.4974 53.8066 51.6161 54.0468 51.7184 54.2907C51.8189 54.2112 51.9285 54.14 52.0472 54.0806L53.7586 53.0943C53.7142 52.829 53.6203 52.5743 53.4819 52.3436L53.4792 52.3463L51.1321 48.2823C51.0907 48.2208 51.0532 48.1568 51.0198 48.0905C50.8981 47.8876 50.7417 47.7077 50.5577 47.559L48.7439 48.6093C48.6663 48.6522 48.585 48.6915 48.5037 48.7244L48.501 48.7207ZM51.7029 58.2232C51.4454 58.6746 51.0722 59.0491 50.6216 59.3081V59.3118L49.7905 59.793C49.8636 60.025 49.933 60.2588 50.0006 60.4963C50.133 60.9492 50.2526 61.4059 50.3604 61.8625L52.6846 63.1648C53.5175 63.6342 54.2518 64.416 54.7605 65.2963C55.2664 66.1758 55.576 67.2014 55.5641 68.1667L55.5459 69.6407L57.1258 68.7612L57.1733 64.984C57.177 64.7283 57.0637 64.3995 56.8792 64.0799C56.6948 63.7602 56.4683 63.5 56.2381 63.3721L53.1732 61.6497C52.6253 61.3428 52.2874 60.804 52.2097 60.225C52.0823 59.6187 51.9321 59.0173 51.7595 58.4222C51.7412 58.3556 51.7202 58.2871 51.7001 58.2213L51.7029 58.2232ZM52.9303 75.365C52.7751 75.3833 52.6198 75.397 52.4591 75.3924C51.8874 75.386 51.2937 75.228 50.7147 74.9029L49.5394 74.2454L49.5028 74.3157L51.0755 77.0445C51.2069 77.2706 51.3238 77.5049 51.4253 77.7459L52.0874 77.3641C52.1221 77.3459 52.1586 77.3249 52.1942 77.3075L53.4746 76.5678C53.4303 76.3028 53.3361 76.0487 53.197 75.8189H53.1933L52.9312 75.3669L52.9303 75.365ZM28.0403 37.2456C28.1974 37.452 28.3445 37.6748 28.4787 37.9086L30.045 40.621L30.1344 40.6237L30.1509 39.284C30.16 38.6064 30.3153 38.0118 30.5893 37.5241C30.6687 37.3844 30.7573 37.252 30.8541 37.1287L30.6623 36.7954C30.6194 36.7288 30.5798 36.6603 30.5436 36.5899C30.4213 36.3888 30.266 36.2097 30.0842 36.0602L29.2312 36.5534L28.0422 37.2419L28.0403 37.2456ZM38.7894 58.0359C38.015 56.6934 37.0816 55.5701 36.1017 54.7235C36.3483 55.993 36.856 57.3601 37.6332 58.7054C38.4095 60.0515 39.341 61.1785 40.32 62.0241C40.0734 60.7547 39.5639 59.3876 38.7876 58.0423V58.0359H38.7894ZM32.1135 53.0833C31.9483 53.1181 31.7896 53.1785 31.6432 53.2623H31.6358C30.8998 53.6861 30.5217 54.7363 30.5052 56.0934C30.4842 57.7884 31.0486 59.8405 32.2039 61.8397V61.8488C33.3528 63.8397 34.8487 65.3502 36.3364 66.1849C37.5163 66.8489 38.615 67.0461 39.3501 66.6233H39.3575C39.5008 66.5411 39.6314 66.4333 39.7465 66.3064C37.7492 65.1466 35.7921 63.1675 34.3217 60.6259C32.8587 58.0871 32.1244 55.3975 32.1162 53.0852L32.1135 53.0833Z" fill="#0755E9"/>
<path fill-rule="evenodd" clip-rule="evenodd" d="M42.3631 50.083C41.4417 48.9541 40.4308 47.9014 39.3402 46.935L39.3831 43.419C39.3977 42.1952 38.5383 40.7093 37.4744 40.113L34.0241 38.1741C32.9592 37.5769 32.0761 38.0855 32.0606 39.3066L32.0186 42.8226C30.9638 42.5669 29.9364 42.4756 28.9592 42.5578L26.8221 38.8591C26.0824 37.5714 24.8495 36.88 24.086 37.3211L21.6129 38.7486C20.8503 39.1897 20.833 40.6025 21.5746 41.8883L23.7116 45.5889C23.1508 46.3925 22.718 47.3277 22.412 48.3679L19.3471 46.6464C18.2832 46.0482 17.4 46.5578 17.3836 47.7789L17.3361 51.7369C17.3215 52.957 18.1809 54.4438 19.2448 55.0429L22.3106 56.7626C22.5874 58.1288 22.9919 59.5389 23.5253 60.9526L21.328 62.2221C20.5645 62.6641 20.5471 64.076 21.2896 65.3618L23.6961 69.5309C24.4385 70.8167 25.6687 71.5072 26.434 71.067L28.6304 69.7975C29.5525 70.9261 30.5633 71.9791 31.6533 72.9465L31.6113 76.4625C31.5967 77.6826 32.456 79.1703 33.52 79.7685L36.9703 81.7028C38.0351 82.3028 38.9183 81.7941 38.9338 80.5731L38.9758 77.057C40.0288 77.3127 41.0553 77.4041 42.0325 77.3219L44.1695 81.0224C44.9111 82.3064 46.1421 82.9987 46.9056 82.5585L49.3806 81.1311C50.145 80.6891 50.1614 79.2772 49.4198 77.9895L47.2828 74.2889C47.8435 73.4853 48.2764 72.5501 48.5824 71.5099L51.6473 73.2323C52.7139 73.8259 53.598 73.3172 53.6108 72.0971L53.6601 68.1409C53.6747 66.9199 52.8162 65.4322 51.7514 64.8349L48.6846 63.1134C48.3913 61.6862 47.9851 60.2845 47.47 58.9215L49.6664 57.6539C50.4335 57.2119 50.4482 55.8 49.7057 54.5141L47.2992 50.3451C46.5577 49.0593 45.3266 48.3679 44.5622 48.8081L42.3667 50.0775L42.3631 50.083ZM40.4452 57.0841C43.1028 61.6896 43.0416 66.7007 40.3101 68.277C37.5767 69.8569 33.2076 67.4002 30.5501 62.7992C27.8925 58.1964 27.9564 53.1844 30.6871 51.6072C33.4204 50.0291 37.7895 52.4821 40.4471 57.0841H40.4452ZM58.314 43.5541C57.1661 39.7933 58.4054 36.9312 61.0849 37.1595C63.7626 37.3878 66.8658 40.6226 68.0147 44.3834C69.1654 48.1442 67.9252 51.0063 65.2457 50.778C62.5671 50.5497 59.4648 47.314 58.314 43.5541Z" fill="white"/>
<path fill-rule="evenodd" clip-rule="evenodd" d="M57.9471 43.6634C57.5727 42.4369 57.4403 41.2981 57.5243 40.3191C57.5973 39.4624 57.8348 38.7209 58.2156 38.1382C58.6101 37.5354 59.1563 37.1062 59.8348 36.9007C60.2491 36.7775 60.6832 36.7353 61.1134 36.7765C62.5472 36.898 64.0815 37.8085 65.3966 39.1802C66.767 40.6261 67.7871 42.3674 68.3784 44.2698C68.7528 45.4991 68.8834 46.6379 68.8003 47.6169C68.7272 48.4754 68.4898 49.2151 68.1099 49.7978C67.7172 50.4005 67.1692 50.8279 66.4934 51.0352C66.1007 51.154 65.6742 51.1996 65.2148 51.1594C63.7783 51.038 62.2467 50.1275 60.9316 48.7557C59.5604 47.3103 58.5399 45.5689 57.9489 43.6662L57.9471 43.6634ZM58.2878 40.3821C58.2129 41.2725 58.3334 42.3136 58.6777 43.4433C59.2333 45.23 60.1916 46.8653 61.4787 48.2233C62.6723 49.4681 64.0322 50.29 65.2742 50.395C65.6422 50.4261 65.9774 50.3932 66.2696 50.3037C66.7674 50.1512 67.1719 49.8316 67.4697 49.3777C67.7802 48.9028 67.9738 48.2818 68.0359 47.5539C68.1126 46.6626 67.993 45.6214 67.6468 44.4927C67.0926 42.7048 66.1342 41.0686 64.8459 39.7108C63.6522 38.4688 62.2942 37.6469 61.0504 37.5409C60.6851 37.509 60.3517 37.5409 60.0577 37.6323C59.5608 37.7839 59.1535 38.1044 58.8585 38.5583C58.5462 39.0332 58.3508 39.6542 58.2887 40.3821H58.2878Z" fill="#9699A6"/>
<path fill-rule="evenodd" clip-rule="evenodd" d="M61.7884 37.2849C64.2816 37.9543 66.9611 40.9471 68.0096 44.3809C68.4936 45.9682 68.5548 47.3947 68.2589 48.4979C65.7657 47.8312 63.0844 44.8357 62.0378 41.4019C61.5537 39.8156 61.4935 38.3881 61.7884 37.2867V37.2849Z" fill="#0755E9"/>
<path fill-rule="evenodd" clip-rule="evenodd" d="M61.8898 36.9153C63.2205 37.2715 64.5903 38.2395 65.7557 39.571C66.9481 40.9382 67.8426 42.5387 68.3822 44.2707C68.6288 45.0798 68.7703 45.8506 68.8142 46.5611C68.8598 47.31 68.7959 47.9968 68.6352 48.5977L68.5384 48.9676L68.1685 48.8671C66.8379 48.5109 65.468 47.5429 64.3027 46.2123C63.1095 44.8458 62.2152 43.245 61.677 41.5126C61.4305 40.7035 61.2889 39.9327 61.2451 39.2222C61.1994 38.4733 61.2633 37.7884 61.4232 37.1874L61.52 36.8167L61.8898 36.9153ZM65.1812 40.0752C64.2269 38.9866 63.1401 38.1664 62.0761 37.7765C62.0031 38.2039 61.9793 38.6715 62.0095 39.1793C62.0478 39.8331 62.1775 40.5455 62.4067 41.2925C62.9129 42.9207 63.7533 44.4253 64.8744 45.71C65.8296 46.7967 66.9164 47.6187 67.9794 48.0077C68.0525 47.5821 68.0772 47.1127 68.047 46.6068C67.9978 45.8886 67.8641 45.1786 67.6489 44.4917C67.1428 42.863 66.302 41.3581 65.1803 40.0733L65.1812 40.0752Z" fill="#9699A6"/>
<path fill-rule="evenodd" clip-rule="evenodd" d="M13.7697 69.3506C11.4829 66.8976 8.92484 66.0794 7.26728 67.0246H7.26545L7.23623 67.0428L7.22709 67.0483L3.61607 69.1324L3.60694 69.1379L3.6042 69.1433C3.10008 69.4411 2.67998 69.9087 2.38043 70.5452C1.10004 73.2795 2.50189 78.1097 5.51108 81.3344C7.78875 83.7765 10.3331 84.5984 11.9925 83.6724L15.6546 81.56C16.1697 81.2586 16.5953 80.7883 16.8994 80.1408C18.1798 77.4102 16.778 72.5808 13.7697 69.3552V69.3506Z" fill="white"/>
<path fill-rule="evenodd" clip-rule="evenodd" d="M12.3671 70.6527C11.4593 69.6801 10.5315 69.0362 9.68671 68.7349C9.07483 68.5157 8.56066 68.4947 8.22093 68.6801L8.19079 68.6983L8.18166 68.702L8.18349 68.7038L8.17435 68.7093C8.14695 68.7257 8.11956 68.7394 8.09216 68.7549L4.67383 70.7258C4.62543 70.7586 4.5752 70.7897 4.52314 70.8171C4.45868 70.8644 4.40038 70.9197 4.34963 70.9815C4.2518 71.0928 4.17003 71.2173 4.1067 71.3513C3.67016 72.2829 3.72587 73.6929 4.16697 75.2181C4.69912 77.0096 5.63659 78.6546 6.90675 80.0255C7.81727 81.0027 8.73875 81.6447 9.57073 81.947C10.1917 82.1689 10.7123 82.189 11.0575 81.9963C11.0781 81.9842 11.0994 81.9735 11.1214 81.9643L14.537 79.9917C14.5523 79.9791 14.5689 79.9681 14.5863 79.9588C14.6396 79.9215 14.6955 79.8879 14.7535 79.8583C14.8147 79.8172 14.8704 79.7652 14.9224 79.7086C15.0137 79.6026 15.0941 79.4757 15.1654 79.325C15.601 78.3935 15.5453 76.9843 15.1032 75.4592C14.5722 73.6665 13.6353 72.0203 12.3653 70.6481L12.3671 70.6527ZM10.9753 65.1275C12.3662 65.6243 13.8219 66.6051 15.1672 68.0463C16.8411 69.8582 18.076 72.0308 18.7764 74.3961C19.4659 76.7734 19.4705 79.1451 18.6284 80.946C18.4001 81.4328 18.1197 81.8593 17.8001 82.2228C17.4606 82.6139 17.0596 82.947 16.6129 83.2091L16.6101 83.2064L16.6046 83.2082L13.0822 85.242C13.0365 85.2721 12.9909 85.3005 12.9434 85.3297C12.8831 85.3635 12.8219 85.3936 12.7607 85.421C11.4548 86.0877 9.89676 86.1224 8.2876 85.5397C6.89305 85.0393 5.44188 84.0603 4.11035 82.6328C2.43701 80.8204 1.20276 78.6475 0.502979 76.282C-0.188358 73.9057 -0.192924 71.5331 0.650927 69.7358C0.860636 69.2762 1.13327 68.8481 1.46099 68.4636C1.77269 68.1062 2.13589 67.7971 2.53863 67.5467C2.57516 67.5239 2.61535 67.4965 2.65553 67.4736L2.66466 67.4682V67.4718L6.18071 65.4416L6.21267 65.4234C6.30126 65.364 6.39259 65.3156 6.48665 65.2727C7.79626 64.5923 9.35976 64.5476 10.9753 65.1266V65.1275ZM65.6594 41.885C65.7029 41.8551 65.752 41.8344 65.8038 41.8242C65.8557 41.8141 65.909 41.8148 65.9605 41.8263C66.0121 41.8377 66.0607 41.8597 66.1033 41.8908C66.146 41.9219 66.1817 41.9615 66.2084 42.007C66.2351 42.0526 66.252 42.1031 66.2582 42.1556C66.2644 42.208 66.2598 42.2611 66.2445 42.3117C66.2292 42.3622 66.2037 42.409 66.1695 42.4492C66.1353 42.4894 66.0932 42.5221 66.0457 42.5453L55.6072 48.5728C55.5637 48.6033 55.5143 48.6243 55.4622 48.6347C55.4102 48.645 55.3565 48.6445 55.3046 48.633C55.2528 48.6216 55.2039 48.5995 55.161 48.5681C55.1182 48.5368 55.0823 48.4969 55.0556 48.4509C55.029 48.405 55.0122 48.3541 55.0062 48.3013C55.0003 48.2485 55.0054 48.1951 55.0212 48.1444C55.037 48.0937 55.0631 48.0468 55.098 48.0068C55.1328 47.9667 55.1756 47.9343 55.2236 47.9116L65.6622 41.8841L65.6594 41.885Z" fill="#9699A6"/>
<path fill-rule="evenodd" clip-rule="evenodd" d="M38.1052 34.9078L38.0413 34.9443L33.359 37.6476L32.2494 35.7261C31.5069 34.4402 30.274 33.7489 29.5114 34.1891L28.2749 34.9033L27.0383 35.6156L22.8465 38.0357L26.5086 44.4906L24.7716 43.5153C24.2392 43.2166 23.7533 43.1956 23.3972 43.4002L17.9688 46.5327L25.0191 60.2681L31.0156 69.9578L38.3974 81.7872L43.772 78.6867C44.1281 78.4812 44.3528 78.0474 44.3601 77.4355L44.4021 73.9222L48.141 81.8429L52.3329 79.4246L53.0397 79.0164L54.805 77.9963C55.5694 77.5579 55.5868 76.1424 54.8434 74.8574L53.6927 72.8629L58.4325 70.2208C58.7951 70.0171 59.0261 69.5815 59.0325 68.9651L59.0809 65.007C59.0992 63.786 58.2371 62.2983 57.1722 61.701L54.1073 59.9795C53.8139 58.5529 53.4078 57.1518 52.8927 55.7895L55.0891 54.52C55.8507 54.0817 55.8681 52.6661 55.1256 51.3812L52.7201 47.2131C51.9767 45.9272 50.7456 45.2359 49.9803 45.677L47.7848 46.9464C46.8637 45.817 45.8528 44.7639 44.7619 43.7975L44.8058 40.2814C44.8213 39.0604 43.9619 37.5727 42.8971 36.9754L39.4477 35.0375C38.9271 34.7498 38.455 34.7206 38.1015 34.906L38.1052 34.9078ZM36.1079 48.4725L45.7519 63.7458L45.5537 65.2371C42.8121 66.6143 38.5728 64.1686 35.9736 59.6644C33.3161 55.0589 33.3754 50.0496 36.1079 48.4725Z" fill="#EAF2F7"/>
<path fill-rule="evenodd" clip-rule="evenodd" d="M38.2924 35.2419L38.2887 35.2447L38.2568 35.2602L38.2385 35.2712L38.2312 35.273L33.548 37.9762L33.2165 38.168L33.0265 37.8365L31.916 35.9132L38.2887 35.2374L38.2924 35.2419ZM37.8905 34.5899L32.5809 35.5333C32.1735 34.8301 31.6274 34.2858 31.074 33.9743C30.4621 33.631 29.8274 33.5634 29.3205 33.8574L28.084 34.5698L26.8465 35.2849L22.6546 37.705L22.3259 37.895L22.514 38.2265L25.4976 43.485L24.9588 43.1836C24.6483 43.0101 24.3469 42.9133 24.0638 42.8887C23.7469 42.8613 23.4565 42.9252 23.2053 43.0695L17.7769 46.2038L17.4609 46.3864L17.6253 46.7097L24.6757 60.4433L24.6921 60.4707L30.6877 70.1641L38.0686 81.9944L38.2641 82.3086L38.5837 82.1259L43.9591 79.0208C44.2094 78.8775 44.4112 78.6555 44.5464 78.3688C44.6651 78.1131 44.7354 77.8026 44.7382 77.4464L44.7619 75.5897L47.7912 82.0099L47.9693 82.3871L48.33 82.1771L52.5219 79.7597L53.2296 79.3487H53.2278L54.994 78.3295C55.5018 78.0354 55.7612 77.4528 55.7703 76.7496C55.7776 76.1194 55.5785 75.3705 55.174 74.6701V74.6664L54.2196 73.0116L58.6215 70.5577L58.9412 70.3796L58.9192 70.3339C59.038 70.2152 59.1412 70.0691 59.2206 69.9047C59.3531 69.6114 59.4209 69.2931 59.4197 68.9713L59.4681 65.0151C59.4772 64.3338 59.2462 63.5886 58.869 62.9329C58.4909 62.2772 57.9594 61.7045 57.3649 61.3712L54.4516 59.7337C54.1822 58.4519 53.8202 57.1914 53.3685 55.962L55.2863 54.8569C55.795 54.5647 56.0534 53.9784 56.0626 53.277C56.0717 52.645 55.8708 51.8998 55.4671 51.1948L53.0579 47.0303L53.047 47.0093C52.6424 46.3152 52.1008 45.7791 51.5538 45.4714C50.9419 45.1271 50.3072 45.0604 49.7976 45.3526V45.3545L47.8798 46.4613C47.4686 45.97 47.041 45.4927 46.5975 45.0303C46.1344 44.5473 45.653 44.0821 45.1546 43.6357L45.1948 40.2932C45.2039 39.6137 44.9719 38.8667 44.5948 38.211C44.2158 37.5552 43.6852 36.9817 43.0915 36.6493L39.6413 34.7132C39.3743 34.5566 39.0775 34.4576 38.77 34.4228C38.4816 34.3889 38.1897 34.4421 37.9316 34.5753L37.9225 34.578L37.8878 34.5935L37.8905 34.5899ZM37.8787 34.599L37.8896 34.5899L37.8787 34.599ZM37.8476 34.6173L37.8787 34.599L37.8476 34.6173ZM33.5005 37.126L37.8476 34.6145L33.5005 37.1233V37.126ZM32.5809 35.5314L33.4996 37.1242L32.579 35.5305L32.5809 35.5314ZM31.9169 35.915C31.5808 35.3333 31.1388 34.8885 30.6995 34.6419C30.3205 34.4301 29.9598 34.3716 29.7041 34.5186H29.7013L28.4648 35.2328L27.2292 35.9452V35.947L23.3661 38.1753L26.841 44.2996L26.3205 44.822L24.5853 43.8467C24.4065 43.7406 24.2073 43.6734 24.0008 43.6494C23.8578 43.6329 23.7132 43.6603 23.5862 43.7279L18.4719 46.6796L25.3488 60.0753L31.3379 69.7558L38.5253 81.272L43.5801 78.3551C43.7021 78.2799 43.7978 78.1689 43.8541 78.0373C43.9308 77.8765 43.9728 77.6738 43.9756 77.4345L44.0176 73.9166L44.7464 73.7577L48.3081 81.3049L52.1401 79.093L52.8479 78.682L54.616 77.6646C54.8717 77.5167 55.0023 77.1715 55.0087 76.7386C55.0141 76.2317 54.8507 75.629 54.5137 75.0473L53.363 73.0527L53.1684 72.7148L53.5091 72.5267L57.9311 70.0636L58.2507 69.8828C58.3753 69.81 58.4738 69.6997 58.532 69.5677C58.6087 69.407 58.6526 69.2024 58.6553 68.9558L58.7037 64.9996C58.7128 64.4589 58.5211 63.8525 58.2069 63.3082C57.8927 62.7667 57.4626 62.2982 56.9923 62.0297L53.9237 60.3109L53.7721 60.226L53.7356 60.0524C53.6004 59.3766 53.4305 58.6917 53.2287 57.9976C53.0254 57.2973 52.7951 56.6052 52.5383 55.9227L52.4196 55.6204L52.6999 55.4588L54.8982 54.1893C55.1539 54.0432 55.2863 53.698 55.2909 53.2642C55.2972 52.7592 55.1338 52.1555 54.7977 51.5747H54.7959L52.4031 47.4266L52.3904 47.4056C52.0561 46.823 51.6141 46.3791 51.1757 46.1316C50.7958 45.9198 50.4332 45.8613 50.1766 46.0084H50.1739L47.9784 47.2778L47.698 47.4385L47.4916 47.1901C47.0299 46.6263 46.5461 46.081 46.0414 45.5554C45.5391 45.0303 45.0277 44.5417 44.5108 44.085L44.3802 43.97L44.3829 43.7946L44.424 40.2786C44.4313 39.7397 44.2395 39.1315 43.9263 38.5872C43.613 38.0447 43.1829 37.5753 42.7116 37.3087L39.2595 35.3725C39.0854 35.2694 38.8921 35.2026 38.6915 35.1762C38.5551 35.1602 38.4169 35.1823 38.2924 35.2401L31.9197 35.9159L31.9169 35.915ZM36.4312 48.2668L46.0752 63.5393L46.1318 63.7904L45.9327 65.2827L45.9053 65.4836L45.7245 65.5749C44.2267 66.3265 42.3491 66.0498 40.5098 64.9786C38.7289 63.942 36.9736 62.1584 35.6403 59.8524C34.2777 57.4908 33.611 55.0167 33.6366 52.9263C33.6621 50.7673 34.4247 49.0011 35.9179 48.1381L36.2348 47.9554L36.4312 48.2659V48.2668ZM45.3537 63.8306L45.2021 64.9777C43.9801 65.4936 42.4367 65.2151 40.8933 64.3165C39.2239 63.3448 37.5691 61.657 36.3042 59.4671C35.0101 57.2277 34.3791 54.8944 34.4019 52.9336C34.4229 51.2057 34.9553 49.7801 35.9937 49.002L45.3546 63.8297L45.3537 63.8306Z" fill="#29BBFE"/>
<path fill-rule="evenodd" clip-rule="evenodd" d="M42.3631 50.0827C41.4417 48.9538 40.4308 47.9011 39.3402 46.9347L39.3831 43.4187C39.3977 42.1949 38.5383 40.7091 37.4744 40.1127L34.0241 38.1739C32.9592 37.5766 32.0761 38.0853 32.0606 39.3063L32.0186 42.8223C30.9638 42.5666 29.9364 42.4753 28.9592 42.5575L26.8221 38.8588C26.0824 37.5711 24.8495 36.8798 24.086 37.3209L21.6129 38.7483C20.8503 39.1894 20.833 40.6022 21.5746 41.8881L23.7116 45.5886C23.1508 46.3923 22.718 47.3274 22.412 48.3676L19.3471 46.6462C18.2832 46.048 17.4 46.5576 17.3836 47.7786L17.3361 51.7367C17.3215 52.9568 18.1809 54.4436 19.2448 55.0427L22.3106 56.7623C22.5874 58.1286 22.9919 59.5386 23.5253 60.9524L21.328 62.2218C20.5645 62.6638 20.5471 64.0757 21.2896 65.3616L23.6961 69.5306C24.4385 70.8165 25.6687 71.5069 26.434 71.0667L28.6304 69.7973C29.5525 70.9258 30.5633 71.9788 31.6533 72.9462L31.6113 76.4622C31.5967 77.6823 32.456 79.17 33.52 79.7682L36.9703 81.7025C38.0351 82.3025 38.9183 81.7938 38.9338 80.5728L38.9758 77.0568C40.0288 77.3125 41.0553 77.4038 42.0325 77.3216L44.1695 81.0221C44.9111 82.3062 46.1421 82.9984 46.9056 82.5582L49.3806 81.1308C50.1449 80.6888 50.1614 79.2769 49.4198 77.9892L47.2828 74.2887C47.8435 73.485 48.2764 72.5498 48.5824 71.5096L51.6473 73.232C52.7139 73.8256 53.598 73.317 53.6108 72.0969L53.6601 68.1406C53.6747 66.9196 52.8162 65.4319 51.7514 64.8346L48.6846 63.1131C48.3913 61.6859 47.9851 60.2842 47.47 58.9213L49.6664 57.6537C50.4335 57.2116 50.4481 55.7997 49.7057 54.5139L47.2992 50.3449C46.5577 49.059 45.3266 48.3676 44.5622 48.8078L42.3667 50.0773L42.3631 50.0827ZM40.4452 57.0838C43.1028 61.6894 43.0416 66.7004 40.3101 68.2767C37.5767 69.8566 33.2076 67.4 30.5501 62.799C27.8925 58.1961 27.9564 53.1842 30.6871 51.607C33.4204 50.0289 37.7895 52.4819 40.447 57.0838H40.4452Z" fill="white"/>
<path fill-rule="evenodd" clip-rule="evenodd" d="M42.0652 50.3256C41.6035 49.7618 41.1197 49.2165 40.615 48.6909C40.1127 48.1667 39.6012 47.6772 39.0853 47.2205L38.9528 47.1046L38.9547 46.931L38.9976 43.415C39.004 42.8762 38.8122 42.2679 38.4989 41.7255C38.1839 41.1821 37.7546 40.7117 37.2825 40.4469L33.8322 38.5108C33.592 38.3765 33.3719 38.3099 33.1819 38.308C33.0608 38.3042 32.9409 38.3333 32.8349 38.3921C32.7315 38.4542 32.6469 38.5432 32.5902 38.6496C32.4961 38.8176 32.4413 39.0423 32.4376 39.3135L32.3965 42.8296L32.3911 43.3081L31.9253 43.1958C31.4289 43.0742 30.9239 42.9908 30.4148 42.9465C29.9403 42.9034 29.463 42.9019 28.9883 42.9419L28.749 42.9629L28.6266 42.751L26.4896 39.0496C26.1535 38.4688 25.7133 38.0249 25.2713 37.7784C24.8914 37.5656 24.5279 37.5071 24.2722 37.6541L21.7991 39.0825C21.5434 39.2313 21.4119 39.5756 21.4064 40.0104C21.4009 40.5145 21.5644 41.1191 21.9014 41.7017L24.0384 45.4031L24.159 45.6132L24.0201 45.8123C23.7553 46.1931 23.5178 46.6068 23.3114 47.0488C23.1014 47.4963 22.9224 47.9758 22.7745 48.4827L22.6375 48.9429L22.2201 48.7073L19.1543 46.9877C18.915 46.8534 18.694 46.7867 18.5059 46.7849C18.3848 46.7825 18.2651 46.8117 18.1588 46.8698H18.157C18.0536 46.9324 17.9691 47.0217 17.9123 47.1283C17.8182 47.2945 17.7643 47.5183 17.7607 47.7904L17.7123 51.7476C17.705 52.2864 17.8967 52.8937 18.21 53.4371C18.5232 53.9796 18.9534 54.4508 19.4246 54.7157L22.4913 56.4381L22.6439 56.523L22.6804 56.6965C22.8155 57.3696 22.9854 58.0573 23.1863 58.7541C23.3854 59.4372 23.6156 60.1276 23.8786 60.8272L23.9937 61.1304L23.7133 61.2948L21.5151 62.5642H21.5123C21.2584 62.7103 21.1288 63.0537 21.1224 63.4893C21.116 63.988 21.2758 64.5834 21.6046 65.1606H21.6064L21.6174 65.1789L24.0238 69.347C24.359 69.9296 24.8001 70.3698 25.2403 70.6201C25.6193 70.8301 25.9818 70.8904 26.2375 70.7443L28.4348 69.4748L28.7179 69.3104L28.9225 69.5607C29.3847 70.1249 29.8685 70.6712 30.3728 71.1981C30.8751 71.7187 31.3865 72.2091 31.9016 72.6658L32.0331 72.7817L32.0303 72.9553L31.9883 76.4713C31.9819 77.0101 32.1737 77.6202 32.487 78.1645C32.8011 78.707 33.2304 79.1782 33.7016 79.4412L37.1537 81.3773C37.393 81.5116 37.614 81.5783 37.8021 81.5801C37.9233 81.5841 38.0433 81.5551 38.1492 81.4961H38.151C38.2535 81.4334 38.3372 81.344 38.393 81.2376C38.488 81.0687 38.5419 80.8449 38.5455 80.5728L38.5875 77.0585L38.5939 76.5791L39.0597 76.6887C39.5553 76.8111 40.0597 76.8945 40.5684 76.938C41.0429 76.9804 41.5202 76.9813 41.9949 76.9407L42.2323 76.9225L42.3556 77.1325L44.4808 80.8129V80.8111L44.4917 80.833C44.8297 81.4175 45.268 81.8604 45.7091 82.107C46.0881 82.3171 46.4507 82.3773 46.7064 82.2294H46.7091L49.1822 80.8011C49.438 80.6549 49.5686 80.3106 49.5749 79.875C49.5813 79.3727 49.416 78.7663 49.08 78.1828L46.9429 74.4841L46.8242 74.2713L46.9612 74.074C47.2279 73.6923 47.4635 73.2795 47.6708 72.8374C47.8808 72.3899 48.0589 71.9114 48.2078 71.4055L48.3448 70.9452L48.7631 71.179L51.828 72.9005C52.0691 73.0329 52.2901 73.0995 52.48 73.1032C52.6124 73.1032 52.7284 73.0758 52.8271 73.0174C52.9292 72.9551 53.013 72.8668 53.07 72.7616C53.165 72.5918 53.2188 72.3689 53.2225 72.095L53.2718 68.1378C53.2782 67.6008 53.0873 66.9926 52.7732 66.4483C52.459 65.9058 52.0289 65.4373 51.5585 65.1734L48.4918 63.4473L48.3402 63.3651L48.3037 63.1916C48.1667 62.5158 47.9977 61.8272 47.7968 61.1313C47.5933 60.4316 47.3627 59.74 47.1055 59.0582L46.9913 58.755L47.2708 58.5924L49.4681 57.323H49.4708C49.7247 57.1741 49.8562 56.8317 49.8608 56.3979C49.8681 55.902 49.7074 55.3065 49.3795 54.7266L49.3695 54.7074L46.963 50.5393C46.6279 49.9567 46.1868 49.5128 45.7456 49.2653C45.3657 49.0553 45.0032 48.9968 44.7475 49.1429L42.5502 50.4124L42.2689 50.5749L42.0634 50.3284L42.0652 50.3256ZM41.1666 48.1612C41.6102 48.623 42.0382 49.0997 42.4497 49.5904L44.3675 48.4827C44.8762 48.1904 45.5091 48.2571 46.121 48.6014C46.6735 48.9101 47.2187 49.4544 47.6251 50.1603H47.627L50.0197 54.3065L50.0224 54.3129L50.0316 54.3293V54.3312C50.4371 55.0344 50.6362 55.7814 50.6298 56.4107C50.6206 57.1139 50.3622 57.6965 49.8553 57.9906L47.9375 59.0984C48.3849 60.3291 48.7465 61.5894 49.0197 62.8701L51.933 64.5049C52.5266 64.8382 53.0581 65.4108 53.4371 66.0693C53.8152 66.7214 54.0453 67.4684 54.0371 68.1497L53.9915 72.1078C53.986 72.5142 53.8974 72.8603 53.7449 73.137C53.6189 73.362 53.4351 73.5493 53.2125 73.6795C52.9881 73.8069 52.7334 73.8709 52.4755 73.8649C52.1168 73.8537 51.767 73.7512 51.459 73.5671L48.8014 72.0785C48.6763 72.4471 48.5315 72.8086 48.3676 73.1617C48.1777 73.5635 47.9658 73.9498 47.7302 74.3087L49.7466 77.8028C50.1539 78.506 50.3494 79.2504 50.3439 79.8851C50.3348 80.5883 50.0763 81.1709 49.5676 81.465L47.0954 82.8906C46.5858 83.1828 45.9511 83.1162 45.3383 82.7719C44.7904 82.465 44.2516 81.9299 43.8461 81.2339L43.8433 81.2303L43.8342 81.2157V81.212L41.8186 77.7216C41.3894 77.749 40.951 77.738 40.5054 77.7006C40.1167 77.6673 39.7303 77.6111 39.3483 77.5325L39.3117 80.5791C39.3063 80.9837 39.2168 81.3317 39.0624 81.6066C38.9386 81.8333 38.7555 82.022 38.5327 82.1527C38.3163 82.2805 38.067 82.3417 37.793 82.3381C37.477 82.3344 37.1309 82.2376 36.7793 82.0404L33.3272 80.1042C32.7354 79.7727 32.2038 79.1983 31.8258 78.5426C31.4477 77.8887 31.2175 77.1398 31.2257 76.4603L31.2659 73.1196C30.2929 72.2421 29.3817 71.2982 28.5389 70.2949L26.6211 71.4C26.1133 71.6922 25.4795 71.6256 24.8676 71.2831C24.316 70.9726 23.7699 70.4264 23.3644 69.7214H23.3626L20.9699 65.577V65.5789V65.577L20.9662 65.5716L20.9571 65.5533H20.9589H20.9571C20.5516 64.8501 20.3543 64.104 20.3616 63.4729C20.3708 62.7715 20.6283 62.1888 21.1352 61.8929L23.053 60.7852C22.6056 59.555 22.244 58.2954 21.9708 57.0152L19.0575 55.3769C18.4639 55.0426 17.9314 54.47 17.5534 53.8134C17.1753 53.1595 16.9451 52.4115 16.9533 51.7311L17.0008 47.774C17.0054 47.3676 17.0949 47.0205 17.2474 46.7466C17.3807 46.5109 17.5607 46.3265 17.7798 46.2004C17.9963 46.0744 18.2456 46.0114 18.5196 46.0141C18.8356 46.0169 19.1808 46.1146 19.5333 46.3118L22.1909 47.8005C22.3187 47.426 22.4621 47.0644 22.6238 46.7173C22.8137 46.3118 23.0256 45.9283 23.263 45.5694L21.2447 42.0743C20.8383 41.3711 20.6402 40.6268 20.6475 39.9921C20.6566 39.2889 20.9151 38.7071 21.4237 38.414L23.8968 36.9856C24.4037 36.6934 25.0384 36.7601 25.6503 37.1044C26.2019 37.413 26.748 37.9583 27.1544 38.6633L29.1682 42.1593C29.5974 42.1346 30.0358 42.141 30.4833 42.1793C30.8614 42.2122 31.2468 42.2688 31.6404 42.3474L31.6769 39.3026C31.6815 38.8953 31.771 38.5482 31.9235 38.2743C32.0568 38.0395 32.2376 37.856 32.4559 37.729C32.6724 37.6012 32.9217 37.5391 33.1956 37.5418C33.5116 37.5436 33.8578 37.6404 34.2094 37.8386L37.6615 39.7747C38.2551 40.1081 38.7848 40.6816 39.1638 41.3364C39.5428 41.9921 39.7729 42.7392 39.7647 43.4205L39.7245 46.763C40.2113 47.1986 40.6926 47.6644 41.1647 48.1548L41.1666 48.1612ZM40.1127 57.2755C41.4068 59.5185 42.0396 61.8509 42.015 63.8099C41.9922 65.7022 41.3574 67.2291 40.1172 67.9469H40.1136C38.8743 68.6611 37.2341 68.4474 35.5838 67.5214C33.8742 66.5624 32.1701 64.8492 30.8769 62.608C29.5828 60.3669 28.9499 58.0326 28.9746 56.0737C28.9965 54.1832 29.6321 52.6553 30.8714 51.9384H30.8732C32.1116 51.2224 33.7518 51.4361 35.403 52.3631C37.1108 53.3248 38.8158 55.0389 40.109 57.2792L40.1127 57.2755ZM35.7783 51.6955C37.6003 52.7165 39.4095 54.5312 40.7739 56.8919C42.1383 59.2573 42.804 61.7286 42.7794 63.8208C42.752 65.9761 41.9903 67.7433 40.499 68.6063C39.0067 69.4675 37.0953 69.2456 35.2112 68.1862C33.3902 67.1634 31.581 65.3515 30.2157 62.9898C28.8522 60.6244 28.1864 58.1522 28.2111 56.0581C28.2385 53.9028 29.0001 52.1366 30.4915 51.2754C31.9828 50.4124 33.8934 50.6361 35.7765 51.6928L35.7783 51.6955Z" fill="#0755E9"/>
<path fill-rule="evenodd" clip-rule="evenodd" d="M38.6301 57.4929C38.6738 57.4659 38.7225 57.4479 38.7732 57.44C38.824 57.4321 38.8758 57.4345 38.9256 57.447C38.9754 57.4595 39.0222 57.4819 39.0632 57.5128C39.1042 57.5438 39.1386 57.5826 39.1643 57.6271C39.19 57.6716 39.2065 57.7208 39.2128 57.7718C39.2191 57.8227 39.2152 57.8745 39.2011 57.9239C39.1871 57.9733 39.1632 58.0194 39.1311 58.0594C39.0989 58.0994 39.059 58.1326 39.0137 58.1569L9.13188 75.4083C9.08859 75.4334 9.04078 75.4497 8.99118 75.4563C8.94159 75.4629 8.89118 75.4597 8.84284 75.4468C8.79449 75.4339 8.74917 75.4116 8.70944 75.3812C8.66972 75.3508 8.63638 75.3128 8.61132 75.2695C8.58576 75.2263 8.56901 75.1784 8.56207 75.1287C8.55512 75.079 8.5581 75.0283 8.57084 74.9798C8.58358 74.9312 8.60582 74.8856 8.63628 74.8457C8.66675 74.8057 8.70482 74.7723 8.74831 74.7471L38.6301 57.4939V57.4929Z" fill="#9699A6"/>
<path fill-rule="evenodd" clip-rule="evenodd" d="M13.7719 69.3506C11.4851 66.8976 8.92703 66.0794 7.26946 67.0246H7.26764L7.23841 67.0428L7.22928 67.0483L3.60547 69.1424L5.75802 72.8685C6.23291 75.0567 7.42289 77.4074 9.13342 79.2431C9.36539 79.4933 9.60284 79.7289 9.8412 79.9463L11.9928 83.6724L15.655 81.5573C16.1701 81.2559 16.5957 80.7865 16.8998 80.139C18.1811 77.4083 16.7792 72.5772 13.771 69.3516L13.7719 69.3506Z" fill="white"/>
<path fill-rule="evenodd" clip-rule="evenodd" d="M13.4895 69.6116C12.4064 68.4518 11.2676 67.6719 10.2036 67.2919C9.15885 66.9175 8.19628 66.933 7.45471 67.3559L7.44102 67.3668L7.42823 67.3723V67.376L7.4191 67.3796L4.12589 69.281L6.08757 72.6783L6.13049 72.7879C6.38729 73.9333 6.79804 75.0387 7.35152 76.0738C7.90793 77.1287 8.59996 78.1063 9.41 78.9817C9.5132 79.094 9.62644 79.21 9.74973 79.3314C9.85932 79.441 9.97622 79.5524 10.0968 79.6602L10.1698 79.7543L12.1306 83.1489L15.2147 81.368L15.4613 81.2246C15.6868 81.094 15.8941 80.9251 16.075 80.7178C16.2576 80.5123 16.4183 80.2648 16.5526 79.978C17.1526 78.6995 17.117 76.9058 16.5745 75.04C15.9761 73.0186 14.9198 71.1623 13.4877 69.6153L13.4895 69.6116ZM10.4621 66.5705C11.6347 66.9906 12.8795 67.8362 14.0494 69.0911C15.5615 70.7264 16.6776 72.6874 17.3115 74.8227C17.9024 76.8592 17.9271 78.8465 17.2476 80.2986C17.0805 80.6548 16.8823 80.9589 16.654 81.2191C16.5078 81.3835 16.3526 81.5315 16.1864 81.6575L16.2019 81.6803L15.8786 81.8676L15.8485 81.8858L12.1836 84L11.8548 84.1918L11.663 83.8594L9.54425 80.1881C9.4374 80.0922 9.32781 79.9872 9.21548 79.8757C9.10223 79.7661 8.98168 79.6419 8.85291 79.505C7.99645 78.5803 7.26479 77.5475 6.67662 76.4328C6.09977 75.3524 5.6692 74.2001 5.39623 73.0062L3.27382 69.3285L3.08203 68.9997L3.41263 68.808L7.03644 66.7166H7.03827L7.0474 66.7102L7.0748 66.6938L7.33051 66.5458L7.34238 66.5586C8.23738 66.1522 9.31685 66.1613 10.4602 66.5696L10.4621 66.5705Z" fill="#9699A6"/>
<path fill-rule="evenodd" clip-rule="evenodd" d="M10.1482 71.4411C7.13904 68.2173 3.66135 67.8127 2.38096 70.5434C1.09966 73.2768 2.50151 78.107 5.5107 81.3317C8.5208 84.5582 11.9985 84.9601 13.2789 82.2267C14.5611 79.4961 13.1602 74.6649 10.1501 71.4411H10.1482Z" fill="white"/>
<path fill-rule="evenodd" clip-rule="evenodd" d="M9.87088 71.6999C8.96218 70.7264 8.01422 70.0213 7.10553 69.5967C6.35483 69.2432 5.63518 69.0834 4.98951 69.1218C4.37397 69.1546 3.8251 69.3738 3.38948 69.783C3.11231 70.0461 2.88898 70.3606 2.73193 70.709C2.13192 71.9876 2.16754 73.7821 2.7091 75.6497C3.30908 77.6705 4.36517 79.5265 5.79592 81.0745C6.70552 82.0489 7.6544 82.7549 8.56309 83.1805C9.31196 83.5321 10.0334 83.6919 10.6782 83.6554C11.2937 83.6216 11.8435 83.4024 12.2791 82.9932C12.5385 82.7558 12.7604 82.4453 12.9367 82.0681C13.5367 80.7914 13.5002 78.9968 12.9586 77.1292C12.3592 75.1074 11.303 73.2504 9.87179 71.7017L9.87088 71.6999ZM7.42882 68.9053C8.4261 69.3711 9.45626 70.1336 10.4316 71.1793C11.9434 72.8154 13.0589 74.777 13.692 76.9128C14.2837 78.9493 14.3084 80.9366 13.628 82.3887C13.4088 82.8581 13.1285 83.2453 12.8006 83.5512C12.2289 84.0846 11.5147 84.3695 10.7184 84.4161C9.94942 84.459 9.10374 84.2755 8.23706 83.8663C7.23978 83.3987 6.20962 82.6371 5.23426 81.5905C3.72186 79.9552 2.60627 77.9937 1.97393 75.858C1.38031 73.8214 1.35565 71.8323 2.03785 70.3802C2.25704 69.909 2.53649 69.5236 2.86435 69.2176C3.43697 68.6834 4.14931 68.3985 4.94658 68.3537C5.71372 68.3099 6.5594 68.4953 7.427 68.9017L7.42882 68.9053Z" fill="#9699A6"/>
</svg>
