<svg width="230" height="237" viewBox="0 0 230 237" fill="none" xmlns="http://www.w3.org/2000/svg">
<path d="M229.889 53.6173C229.852 53.5097 229.809 53.4045 229.759 53.3025C229.694 53.1031 229.612 52.9095 229.514 52.7239C229.44 52.6075 229.357 52.4976 229.264 52.3952C229.163 52.2433 229.052 52.098 228.932 51.9601C228.825 51.8583 228.691 51.775 228.575 51.6824C228.443 51.5694 228.304 51.4643 228.159 51.3676L183.64 25.7143C183.078 25.3893 182.44 25.2182 181.79 25.2182C181.141 25.2182 180.503 25.3893 179.94 25.7143L135.412 51.3815C135.269 51.4788 135.133 51.5855 135.005 51.7009C134.879 51.7853 134.758 51.8781 134.644 51.9786C134.523 52.114 134.412 52.2579 134.311 52.4091C134.232 52.5202 134.131 52.6174 134.061 52.7378C133.967 52.9244 133.887 53.1178 133.821 53.3164C133.784 53.4229 133.724 53.5201 133.691 53.6312C133.607 53.9452 133.563 54.2688 133.562 54.594V103.308L96.4611 124.689V29.3665C96.4622 29.0396 96.4187 28.7141 96.3316 28.3991C96.3039 28.288 96.2391 28.1908 96.2021 28.0843C96.1383 27.8865 96.0579 27.6945 95.9616 27.5103C95.8969 27.39 95.7905 27.2928 95.7119 27.177C95.6102 27.0251 95.4989 26.8798 95.3789 26.7419C95.2648 26.6432 95.1446 26.5506 95.0181 26.4642C94.8885 26.3517 94.7527 26.2466 94.6112 26.1494L50.0782 0.496123C49.5157 0.171107 48.8777 0 48.2282 0C47.5788 0 46.9408 0.171107 46.3783 0.496123L1.85459 26.1494C1.71004 26.244 1.57387 26.3509 1.4476 26.4688C1.31899 26.5521 1.19686 26.6449 1.08224 26.7466C0.961197 26.8808 0.851373 27.0248 0.753869 27.177C0.670621 27.2928 0.568874 27.39 0.499501 27.5103C0.404728 27.6946 0.325819 27.8866 0.263632 28.0843C0.212291 28.1847 0.167491 28.2883 0.12951 28.3944C0.0447328 28.7115 0.00120748 29.0383 1.37153e-05 29.3665V181.981C-0.00175909 182.633 0.168359 183.273 0.493182 183.838C0.818005 184.403 1.28603 184.872 1.84997 185.198L90.8789 236.505C91.0761 236.606 91.2819 236.69 91.494 236.755C91.5911 236.792 91.6836 236.847 91.7853 236.875C92.4065 237.042 93.0604 237.042 93.6815 236.875C93.774 236.852 93.8527 236.801 93.9359 236.773C94.1589 236.702 94.3755 236.612 94.5834 236.505L183.64 185.198C184.204 184.872 184.672 184.403 184.997 183.838C185.322 183.273 185.492 182.633 185.49 181.981V133.257L228.15 108.673C228.717 108.345 229.187 107.873 229.513 107.303C229.838 106.734 230.006 106.089 230 105.433V54.5847C230.002 54.2589 229.965 53.934 229.889 53.6173ZM48.2236 7.99956L85.3105 29.3619L48.219 50.7381L11.1367 29.3665L48.2236 7.99956ZM89.0382 35.7729V128.962L67.5186 141.363L51.9374 150.343V57.1676L73.457 44.7668L89.0382 35.7729ZM89.0382 226.844L7.41832 179.833V35.7914L22.9995 44.7622L44.5145 57.1676V156.772C44.5239 156.912 44.5424 157.051 44.57 157.189C44.5807 157.372 44.6054 157.555 44.644 157.735C44.691 157.878 44.7498 158.018 44.8197 158.152C44.8709 158.311 44.9359 158.466 45.014 158.614C45.0998 158.74 45.1924 158.86 45.2915 158.975C45.3828 159.113 45.4849 159.243 45.5967 159.364C45.7031 159.466 45.8372 159.54 45.9528 159.633C46.0782 159.744 46.2111 159.846 46.3505 159.938L88.9873 184.092L89.0382 226.844ZM92.7381 177.699L55.7113 156.721L94.6019 134.313L137.271 109.729L174.33 131.082L147.136 146.616L92.7381 177.699ZM178.076 179.815L96.4519 226.867V184.138L156.908 149.607L178.076 137.502V179.815ZM178.076 124.671L162.495 115.723L140.976 103.322V61.005L156.557 69.985L178.076 82.3951V124.671ZM181.776 75.9378L144.685 54.5662L181.776 33.1992L218.859 54.5616L181.776 75.9378ZM185.476 124.671V82.3951L207.042 69.985L222.619 61.005V103.308L185.476 124.671Z" fill="white"/>
</svg>
