<svg width="161" height="166" viewBox="0 0 161 166" fill="none" xmlns="http://www.w3.org/2000/svg">
<path d="M160.922 37.5547C160.897 37.4794 160.866 37.4057 160.832 37.3342C160.786 37.1946 160.728 37.059 160.66 36.929C160.608 36.8475 160.55 36.7705 160.485 36.6988C160.414 36.5924 160.336 36.4906 160.252 36.394C160.178 36.3227 160.084 36.2643 160.003 36.1995C159.91 36.1204 159.813 36.0468 159.711 35.979L128.548 18.0109C128.154 17.7832 127.708 17.6634 127.253 17.6634C126.798 17.6634 126.352 17.7832 125.958 18.0109L94.7883 35.9887C94.6884 36.0569 94.5932 36.1316 94.5034 36.2125C94.415 36.2716 94.3306 36.3366 94.2509 36.407C94.1661 36.5018 94.0882 36.6026 94.0178 36.7085C93.9627 36.7863 93.8915 36.8544 93.843 36.9387C93.7769 37.0694 93.7206 37.2049 93.6746 37.344C93.6487 37.4185 93.6066 37.4866 93.584 37.5644C93.5248 37.7844 93.4944 38.011 93.4933 38.2388V72.3595L67.5228 87.3351V20.569C67.5236 20.34 67.4931 20.112 67.4321 19.8913C67.4127 19.8135 67.3674 19.7454 67.3415 19.6709C67.2968 19.5323 67.2405 19.3978 67.1731 19.2688C67.1278 19.1845 67.0533 19.1165 66.9983 19.0354C66.9271 18.929 66.8493 18.8272 66.7652 18.7306C66.6854 18.6615 66.6012 18.5966 66.5127 18.5361C66.422 18.4573 66.3269 18.3837 66.2278 18.3156L35.0547 0.347495C34.661 0.119847 34.2144 0 33.7598 0C33.3051 0 32.8585 0.119847 32.4648 0.347495L1.29821 18.3156C1.19703 18.3819 1.10171 18.4567 1.01332 18.5393C0.923295 18.5976 0.8378 18.6627 0.757565 18.7339C0.672838 18.8279 0.595961 18.9288 0.527708 19.0354C0.469435 19.1165 0.398212 19.1845 0.34965 19.2688C0.283309 19.3979 0.228074 19.5324 0.184542 19.6709C0.148604 19.7412 0.117243 19.8137 0.0906573 19.8881C0.0313129 20.1102 0.000845237 20.339 9.60073e-06 20.569V127.464C-0.00123136 127.92 0.117851 128.369 0.345227 128.764C0.572603 129.16 0.900218 129.489 1.29498 129.717L63.6152 165.653C63.7533 165.724 63.8974 165.783 64.0458 165.828C64.1138 165.854 64.1785 165.893 64.2497 165.912C64.6845 166.029 65.1423 166.029 65.5771 165.912C65.6418 165.896 65.6969 165.861 65.7551 165.841C65.9112 165.791 66.0629 165.728 66.2084 165.653L128.548 129.717C128.943 129.489 129.27 129.16 129.498 128.764C129.725 128.369 129.844 127.92 129.843 127.464V93.3364L159.705 76.1172C160.102 75.8876 160.431 75.5565 160.659 75.1577C160.886 74.759 161.004 74.3069 161 73.8476V38.2323C161.002 38.0041 160.976 37.7766 160.922 37.5547ZM33.7565 5.60306L59.7174 20.5657L33.7533 35.5381L7.7957 20.569L33.7565 5.60306ZM62.3267 25.0561V90.3276L47.263 99.0134L36.3562 105.303V40.0415L51.4199 31.3557L62.3267 25.0561ZM62.3267 158.887L5.19282 125.959V25.0691L16.0997 31.3524L31.1601 40.0415V109.807C31.1667 109.905 31.1797 110.002 31.199 110.098C31.2065 110.227 31.2238 110.355 31.2508 110.481C31.2837 110.581 31.3248 110.679 31.3738 110.773C31.4096 110.885 31.4551 110.993 31.5098 111.097C31.5699 111.185 31.6347 111.269 31.704 111.35C31.768 111.446 31.8394 111.537 31.9177 111.622C31.9921 111.694 32.086 111.745 32.167 111.81C32.2547 111.888 32.3478 111.959 32.4454 112.024L62.2911 128.942L62.3267 158.887ZM64.9167 124.465L38.9979 109.771L66.2213 94.0756L96.0897 76.8564L122.031 91.8125L102.995 102.693L64.9167 124.465ZM124.653 125.946L67.5163 158.903V128.974L109.836 104.788L124.653 96.3094V125.946ZM124.653 87.3221L113.747 81.055L98.6829 72.3692V42.7292L109.59 49.0191L124.653 57.7113V87.3221ZM127.243 53.1885L101.279 38.2194L127.243 23.2535L153.201 38.2161L127.243 53.1885ZM129.833 87.3221V57.7113L144.929 49.0191L155.833 42.7292V72.3595L129.833 87.3221Z" fill="white"/>
</svg>
