<svg width="40" height="33" viewBox="0 0 40 33" fill="none" xmlns="http://www.w3.org/2000/svg">
<path d="M19.7089 24.0572C21.3764 23.3464 22.7621 22.1044 23.6505 20.5244L30.8203 24.6771C29.0179 27.8329 26.2239 30.3052 22.8721 31.7099C19.5204 33.1146 15.7986 33.3731 12.2848 32.4454C8.77098 31.5176 5.66191 29.4555 3.44049 26.5792C1.21907 23.703 0.00963842 20.1737 5.73662e-05 16.5395C-0.00952369 12.9053 1.18128 9.36964 3.38751 6.48173C5.59373 3.59382 8.69188 1.5153 12.2007 0.569022C15.7096 -0.377259 19.4327 -0.138329 22.7918 1.2487C26.1509 2.63572 28.958 5.09321 30.777 8.23943L23.5967 12.3743C22.6876 10.8061 21.2855 9.58247 19.6088 8.89382C17.9321 8.20517 16.0747 8.09013 14.3258 8.56662C12.5769 9.04311 11.0346 10.0844 9.93895 11.5284C8.84327 12.9724 8.25569 14.7381 8.26765 16.5507C8.27961 18.3633 8.89046 20.1211 10.0051 21.5505C11.1198 22.9799 12.6757 24.0007 14.4307 24.4541C16.1857 24.9074 18.0414 24.7679 19.7089 24.0572Z" fill="#1B232E"/>
<path d="M31.2148 13.643H29.3245V15.5333H27.4341V17.4236H29.3245V19.3125H31.2148V17.4236H33.1036V15.5333H31.2148V13.643Z" fill="#1B232E"/>
<path d="M38.1097 13.643H36.2193V15.5333H34.3305V17.4236H36.2193V19.3125H38.1097V17.4236H40V15.5333H38.1097V13.643Z" fill="#1B232E"/>
</svg>
