<svg width="1473" height="1200" viewBox="0 0 1473 1200" fill="none" xmlns="http://www.w3.org/2000/svg">
<path d="M736.199 465.789C843.002 523.561 915.536 636.51 915.536 766.396C915.536 896.282 843.002 1009.21 736.199 1067" stroke="url(#paint0_linear_112_3529)" stroke-width="3" stroke-miterlimit="10"/>
<path d="M736.199 1067C765.891 1059.65 795.031 1047.63 822.678 1031.02C909.432 978.876 969.692 879.75 969.692 766.396C969.692 653.042 909.432 553.915 822.678 501.773C795.031 485.16 765.891 473.138 736.199 465.789" stroke="url(#paint1_linear_112_3529)" stroke-width="3" stroke-miterlimit="10"/>
<path d="M736.2 1067C769.625 1066.35 803.993 1059.67 837.873 1046.42C945.017 1004.54 1023.85 894.822 1023.85 766.396C1023.85 637.97 945.017 528.25 837.873 486.376C803.976 473.138 769.609 466.438 736.2 465.789" stroke="url(#paint2_linear_112_3529)" stroke-width="3" stroke-miterlimit="10"/>
<path d="M736.2 1067C773.343 1073.05 812.97 1071.72 853.084 1061.81C980.65 1030.3 1078.04 909.877 1078.04 766.396C1078.04 622.914 980.666 502.47 853.1 470.98C812.986 461.067 773.359 459.737 736.216 465.788" stroke="url(#paint3_linear_112_3529)" stroke-width="3" stroke-miterlimit="10"/>
<path d="M736.2 1067C777.077 1079.75 821.963 1083.89 868.295 1077.21C1016.33 1056.42 1132.21 924.933 1132.21 766.395C1132.21 607.858 1016.33 476.35 868.311 455.584C821.98 448.916 777.093 453.037 736.216 465.788" stroke="url(#paint4_linear_112_3529)" stroke-width="3" stroke-miterlimit="10"/>
<path d="M736.199 1067C780.81 1086.45 830.924 1095.95 883.506 1092.6C1051.92 1082.22 1186.37 939.988 1186.37 766.395C1186.37 592.803 1051.9 450.571 883.506 440.187C830.924 436.845 780.81 446.336 736.199 465.788" stroke="url(#paint5_linear_112_3529)" stroke-width="3" stroke-miterlimit="10"/>
<path d="M736.2 1067C784.544 1093.14 839.886 1108 898.717 1108C1087.5 1108 1240.54 955.06 1240.54 766.396C1240.54 577.732 1087.5 424.792 898.717 424.792C839.902 424.792 784.544 439.652 736.216 465.789" stroke="url(#paint6_linear_112_3529)" stroke-width="3" stroke-miterlimit="10"/>
<path d="M873.912 598.887C816.103 705.606 703.082 778.093 573.113 778.093C443.145 778.093 330.124 705.606 272.315 598.887" stroke="url(#paint7_linear_112_3529)" stroke-width="3" stroke-miterlimit="10"/>
<path d="M272.315 598.887C279.669 628.56 291.698 657.682 308.322 685.31C360.498 772.009 459.687 832.231 573.113 832.231C686.54 832.231 785.729 772.009 837.905 685.31C854.528 657.682 866.558 628.56 873.912 598.887" stroke="url(#paint8_linear_112_3529)" stroke-width="3" stroke-miterlimit="10"/>
<path d="M272.315 598.888C272.964 632.292 279.653 666.637 292.916 700.496C334.816 807.572 444.606 886.354 573.113 886.354C701.621 886.354 811.411 807.572 853.311 700.496C866.558 666.621 873.262 632.276 873.912 598.888" stroke="url(#paint9_linear_112_3529)" stroke-width="3" stroke-miterlimit="10"/>
<path d="M272.315 598.887C266.26 636.007 267.591 675.608 277.51 715.697C309.02 843.182 429.541 940.491 573.114 940.491C716.686 940.491 837.207 843.182 868.717 715.697C878.636 675.608 879.967 636.007 873.912 598.887" stroke="url(#paint10_linear_112_3529)" stroke-width="3" stroke-miterlimit="10"/>
<path d="M272.315 598.888C259.555 639.739 255.416 684.597 262.104 730.899C282.9 878.826 414.476 994.63 573.114 994.63C731.752 994.63 863.344 878.826 884.123 730.899C890.795 684.597 886.672 639.739 873.912 598.888" stroke="url(#paint11_linear_112_3529)" stroke-width="3" stroke-miterlimit="10"/>
<path d="M272.315 598.887C252.85 643.47 243.354 693.552 246.698 746.1C257.088 914.404 399.41 1048.77 573.113 1048.77C746.816 1048.77 889.139 914.387 899.529 746.1C902.873 693.552 893.376 643.47 873.912 598.887" stroke="url(#paint12_linear_112_3529)" stroke-width="3" stroke-miterlimit="10"/>
<path d="M272.315 598.887C246.146 647.185 231.292 702.507 231.292 761.285C231.292 949.95 384.329 1102.89 573.113 1102.89C761.898 1102.89 914.951 949.95 914.951 761.285C914.951 702.507 900.081 647.185 873.928 598.887" stroke="url(#paint13_linear_112_3529)" stroke-width="3" stroke-miterlimit="10"/>
<path d="M728.115 737.81C622.708 677.555 552.837 562.935 555.873 433.098C558.909 303.26 634.072 192.031 742.19 136.774" stroke="url(#paint14_linear_112_3529)" stroke-width="3" stroke-miterlimit="10"/>
<path d="M742.19 136.758C712.336 143.41 682.92 154.734 654.9 170.714C566.945 220.812 504.379 318.495 501.733 431.833C499.071 545.171 556.993 645.66 642.514 699.83C669.77 717.092 698.602 729.779 728.115 737.826" stroke="url(#paint15_linear_112_3529)" stroke-width="3" stroke-miterlimit="10"/>
<path d="M742.19 136.758C708.764 136.628 674.251 142.517 640.062 154.96C531.977 194.319 450.58 302.173 447.577 430.551C444.573 558.928 520.824 670.482 626.945 714.853C660.517 728.887 694.722 736.382 728.115 737.81" stroke="url(#paint16_linear_112_3529)" stroke-width="3" stroke-miterlimit="10"/>
<path d="M742.19 136.758C705.193 129.847 665.55 130.252 625.208 139.207C496.944 167.712 396.765 285.836 393.404 429.285C390.044 572.735 484.574 695.417 611.361 729.876C651.231 740.714 690.81 742.969 728.099 737.793" stroke="url(#paint17_linear_112_3529)" stroke-width="3" stroke-miterlimit="10"/>
<path d="M742.19 136.758C701.621 123.049 656.848 117.874 610.371 123.455C461.895 140.765 342.982 269.516 339.264 428.02C335.546 586.525 448.323 720.694 595.825 744.916C641.994 752.671 686.962 749.588 728.115 737.794" stroke="url(#paint18_linear_112_3529)" stroke-width="3" stroke-miterlimit="10"/>
<path d="M742.19 136.758C698.05 116.268 648.179 105.609 595.533 107.718C426.927 114.158 289.182 253.195 285.108 426.755C281.033 600.315 412.138 745.646 580.257 759.955C632.741 764.514 683.066 756.208 728.115 737.794" stroke="url(#paint19_linear_112_3529)" stroke-width="3" stroke-miterlimit="10"/>
<path d="M742.19 136.758C694.478 109.486 639.494 93.3432 580.695 91.9642C391.959 87.5514 235.383 236.873 230.968 425.489C226.552 614.105 375.969 770.581 564.704 774.994C623.504 776.373 679.186 762.81 728.131 737.81" stroke="url(#paint20_linear_112_3529)" stroke-width="3" stroke-miterlimit="10"/>
<path d="M599.38 600.898C657.189 494.18 770.21 421.693 900.178 421.693C1030.15 421.693 1143.15 494.18 1200.98 600.898" stroke="url(#paint21_linear_112_3529)" stroke-width="3" stroke-miterlimit="10"/>
<path d="M1200.98 600.898C1193.62 571.225 1181.59 542.104 1164.97 514.475C1112.79 427.776 1013.6 367.554 900.178 367.554C786.736 367.554 687.563 427.776 635.387 514.475C618.763 542.104 606.734 571.225 599.38 600.898" stroke="url(#paint22_linear_112_3529)" stroke-width="3" stroke-miterlimit="10"/>
<path d="M1200.98 600.898C1200.33 567.494 1193.64 533.149 1180.38 499.29C1138.48 392.214 1028.69 313.432 900.178 313.432C771.671 313.432 661.881 392.214 619.981 499.29C606.734 533.165 600.029 567.51 599.38 600.898" stroke="url(#paint23_linear_112_3529)" stroke-width="3" stroke-miterlimit="10"/>
<path d="M1200.98 600.898C1207.03 563.779 1205.7 524.177 1195.78 484.089C1164.27 356.603 1043.75 259.294 900.179 259.294C756.606 259.294 636.085 356.603 604.575 484.089C594.656 524.177 593.325 563.779 599.38 600.898" stroke="url(#paint24_linear_112_3529)" stroke-width="3" stroke-miterlimit="10"/>
<path d="M1200.98 600.898C1213.74 560.047 1217.88 515.189 1211.19 468.887C1190.39 320.96 1058.82 205.156 900.178 205.156C741.541 205.156 609.948 320.96 589.169 468.887C582.497 515.189 586.62 560.047 599.38 600.898" stroke="url(#paint25_linear_112_3529)" stroke-width="3" stroke-miterlimit="10"/>
<path d="M1200.98 600.898C1220.44 556.316 1229.94 506.234 1226.59 453.685C1216.2 285.382 1073.88 151.018 900.178 151.018C726.475 151.018 584.153 285.398 573.763 453.685C570.419 506.234 579.916 556.316 599.38 600.898" stroke="url(#paint26_linear_112_3529)" stroke-width="3" stroke-miterlimit="10"/>
<path d="M1200.98 600.898C1227.13 552.601 1242 497.278 1242 438.5C1242 249.836 1088.96 96.896 900.179 96.896C711.394 96.896 558.357 249.836 558.357 438.5C558.357 497.278 573.227 552.601 599.38 600.898" stroke="url(#paint27_linear_112_3529)" stroke-width="3" stroke-miterlimit="10"/>
<defs>
<linearGradient id="paint0_linear_112_3529" x1="825.868" y1="1067" x2="825.868" y2="465.789" gradientUnits="userSpaceOnUse">
<stop stop-color="#00C2FF"/>
<stop offset="1" stop-color="#FF03D7"/>
</linearGradient>
<linearGradient id="paint1_linear_112_3529" x1="852.946" y1="1067" x2="852.946" y2="465.789" gradientUnits="userSpaceOnUse">
<stop stop-color="#00C2FF"/>
<stop offset="1" stop-color="#FF03D7"/>
</linearGradient>
<linearGradient id="paint2_linear_112_3529" x1="880.024" y1="1067" x2="880.024" y2="465.789" gradientUnits="userSpaceOnUse">
<stop stop-color="#00C2FF"/>
<stop offset="1" stop-color="#FF03D7"/>
</linearGradient>
<linearGradient id="paint3_linear_112_3529" x1="907.118" y1="1070.64" x2="907.118" y2="462.147" gradientUnits="userSpaceOnUse">
<stop stop-color="#00C2FF"/>
<stop offset="1" stop-color="#FF03D7"/>
</linearGradient>
<linearGradient id="paint4_linear_112_3529" x1="934.205" y1="1080.37" x2="934.205" y2="452.426" gradientUnits="userSpaceOnUse">
<stop stop-color="#00C2FF"/>
<stop offset="1" stop-color="#FF03D7"/>
</linearGradient>
<linearGradient id="paint5_linear_112_3529" x1="961.283" y1="1093.26" x2="961.283" y2="439.528" gradientUnits="userSpaceOnUse">
<stop stop-color="#00C2FF"/>
<stop offset="1" stop-color="#FF03D7"/>
</linearGradient>
<linearGradient id="paint6_linear_112_3529" x1="988.369" y1="1108" x2="988.369" y2="424.792" gradientUnits="userSpaceOnUse">
<stop stop-color="#00C2FF"/>
<stop offset="1" stop-color="#FF03D7"/>
</linearGradient>
<linearGradient id="paint7_linear_112_3529" x1="573.113" y1="778.093" x2="573.113" y2="598.887" gradientUnits="userSpaceOnUse">
<stop stop-color="#00C2FF"/>
<stop offset="1" stop-color="#FF03D7"/>
</linearGradient>
<linearGradient id="paint8_linear_112_3529" x1="573.113" y1="832.231" x2="573.113" y2="598.887" gradientUnits="userSpaceOnUse">
<stop stop-color="#00C2FF"/>
<stop offset="1" stop-color="#FF03D7"/>
</linearGradient>
<linearGradient id="paint9_linear_112_3529" x1="573.113" y1="886.354" x2="573.113" y2="598.888" gradientUnits="userSpaceOnUse">
<stop stop-color="#00C2FF"/>
<stop offset="1" stop-color="#FF03D7"/>
</linearGradient>
<linearGradient id="paint10_linear_112_3529" x1="573.114" y1="940.491" x2="573.114" y2="598.887" gradientUnits="userSpaceOnUse">
<stop stop-color="#00C2FF"/>
<stop offset="1" stop-color="#FF03D7"/>
</linearGradient>
<linearGradient id="paint11_linear_112_3529" x1="573.11" y1="994.63" x2="573.11" y2="598.888" gradientUnits="userSpaceOnUse">
<stop stop-color="#00C2FF"/>
<stop offset="1" stop-color="#FF03D7"/>
</linearGradient>
<linearGradient id="paint12_linear_112_3529" x1="573.113" y1="1048.77" x2="573.113" y2="598.887" gradientUnits="userSpaceOnUse">
<stop stop-color="#00C2FF"/>
<stop offset="1" stop-color="#FF03D7"/>
</linearGradient>
<linearGradient id="paint13_linear_112_3529" x1="573.122" y1="1102.89" x2="573.122" y2="598.887" gradientUnits="userSpaceOnUse">
<stop stop-color="#00C2FF"/>
<stop offset="1" stop-color="#FF03D7"/>
</linearGradient>
<linearGradient id="paint14_linear_112_3529" x1="648.984" y1="737.81" x2="648.984" y2="136.774" gradientUnits="userSpaceOnUse">
<stop stop-color="#00C2FF"/>
<stop offset="1" stop-color="#FF03D7"/>
</linearGradient>
<linearGradient id="paint15_linear_112_3529" x1="621.917" y1="737.826" x2="621.917" y2="136.758" gradientUnits="userSpaceOnUse">
<stop stop-color="#00C2FF"/>
<stop offset="1" stop-color="#FF03D7"/>
</linearGradient>
<linearGradient id="paint16_linear_112_3529" x1="594.84" y1="737.81" x2="594.84" y2="136.755" gradientUnits="userSpaceOnUse">
<stop stop-color="#00C2FF"/>
<stop offset="1" stop-color="#FF03D7"/>
</linearGradient>
<linearGradient id="paint17_linear_112_3529" x1="567.754" y1="740.45" x2="567.754" y2="131.984" gradientUnits="userSpaceOnUse">
<stop stop-color="#00C2FF"/>
<stop offset="1" stop-color="#FF03D7"/>
</linearGradient>
<linearGradient id="paint18_linear_112_3529" x1="540.682" y1="749.181" x2="540.682" y2="121.242" gradientUnits="userSpaceOnUse">
<stop stop-color="#00C2FF"/>
<stop offset="1" stop-color="#FF03D7"/>
</linearGradient>
<linearGradient id="paint19_linear_112_3529" x1="513.603" y1="761.183" x2="513.603" y2="107.455" gradientUnits="userSpaceOnUse">
<stop stop-color="#00C2FF"/>
<stop offset="1" stop-color="#FF03D7"/>
</linearGradient>
<linearGradient id="paint20_linear_112_3529" x1="486.531" y1="775.09" x2="486.531" y2="91.8688" gradientUnits="userSpaceOnUse">
<stop stop-color="#00C2FF"/>
<stop offset="1" stop-color="#FF03D7"/>
</linearGradient>
<linearGradient id="paint21_linear_112_3529" x1="900.178" y1="600.898" x2="900.178" y2="421.693" gradientUnits="userSpaceOnUse">
<stop stop-color="#00C2FF"/>
<stop offset="1" stop-color="#FF03D7"/>
</linearGradient>
<linearGradient id="paint22_linear_112_3529" x1="900.178" y1="600.898" x2="900.178" y2="367.554" gradientUnits="userSpaceOnUse">
<stop stop-color="#00C2FF"/>
<stop offset="1" stop-color="#FF03D7"/>
</linearGradient>
<linearGradient id="paint23_linear_112_3529" x1="900.178" y1="600.898" x2="900.178" y2="313.432" gradientUnits="userSpaceOnUse">
<stop stop-color="#00C2FF"/>
<stop offset="1" stop-color="#FF03D7"/>
</linearGradient>
<linearGradient id="paint24_linear_112_3529" x1="900.179" y1="600.898" x2="900.179" y2="259.294" gradientUnits="userSpaceOnUse">
<stop stop-color="#00C2FF"/>
<stop offset="1" stop-color="#FF03D7"/>
</linearGradient>
<linearGradient id="paint25_linear_112_3529" x1="900.182" y1="600.898" x2="900.182" y2="205.156" gradientUnits="userSpaceOnUse">
<stop stop-color="#00C2FF"/>
<stop offset="1" stop-color="#FF03D7"/>
</linearGradient>
<linearGradient id="paint26_linear_112_3529" x1="900.178" y1="600.898" x2="900.178" y2="151.018" gradientUnits="userSpaceOnUse">
<stop stop-color="#00C2FF"/>
<stop offset="1" stop-color="#FF03D7"/>
</linearGradient>
<linearGradient id="paint27_linear_112_3529" x1="900.179" y1="600.898" x2="900.179" y2="96.896" gradientUnits="userSpaceOnUse">
<stop stop-color="#00C2FF"/>
<stop offset="1" stop-color="#FF03D7"/>
</linearGradient>
</defs>
</svg>
