<svg width="147" height="121" viewBox="0 0 147 121" fill="none" xmlns="http://www.w3.org/2000/svg">
<path d="M72.4301 88.231C78.5582 85.6244 83.6508 81.0692 86.9155 75.2743L113.265 90.5048C106.641 102.079 96.3727 111.146 84.055 116.298C71.7374 121.45 58.0597 122.398 45.1465 118.995C32.2334 115.593 20.8075 108.03 12.6438 97.4809C4.48007 86.9321 0.0354212 73.9881 0.000210821 60.6595C-0.0349996 47.3309 4.34121 34.3637 12.4491 23.7721C20.557 13.1806 31.9427 5.55746 44.8377 2.08692C57.7327 -1.38362 71.4152 -0.507331 83.7599 4.57967C96.1046 9.66667 106.421 18.6796 113.105 30.2186L86.7178 45.3833C83.3768 39.632 78.2243 35.1443 72.0623 32.6186C65.9004 30.0929 59.0746 29.671 52.6474 31.4186C46.2203 33.1661 40.5523 36.9851 36.5257 42.281C32.499 47.5769 30.3396 54.0528 30.3836 60.7006C30.4276 67.3484 32.6724 73.7952 36.7688 79.0376C40.8651 84.28 46.5831 88.024 53.0328 89.6867C59.4825 91.3494 66.3021 90.8376 72.4301 88.231Z" fill="white"/>
<path d="M114.714 50.0364H107.767V56.9693H100.82V63.9022H107.767V70.8297H114.714V63.9022H121.656V56.9693H114.714V50.0364Z" fill="white"/>
<path d="M140.053 50.0364H133.106V56.9693H126.165V63.9022H133.106V70.8297H140.053V63.9022H147V56.9693H140.053V50.0364Z" fill="white"/>
</svg>
