<svg width="104" height="121" viewBox="0 0 104 121" fill="none" xmlns="http://www.w3.org/2000/svg">
<path d="M29.4301 88.231C35.5582 85.6244 40.6508 81.0692 43.9155 75.2743L70.2646 90.5048C63.6409 102.079 53.3727 111.146 41.055 116.298C28.7374 121.45 15.0597 122.398 2.14653 118.995C-10.7666 115.593 -22.1925 108.03 -30.3562 97.4809C-38.5199 86.9321 -42.9646 73.9881 -42.9998 60.6595C-43.035 47.3309 -38.6588 34.3637 -30.5509 23.7721C-22.443 13.1806 -11.0573 5.55746 1.83768 2.08692C14.7327 -1.38362 28.4152 -0.507331 40.7599 4.57967C53.1046 9.66667 63.4206 18.6796 70.1054 30.2186L43.7178 45.3833C40.3768 39.632 35.2243 35.1443 29.0623 32.6186C22.9004 30.0929 16.0746 29.671 9.64744 31.4186C3.22029 33.1661 -2.44771 36.9851 -6.47435 42.281C-10.501 47.5769 -12.6604 54.0528 -12.6164 60.7006C-12.5724 67.3484 -10.3276 73.7952 -6.23124 79.0376C-2.1349 84.28 3.58311 88.024 10.0328 89.6867C16.4825 91.3494 23.3021 90.8376 29.4301 88.231Z" fill="white"/>
<path d="M71.7144 50.0364H64.7674V56.9693H57.8205V63.9022H64.7674V70.8297H71.7144V63.9022H78.6559V56.9693H71.7144V50.0364Z" fill="white"/>
<path d="M97.053 50.0364H90.106V56.9693H83.1645V63.9022H90.106V70.8297H97.053V63.9022H104V56.9693H97.053V50.0364Z" fill="white"/>
</svg>
