<svg width="152" height="138" viewBox="0 0 152 138" fill="none" xmlns="http://www.w3.org/2000/svg">
<path d="M130.082 11.6917L103.504 0H48.394L21.979 11.9088L0 36.321L76.0009 137.384L152 36.3228L130.082 11.6927V11.6917ZM145.672 36.9767L121.637 54.9612L104.546 29.3516L128.729 17.9717L145.672 36.9776V36.9767ZM112.809 57.7027H37.7884L52.7168 31.1792L97.4327 31.2868L112.809 57.7027ZM53.316 3.95805H99.098L121.636 13.8988L98.9986 23.7565H53.2166L30.8098 13.907L53.3133 3.95896L53.316 3.95805ZM23.2275 17.9717L45.9052 29.3388L29.6653 54.4569L6.28363 36.9767L23.2266 17.9708L23.2275 17.9717ZM14.9977 50.218L29.772 62.6767L64.9257 120.528L14.9968 50.218H14.9977ZM39.834 65.9316H111.07L76.0009 130.564L39.8331 65.9316H39.834ZM87.0242 120.528L122.179 62.6767L136.953 50.218L87.0242 120.528Z" fill="white"/>
</svg>
