<svg width="40" height="37" viewBox="0 0 40 37" fill="none" xmlns="http://www.w3.org/2000/svg">
<path d="M34.2325 3.07681L27.2382 0H12.7354L5.78403 3.13393L0 9.55828L20.0005 36.1542L40.0005 9.55876L34.2325 3.07705V3.07681ZM38.3351 9.73084L32.0101 14.4637L27.5125 7.72419L33.8764 4.72946L38.3351 9.73108V9.73084ZM29.6869 15.1851H9.94444L13.873 8.20515L25.6405 8.23347L29.6869 15.1851ZM14.0307 1.0416H26.0788L32.0099 3.65762L26.0526 6.25179H14.0045L8.10795 3.65977L14.03 1.04184L14.0307 1.0416ZM6.11259 4.72946L12.0805 7.72083L7.80675 14.3309L1.65361 9.73084L6.11235 4.72922L6.11259 4.72946ZM3.94682 13.2154L7.83483 16.4941L17.0859 31.7183L3.94658 13.2154H3.94682ZM10.4828 17.3506H29.2292L20.0005 34.3593L10.4825 17.3506H10.4828ZM22.9014 31.7183L32.1527 16.4941L36.0407 13.2154L22.9014 31.7183Z" fill="#1B232E"/>
</svg>
