<svg width="70" height="70" viewBox="0 0 70 70" fill="none" xmlns="http://www.w3.org/2000/svg">
<path d="M65.5049 29.3263C65.3317 29.182 63.7734 27.9988 60.4258 27.9988C59.5601 27.9988 58.6655 28.0853 57.7997 28.2296C57.1648 23.8143 53.4998 21.6788 53.3555 21.5634L52.4609 21.0439L51.8838 21.8808C51.1623 23.0063 50.614 24.276 50.2966 25.5747C49.6905 28.0853 50.0657 30.4517 51.3355 32.4718C49.806 33.3376 47.3242 33.5396 46.8047 33.5684H5.82594C4.75819 33.5684 3.89244 34.4342 3.89244 35.5019C3.83472 39.0804 4.44075 42.6588 5.68165 46.0352C7.09571 49.7291 9.20236 52.4707 11.915 54.1444C14.974 56.0202 19.9665 57.088 25.5939 57.088C28.1334 57.088 30.6729 56.8571 33.1836 56.3954C36.6754 55.7605 40.023 54.5485 43.1108 52.7881C45.6504 51.3163 47.9302 49.4405 49.8637 47.2473C53.1247 43.5823 55.0582 39.4844 56.4722 35.8482C56.6742 35.8482 56.8474 35.8482 57.0494 35.8482C60.599 35.8482 62.7922 34.4342 64.0042 33.2221C64.8123 32.4718 65.4183 31.5483 65.8512 30.5094L66.1109 29.7591L65.5049 29.3263Z" fill="#2496ED"/>
<path d="M9.63523 32.3854H15.1183C15.378 32.3854 15.6089 32.1833 15.6089 31.8948V26.9888C15.6089 26.7291 15.4069 26.4983 15.1183 26.4983H9.63523C9.3755 26.4983 9.14463 26.7003 9.14463 26.9888V31.8948C9.17349 32.1833 9.3755 32.3854 9.63523 32.3854Z" fill="#2496ED"/>
<path d="M17.1961 32.3854H22.6792C22.9389 32.3854 23.1698 32.1833 23.1698 31.8948V26.9888C23.1698 26.7291 22.9678 26.4983 22.6792 26.4983H17.1961C16.9364 26.4983 16.7055 26.7003 16.7055 26.9888V31.8948C16.7344 32.1833 16.9364 32.3854 17.1961 32.3854Z" fill="#2496ED"/>
<path d="M24.9013 32.3854H30.3843C30.6441 32.3854 30.8749 32.1833 30.8749 31.8948V26.9888C30.8749 26.7291 30.6729 26.4983 30.3843 26.4983H24.9013C24.6415 26.4983 24.4107 26.7003 24.4107 26.9888V31.8948C24.4107 32.1833 24.6127 32.3854 24.9013 32.3854Z" fill="#2496ED"/>
<path d="M32.491 32.3854H37.9741C38.2338 32.3854 38.4647 32.1833 38.4647 31.8948V26.9888C38.4647 26.7291 38.2627 26.4983 37.9741 26.4983H32.491C32.2313 26.4983 32.0004 26.7003 32.0004 26.9888V31.8948C32.0004 32.1833 32.2313 32.3854 32.491 32.3854Z" fill="#2496ED"/>
<path d="M17.1961 25.3731H22.6792C22.9389 25.3731 23.1698 25.1423 23.1698 24.8825V19.9766C23.1698 19.7169 22.9678 19.486 22.6792 19.486H17.1961C16.9364 19.486 16.7055 19.688 16.7055 19.9766V24.8825C16.7344 25.1423 16.9364 25.3731 17.1961 25.3731Z" fill="#2496ED"/>
<path d="M24.9013 25.3731H30.3843C30.6441 25.3731 30.8749 25.1423 30.8749 24.8825V19.9766C30.8749 19.7169 30.6729 19.486 30.3843 19.486H24.9013C24.6415 19.486 24.4107 19.688 24.4107 19.9766V24.8825C24.4107 25.1423 24.6127 25.3731 24.9013 25.3731Z" fill="#2496ED"/>
<path d="M32.491 25.3731H37.9741C38.2338 25.3731 38.4647 25.1423 38.4647 24.8825V19.9766C38.4647 19.7169 38.2338 19.486 37.9741 19.486H32.491C32.2313 19.486 32.0004 19.688 32.0004 19.9766V24.8825C32.0004 25.1423 32.2313 25.3731 32.491 25.3731Z" fill="#2496ED"/>
<path d="M32.491 18.3316H37.9741C38.2338 18.3316 38.4647 18.1296 38.4647 17.841V12.9351C38.4647 12.6753 38.2338 12.4445 37.9741 12.4445H32.491C32.2313 12.4445 32.0004 12.6465 32.0004 12.9351V17.841C32.0004 18.1007 32.2313 18.3316 32.491 18.3316Z" fill="#2496ED"/>
<path d="M40.1384 32.3854H45.6215C45.8812 32.3854 46.1121 32.1833 46.1121 31.8948V26.9888C46.1121 26.7291 45.9101 26.4983 45.6215 26.4983H40.1384C39.8787 26.4983 39.6479 26.7003 39.6479 26.9888V31.8948C39.6767 32.1833 39.8787 32.3854 40.1384 32.3854Z" fill="#2496ED"/>
</svg>
