<svg width="70" height="70" viewBox="0 0 70 70" fill="none" xmlns="http://www.w3.org/2000/svg">
<path d="M34.7422 34.9999C34.7422 29.2726 39.3851 24.6295 45.1124 24.6295C50.8397 24.6295 55.4827 29.2726 55.4827 34.9999C55.4827 40.7273 50.8397 45.3702 45.1124 45.3702C39.3851 45.3702 34.7422 40.7273 34.7422 34.9999Z" fill="#1ABCFE"/>
<path d="M14 55.7408C14 50.0135 18.6429 45.3705 24.3702 45.3705H34.7405V55.7408C34.7405 61.4683 30.0976 66.1112 24.3702 66.1112C18.6429 66.1112 14 61.4683 14 55.7408Z" fill="#0ACF83"/>
<path d="M34.7422 3.88892V24.6295H45.1124C50.8398 24.6295 55.4827 19.9866 55.4827 14.2593C55.4827 8.53188 50.8398 3.88892 45.1124 3.88892H34.7422Z" fill="#FF7262"/>
<path d="M14 14.2593C14 19.9866 18.6429 24.6296 24.3702 24.6296H34.7405V3.88892H24.3702C18.6429 3.88892 14 8.53188 14 14.2593Z" fill="#F24E1E"/>
<path d="M14 34.9999C14 40.7273 18.6429 45.3702 24.3702 45.3702H34.7405V24.6295H24.3702C18.6429 24.6295 14 29.2726 14 34.9999Z" fill="#A259FF"/>
</svg>
