<svg width="27" height="40" viewBox="0 0 27 40" fill="none" xmlns="http://www.w3.org/2000/svg">
<path fill-rule="evenodd" clip-rule="evenodd" d="M6.66656 0C2.98656 0 0 2.98672 0 6.66672C0 10.3467 2.98656 13.3333 6.66656 13.3333C2.98656 13.3333 0 16.32 0 20C0 23.6783 2.98377 26.6639 6.66141 26.6667C2.98377 26.6695 0 29.655 0 33.3333C0 37.0133 2.98656 40 6.66656 40C10.3466 40 13.3333 37.0133 13.3333 33.3333L13.3333 20C13.3333 23.68 16.32 26.6667 20 26.6667C23.68 26.6667 26.6666 23.68 26.6666 20C26.6666 16.32 23.68 13.3333 20 13.3333C23.68 13.3333 26.6666 10.3467 26.6666 6.66672C26.6666 2.98672 23.68 0 20 0H6.66656ZM20 13.3333H13.3333L13.3333 20C13.3333 16.32 16.32 13.3333 20 13.3333Z" fill="#1B232E"/>
</svg>
