<svg width="77" height="115" viewBox="0 0 77 115" fill="none" xmlns="http://www.w3.org/2000/svg">
<path fill-rule="evenodd" clip-rule="evenodd" d="M19.2498 0C8.62372 0 0 8.58682 0 19.1668C0 29.7468 8.62372 38.3332 19.2498 38.3332C8.62372 38.3332 0 46.92 0 57.5C0 68.0751 8.61568 76.6588 19.2349 76.6668C8.61568 76.6748 0 85.2581 0 95.8332C0 106.413 8.62372 115 19.2498 115C29.8758 115 38.5 106.413 38.5 95.8332V57.5C38.5 68.08 47.1242 76.6668 57.7502 76.6668C68.3763 76.6668 77 68.08 77 57.5C77 46.92 68.3763 38.3332 57.7502 38.3332C68.3763 38.3332 77 29.7468 77 19.1668C77 8.58682 68.3763 0 57.7502 0H19.2498ZM57.7502 38.3332H38.5V57.5C38.5 46.92 47.1242 38.3332 57.7502 38.3332Z" fill="white"/>
</svg>
