<svg width="92" height="103" viewBox="0 0 92 103" fill="none" xmlns="http://www.w3.org/2000/svg">
<path fill-rule="evenodd" clip-rule="evenodd" d="M41.1623 5.04583C41.5578 4.7198 41.9934 4.49514 42.4537 4.35358L46.1542 2.62296C46.4081 2.44396 46.6748 2.30149 46.9542 2.19372L46.956 2.1919C48.5314 1.58184 50.4465 2.04578 52.0676 2.93438L63.4358 9.49797L82.354 20.4205C87.7531 23.6507 89.6527 26.2901 89.6756 32.3066V74.4581C89.5386 77.2216 88.5175 78.7641 87.197 79.4563V79.4582L82.4699 81.6865V81.6847C81.1229 82.4126 79.4507 82.2418 78.0772 81.5733L65.3062 74.2024L46.3871 63.2798C40.9879 60.0468 39.0865 57.4103 39.0664 51.3928V11.5692C39.0664 8.08972 39.9194 6.07325 41.1642 5.04674L41.1623 5.04583Z" fill="white"/>
<path fill-rule="evenodd" clip-rule="evenodd" d="M42.4353 6.48175C42.3883 6.52286 42.3396 6.56187 42.2892 6.59864C41.9467 6.91646 41.6472 7.41418 41.4161 8.13292C41.1421 8.98407 40.985 10.111 40.985 11.5686V51.3912H40.9777C40.9869 54.0123 41.3814 55.8626 42.3294 57.353C43.3011 58.8873 44.9285 60.1768 47.3705 61.6362L47.3678 61.6389L66.2567 72.5432L78.8926 79.8402L78.9154 79.853C79.404 80.0904 79.9291 80.2347 80.4287 80.2475C80.8323 80.2566 81.2232 80.1836 81.563 79.9982V80C81.5904 79.9817 81.6214 79.9689 81.6525 79.9543L86.374 77.726C86.7 77.5342 87.0005 77.2173 87.2352 76.7433C87.5092 76.1899 87.6964 75.4492 87.7539 74.4921V32.3069H87.7631C87.7539 29.6858 87.3576 27.8356 86.4114 26.3433C85.4379 24.8109 83.8105 23.5195 81.3703 22.0601V22.0583L62.5845 11.2106L62.4795 11.1522L51.1113 4.58947C50.4537 4.2333 49.7468 3.96846 49.0656 3.86982C48.5888 3.80042 48.1395 3.8132 47.755 3.93649C47.6911 3.96754 47.6226 3.99403 47.5559 4.01595C47.524 4.03239 47.4884 4.04974 47.45 4.07074C47.3861 4.10453 47.3221 4.1438 47.2582 4.18947L47.2555 4.18673C47.1641 4.25065 47.0683 4.30545 46.9651 4.35476L43.3486 6.04612C43.2424 6.10198 43.1311 6.14725 43.0161 6.18128C42.8994 6.21842 42.7863 6.26611 42.6782 6.32375C42.596 6.36576 42.5157 6.41873 42.4344 6.48175H42.4353ZM39.9439 3.57119C40.2304 3.33512 40.5393 3.12773 40.8663 2.952C41.1567 2.79675 41.4599 2.66889 41.7704 2.56569L45.186 0.967488C45.5571 0.722436 45.9555 0.521674 46.3733 0.369304C47.4144 -0.0115254 48.5158 -0.0781932 49.6044 0.0798006C50.7697 0.24784 51.935 0.680725 52.9834 1.25516L53.0291 1.27891L64.3955 7.84341C64.432 7.86351 64.4631 7.88268 64.496 7.90369L83.3055 18.766L83.3347 18.7843L83.3383 18.7806C86.2946 20.5523 88.3192 22.1962 89.6517 24.2939C91.0061 26.4346 91.5714 28.915 91.5841 32.3087H91.5905V74.4583C91.5905 74.5442 91.586 74.6291 91.5741 74.7122C91.4809 76.2191 91.154 77.452 90.6682 78.4383C90.0691 79.6411 89.2362 80.4886 88.2754 81.0411C88.1553 81.123 88.0267 81.1916 87.8918 81.2457L83.3237 83.3991C82.3904 83.8905 81.3657 84.0932 80.3428 84.0658C79.2661 84.0325 78.2088 83.77 77.2414 83.296C77.1511 83.2521 77.0643 83.2011 76.9821 83.1434L64.3553 75.8556L45.4372 64.9331L45.408 64.9148V64.9166C42.449 63.1449 40.4252 61.501 39.0937 59.4042C37.7329 57.2644 37.1685 54.7849 37.1576 51.3903H37.1484V11.5713C37.1484 9.7229 37.3768 8.20324 37.774 6.96669C38.2635 5.44428 39.0197 4.34107 39.9439 3.57667V3.57119Z" fill="#9699A6"/>
<path fill-rule="evenodd" clip-rule="evenodd" d="M81.9724 78.8172L70.0763 71.9495L51.1563 61.0269C45.7589 57.7967 43.8566 55.1565 43.8356 49.1399V9.31818C43.8356 8.90265 43.8484 8.50812 43.8721 8.13368L42.0822 4.81307L46.1599 2.62399C46.4137 2.44499 46.6804 2.30252 46.9599 2.19476V2.19202C48.5352 1.58196 50.4503 2.0459 52.0714 2.9345L63.4396 9.49809L82.3605 20.4207C87.7597 23.6509 89.6593 26.2902 89.6821 32.3067V74.4582C89.5451 77.2217 88.5241 78.7642 87.2035 79.4565V79.4583L83.3925 81.4519L81.9724 78.8172Z" fill="#F6F6F6"/>
<path fill-rule="evenodd" clip-rule="evenodd" d="M81.6857 79.0947L69.8819 72.2818L69.8837 72.2799L50.9646 61.3592L50.9582 61.3555C48.2093 59.7089 46.3426 58.2048 45.1545 56.3326C43.9599 54.4513 43.4631 52.2266 43.454 49.1407H43.4522V9.31805C43.4526 8.9513 43.4633 8.58464 43.4841 8.21849L41.7453 4.99103L41.5626 4.65312L41.9005 4.47321L45.9554 2.29418C46.0878 2.20285 46.2239 2.11883 46.3636 2.04394C46.5006 1.97088 46.6467 1.90421 46.7947 1.84577L47.3426 1.55626V1.67133C48.0002 1.50695 48.6943 1.49507 49.3883 1.59553C50.3655 1.73526 51.3546 2.10422 52.2523 2.59646L52.2615 2.60012L63.6343 9.16919L82.5515 20.089L82.5561 20.0918C85.3077 21.7384 87.1735 23.2425 88.3617 25.1147C89.5535 26.9942 90.0512 29.2207 90.0622 32.3057H90.064V74.4581L90.0622 74.4763C89.9946 75.8353 89.7188 76.9184 89.2996 77.7613C88.8612 78.6454 88.263 79.2682 87.5826 79.6792V79.6865L87.3753 79.7961L83.5652 81.7915L83.2319 81.9678L83.0529 81.6345L81.683 79.0956L81.6857 79.0947ZM70.2663 71.6178L82.1625 78.4855L82.3068 78.6362L83.547 80.9395L86.8164 79.2271L87.0247 79.1175C87.653 78.7906 88.2101 78.2408 88.6137 77.4225C88.9863 76.6736 89.232 75.6964 89.295 74.4599V32.3075H89.2968C89.2859 29.3759 88.8219 27.2755 87.7132 25.5238C86.5954 23.7649 84.8109 22.3329 82.1625 20.7475L63.2525 9.82947H63.2489L51.8815 3.26588C51.0614 2.81839 50.1646 2.48322 49.2833 2.35445C48.5207 2.24486 47.7737 2.28778 47.1006 2.54898L47.0988 2.55171C46.9746 2.5992 46.8522 2.65583 46.7298 2.72249C46.6111 2.78368 46.4951 2.85674 46.381 2.9362L46.3417 2.96085L42.6028 4.97002L44.2102 7.95455L44.2558 8.16004C44.244 8.35547 44.2339 8.54361 44.2284 8.72352C44.2248 8.8879 44.2211 9.08517 44.2211 9.31988V49.1425H44.2193C44.2284 52.0741 44.6924 54.1746 45.8047 55.9253C46.9216 57.6842 48.707 59.1171 51.3537 60.7016L70.2673 71.6197H70.2691L70.2663 71.6178Z" fill="#9699A6"/>
<path fill-rule="evenodd" clip-rule="evenodd" d="M78.0781 81.5744L65.3062 74.2008L46.3871 63.2782C40.9879 60.0452 39.0865 57.4087 39.0664 51.3912V11.5685C39.0664 3.31907 43.8555 3.29441 47.3067 5.18486L58.6741 11.7484L77.5913 22.671C82.9887 25.9012 84.891 28.5405 84.9102 34.558V76.7095C84.6344 82.2749 80.7777 82.8904 78.079 81.5744H78.0781Z" fill="white"/>
<path fill-rule="evenodd" clip-rule="evenodd" d="M77.8919 81.907L65.119 74.5315L46.2018 63.609L46.1945 63.6062C43.4428 61.9596 41.5789 60.4555 40.3907 58.5851C39.1962 56.7038 38.6994 54.4755 38.6893 51.3886H38.6875V11.5696C38.6875 9.14951 39.0948 7.40519 39.7606 6.19055C40.2355 5.32296 40.8419 4.72295 41.5286 4.33664C42.2154 3.95124 42.9753 3.7832 43.7597 3.7832C45.0109 3.7832 46.3278 4.21517 47.4904 4.85172L47.4995 4.85628L58.8696 11.4208L77.7859 22.3434L77.7923 22.3461C80.5412 23.9918 82.4061 25.495 83.5952 27.3672C84.7888 29.2485 85.2874 31.4741 85.2957 34.5591H85.2975V76.7115L85.2957 76.7298C85.2317 78.0723 84.9614 79.1453 84.5532 79.981C84.0819 80.9454 83.4281 81.6047 82.6746 82.0157C81.9257 82.4267 81.091 82.5819 80.2545 82.5363C79.4411 82.4917 78.6452 82.2829 77.9147 81.9226L77.8928 81.9098L77.8919 81.907ZM65.499 73.8703L78.2508 81.2312C78.8882 81.5417 79.5933 81.7381 80.291 81.7728C80.9942 81.8066 81.692 81.6778 82.3093 81.3435C82.9258 81.0056 83.4692 80.454 83.8619 79.6449C84.2272 78.896 84.4673 77.928 84.5313 76.7088V34.5582C84.5221 31.6266 84.0582 29.5261 82.9477 27.7745C81.8308 26.0165 80.0435 24.5836 77.3978 22.9982L58.4851 12.0802L47.1242 5.52113H47.1224C46.063 4.9403 44.8757 4.54943 43.7597 4.54943C43.1004 4.54943 42.4666 4.68916 41.9022 5.00606C41.336 5.32387 40.8337 5.82799 40.4318 6.5586C39.8245 7.66364 39.4546 9.28924 39.4546 11.5724V51.3932H39.4528C39.4619 54.3248 39.9259 56.4253 41.0373 58.1787C42.1542 59.9358 43.9397 61.3678 46.5872 62.9532L65.499 73.8722V73.8703Z" fill="#9699A6"/>
<path fill-rule="evenodd" clip-rule="evenodd" d="M63.7855 41.815C63.828 41.7966 63.8662 41.7698 63.8981 41.7363C63.9299 41.7027 63.9546 41.6631 63.9708 41.6197C63.9869 41.5764 63.9941 41.5303 63.992 41.4841C63.9899 41.4379 63.9784 41.3926 63.9584 41.3509C63.9383 41.3092 63.91 41.272 63.8753 41.2416C63.8405 41.2111 63.7999 41.188 63.7559 41.1736C63.712 41.1592 63.6656 41.1538 63.6195 41.1578C63.5734 41.1617 63.5286 41.175 63.4878 41.1967L32.3402 56.0654C32.2994 56.0846 32.2629 56.1117 32.2326 56.1451C32.2024 56.1785 32.1791 56.2176 32.1641 56.26C32.149 56.3025 32.1426 56.3475 32.1451 56.3925C32.1475 56.4375 32.1589 56.4815 32.1785 56.5221C32.2607 56.6929 32.4662 56.765 32.637 56.6828L63.7883 41.815H63.7855Z" fill="#0755E9"/>
<path fill-rule="evenodd" clip-rule="evenodd" d="M60.9556 31.5349C60.4834 31.5349 60.035 31.6034 59.6149 31.7322C58.5309 32.0655 57.656 32.8043 57.0395 33.8436C56.4395 34.8519 56.0824 36.1405 56.0121 37.609H56.0167C55.9564 38.8821 56.108 40.2894 56.4971 41.768C57.2222 44.5123 58.6396 46.9991 60.3419 48.8001C62.0771 50.6302 64.1173 51.7636 66.0561 51.7636C66.5274 51.7636 66.9758 51.6951 67.3959 51.5654C68.4799 51.2321 69.3548 50.4932 69.9713 49.454C70.5713 48.4475 70.9284 47.158 70.9969 45.6895H70.995C71.0562 44.4201 70.9056 43.0109 70.5156 41.5342C69.7905 38.7889 68.3713 36.3012 66.6671 34.5003C64.9356 32.6692 62.8954 31.5377 60.9574 31.5377L60.9556 31.5349ZM59.814 32.4865C60.1718 32.3789 60.5436 32.3253 60.9172 32.3276C62.6396 32.3276 64.4835 33.3706 66.079 35.0555C67.7028 36.7706 69.0516 39.1433 69.7457 41.7652C70.1147 43.1689 70.259 44.4977 70.2023 45.6868H70.1996C70.1357 47.0256 69.8224 48.1836 69.2918 49.075C68.7804 49.9307 68.0699 50.5389 67.1913 50.8065C66.8534 50.9124 66.4845 50.9672 66.089 50.9672C64.3666 50.9672 62.5218 49.9243 60.9273 48.2393C59.3035 46.5251 57.9528 44.1534 57.2596 41.5314C56.8889 40.1269 56.7446 38.799 56.8003 37.609H56.8039C56.8679 36.2702 57.1811 35.1103 57.7117 34.2208C58.2231 33.3651 58.9336 32.7578 59.8122 32.4874L59.814 32.4865Z" fill="#0755E9"/>
<path fill-rule="evenodd" clip-rule="evenodd" d="M47.5664 63.9525L51.4167 61.7288L51.7984 62.3909L47.9491 64.6137L47.5664 63.9525Z" fill="#B3B4B4"/>
<path fill-rule="evenodd" clip-rule="evenodd" d="M62.7927 38.5825C61.6621 38.5825 61.0255 39.9268 61.3716 41.5871C61.7187 43.2456 62.9169 44.5899 64.0475 44.5899C65.1799 44.5899 65.8156 43.2456 65.4694 41.5853C65.1224 39.9268 63.9233 38.5825 62.7908 38.5825H62.7927Z" fill="#0755E9"/>
<path fill-rule="evenodd" clip-rule="evenodd" d="M40.2439 5.97644L6.85886 22.0808L6.52734 21.3913L39.9115 5.28784L40.2439 5.97644ZM85.4631 80.8034L49.2998 98.1708L48.9692 97.4813L85.1325 80.1139L85.4631 80.8034Z" fill="#9699A6"/>
<path fill-rule="evenodd" clip-rule="evenodd" d="M48.6816 17.7757C48.7158 17.7595 48.7464 17.7366 48.7716 17.7085C48.7969 17.6804 48.8163 17.6476 48.8288 17.6119C48.8413 17.5762 48.8466 17.5384 48.8444 17.5007C48.8421 17.463 48.8325 17.4261 48.8159 17.3921C48.7997 17.3579 48.777 17.3272 48.749 17.3018C48.7209 17.2764 48.6882 17.2568 48.6525 17.2441C48.6169 17.2313 48.5791 17.2258 48.5413 17.2277C48.5035 17.2296 48.4665 17.2389 48.4323 17.2551L22.2638 29.7458C22.2282 29.7612 22.1961 29.7836 22.1693 29.8117C22.1426 29.8398 22.1218 29.873 22.1082 29.9093C22.0946 29.9457 22.0884 29.9844 22.0901 30.0231C22.0918 30.0619 22.1013 30.0999 22.118 30.1349C22.1347 30.1699 22.1583 30.2012 22.1873 30.2269C22.2164 30.2526 22.2504 30.2721 22.2872 30.2844C22.324 30.2967 22.3629 30.3014 22.4015 30.2983C22.4402 30.2952 22.4778 30.2843 22.5122 30.2663L48.6789 17.7757H48.6816Z" fill="#0755E9"/>
<path fill-rule="evenodd" clip-rule="evenodd" d="M47.8803 14.7861C46.9552 14.7861 46.5488 15.8857 46.9725 17.2428C47.3963 18.5999 48.4903 19.6995 49.4146 19.6995C50.3406 19.6995 50.7479 18.5999 50.3242 17.2428C49.9004 15.8857 48.8054 14.7861 47.8812 14.7861H47.8803ZM74.9173 67.2985C74.9516 67.2822 74.9823 67.2593 75.0076 67.231C75.033 67.2027 75.0524 67.1697 75.0648 67.1338C75.0772 67.0979 75.0824 67.0599 75.0799 67.022C75.0775 66.9841 75.0675 66.9471 75.0506 66.9131C75.0343 66.8791 75.0115 66.8486 74.9833 66.8234C74.9552 66.7982 74.9223 66.7789 74.8867 66.7665C74.851 66.7541 74.8132 66.7489 74.7755 66.7512C74.7379 66.7535 74.701 66.7632 74.6671 66.7798L48.5013 79.2677C48.4672 79.2839 48.4366 79.3067 48.4113 79.3348C48.3861 79.3629 48.3666 79.3958 48.3541 79.4315C48.3417 79.4671 48.3364 79.5049 48.3386 79.5427C48.3408 79.5804 48.3505 79.6173 48.367 79.6513C48.383 79.6856 48.4057 79.7165 48.4337 79.742C48.4617 79.7676 48.4945 79.7873 48.5302 79.8C48.5659 79.8128 48.6037 79.8183 48.6416 79.8163C48.6794 79.8143 48.7165 79.8047 48.7506 79.7882L74.9173 67.2985Z" fill="#0755E9"/>
<path fill-rule="evenodd" clip-rule="evenodd" d="M74.1034 64.2485C73.1536 64.2485 72.738 65.3755 73.1718 66.7664C73.6038 68.1582 74.7244 69.2842 75.6723 69.2842C76.6203 69.2842 77.0386 68.1591 76.6066 66.7664C76.1719 65.3755 75.0541 64.2485 74.1043 64.2485H74.1034Z" fill="#0755E9"/>
<path fill-rule="evenodd" clip-rule="evenodd" d="M4.00426 23.1759C4.40153 22.8489 4.83532 22.6243 5.29561 22.4818L9.23815 20.3155C9.49386 20.1375 9.76144 19.9941 10.04 19.8863H10.0418C11.6172 19.2744 13.5305 19.7402 15.1524 20.6288L26.5197 27.1924L45.4379 38.115C50.8371 41.3461 52.7385 43.9845 52.7586 50.001V92.1543C52.6216 94.916 51.6024 96.4594 50.2791 97.1498L45.311 99.8166C43.963 100.544 42.2917 100.374 40.9182 99.707L28.1463 92.3315L9.22993 81.408C3.83074 78.1778 1.93116 75.5385 1.91016 69.521V29.6993C1.91016 26.2198 2.76131 24.2015 4.00517 23.1759H4.00426Z" fill="white"/>
<path fill-rule="evenodd" clip-rule="evenodd" d="M2.65484 21.8206C2.74617 21.7293 2.84663 21.6489 2.94983 21.5795C3.20006 21.3841 3.45577 21.2178 3.71331 21.0809C3.97394 20.9412 4.24509 20.8221 4.52428 20.7247L8.2449 18.679C8.39102 18.584 8.55084 18.4872 8.7271 18.3931L8.72436 18.3913C8.88875 18.3027 9.06501 18.2205 9.25405 18.1447C9.31927 18.114 9.38638 18.0875 9.45497 18.0653C10.4961 17.6845 11.5993 17.616 12.6906 17.773C13.8642 17.9447 15.0304 18.3758 16.0788 18.9511L16.172 19.0059L27.4836 25.5357L27.5822 25.5978L46.3935 36.4592L46.4228 36.4775V36.4757C49.3817 38.2437 51.4046 39.8885 52.737 41.9863C54.0951 44.1251 54.6604 46.6046 54.6732 49.9992H54.6805V92.1516C54.6805 92.2365 54.675 92.3214 54.6622 92.4036C54.569 93.9123 54.2439 95.1434 53.7553 96.1297C53.159 97.3334 52.3261 98.1818 51.3626 98.7325C51.2713 98.7965 51.1763 98.8512 51.0767 98.8969L46.2273 101.502L46.1725 101.527C45.2392 102.018 44.2136 102.221 43.1898 102.197C42.1135 102.162 41.0569 101.898 40.0902 101.424C39.9989 101.378 39.9112 101.327 39.8309 101.272L27.2051 93.9845L8.28691 83.0619L8.25769 83.0436H8.25586C5.2969 81.2719 3.27403 79.6281 1.94341 77.5321C0.585399 75.3951 0.0191783 72.9129 0.00730598 69.5183H0V29.7002C0 27.8518 0.228315 26.3303 0.624669 25.0955C1.0886 23.6489 1.79547 22.5813 2.65667 21.8215L2.65484 21.8206ZM5.52613 24.4508C5.41654 24.5111 5.31425 24.5786 5.22475 24.6499V24.6535C4.84575 24.9668 4.51241 25.4846 4.26401 26.2654C3.99003 27.1148 3.83477 28.2417 3.83477 29.6993V69.5219H3.82564C3.83477 72.1448 4.23021 73.9933 5.17726 75.4837C6.14988 77.018 7.77731 78.3075 10.2185 79.7669L10.2157 79.7696L29.1056 90.6758L41.7414 97.9709L41.7651 97.9837C42.2547 98.2211 42.7789 98.3645 43.2793 98.3764C43.683 98.3873 44.0739 98.3124 44.4118 98.1298L44.4136 98.1316L49.379 95.4649V95.4685L49.3973 95.4594C49.7516 95.2731 50.0731 94.9452 50.3251 94.4402C50.6009 93.8868 50.7863 93.1461 50.8457 92.1881L50.8439 92.1534V50.001H50.853C50.8439 47.3782 50.4484 45.5297 49.5014 44.0375C48.5287 42.505 46.9013 41.2137 44.4602 39.7543L44.462 39.7524L25.6717 28.9029L25.5658 28.8481L14.256 22.3183L14.2341 22.3065C13.561 21.9384 12.8404 21.6644 12.15 21.5649C11.6751 21.4964 11.2249 21.5083 10.8395 21.6316C10.7755 21.6608 10.7089 21.6864 10.6413 21.7083C10.6084 21.7247 10.5719 21.7421 10.5344 21.7631L10.5326 21.7594L10.5271 21.7631C10.4888 21.7832 10.4358 21.816 10.3719 21.8608C10.3052 21.9092 10.2349 21.9539 10.1618 21.9941L6.21929 24.1613V24.1595C6.10572 24.2226 5.9857 24.2735 5.8613 24.3111C5.74424 24.3465 5.63104 24.3936 5.52339 24.4517L5.52613 24.4508Z" fill="#9699A6"/>
<path fill-rule="evenodd" clip-rule="evenodd" d="M43.8983 97.1827L32.0031 90.315L13.0849 79.3924C7.68576 76.1595 5.78527 73.5202 5.76518 67.5055V27.681C5.76518 27.2654 5.77705 26.8709 5.80171 26.4965L4.01172 23.1759L9.24469 20.3155C9.49858 20.1375 9.76525 19.9941 10.0447 19.8863H10.0465C11.6228 19.2744 13.537 19.7402 15.158 20.6288L26.5254 27.1924L45.4435 38.115C50.8409 41.3461 52.7441 43.9845 52.7624 50.001V92.1543C52.6254 94.916 51.6044 96.4594 50.2829 97.1498L45.3166 99.8166L43.8956 97.1827H43.8983Z" fill="#F6F6F6"/>
<path fill-rule="evenodd" clip-rule="evenodd" d="M43.6116 97.4574L31.8096 90.6445L12.8942 79.7219L12.8869 79.7183C10.1352 78.0717 8.27127 76.5703 7.08312 74.6981C5.88858 72.8168 5.39177 70.5884 5.38172 67.5052H5.37989V27.6808C5.38 27.314 5.39036 26.9474 5.41094 26.5812L3.67301 23.3574L3.49219 23.0232L3.82644 22.8405L9.0375 19.9939C9.29748 19.8106 9.57867 19.6594 9.87495 19.5436L10.4293 19.2222V19.3656C11.085 19.2012 11.7782 19.1902 12.475 19.2907C13.454 19.4322 14.4422 19.8021 15.3399 20.2925L15.3472 20.2971L26.7154 26.8607L45.6336 37.7832L45.6391 37.7869C48.3916 39.4335 50.2556 40.9358 51.4428 42.808C52.6346 44.6893 53.1324 46.9158 53.1415 50.0008H53.1433V92.1541L53.1415 92.1724C53.0757 93.5313 52.7999 94.6144 52.3817 95.4565C51.9433 96.3423 51.347 96.9651 50.6647 97.3761V97.3807L50.4638 97.4903L45.4984 100.157L45.1633 100.335L44.9806 99.999L43.6135 97.4574H43.6116ZM32.1932 89.9824L44.0884 96.8501L44.2345 96.998L45.472 99.2976L49.8976 96.9213V96.9186L50.0547 96.8382L50.1004 96.8126L50.1067 96.809C50.7351 96.4802 51.2922 95.9304 51.6958 95.114C52.0684 94.3651 52.3132 93.3879 52.3771 92.1523V50.0008H52.3789C52.3698 47.0693 51.9059 44.9688 50.7953 43.2171C49.6784 41.4582 47.8948 40.0253 45.2464 38.4408L26.3337 27.5237H26.3319L14.9709 20.9647C14.149 20.5144 13.2494 20.1774 12.3654 20.0496C11.6056 19.94 10.8567 19.9829 10.1827 20.2432V20.245C9.92851 20.3429 9.68764 20.4723 9.46581 20.6304L9.42654 20.6523L4.52965 23.3282L6.13881 26.3145L6.18447 26.5209C6.15994 26.9071 6.14776 27.2939 6.14794 27.6808V67.508C6.15708 70.4377 6.6201 72.54 7.73154 74.288C8.84845 76.0488 10.6339 77.4817 13.2805 79.0644L32.1941 89.9833H32.1959L32.1932 89.9824Z" fill="#9699A6"/>
<path fill-rule="evenodd" clip-rule="evenodd" d="M40.9248 99.7052L28.152 92.3297L9.23383 81.4081C3.83373 78.1751 1.93415 75.5358 1.91406 69.5193V29.6993C1.91406 21.449 6.69954 21.4252 10.1517 23.3157L21.5181 29.8783L40.4371 40.8009C45.8345 44.032 47.7359 46.6714 47.7569 52.6879V94.8394C47.4793 100.405 43.6244 101.022 40.9257 99.7052H40.9248Z" fill="white"/>
<path fill-rule="evenodd" clip-rule="evenodd" d="M40.7375 100.037L27.9646 92.6622L9.04555 81.7396L9.04006 81.736C6.28842 80.0876 4.42445 78.5852 3.2363 76.7131C2.04268 74.8327 1.54404 72.6043 1.5349 69.5193H1.53125V29.6994C1.53125 27.2793 1.93765 25.5349 2.60342 24.3203C3.08014 23.4527 3.68745 22.85 4.3724 22.4646C5.05917 22.0792 5.81991 21.9111 6.60349 21.9111C7.85739 21.9111 9.17157 22.3404 10.336 22.9796L10.3424 22.9833L21.7097 29.5469H21.7134L40.6324 40.4695L40.6352 40.4722C43.3859 42.1188 45.2508 43.6229 46.4389 45.4933C47.6316 47.3746 48.1303 49.6011 48.1412 52.687V94.8586C48.0737 96.2011 47.8033 97.2742 47.396 98.1098C46.9257 99.0742 46.2709 99.7336 45.5193 100.145C44.7704 100.556 43.9357 100.711 43.0991 100.668C42.2864 100.621 41.4913 100.412 40.7612 100.051L40.7402 100.039L40.7375 100.037ZM28.3445 92.0001L41.0936 99.361H41.0955C41.7329 99.6715 42.4379 99.8678 43.1338 99.9025C43.8371 99.9391 44.5366 99.8112 45.154 99.4733C45.7686 99.139 46.3111 98.5874 46.7065 97.7783C47.0718 97.0294 47.3111 96.0641 47.375 94.8422V52.6861C47.3659 49.7546 46.902 47.6541 45.7914 45.9034C44.6754 44.1444 42.8909 42.7133 40.2479 41.1298L21.3271 30.2108L9.96611 23.6518V23.6536C8.90673 23.0728 7.71949 22.6819 6.60166 22.6819C5.94138 22.6819 5.30849 22.8189 4.74409 23.1358C4.17787 23.4555 3.67558 23.9577 3.27375 24.6884C2.66734 25.7952 2.29656 27.419 2.29656 29.7021V69.5221C2.30569 72.4536 2.76872 74.5541 3.87924 76.3076C4.99524 78.0647 6.78066 79.4967 9.4282 81.0821L28.3418 92.0001H28.3445Z" fill="#9699A6"/>
<path fill-rule="evenodd" clip-rule="evenodd" d="M32.6297 42.4263C34.0909 43.2757 35.0882 45.4492 34.8553 47.2785C34.6233 49.105 33.2507 49.8995 31.7895 49.0502C30.3283 48.2009 29.3328 46.0273 29.5648 44.2008C29.7968 42.3679 31.1694 41.5734 32.6306 42.4245L32.6297 42.4263Z" fill="#0755E9"/>
<path fill-rule="evenodd" clip-rule="evenodd" d="M39.4569 46.3984C40.9181 47.2477 41.9136 49.4213 41.6816 51.2506C41.4515 53.0807 40.0788 53.8734 38.6176 53.025C37.1564 52.1757 36.161 50.0021 36.3929 48.1738C36.624 46.3436 37.9966 45.55 39.4578 46.4002L39.4569 46.3984Z" fill="#0755E9"/>
<path fill-rule="evenodd" clip-rule="evenodd" d="M25.6658 38.3758C27.127 39.2251 28.1224 41.3987 27.8905 43.2279C27.6585 45.0572 26.285 45.8517 24.8247 44.9996C23.3634 44.1503 22.368 41.9768 22.6 40.1484C22.8319 38.3201 24.2073 37.5274 25.6685 38.3767L25.6658 38.3758Z" fill="#0755E9"/>
<path fill-rule="evenodd" clip-rule="evenodd" d="M47.5685 64.6149L1.72656 38.1468L2.1083 37.4856L47.9502 63.9537L47.5685 64.6149Z" fill="#9699A6"/>
<path fill-rule="evenodd" clip-rule="evenodd" d="M47.5664 63.9503L53.6149 60.4937L53.9948 61.1567L47.9454 64.6143L47.5664 63.9503Z" fill="#9699A6"/>
</svg>
