<svg width="70" height="70" viewBox="0 0 70 70" fill="none" xmlns="http://www.w3.org/2000/svg">
<path d="M64.94 32.2291L37.7722 5.06357C37.4 4.69117 36.9581 4.39576 36.4717 4.19421C35.9854 3.99266 35.464 3.88892 34.9376 3.88892C34.4111 3.88892 33.8898 3.99266 33.4034 4.19421C32.917 4.39576 32.4751 4.69117 32.103 5.06357L26.4635 10.7056L33.6184 17.8605C34.4596 17.5748 35.364 17.5302 36.2292 17.7317C37.0944 17.9332 37.886 18.3728 38.5144 19.0008C39.1462 19.6333 39.5873 20.4309 39.7872 21.3023C39.987 22.1737 39.9376 23.0838 39.6445 23.9285L46.5428 30.8246C47.3877 30.5312 48.2982 30.4818 49.1698 30.682C50.0415 30.8823 50.8391 31.3241 51.4712 31.9568C51.914 32.3995 52.2652 32.9251 52.5049 33.5035C52.7445 34.082 52.8678 34.702 52.8678 35.3281C52.8678 35.9542 52.7445 36.5742 52.5049 37.1526C52.2652 37.731 51.914 38.2566 51.4712 38.6993C50.5761 39.5935 49.3625 40.0958 48.0973 40.0958C46.832 40.0958 45.6184 39.5935 44.7233 38.6993C44.0583 38.0332 43.6052 37.1853 43.4211 36.2623C43.237 35.3393 43.33 34.3825 43.6886 33.5123L37.2555 27.0813V44.0082C37.9345 44.3436 38.5238 44.836 38.9747 45.4445C39.4255 46.053 39.7249 46.7602 39.848 47.5074C39.9711 48.2547 39.9144 49.0205 39.6826 49.7415C39.4508 50.4624 39.0505 51.1178 38.515 51.6533C38.0723 52.0961 37.5468 52.4473 36.9683 52.6869C36.3899 52.9266 35.7699 53.0499 35.1438 53.0499C34.5176 53.0499 33.8977 52.9266 33.3192 52.6869C32.7408 52.4473 32.2152 52.0961 31.7725 51.6533C31.3296 51.2106 30.9783 50.685 30.7386 50.1065C30.4989 49.528 30.3755 48.9079 30.3755 48.2817C30.3755 47.6555 30.4989 47.0355 30.7386 46.457C30.9783 45.8785 31.3296 45.3529 31.7725 44.9102C32.2186 44.4632 32.7489 44.109 33.3327 43.868V26.7854C32.7513 26.5459 32.2229 26.1939 31.778 25.7497C31.333 25.3054 30.9802 24.7776 30.7398 24.1965C30.4995 23.6155 30.3763 22.9927 30.3773 22.3639C30.3783 21.7351 30.5036 21.1128 30.7459 20.5325L23.6912 13.4766L5.06104 32.1018C4.31031 32.854 3.88867 33.8733 3.88867 34.936C3.88867 35.9987 4.31031 37.018 5.06104 37.7702L32.2303 64.9391C32.9824 65.6896 34.0016 66.1111 35.0642 66.1111C36.1268 66.1111 37.146 65.6896 37.8981 64.9391L64.94 37.8975C65.6908 37.1453 66.1124 36.126 66.1124 35.0633C66.1124 34.0006 65.6908 32.9813 64.94 32.2291Z" fill="#F03C2E"/>
</svg>
