<svg width="70" height="70" viewBox="0 0 70 70" fill="none" xmlns="http://www.w3.org/2000/svg">
<path d="M58.1109 3.11108H11.8887C7.47039 3.11108 3.88867 6.69281 3.88867 11.1111V57.3333C3.88867 61.7516 7.4704 65.3333 11.8887 65.3333H58.1109C62.5292 65.3333 66.1109 61.7516 66.1109 57.3333V11.1111C66.1109 6.69281 62.5292 3.11108 58.1109 3.11108Z" fill="url(#paint0_linear_606_11485)"/>
<path d="M24.2335 51.3333L29.7335 46.4444L24.2335 41.5555V51.3333ZM44.0335 31.5333C43.0558 30.5555 41.2224 29.3333 38.1669 29.3333C34.8669 29.3333 31.4447 30.1889 29.0002 31.0444V17.1111H24.1113V38.2555L27.5335 36.6666C27.5335 36.6666 33.1558 34.1 38.0447 34.1C40.4891 34.1 41.1002 35.4444 41.1002 36.6666V51.3333H45.9891V36.6666C46.1113 36.3 46.1113 33.6111 44.0335 31.5333ZM37.5558 25.0555H42.4447C44.6447 22.4889 45.7447 19.9222 46.1113 17.1111H41.2224C40.7336 19.9222 39.5113 22.4889 37.5558 25.0555Z" fill="white"/>
<defs>
<linearGradient id="paint0_linear_606_11485" x1="66.1109" y1="3.11108" x2="3.88867" y2="60.6666" gradientUnits="userSpaceOnUse">
<stop stop-color="#4640B8"/>
<stop offset="1" stop-color="#520F95"/>
</linearGradient>
</defs>
</svg>
