<svg width="90" height="101" viewBox="0 0 90 101" fill="none" xmlns="http://www.w3.org/2000/svg">
<path fill-rule="evenodd" clip-rule="evenodd" d="M58.2125 42.2158V42.2176L58.3331 42.476C58.4847 42.8651 58.5522 43.3254 58.5541 43.9007V55.6087C58.5267 57.2617 58.176 58.0434 56.8061 58.8389L51.6462 61.8198L46.6671 64.6965C45.9155 65.113 45.3246 65.3376 44.7383 65.345V49.8561L58.2107 42.2148L58.2125 42.2158Z" fill="#EAF2F7"/>
<path fill-rule="evenodd" clip-rule="evenodd" d="M58.5542 42.0395H58.556C58.5606 42.0522 58.5669 42.0632 58.5724 42.076L58.6838 42.318L58.693 42.3381C58.7829 42.5717 58.8466 42.8146 58.8829 43.0623C58.9213 43.3107 58.9377 43.5893 58.9405 43.9025H58.9423V55.6105C58.9423 55.6224 58.9405 55.6379 58.9386 55.6516C58.9249 56.5192 58.8172 57.1722 58.5277 57.7247C58.229 58.2973 57.7514 58.7384 57.0044 59.1749L51.8444 62.154C51.8366 62.1568 51.8292 62.1608 51.8225 62.1659L46.8617 65.0271L46.8571 65.0317C46.5113 65.2326 46.1482 65.4023 45.7722 65.5385C45.444 65.6581 45.0985 65.7228 44.7493 65.7303C44.6993 65.7314 44.6495 65.7225 44.6028 65.7043C44.5562 65.686 44.5136 65.6587 44.4776 65.6238C44.4416 65.589 44.4129 65.5474 44.393 65.5014C44.3732 65.4554 44.3627 65.406 44.3621 65.3559V65.3486H44.3594V49.8597C44.3594 49.7063 44.4507 49.5738 44.5813 49.5127L58.0245 41.8842C58.1128 41.8341 58.2174 41.821 58.3153 41.8479C58.4132 41.8748 58.4965 41.9394 58.5469 42.0276L58.5514 42.0367L58.5542 42.0395ZM58.5724 42.076L58.5669 42.371C58.6069 42.277 58.6083 42.171 58.5706 42.076H58.5724ZM58.1249 43.1765C58.1033 43.0362 58.0718 42.8977 58.0309 42.7618L45.1283 50.0834V64.9257C45.2562 64.8983 45.3868 64.8618 45.521 64.8161C45.8133 64.7129 46.1302 64.5622 46.4854 64.3641H46.4873L51.4408 61.5037L51.4591 61.491L56.619 58.511C57.24 58.1503 57.6254 57.8023 57.85 57.3694C58.0784 56.9347 58.1624 56.3858 58.1752 55.6342V43.9025H58.177C58.1764 43.6602 58.1593 43.4183 58.1258 43.1783L58.1249 43.1765Z" fill="#0755E9"/>
<path fill-rule="evenodd" clip-rule="evenodd" d="M47.3642 34.099L57.2 39.7776L57.2183 39.7886C58.2165 40.384 58.8229 40.9192 59.2128 41.6425C59.6019 42.3658 59.7078 43.1466 59.7078 44.2508V55.6099C59.7078 55.651 59.7042 55.6921 59.7014 55.7314C59.674 56.8364 59.5124 57.6017 59.0896 58.2812C58.664 58.9752 58.0375 59.4565 57.0776 60.01L47.2418 65.6904L47.2263 65.6977L47.2281 65.6996C46.2144 66.2631 45.4473 66.5215 44.6281 66.4968C43.8107 66.4722 43.0801 66.1736 42.123 65.6201L32.2872 59.9397L32.269 59.9305C31.2708 59.3369 30.6635 58.7981 30.2744 58.0766C29.8872 57.3551 29.7812 56.5725 29.7812 55.4692V44.1092C29.7812 44.0681 29.784 44.027 29.7876 43.9868C29.815 42.8836 29.9767 42.1165 30.3959 41.437C30.8251 40.7457 31.4516 40.2635 32.4105 39.7091L42.2463 34.0287L42.2618 34.0223C43.2737 33.4579 44.0409 33.2003 44.861 33.225C45.6774 33.2497 46.408 33.5492 47.3651 34.1017L47.3642 34.099ZM56.0402 41.7539L46.2226 36.0844C45.5925 35.7191 45.1587 35.5246 44.798 35.5127C44.44 35.5036 44.0126 35.668 43.3733 36.0241V36.0205L33.5521 41.6918C32.9219 42.0571 32.5356 42.3338 32.3466 42.6416C32.1676 42.9302 32.0936 43.3558 32.0781 44.0316C32.0799 44.0572 32.0808 44.0827 32.0808 44.1092V55.4665C32.0808 56.1971 32.1265 56.672 32.2936 56.9871C32.4635 57.3003 32.8188 57.5898 33.4443 57.9624L43.2619 63.6338C43.8938 63.9963 44.3276 64.1936 44.6884 64.2037C45.0445 64.2164 45.4738 64.0484 46.1112 63.6941L55.9342 58.0245C56.5644 57.6611 56.948 57.3834 57.1397 57.0766C57.3187 56.788 57.3909 56.3624 57.4073 55.6866C57.4052 55.6611 57.404 55.6355 57.4037 55.6099V44.2508C57.4037 43.5202 57.358 43.0453 57.1881 42.7302C57.0183 42.416 56.663 42.1302 56.0374 41.7548V41.7521L56.0402 41.7539Z" fill="#0755E9"/>
<path fill-rule="evenodd" clip-rule="evenodd" d="M31.5476 41.7468L44.9406 49.5296L44.557 50.1899L31.1641 42.4062L31.5476 41.7468Z" fill="#0755E9"/>
<path fill-rule="evenodd" clip-rule="evenodd" d="M10.3252 53.9209L23.983 45.8349L37.3075 54.3227L36.8947 69.7997L23.7191 77.1926L10.2695 69.3869L10.328 53.9218L10.3252 53.9209ZM65.2541 46.244L52.1963 53.9209L52.0374 69.1842L65.5884 77.1935L79.1749 69.0627L79.058 54.0625L65.7975 46.2212L65.2541 46.2422V46.244ZM31.3247 32.9762L44.7432 40.7298L58.2686 32.7589L57.97 17.2243L44.4957 9.76758L31.164 17.8636L31.3238 32.9762H31.3247Z" fill="white"/>
<path fill-rule="evenodd" clip-rule="evenodd" d="M20.6703 47.348C20.6703 47.5006 20.6097 47.647 20.5018 47.7549C20.3939 47.8628 20.2475 47.9234 20.0949 47.9234C19.9424 47.9234 19.796 47.8628 19.6881 47.7549C19.5802 47.647 19.5196 47.5006 19.5196 47.348V39.0145C19.5196 38.9935 19.5196 38.9734 19.5223 38.9533C19.5497 37.4145 19.736 36.2647 20.2465 35.2894C20.7689 34.2884 21.6046 33.514 22.9242 32.7468L30.8376 28.1787C30.9029 28.1409 30.9749 28.1164 31.0496 28.1064C31.1244 28.0965 31.2003 28.1014 31.2732 28.1208C31.346 28.1402 31.4143 28.1738 31.4742 28.2196C31.5341 28.2654 31.5843 28.3226 31.6221 28.3879C31.6599 28.4531 31.6844 28.5251 31.6944 28.5999C31.7043 28.6746 31.6994 28.7506 31.68 28.8234C31.6606 28.8963 31.627 28.9646 31.5812 29.0244C31.5354 29.0843 31.4782 29.1346 31.413 29.1723L23.4996 33.7386C22.3763 34.3944 21.6749 35.0263 21.2603 35.819C20.8456 36.6136 20.6913 37.609 20.6666 38.9744L20.6694 39.0154V47.3489L20.6703 47.348Z" fill="#0755E9"/>
<path fill-rule="evenodd" clip-rule="evenodd" d="M50.6037 1.81923L67.1738 11.3856L67.1921 11.3984L83.1778 20.6251L83.1842 20.6287C85.5194 22.026 87.1021 23.3027 88.114 24.8955C89.1304 26.4955 89.5551 28.3896 89.5624 31.0143V68.688C89.5167 71.3913 89.2007 73.3913 88.3295 75.0562C87.45 76.7366 86.0226 78.0517 83.7586 79.3704C83.7508 79.373 83.7434 79.3767 83.7367 79.3814L67.1729 88.9432V88.946L51.1662 98.1863L51.1462 98.1973C48.7753 99.516 46.8812 100.246 44.9999 100.325C43.1031 100.404 41.251 99.8247 38.9788 98.5242L38.9605 98.5114L22.3913 88.945L22.373 88.9332L6.38642 79.702H6.38094C4.04574 78.3047 2.46215 77.0298 1.45208 75.437C0.433798 73.837 0.00913289 71.9429 0.00182682 69.3182H0V31.6846C0 31.6709 1.70533e-07 31.6572 0.00365321 31.6435C0.0465764 28.9421 0.361651 26.9421 1.2329 25.2763C2.11237 23.5941 3.53979 22.2808 5.80376 20.962L5.82659 20.9529L22.3931 11.3874L38.3989 2.14526L38.4035 2.14252C40.7816 0.818297 42.6775 0.0876892 44.5661 0.00732245C46.462 -0.0730443 48.3141 0.506875 50.5863 1.80918L50.6046 1.82014L50.6037 1.81923ZM66.7903 12.0477L50.2201 2.48134L50.2055 2.47221C48.0593 1.24388 46.3333 0.697746 44.5944 0.769894C42.8465 0.845694 41.0492 1.54616 38.7751 2.81194L22.7721 12.0477L6.20742 21.6132L6.18916 21.6251C4.05213 22.8671 2.71603 24.0881 1.90871 25.6315C1.10139 27.1768 0.808234 29.0727 0.765311 31.659C0.766836 31.6681 0.767448 31.6773 0.767138 31.6864V69.3182H0.765311C0.774444 71.7886 1.16258 73.5557 2.09867 75.0261C3.03659 76.5074 4.53981 77.7129 6.77273 79.048V79.0499L22.7529 88.2738L22.7739 88.2875L39.3432 97.8557L39.3596 97.863C41.504 99.0913 43.23 99.6402 44.9698 99.5681C46.7178 99.495 48.5132 98.7964 50.7808 97.5342L50.7854 97.5315L66.7921 88.2893H66.7939L83.3604 78.7257L83.3787 78.7138C85.513 77.4699 86.8518 76.2498 87.6573 74.7073C88.4656 73.1621 88.7587 71.2644 88.8026 68.6798C88.8007 68.6707 88.8007 68.6616 88.8007 68.6524V31.0161H88.8026C88.7934 28.5467 88.4044 26.7786 87.471 25.3082C86.5304 23.8288 85.0271 22.6233 82.7951 21.2863L66.8131 12.0596L66.793 12.0477H66.7903Z" fill="#9699A6"/>
<path fill-rule="evenodd" clip-rule="evenodd" d="M79.0574 54.0624H79.0593L79.178 54.3227C79.3287 54.7127 79.3972 55.172 79.3999 55.7456V67.4554C79.3725 69.1111 79.0218 69.892 77.6528 70.6883L72.4929 73.6674L67.5129 76.5423C66.7622 76.9606 66.1722 77.1843 65.5859 77.1925V61.7055L79.0565 54.0615L79.0574 54.0624Z" fill="#F6F6F6"/>
<path fill-rule="evenodd" clip-rule="evenodd" d="M79.3982 53.8843H79.4L79.4091 53.9026L79.5278 54.162L79.5388 54.1894C79.6256 54.4104 79.6849 54.6487 79.726 54.9081C79.7644 55.1574 79.7845 55.4351 79.7845 55.7483H79.7872V67.4983C79.7689 68.3659 79.6621 69.018 79.3726 69.5714C79.073 70.1431 78.5981 70.5851 77.8493 71.0207L72.6894 73.9998L72.6665 74.0107L67.7075 76.8729L67.703 76.8784C67.3103 77.0976 66.9541 77.2693 66.618 77.3843C66.2903 77.5031 65.9455 77.5679 65.597 77.5761C65.5468 77.5771 65.4968 77.5681 65.4501 77.5497C65.4033 77.5313 65.3607 77.5038 65.3246 77.4688C65.2885 77.4338 65.2597 77.392 65.2398 77.3459C65.22 77.2997 65.2094 77.2501 65.2089 77.1998V77.1944H65.207V61.7055C65.207 61.5521 65.2984 61.4187 65.429 61.3566L78.8721 53.7291C78.916 53.7042 78.9643 53.6881 79.0143 53.6819C79.0643 53.6757 79.1151 53.6794 79.1637 53.6928C79.2123 53.7062 79.2578 53.729 79.2975 53.76C79.3373 53.791 79.3706 53.8295 79.3954 53.8734L79.4009 53.8825L79.3982 53.8843ZM78.9689 55.0204C78.9473 54.8807 78.9156 54.7428 78.874 54.6076L65.9714 61.9265V76.7706C66.0993 76.7432 66.2299 76.7067 66.3641 76.661C66.6982 76.5374 67.0214 76.3862 67.3304 76.209L72.2857 73.3486L72.304 73.3358L77.4639 70.355C78.0849 69.9951 78.4685 69.6472 78.694 69.2134C78.9224 68.7796 79.0045 68.2316 79.0201 67.4782C79.0182 67.4709 79.0182 67.4627 79.0182 67.4535V55.7447H79.0201C79.0201 55.4825 79.0018 55.2424 78.9689 55.0195V55.0204Z" fill="#9699A6"/>
<path fill-rule="evenodd" clip-rule="evenodd" d="M68.0618 45.8616L78.0438 51.6243L78.062 51.6353V51.6334C78.9406 52.1567 79.5415 52.6471 79.9543 53.3202C80.3799 54.0125 80.5516 54.7869 80.5516 55.8545V67.4556C80.5516 67.4967 80.5497 67.5378 80.5443 67.5762C80.5224 68.5506 80.3945 69.2867 80.0356 69.9534C79.652 70.6657 79.063 71.1991 78.136 71.7343L78.0721 71.7708L68.0847 77.5335L68.0719 77.5426L68.0737 77.5444C67.1806 78.0412 66.4554 78.317 65.6655 78.3389C64.8645 78.3618 64.1074 78.1216 63.1787 77.5846L53.1328 71.7854L53.1164 71.7763H53.1136C52.2369 71.253 51.6369 70.7626 51.2232 70.0931C50.7967 69.4009 50.625 68.6246 50.625 67.5561V55.9577C50.625 55.9157 50.6296 55.8755 50.6341 55.8317C50.657 54.8609 50.7848 54.1239 51.1428 53.4572C51.5236 52.7503 52.1136 52.2133 53.047 51.6764L63.0928 45.8772L63.1065 45.868C63.9997 45.3694 64.723 45.0945 65.5129 45.0735C66.3184 45.0488 67.0746 45.2899 68.0061 45.826C68.0244 45.8388 68.0454 45.8507 68.0637 45.8625L68.0618 45.8616ZM76.8876 53.6015L66.9194 47.8443C66.8965 47.8352 66.8764 47.8224 66.8554 47.8105C66.3093 47.4936 65.9166 47.3512 65.5769 47.3603C65.218 47.3694 64.796 47.5475 64.2216 47.8672H64.2198L54.1867 53.6572C53.6461 53.9714 53.3282 54.2371 53.1657 54.5431C53.0013 54.8463 52.9374 55.2709 52.9246 55.8764C52.9264 55.9011 52.9273 55.9267 52.9273 55.9531V67.5515C52.9273 68.1862 53.0004 68.5981 53.1739 68.8849C53.3639 69.1899 53.7273 69.4694 54.2936 69.8073L64.3211 75.5973C64.8691 75.9124 65.2591 76.0567 65.6034 76.0448C65.9632 76.0357 66.3851 75.8604 66.9614 75.538V75.5407L76.9305 69.7872C76.9494 69.7733 76.9689 69.7602 76.989 69.7479C77.5369 69.4347 77.8566 69.1653 78.0173 68.8675C78.1817 68.5616 78.2429 68.1369 78.2584 67.5324C78.2566 67.505 78.2547 67.4812 78.2547 67.4547V55.8527C78.2547 55.218 78.1844 54.8079 78.0082 54.5221C77.8191 54.2134 77.4575 53.9376 76.8903 53.5997L76.8876 53.6015Z" fill="#9699A6"/>
<path fill-rule="evenodd" clip-rule="evenodd" d="M52.3884 53.5913L65.7813 61.375L65.3978 62.0362L52.0039 54.2525L52.3884 53.5913Z" fill="#9699A6"/>
<path fill-rule="evenodd" clip-rule="evenodd" d="M58.2125 17.5973V17.5991L58.3331 17.8548C58.4847 18.2475 58.5522 18.7042 58.5541 19.2795V30.9875C58.5267 32.6441 58.176 33.4259 56.8061 34.2204L51.6462 37.2013L46.6671 40.0762C45.9155 40.4936 45.3246 40.7173 44.7383 40.7265V25.2376L58.2107 17.5955L58.2125 17.5973Z" fill="#F6F6F6"/>
<path fill-rule="evenodd" clip-rule="evenodd" d="M58.5542 17.4197H58.556L58.5651 17.4379L58.6838 17.6973C58.6875 17.7064 58.693 17.7156 58.6957 17.7247C58.7806 17.9457 58.8418 18.1841 58.8829 18.4434C58.9213 18.6918 58.9377 18.9695 58.9405 19.2818H58.9423V30.9925C58.9423 31.0062 58.9405 31.0199 58.9386 31.0336C58.9249 31.903 58.8172 32.5542 58.5277 33.1085C58.229 33.6784 57.7514 34.1195 57.0044 34.5561L51.8444 37.5351L51.8216 37.547L46.8626 40.41L46.8571 40.4128C46.4644 40.632 46.1083 40.8018 45.7722 40.9187C45.444 41.0384 45.0985 41.1038 44.7493 41.1123C44.6991 41.1132 44.6492 41.1041 44.6025 41.0857C44.5558 41.0672 44.5133 41.0397 44.4772 41.0047C44.4411 40.9698 44.4123 40.9281 44.3924 40.882C44.3725 40.8359 44.3619 40.7863 44.3612 40.7361V40.7297H44.3594V25.2408C44.3594 25.0874 44.4507 24.955 44.5813 24.8938L58.0245 17.2653C58.1129 17.2153 58.2176 17.2024 58.3155 17.2294C58.4134 17.2565 58.4966 17.3213 58.5469 17.4096L58.5514 17.4206L58.5542 17.4197ZM58.1249 18.5567C58.1033 18.4164 58.0718 18.2779 58.0309 18.1421L45.1283 25.4618V40.3041C45.2562 40.2794 45.3841 40.2429 45.521 40.1945C45.855 40.0729 46.1778 39.9222 46.4854 39.7443H46.4873L51.4408 36.8858L51.4591 36.873L56.619 33.893C57.24 33.5323 57.6254 33.1843 57.85 32.7515C58.0784 32.3177 58.1624 31.7688 58.1752 31.0163V19.2827H58.177C58.1763 19.0404 58.1592 18.7985 58.1258 18.5585L58.1249 18.5567Z" fill="#9699A6"/>
<path fill-rule="evenodd" clip-rule="evenodd" d="M47.1825 9.37433L57.2037 15.1589L57.2201 15.168H57.2219C58.0786 15.6813 58.6768 16.1635 59.0941 16.8274C59.5279 17.5096 59.7106 18.285 59.7106 19.348V30.9884C59.7106 31.0295 59.7069 31.0706 59.7042 31.1099C59.6813 32.0597 59.5581 32.7921 59.2074 33.457C58.8329 34.1693 58.2521 34.7145 57.3306 35.247L47.2482 41.069L47.1861 41.1009C46.3332 41.5722 45.6245 41.8407 44.8573 41.8717C44.0555 41.9019 43.2929 41.6726 42.3705 41.1393L42.3678 41.1375V41.1393L32.2854 35.3173C32.2667 35.3071 32.2484 35.2962 32.2306 35.2844C31.3941 34.7803 30.8059 34.3008 30.395 33.6515C29.9657 32.9665 29.7812 32.1903 29.7812 31.1309V19.4905C29.7812 19.4476 29.784 19.4083 29.7876 19.3663C29.8114 18.4165 29.9338 17.6859 30.2808 17.0192C30.6552 16.3105 31.237 15.7653 32.1639 15.2311L42.2463 9.40994L42.2609 9.40081C43.1313 8.91496 43.85 8.63733 44.6308 8.60628C45.4372 8.57522 46.1998 8.80537 47.1222 9.33688L47.1807 9.37341L47.1825 9.37433ZM56.0438 17.1352L46.0373 11.3598L45.9733 11.325C45.4455 11.0209 45.0601 10.8867 44.7222 10.9004C44.3632 10.9141 43.9404 11.0922 43.376 11.4063L33.3055 17.2165C32.7822 17.5197 32.4744 17.7864 32.3165 18.0896C32.1539 18.3964 32.0945 18.8202 32.0808 19.4138C32.0827 19.4375 32.0836 19.4631 32.0836 19.4896V31.1336C32.0836 31.7455 32.1566 32.1474 32.3365 32.4305C32.5238 32.7273 32.8754 32.9967 33.4078 33.3191L33.4352 33.3328L43.5176 39.153L43.5157 39.1557C44.0427 39.4598 44.4272 39.5922 44.7687 39.5794C45.1203 39.5648 45.5313 39.395 46.0747 39.0954L46.0966 39.0817L56.1817 33.2597C56.7096 32.9547 57.0192 32.6871 57.1772 32.3884C57.337 32.0816 57.3964 31.6578 57.411 31.0642C57.4092 31.0387 57.4073 31.0131 57.4073 30.9875V19.3444C57.4073 18.7297 57.3306 18.3307 57.1516 18.0475C56.9598 17.7407 56.5945 17.4649 56.0411 17.1343L56.0438 17.1352Z" fill="#9699A6"/>
<path fill-rule="evenodd" clip-rule="evenodd" d="M31.5476 17.1282L44.9406 24.911L44.557 25.5722L31.1641 17.7866L31.5476 17.1282Z" fill="#9699A6"/>
<path fill-rule="evenodd" clip-rule="evenodd" d="M37.1902 54.0624L37.309 54.3227C37.4642 54.7127 37.5318 55.172 37.5327 55.7456V67.4554C37.5071 69.1111 37.1546 69.892 35.7856 70.6883L30.6257 73.6674L25.6457 76.5423C24.8932 76.9606 24.3032 77.1843 23.7188 77.1925V61.7055L37.1893 54.0615L37.1902 54.0624Z" fill="#F6F6F6"/>
<path fill-rule="evenodd" clip-rule="evenodd" d="M37.528 53.8837L37.5371 53.902L37.6558 54.1614L37.6668 54.1887C37.7536 54.4098 37.8157 54.6481 37.8558 54.9075C37.8924 55.1568 37.9134 55.4344 37.9134 55.7477H37.917V67.4557C37.9166 67.4697 37.9154 67.4838 37.9134 67.4977C37.8979 68.3653 37.791 69.0173 37.5024 69.5708C37.2029 70.1425 36.7261 70.5845 35.9773 71.0201L30.8174 73.9992L30.7945 74.0101L25.8355 76.8723L25.8319 76.8778C25.4853 77.0781 25.1216 77.2474 24.7451 77.3837C24.3935 77.5052 24.0602 77.5718 23.7259 77.5755C23.6757 77.5766 23.6258 77.5677 23.579 77.5495C23.5322 77.5313 23.4894 77.504 23.4532 77.4692C23.417 77.4344 23.388 77.3928 23.3679 77.3468C23.3477 77.3008 23.3369 77.2513 23.3359 77.201V61.704C23.3359 61.5505 23.4273 61.4172 23.5579 61.3551L37.001 53.7294C37.045 53.7045 37.0934 53.6886 37.1435 53.6825C37.1936 53.6764 37.2444 53.6802 37.293 53.6938C37.3416 53.7074 37.3871 53.7304 37.4268 53.7616C37.4665 53.7928 37.4996 53.8315 37.5243 53.8755L37.5289 53.8846H37.5316L37.528 53.8837ZM37.0969 55.0198C37.0763 54.8801 37.0452 54.7421 37.0038 54.607L24.0994 61.9259V76.77C24.2273 76.7426 24.3579 76.7061 24.4921 76.6604C24.7844 76.5572 25.1013 76.4065 25.4584 76.2083L30.4137 73.348L30.432 73.3352L35.5919 70.3543C36.2129 69.9945 36.5965 69.6466 36.8229 69.2128C37.0513 68.779 37.1353 68.231 37.1481 67.4776L37.1462 67.4529V55.744H37.1481C37.1481 55.4819 37.1316 55.2417 37.0969 55.0189V55.0198Z" fill="#9699A6"/>
<path fill-rule="evenodd" clip-rule="evenodd" d="M26.2839 45.9114L36.1791 51.6247C36.1973 51.6339 36.2156 51.6457 36.2339 51.6585C37.1745 52.2247 37.7681 52.7426 38.1608 53.4449C38.559 54.1572 38.6814 54.9353 38.6814 56.0294V67.4542C38.6814 67.4944 38.6787 67.5364 38.6741 67.573C38.6485 68.6442 38.4969 69.4031 38.0933 70.079C37.6786 70.7776 37.0649 71.2753 36.1151 71.8233L26.22 77.5339C26.1999 77.5467 26.1789 77.5567 26.1579 77.5677C25.199 78.0974 24.4547 78.3531 23.6556 78.3403C22.8382 78.3275 22.1003 78.0435 21.1505 77.4946C21.1277 77.4837 21.1085 77.47 21.0866 77.4581L11.2599 71.7867L11.2416 71.7776C10.2781 71.1986 9.67082 70.6771 9.27446 69.9666C8.87537 69.2525 8.75391 68.4744 8.75391 67.3794V55.9545C8.75391 55.9134 8.75391 55.8723 8.7603 55.8312C8.78496 54.7663 8.93747 54.0065 9.34113 53.3289C9.75575 52.633 10.3695 52.1362 11.3193 51.5882C11.3393 51.5754 11.3622 51.5645 11.3832 51.5535L21.219 45.8758L21.2308 45.8666C22.2099 45.3187 22.966 45.0575 23.7761 45.0684C24.5889 45.0803 25.3268 45.3653 26.2784 45.9132L26.2812 45.9169V45.9141L26.2839 45.9114ZM35.0293 53.6102L25.135 47.8968H25.1369C24.5277 47.5452 24.1085 47.3644 23.7533 47.358C23.3971 47.3534 22.9697 47.5224 22.3469 47.8694V47.8676L12.5293 53.5334C12.5111 53.5471 12.491 53.5608 12.4718 53.5718C11.8599 53.9252 11.4909 54.2001 11.3083 54.5051C11.1348 54.7956 11.0654 55.2202 11.0508 55.8787C11.0535 55.9043 11.0535 55.928 11.0535 55.9545V67.3775C11.0535 68.0862 11.1083 68.5438 11.2782 68.8515C11.4517 69.1575 11.8078 69.4406 12.4197 69.8077H12.417L22.2345 75.4754C22.2555 75.4845 22.2774 75.4955 22.2984 75.5092C22.9085 75.8617 23.3286 76.0444 23.6811 76.0498C24.0309 76.0535 24.4455 75.8946 25.0464 75.5603L25.0684 75.5485L34.9599 69.8388C35.5718 69.4826 35.9398 69.2086 36.1215 68.9027C36.2969 68.6104 36.3654 68.1867 36.38 67.53C36.3782 67.5045 36.3782 67.4798 36.3782 67.4533V56.0303C36.3782 55.3207 36.3234 54.8659 36.1544 54.5599C35.9855 54.2558 35.6393 53.98 35.0512 53.6239L35.0275 53.6111L35.0293 53.6102Z" fill="#9699A6"/>
<path fill-rule="evenodd" clip-rule="evenodd" d="M10.5175 53.5913L23.9087 61.3741L23.5251 62.0353L10.1367 54.2525L10.5175 53.5913Z" fill="#9699A6"/>
<path fill-rule="evenodd" clip-rule="evenodd" d="M59.9884 68.3064C60.2623 68.1493 60.613 68.2443 60.7701 68.5165C60.9272 68.7886 60.8313 69.143 60.5573 69.3L48.4813 76.2718L48.4749 76.2764C47.105 77.0372 46.0036 77.4591 44.8904 77.5057C43.7634 77.5513 42.6757 77.2162 41.3524 76.4582L41.3086 76.4308L32.1394 71.1339L27.9531 68.7201C27.8857 68.6838 27.8263 68.6343 27.7784 68.5746C27.7305 68.5149 27.695 68.4462 27.6741 68.3725C27.6532 68.2989 27.6473 68.2218 27.6567 68.1458C27.6661 68.0698 27.6906 67.9965 27.7289 67.9302C27.7671 67.8639 27.8182 67.8059 27.8793 67.7597C27.9403 67.7135 28.01 67.68 28.0842 67.6611C28.1584 67.6423 28.2356 67.6386 28.3113 67.6501C28.3869 67.6616 28.4595 67.6882 28.5248 67.7283L32.7075 70.1439L41.8821 75.439L41.9214 75.4609C43.0538 76.1075 43.9534 76.397 44.8438 76.3604C45.7525 76.3221 46.7032 75.9476 47.9178 75.2718V75.2746L59.9865 68.3064H59.9884Z" fill="#0755E9"/>
<path fill-rule="evenodd" clip-rule="evenodd" d="M53.0592 26.2607C52.7852 26.1027 52.6921 25.7511 52.851 25.4771C53.0099 25.2032 53.3606 25.1091 53.6364 25.2671L57.3716 27.4251L57.4017 27.4434L61.5525 29.8407H61.5562L66.2622 32.5585L66.2896 32.5741C67.6229 33.375 68.5362 34.1147 69.1298 35.049C69.7326 35.9988 69.9828 37.1102 69.9883 38.6399V54.1105C69.9883 54.2631 69.9277 54.4095 69.8198 54.5174C69.7119 54.6253 69.5655 54.6859 69.4129 54.6859C69.2603 54.6859 69.114 54.6253 69.0061 54.5174C68.8982 54.4095 68.8376 54.2631 68.8376 54.1105V38.6418H68.8403C68.8357 37.3449 68.6366 36.4225 68.1572 35.6645C67.6732 34.9011 66.8786 34.2673 65.6969 33.5577L65.6877 33.5522L60.9781 30.8334H60.9799L56.8273 28.4352C56.8158 28.4308 56.8048 28.4253 56.7944 28.4187L53.0574 26.2607H53.0592Z" fill="#0755E9"/>
</svg>
