<svg width="70" height="70" viewBox="0 0 70 70" fill="none" xmlns="http://www.w3.org/2000/svg">
<path d="M62 0H8C3.58172 0 0 3.58172 0 8V62C0 66.4183 3.58172 70 8 70H62C66.4183 70 70 66.4183 70 62V8C70 3.58172 66.4183 0 62 0Z" fill="#FF0066"/>
<path d="M23.8182 22.5261C24.6114 22.5146 25.3834 22.2687 26.0373 21.8196C26.6912 21.3705 27.1978 20.7382 27.4933 20.002C27.7889 19.2658 27.8602 18.4587 27.6984 17.6821C27.5365 16.9056 27.1488 16.1941 26.5838 15.6373C26.0188 15.0805 25.3018 14.703 24.523 14.5525C23.7441 14.4019 22.9381 14.485 22.2063 14.7912C21.4746 15.0974 20.8496 15.613 20.41 16.2734C19.9704 16.9337 19.7359 17.7093 19.7358 18.5025C19.7376 19.0354 19.8449 19.5626 20.0514 20.0538C20.2579 20.545 20.5596 20.9904 20.9391 21.3644C21.3186 21.7385 21.7684 22.0337 22.2625 22.2331C22.7567 22.4325 23.2854 22.5321 23.8182 22.5261Z" fill="white"/>
<path d="M15.3541 44.0665C15.1223 45.0571 15.0012 46.0704 14.9929 47.0877C14.9929 50.6297 16.9137 52.9817 20.9961 52.9817C24.3813 52.9817 27.1281 50.9713 29.1021 47.7233L27.8953 52.5673H34.6153L38.4597 37.1673C39.4201 33.2641 41.2793 31.2397 44.1017 31.2397C46.3221 31.2397 47.7025 32.6201 47.7025 34.9021C47.7134 35.6337 47.6124 36.3627 47.4029 37.0637L45.4233 44.1449C45.1401 45.1202 44.9986 46.131 45.0033 47.1465C45.0033 50.5065 46.9829 52.9705 51.1241 52.9705C54.6661 52.9705 57.4885 50.6913 59.0481 45.2285L56.4077 44.2065C55.0861 47.8689 53.9465 48.5297 53.0477 48.5297C52.1489 48.5297 51.6645 47.9305 51.6645 46.7293C51.6904 46.099 51.791 45.474 51.9641 44.8673L53.8877 37.9653C54.3195 36.5464 54.5422 35.0721 54.5485 33.5889C54.5485 28.4257 51.4265 25.7321 47.6437 25.7321C44.1017 25.7321 40.5009 28.9269 38.7005 32.2897L40.0193 26.2529H29.7573L28.3153 31.5729H33.1201L30.1633 43.4001C27.8393 48.5633 23.5721 48.6473 23.0373 48.5269C22.1581 48.3281 21.5981 47.9949 21.5981 46.8469C21.6237 45.9175 21.7648 44.9948 22.0181 44.1001L26.5205 26.2389H15.1189L13.6797 31.5589H18.4201L15.3541 44.0665Z" fill="white"/>
</svg>
