<svg width="30" height="40" viewBox="0 0 30 40" fill="none" xmlns="http://www.w3.org/2000/svg">
<path d="M21.4672 24.445C22.2329 23.9216 23.2953 23.4684 23.2953 23.4684C23.2953 23.4684 20.2719 24.0153 17.2642 24.2653C13.5845 24.57 9.63146 24.6325 7.64711 24.3669C2.95186 23.7419 10.2252 22.0153 10.2252 22.0153C10.2252 22.0153 7.40493 21.8278 3.92841 23.4997C-0.173095 25.484 14.0845 26.3903 21.4672 24.445ZM14.7955 21.9372C13.3111 18.6013 8.30336 15.6717 14.7955 10.5467C22.8938 4.15619 18.7407 0 18.7407 0C20.4204 6.60147 12.8345 8.60145 10.0924 12.703C8.22523 15.5076 11.0064 18.5154 14.7955 21.9372ZM23.7485 8.17177C23.7563 8.17177 10.0611 11.5936 16.6001 19.1247C18.5298 21.3435 16.0923 23.3434 16.0923 23.3434C16.0923 23.3434 20.9907 20.8122 18.7407 17.6482C16.6392 14.6951 15.0298 13.2264 23.7485 8.17177ZM23.2719 29.3043C23.2291 29.3787 23.1765 29.447 23.1157 29.5074C33.139 26.8746 29.4515 20.2185 24.6625 21.906C24.4039 22.001 24.1804 22.1727 24.0219 22.3981C24.3015 22.2967 24.5889 22.2184 24.8813 22.1638C27.3031 21.656 30.7796 25.4059 23.2719 29.3043ZM26.9562 34.1714C26.9562 34.1714 28.089 35.1011 25.7141 35.8277C21.1907 37.1948 6.90181 37.6089 2.93311 35.8823C1.50344 35.2652 4.1831 34.398 5.02684 34.2183C5.90182 34.0308 6.40963 34.062 6.40963 34.062C4.82371 32.9449 -3.84805 36.2573 2.00344 37.2026C17.9595 39.7963 31.0968 36.0386 26.9562 34.1714ZM9.49084 30.9371C3.34248 32.6558 13.233 36.2026 21.061 32.8511C20.2975 32.5545 19.5605 32.1939 18.8579 31.773C15.3658 32.4371 13.7486 32.4839 10.5768 32.1246C7.95961 31.8277 9.49084 30.9371 9.49084 30.9371ZM23.5375 38.5307C17.3892 39.687 9.80334 39.5542 5.31121 38.812C5.31121 38.8042 6.23307 39.5698 10.9674 39.8745C18.1704 40.3354 29.2328 39.6167 29.4906 36.2105C29.4906 36.2105 28.9906 37.4995 23.5375 38.5307ZM20.1313 27.5778C15.5064 28.4684 12.8267 28.4449 9.44396 28.0934C6.82681 27.8199 8.53773 26.5543 8.53773 26.5543C1.75657 28.8043 12.3033 31.3511 21.7797 28.5777C21.1674 28.3613 20.6062 28.0208 20.1313 27.5778Z" fill="#1B232E"/>
</svg>
