<svg width="102" height="155" viewBox="0 0 102 155" fill="none" xmlns="http://www.w3.org/2000/svg">
<path d="M83.7126 94.7243C86.6982 92.696 90.8414 90.9402 90.8414 90.9402C90.8414 90.9402 79.0515 93.0593 67.3225 94.0281C52.9736 95.2087 37.5584 95.4509 29.8203 94.4216C11.5109 91.9998 39.8737 85.3094 39.8737 85.3094C39.8737 85.3094 28.8759 84.5829 15.319 91.0613C-0.674994 98.7506 54.9233 102.262 83.7126 94.7243ZM57.6956 85.0067C51.9073 72.0801 32.3794 60.7277 57.6956 40.8686C89.2755 16.1053 73.0804 0 73.0804 0C79.6303 25.5807 50.049 33.3306 39.3558 49.224C32.0747 60.092 42.9202 71.7471 57.6956 85.0067ZM92.6083 31.6656C92.6388 31.6656 39.234 44.9252 64.733 74.1084C72.2578 82.7059 62.7528 90.4558 62.7528 90.4558C62.7528 90.4558 81.8543 80.6474 73.0804 68.3868C64.8853 56.9436 58.6096 51.2523 92.6083 31.6656ZM90.75 113.554C90.583 113.842 90.3781 114.107 90.1407 114.341C129.227 104.139 114.848 78.3466 96.1727 84.8856C95.1641 85.2539 94.2926 85.9193 93.6746 86.7928C94.7649 86.3999 95.8857 86.0962 97.0257 85.8846C106.47 83.9169 120.027 98.4479 90.75 113.554ZM105.117 132.414C105.117 132.414 109.535 136.017 100.273 138.832C82.6342 144.13 26.914 145.734 11.4378 139.044C5.86276 136.652 16.3122 133.292 19.6024 132.596C23.0145 131.869 24.9947 131.99 24.9947 131.99C18.8103 127.661 -15.0057 140.497 7.81251 144.16C70.0339 154.211 121.264 139.65 105.117 132.414ZM37.01 119.881C13.0342 126.541 51.6027 140.285 82.1284 127.298C79.1513 126.149 76.2773 124.751 73.5374 123.12C59.9196 125.694 53.6133 125.875 41.2446 124.483C31.0389 123.332 37.01 119.881 37.01 119.881ZM91.7858 149.307C67.81 153.787 38.2286 153.272 20.7113 150.396C20.7113 150.366 24.3062 153.333 42.7679 154.514C70.8565 156.3 113.995 153.515 115 140.316C115 140.316 113.05 145.311 91.7858 149.307ZM78.5031 106.864C60.4679 110.315 50.0185 110.224 36.8272 108.862C26.6215 107.802 33.2933 102.898 33.2933 102.898C6.84982 111.617 47.9773 121.486 84.9312 110.739C82.5433 109.9 80.355 108.581 78.5031 106.864Z" fill="white"/>
</svg>
