<svg width="70" height="70" viewBox="0 0 70 70" fill="none" xmlns="http://www.w3.org/2000/svg">
<path d="M55.0943 4.66663H14.9091C8.82378 4.66663 3.89062 9.60005 3.89062 15.6857V54.3174C3.89062 60.4031 8.82378 65.3366 14.9091 65.3366H55.0943C61.1797 65.3366 66.1129 60.4031 66.1129 54.3174V15.6857C66.1129 9.60005 61.1797 4.66663 55.0943 4.66663Z" fill="#001E36"/>
<path d="M17.8984 47.2108V20.5371C17.8984 20.3427 17.982 20.2449 18.149 20.2449C18.5937 20.2449 18.9997 20.2384 19.6122 20.224C20.224 20.2103 20.8849 20.1964 21.5949 20.1823C22.3045 20.1686 23.0559 20.1546 23.849 20.1405C24.6419 20.1268 25.428 20.1199 26.2072 20.1196C28.3217 20.1196 30.1026 20.384 31.55 20.9128C32.8556 21.3544 34.0464 22.0817 35.0355 23.0416C35.8739 23.8737 36.5218 24.8778 36.9346 25.9845C37.3251 27.0617 37.5229 28.1991 37.5191 29.3448C37.5191 31.5716 37.0043 33.4083 35.9746 34.8549C34.9382 36.3075 33.4814 37.4075 31.8005 38.0065C30.0474 38.6607 28.0993 38.8826 25.9568 38.8826C25.3444 38.8826 24.9131 38.8756 24.6628 38.8617C24.4124 38.848 24.0368 38.841 23.5359 38.8408V47.1691C23.5432 47.2202 23.5385 47.2722 23.5222 47.3211C23.5059 47.37 23.4784 47.4144 23.442 47.4509C23.4055 47.4873 23.3611 47.5148 23.3122 47.5311C23.2632 47.5474 23.2112 47.5521 23.1602 47.5448H18.1906C17.9957 47.5448 17.8984 47.4339 17.8984 47.2108ZM23.5359 25.254V33.9539C23.8972 33.982 24.2311 33.9959 24.5376 33.9956H25.9151C26.9286 33.9923 27.9354 33.8315 28.8996 33.5192C29.7265 33.2735 30.4654 32.7954 31.0283 32.1417C31.5709 31.5018 31.8422 30.6113 31.8423 29.4701C31.8643 28.6627 31.6542 27.8658 31.2369 27.1742C30.7983 26.5054 30.1643 25.988 29.4213 25.6924C28.451 25.3152 27.4146 25.1377 26.3742 25.1706C25.7063 25.1706 25.115 25.1775 24.6003 25.1914C24.085 25.2058 23.7303 25.2267 23.5359 25.254Z" fill="#31A8FF"/>
<path d="M53.6583 32.3713C52.8738 31.9682 52.0383 31.6733 51.1747 31.4946C50.223 31.2763 49.2501 31.1643 48.2737 31.1607C47.7455 31.1463 47.2181 31.2096 46.7084 31.3485C46.3839 31.4208 46.0955 31.6057 45.8944 31.8703C45.7584 32.082 45.686 32.3283 45.6858 32.58C45.6934 32.8241 45.7814 33.0589 45.9362 33.2478C46.18 33.533 46.4779 33.7671 46.8127 33.9366C47.4078 34.2571 48.0211 34.5428 48.6493 34.7923C50.0502 35.2613 51.3888 35.8991 52.6355 36.6916C53.4849 37.2277 54.1877 37.9664 54.6809 38.8414C55.0956 39.6699 55.3032 40.5866 55.2861 41.513C55.3111 42.7362 54.9616 43.9378 54.2844 44.9568C53.5594 45.9911 52.5524 46.7952 51.3833 47.2734C50.1167 47.8298 48.5515 48.1082 46.6875 48.1084C45.5034 48.1203 44.3213 48.0084 43.1604 47.7744C42.2458 47.6067 41.3555 47.3263 40.5098 46.9395C40.4186 46.8924 40.3426 46.8203 40.2909 46.7316C40.2392 46.6428 40.2138 46.5412 40.2177 46.4386V41.9304C40.2126 41.8862 40.2197 41.8416 40.2381 41.8011C40.2565 41.7607 40.2855 41.726 40.3221 41.7008C40.3579 41.6805 40.3991 41.6717 40.4401 41.6754C40.4811 41.6791 40.52 41.6953 40.5516 41.7217C41.5503 42.3106 42.6346 42.7401 43.7656 42.9948C44.7625 43.2447 45.7851 43.3778 46.8127 43.3914C47.7864 43.3914 48.503 43.2661 48.9624 43.0157C49.1698 42.9207 49.3452 42.7677 49.4675 42.5751C49.5897 42.3824 49.6535 42.1585 49.6511 41.9304C49.6511 41.5691 49.4424 41.2212 49.025 40.8868C48.6077 40.5529 47.7589 40.1493 46.4788 39.6762C45.1681 39.22 43.9255 38.5881 42.7847 37.7978C41.9688 37.2303 41.297 36.4798 40.8229 35.6063C40.4124 34.7837 40.2049 33.8748 40.2177 32.9556C40.2154 31.8512 40.5187 30.7676 41.0942 29.8249C41.7504 28.7868 42.6926 27.9606 43.8074 27.4456C45.0316 26.8338 46.5621 26.5277 48.3989 26.5272C49.4746 26.5186 50.5494 26.5953 51.613 26.7568C52.3831 26.8545 53.1361 27.0582 53.8505 27.3621C53.9072 27.3783 53.9593 27.4075 54.0028 27.4474C54.0462 27.4872 54.0798 27.5366 54.1009 27.5917C54.1291 27.6936 54.1432 27.7989 54.1427 27.9047V32.1208C54.1456 32.1698 54.1356 32.2188 54.1136 32.2627C54.0916 32.3067 54.0585 32.3441 54.0175 32.3712C53.9617 32.399 53.9002 32.4134 53.8379 32.4135C53.7756 32.4135 53.7141 32.399 53.6583 32.3713Z" fill="#31A8FF"/>
</svg>
