<svg width="40" height="36" viewBox="0 0 40 36" fill="none" xmlns="http://www.w3.org/2000/svg">
<path fill-rule="evenodd" clip-rule="evenodd" d="M0.024793 0.0239989C-0.00826434 0.108702 -0.00826434 0.202649 0.024793 0.287352H0.123563V35.0558C0.107788 35.0911 0.0976397 35.1287 0.0937211 35.167C0.0924149 35.1792 0.091812 35.1916 0.091812 35.204C0.091812 35.2551 0.102664 35.3056 0.123563 35.3523C0.150893 35.3642 0.17973 35.3722 0.20907 35.3764C0.224343 35.3786 0.239816 35.3797 0.25529 35.3797C0.300606 35.3797 0.345419 35.3703 0.386917 35.3523H5.65489C5.66454 35.3309 5.67197 35.3085 5.6772 35.2857C5.68343 35.259 5.68654 35.2316 5.68654 35.204C5.68654 35.153 5.67579 35.1025 5.65489 35.0558V22.775H8.12424C11.427 22.9242 14.6845 21.962 17.3761 20.0422C18.6576 18.9646 19.67 17.603 20.333 16.0655C20.996 14.5279 21.2913 12.8571 21.1954 11.1854C21.2576 9.73613 21.0206 8.28964 20.4995 6.9358C19.9785 5.58205 19.1842 4.34999 18.1662 3.31647C15.4944 0.995322 12.0195 -0.186604 8.48647 0.0239989H0.024793ZM5.88539 17.2437V4.79802H8.94736C10.6931 4.72427 12.4082 5.27268 13.7873 6.34549C14.3929 6.936 14.8626 7.6513 15.164 8.44156C15.4653 9.23193 15.591 10.0783 15.5323 10.9221C15.5983 11.8759 15.4286 12.8314 15.0382 13.7041C14.6477 14.5769 14.0485 15.3401 13.2934 15.9266C11.7825 16.8847 10.0092 17.3452 8.22301 17.2437H5.88539Z" fill="#1B232E"/>
<path d="M30.1495 14.2151C30.9151 13.6691 31.8446 13.402 32.7834 13.4578C33.8743 13.4716 34.9589 13.6265 36.0101 13.9188C36.9026 14.1263 37.7578 14.4706 38.5452 14.9395H38.9075C38.9306 14.8935 38.9426 14.8427 38.9426 14.7913C38.9426 14.7507 38.9351 14.7105 38.9205 14.6727C38.9166 14.6627 38.9123 14.6528 38.9075 14.6432V10.2641C38.9199 10.1547 38.9199 10.0443 38.9075 9.93487C38.8763 9.85338 38.827 9.78104 38.7638 9.72286C38.728 9.68991 38.6878 9.66147 38.644 9.63856C37.9362 9.34285 37.1957 9.13275 36.4381 9.01298C35.2842 8.8267 34.1168 8.73858 32.948 8.74963C30.5535 8.62906 28.2018 9.41691 26.3631 10.9555C25.6234 11.6309 25.0355 12.4557 24.6382 13.3751C24.241 14.2945 24.0433 15.2879 24.0584 16.2894C23.9868 17.9588 24.5252 19.5972 25.5729 20.8989C26.9533 22.3353 28.6263 23.4582 30.4786 24.1913C31.6778 24.7206 32.7882 25.4313 33.7711 26.2985C34.0118 26.5137 34.2038 26.7776 34.3343 27.0729C34.4649 27.3682 34.5311 27.6878 34.5284 28.0106C34.5427 28.351 34.4755 28.69 34.3323 28.9993C34.1891 29.3085 33.9742 29.5791 33.7053 29.7885C32.8894 30.3302 31.9164 30.5851 30.9396 30.5128C29.8263 30.5087 28.7188 30.3537 27.6472 30.0519C26.4835 29.736 25.3737 29.2477 24.3547 28.6032C24.0913 28.6032 24.0913 28.5703 24.0913 28.6032V33.5749C24.0674 33.6424 24.0587 33.7139 24.0651 33.7842C24.0688 33.8248 24.0776 33.8651 24.0913 33.9041C24.0983 33.9271 24.108 33.9491 24.1203 33.9697C24.1327 33.9908 24.1479 34.0103 24.1653 34.0276C24.1998 34.0621 24.2422 34.0875 24.2889 34.1016C25.1363 34.5854 26.0607 34.9195 27.0216 35.0894C28.2646 35.3647 29.5349 35.4973 30.8079 35.4845C33.1665 35.5764 35.4871 34.8687 37.3929 33.4761C38.2427 32.7679 38.9189 31.8743 39.3698 30.8641C39.8207 29.854 40.0341 28.7539 39.9939 27.6484C40.0617 26.036 39.5606 24.4511 38.5782 23.1707C37.1584 21.5557 35.3911 20.2836 33.409 19.4502C32.2255 18.9194 31.1181 18.233 30.1165 17.4088C29.8877 17.2018 29.7073 16.947 29.5878 16.6626C29.4683 16.3781 29.4128 16.0709 29.4251 15.7626C29.4246 15.4672 29.4893 15.1754 29.6145 14.9079C29.7397 14.6405 29.9224 14.4039 30.1495 14.2151Z" fill="#1B232E"/>
</svg>
