<svg width="103" height="92" viewBox="0 0 103 92" fill="none" xmlns="http://www.w3.org/2000/svg">
<path fill-rule="evenodd" clip-rule="evenodd" d="M0.063842 0.0622076C-0.0212807 0.281767 -0.0212807 0.525287 0.063842 0.744847H0.318175V90.8683C0.277554 90.9597 0.251422 91.0571 0.241332 91.1564C0.237968 91.1881 0.236416 91.2202 0.236416 91.2525C0.236416 91.3848 0.264359 91.5158 0.318175 91.6366C0.38855 91.6676 0.462806 91.6885 0.538356 91.6991C0.577683 91.7049 0.617527 91.7077 0.657372 91.7077C0.77406 91.7077 0.889454 91.6835 0.99631 91.6366H14.5613C14.5862 91.5812 14.6053 91.5233 14.6188 91.4642C14.6348 91.3949 14.6428 91.3238 14.6428 91.2525C14.6428 91.1202 14.6152 90.9892 14.5613 90.8683V59.0351H20.9199C29.4244 59.4219 37.8125 56.9278 44.7434 51.9514C48.0433 49.158 50.6502 45.6287 52.3574 41.6433C54.0647 37.6579 54.8251 33.3269 54.578 28.9938C54.7382 25.237 54.1281 21.4876 52.7863 17.9783C51.4445 14.4693 49.3993 11.2756 46.7781 8.59663C39.8981 2.57998 30.9502 -0.483695 21.8527 0.0622076H0.063842ZM15.1549 44.6973V12.437H23.0395C27.5347 12.2458 31.9512 13.6673 35.5023 16.4482C37.0617 17.9788 38.2712 19.833 39.0472 21.8814C39.8231 23.9301 40.1468 26.1239 39.9957 28.3111C40.1657 30.7836 39.7287 33.2602 38.7232 35.5225C37.7178 37.7847 36.175 39.7631 34.2306 41.2833C30.3398 43.7667 25.7737 44.9606 21.1743 44.6973H15.1549Z" fill="white"/>
<path d="M77.6349 36.8471C79.6064 35.4318 82 34.7393 84.4173 34.8841C87.2263 34.9198 90.0191 35.3214 92.7259 36.079C95.0242 36.6169 97.2263 37.5092 99.254 38.7247H100.187C100.246 38.6054 100.277 38.4739 100.277 38.3405C100.277 38.2353 100.258 38.1311 100.22 38.0332C100.21 38.0071 100.199 37.9816 100.187 37.9566V26.6057C100.219 26.3221 100.219 26.0358 100.187 25.7522C100.107 25.541 99.9795 25.3535 99.8167 25.2027C99.7246 25.1172 99.6211 25.0435 99.5083 24.9841C97.6858 24.2176 95.779 23.673 93.8281 23.3626C90.8569 22.8797 87.8507 22.6513 84.8411 22.6799C78.6753 22.3674 72.6197 24.4096 67.8849 28.3979C65.9803 30.1486 64.4665 32.2864 63.4435 34.6697C62.4205 37.0529 61.9115 39.6277 61.9503 42.2238C61.7661 46.5509 63.1524 50.7978 65.8502 54.172C69.4047 57.8954 73.7128 60.8061 78.4825 62.7064C81.5702 64.0784 84.4297 65.9206 86.9606 68.1683C87.5803 68.7262 88.0747 69.4104 88.4108 70.1758C88.7472 70.941 88.9177 71.7695 88.9107 72.6063C88.9474 73.4888 88.7743 74.3675 88.4056 75.1692C88.0369 75.9706 87.4835 76.672 86.7912 77.2147C84.6903 78.6191 82.1847 79.2796 79.6696 79.0923C76.8028 79.0816 73.9508 78.6798 71.1915 77.8976C68.1951 77.0788 65.3374 75.813 62.7133 74.1425C62.0352 74.1425 62.0352 74.0571 62.0352 74.1425V87.0295C61.9736 87.2046 61.9511 87.3897 61.9677 87.5721C61.9772 87.6773 61.9998 87.7817 62.0352 87.8828C62.0531 87.9424 62.0782 87.9995 62.1097 88.0528C62.1418 88.1075 62.1809 88.1581 62.2256 88.2031C62.3144 88.2925 62.4236 88.3584 62.5439 88.3948C64.726 89.6489 67.1063 90.5149 69.5806 90.9553C72.7814 91.6689 76.0522 92.0127 79.3304 91.9794C85.4038 92.2177 91.3792 90.3831 96.2866 86.7735C98.4749 84.9376 100.216 82.6214 101.377 80.0029C102.538 77.3846 103.088 74.5332 102.984 71.6674C103.159 67.488 101.868 63.3797 99.3389 60.0607C95.683 55.8745 91.1321 52.5772 86.0282 50.4168C82.9806 49.0411 80.1291 47.2617 77.55 45.1255C76.9609 44.5887 76.4962 43.9285 76.1886 43.1911C75.881 42.4538 75.7379 41.6574 75.7697 40.8583C75.7684 40.0926 75.935 39.3362 76.2574 38.6429C76.5798 37.9496 77.0502 37.3365 77.6349 36.8471Z" fill="white"/>
</svg>
