<svg width="136" height="136" viewBox="0 0 136 136" fill="none" xmlns="http://www.w3.org/2000/svg">
<path d="M133.507 51.1504C131.169 41.7704 126.737 34.6974 117.296 34.6974H105.124V49.0862C105.124 60.2573 95.6525 69.6677 84.8457 69.6677H52.4253C43.5613 69.6677 36.2151 77.2567 36.2151 86.151V117.054C36.2151 125.857 43.8649 131.017 52.4253 133.537C62.6857 136.542 72.5515 137.089 84.8457 133.537C93.0115 131.169 101.056 126.403 101.056 117.054V104.699H68.6659V100.57H117.296C126.737 100.57 130.228 93.9829 133.507 84.1172C136.907 73.9479 136.755 64.1732 133.507 51.1504ZM86.8796 112.925C88.1052 112.91 89.3075 113.26 90.3336 113.93C91.3598 114.6 92.1634 115.561 92.6421 116.689C93.1209 117.817 93.2532 119.062 93.0223 120.266C92.7913 121.47 92.2075 122.578 91.3452 123.449C90.4828 124.32 89.3809 124.914 88.1795 125.157C86.9782 125.4 85.7317 125.28 84.5988 124.812C83.4658 124.345 82.4976 123.551 81.8172 122.531C81.1368 121.512 80.7751 120.313 80.778 119.087C80.7707 117.461 81.4093 115.899 82.5534 114.743C83.6975 113.588 85.2535 112.934 86.8796 112.925ZM50.9379 65.5999H83.3583C92.3741 65.5999 99.5685 58.1627 99.5685 49.1166V18.1837C99.5685 9.38043 92.1616 2.79315 83.3583 1.3057C72.4908 -0.485306 60.6822 -0.394237 50.9379 1.33606C37.2169 3.76455 34.7277 8.83402 34.7277 18.2141V30.569H67.1784V34.6974H22.5549C13.1141 34.6974 4.85722 40.374 2.27694 51.1504C-0.697964 63.5054 -0.819389 71.2158 2.27694 84.1172C4.58401 93.7097 10.0785 100.57 19.5192 100.57H30.66V85.7564C30.66 75.0407 39.9186 65.5999 50.9379 65.5999ZM48.904 22.3121C47.6785 22.3272 46.4761 21.9773 45.45 21.3071C44.4238 20.6368 43.6203 19.6765 43.1415 18.5482C42.6627 17.42 42.5304 16.1748 42.7613 14.9711C42.9923 13.7674 43.5761 12.6596 44.4384 11.7887C45.3008 10.9177 46.4028 10.323 47.6041 10.0801C48.8054 9.83729 50.0519 9.95728 51.1848 10.4249C52.3178 10.8924 53.286 11.6865 53.9664 12.7059C54.6468 13.7254 55.0085 14.9242 55.0056 16.1498C55.0129 17.7759 54.3743 19.3383 53.2302 20.4938C52.0861 21.6493 50.5301 22.3033 48.904 22.3121Z" fill="white"/>
</svg>
