<svg width="40" height="40" viewBox="0 0 40 40" fill="none" xmlns="http://www.w3.org/2000/svg">
<path d="M39.2667 15.0443C38.5792 12.2854 37.2757 10.2051 34.499 10.2051H30.9187V14.4372C30.9187 17.7228 28.1331 20.4905 24.9546 20.4905H15.4192C12.8122 20.4905 10.6515 22.7226 10.6515 25.3386V34.4276C10.6515 37.0168 12.9014 38.5346 15.4192 39.2756C18.437 40.1595 21.3387 40.3203 24.9546 39.2756C27.3563 38.5792 29.7223 37.1775 29.7223 34.4276V30.7938H20.1959V29.5795H34.499C37.2757 29.5795 38.3024 27.6421 39.2667 24.7404C40.2666 21.7494 40.222 18.8745 39.2667 15.0443ZM25.5528 33.2133C25.9133 33.2089 26.2669 33.3118 26.5687 33.5089C26.8705 33.7061 27.1069 33.9885 27.2477 34.3204C27.3885 34.6522 27.4274 35.0184 27.3595 35.3725C27.2916 35.7265 27.1199 36.0523 26.8662 36.3085C26.6126 36.5646 26.2885 36.7396 25.9352 36.811C25.5818 36.8824 25.2152 36.8471 24.882 36.7096C24.5488 36.5721 24.264 36.3385 24.0639 36.0387C23.8638 35.7389 23.7574 35.3863 23.7582 35.0258C23.7561 34.5475 23.9439 34.088 24.2804 33.7481C24.6169 33.4083 25.0746 33.2159 25.5528 33.2133ZM14.9817 19.2941H24.5171C27.1688 19.2941 29.2848 17.1067 29.2848 14.4461V5.34816C29.2848 2.75896 27.1063 0.821518 24.5171 0.384032C21.3208 -0.142737 17.8477 -0.115952 14.9817 0.39296C10.9461 1.10722 10.214 2.59825 10.214 5.35709V8.9909H19.7584V10.2051H6.63378C3.85709 10.2051 1.42859 11.8747 0.669688 15.0443C-0.205284 18.6781 -0.240997 20.9459 0.669688 24.7404C1.34824 27.5617 2.96426 29.5795 5.74095 29.5795H9.01764V25.2225C9.01764 22.0708 11.7408 19.2941 14.9817 19.2941ZM14.3835 6.56241C14.0231 6.56683 13.6695 6.46394 13.3676 6.2668C13.0658 6.06967 12.8295 5.78722 12.6887 5.45537C12.5479 5.12353 12.5089 4.7573 12.5769 4.40327C12.6448 4.04924 12.8165 3.72343 13.0701 3.46727C13.3238 3.21111 13.6479 3.03618 14.0012 2.96476C14.3545 2.89333 14.7211 2.92862 15.0544 3.06614C15.3876 3.20367 15.6724 3.4372 15.8725 3.73705C16.0726 4.03689 16.179 4.38948 16.1781 4.74996C16.1803 5.22822 15.9924 5.68775 15.6559 6.0276C15.3194 6.36745 14.8618 6.55981 14.3835 6.56241Z" fill="#1B232E"/>
</svg>
