<svg width="237" height="207" viewBox="0 0 237 207" fill="none" xmlns="http://www.w3.org/2000/svg">
<path d="M193.581 67.0808C191.081 66.2492 188.582 65.4637 186.082 64.7245C186.499 63.015 186.869 61.3055 187.239 59.5959C192.933 32.059 189.183 9.92784 176.546 2.62779C164.372 -4.34885 144.514 2.905 124.425 20.3697C122.435 22.0792 120.49 23.8811 118.639 25.683C117.389 24.4818 116.093 23.2805 114.797 22.1254C93.7354 3.45944 72.6275 -4.39505 59.9906 2.95121C47.8629 9.97405 44.2523 30.8116 49.3441 56.87C49.8533 59.4573 50.4088 61.9985 51.0568 64.5859C48.0943 65.4175 45.1781 66.3416 42.4471 67.3118C17.7287 75.8594 0 89.3506 0 103.304C0 117.719 18.8859 132.181 44.5764 140.959C46.6594 141.652 48.7424 142.345 50.8717 142.946C50.1773 145.718 49.5756 148.444 49.0201 151.262C44.1598 176.905 47.9555 197.234 60.0832 204.211C72.5813 211.419 93.5965 204.026 114.056 186.146C115.676 184.713 117.296 183.235 118.917 181.664C120.953 183.651 123.083 185.545 125.212 187.393C145.024 204.396 164.604 211.28 176.685 204.303C189.183 197.096 193.257 175.242 187.98 148.629C187.563 146.596 187.1 144.517 186.591 142.392C188.072 141.976 189.507 141.514 190.942 141.052C217.651 132.227 237 117.95 237 103.304C237 89.3044 218.762 75.7208 193.581 67.0808ZM130.952 27.8546C148.171 12.8848 164.234 7.01706 171.547 11.2215C179.37 15.7032 182.379 33.8147 177.472 57.6092C177.148 59.1801 176.824 60.7048 176.408 62.2295C166.144 59.9084 155.737 58.2722 145.255 57.332C139.242 48.7209 132.654 40.5244 125.536 32.7983C127.341 31.0888 129.1 29.4717 130.952 27.8546ZM77.3953 127.283C79.7561 131.303 82.1631 135.322 84.709 139.25C77.4943 138.467 70.3253 137.31 63.2309 135.785C65.3958 128.808 67.914 121.946 70.776 115.224C72.9053 119.29 75.0809 123.31 77.3953 127.283ZM63.3697 71.7011C70.0353 70.2226 77.1176 69.0213 84.4775 68.0973C82.0242 71.9321 79.6172 75.8594 77.349 79.8328C75.0809 83.8063 72.859 87.7797 70.776 91.8456C67.8598 84.9613 65.4064 78.2157 63.3697 71.7011ZM76.0529 103.535C79.108 97.1589 82.4408 90.9215 85.9588 84.7765C89.4768 78.6315 93.2725 72.6714 97.2533 66.8036C104.197 66.2954 111.279 66.0181 118.5 66.0181C125.721 66.0181 132.85 66.2954 139.747 66.8036C143.681 72.6252 147.431 78.5853 150.995 84.6841C154.559 90.7829 157.907 97.0049 161.04 103.35C157.954 109.726 154.621 116.01 151.041 122.201C147.523 128.346 143.774 134.306 139.839 140.22C132.942 140.728 125.767 140.959 118.5 140.959C111.233 140.959 104.197 140.728 97.3922 140.312C93.365 134.445 89.5693 128.438 86.0051 122.293C82.4408 116.148 79.1543 109.911 76.0529 103.535ZM159.651 127.191C162.012 123.125 164.234 119.013 166.409 114.855C169.364 121.54 171.975 128.371 174.232 135.322C167.052 136.947 159.79 138.181 152.476 139.019C154.976 135.138 157.337 131.164 159.651 127.191ZM166.317 91.8456C164.141 87.7797 161.919 83.7139 159.605 79.7404C157.29 75.767 154.976 71.9321 152.522 68.0973C159.663 68.9705 166.754 70.2041 173.769 71.7935C171.637 78.6027 169.15 85.2959 166.317 91.8456ZM118.593 39.8673C123.449 45.1357 128.023 50.657 132.294 56.408C123.129 55.9921 113.917 55.9921 104.752 56.408C109.288 50.4478 113.964 44.9034 118.593 39.8673ZM64.8973 11.5449C72.6738 7.01706 89.9397 13.4855 108.131 29.5641C109.288 30.5805 110.446 31.6894 111.649 32.7983C104.486 40.5226 97.852 48.719 91.7912 57.332C81.3297 58.2638 70.9393 59.8688 60.685 62.1371C60.0832 59.7808 59.574 57.3782 59.0648 54.9757C54.7137 32.6135 57.5836 15.7494 64.8973 11.5449ZM53.5564 133.336C51.6123 132.781 49.7145 132.181 47.8166 131.534C37.957 128.438 26.7551 123.541 18.6545 117.119C16.3431 115.523 14.3801 113.476 12.8843 111.102C11.3884 108.727 10.3909 106.074 9.95215 103.304C9.95215 94.8488 24.5795 84.0373 45.6873 76.691C48.3258 75.767 51.0105 74.9353 53.6953 74.1499C56.8421 84.1769 60.6302 93.992 65.0361 103.535C60.5837 113.217 56.7495 123.17 53.5564 133.336ZM107.529 178.615C99.8988 185.598 91.0502 191.126 81.4225 194.924C78.8861 196.139 76.1263 196.819 73.3151 196.922C70.5039 197.025 67.7014 196.55 65.0824 195.525C57.7225 191.274 54.6674 174.965 58.8334 153.018C59.3426 150.431 59.898 147.843 60.5461 145.302C70.9067 147.528 81.4081 149.041 91.9764 149.83C98.0981 158.479 104.778 166.721 111.973 174.503C110.492 175.935 109.011 177.321 107.529 178.615ZM118.87 167.387C114.149 162.305 109.427 156.668 104.845 150.616C109.288 150.8 113.871 150.893 118.5 150.893C123.268 150.893 127.943 150.8 132.572 150.569C128.314 156.419 123.74 162.034 118.87 167.387ZM179.37 181.248C179.157 184.052 178.369 186.783 177.055 189.27C175.742 191.758 173.93 193.95 171.732 195.71C164.372 199.96 148.68 194.416 131.739 179.908C129.795 178.245 127.85 176.443 125.86 174.595C132.934 166.799 139.461 158.524 145.394 149.83C156.018 148.951 166.566 147.33 176.963 144.979C177.426 146.873 177.843 148.768 178.213 150.616C180.473 160.67 180.865 171.053 179.37 181.248ZM187.795 131.58C186.499 131.996 185.203 132.412 183.86 132.781C180.597 122.701 176.653 112.853 172.056 103.304C176.481 93.8797 180.27 84.1709 183.397 74.2423C185.804 74.9353 188.119 75.6745 190.341 76.4138C211.911 83.8063 227.048 94.8025 227.048 103.211C227.048 112.267 210.893 123.957 187.795 131.58ZM118.5 124.65C122.693 124.65 126.792 123.409 130.278 121.083C133.765 118.758 136.482 115.453 138.087 111.587C139.691 107.72 140.111 103.465 139.293 99.3604C138.475 95.2556 136.456 91.4851 133.491 88.5257C130.526 85.5662 126.748 83.5509 122.636 82.7344C118.524 81.9179 114.261 82.3369 110.387 83.9385C106.513 85.5402 103.202 88.2524 100.873 91.7323C98.543 95.2122 97.2996 99.3035 97.2996 103.489C97.299 106.268 97.8469 109.02 98.9122 111.587C99.9774 114.155 101.539 116.488 103.508 118.453C105.476 120.418 107.814 121.977 110.386 123.04C112.959 124.103 115.716 124.65 118.5 124.65Z" fill="white"/>
</svg>
