<svg width="173" height="151" viewBox="0 0 173 151" fill="none" xmlns="http://www.w3.org/2000/svg">
<path d="M141.306 48.9333C139.481 48.3267 137.657 47.7537 135.832 47.2145C136.136 45.9674 136.406 44.7204 136.677 43.4734C140.833 23.3861 138.096 7.24205 128.871 1.91689C119.985 -3.17235 105.489 2.11911 90.825 14.8591C89.3721 16.1061 87.9529 17.4205 86.6014 18.735C85.6891 17.8587 84.743 16.9824 83.7969 16.1398C68.4229 2.52355 53.015 -3.20605 43.7906 2.15281C34.9379 7.27575 32.3023 22.4761 36.0191 41.4849C36.3908 43.3723 36.7963 45.226 37.2693 47.1134C35.1068 47.72 32.9781 48.3941 30.9846 49.1019C12.9412 55.337 0 65.1785 0 75.3569C0 85.8724 13.7859 96.4217 32.5389 102.825C34.0594 103.331 35.5799 103.836 37.1342 104.275C36.6273 106.297 36.1881 108.285 35.7826 110.341C32.2348 129.047 35.0055 143.876 43.8582 148.965C52.9813 154.223 68.3215 148.831 83.2562 135.787C84.4389 134.743 85.6215 133.664 86.8041 132.518C88.2908 133.967 89.8451 135.349 91.3994 136.697C105.861 149.1 120.154 154.122 128.973 149.033C138.096 143.775 141.069 127.833 137.217 108.42C136.913 106.937 136.575 105.421 136.204 103.87C137.285 103.567 138.332 103.23 139.38 102.893C158.876 96.4554 173 86.041 173 75.3569C173 65.1448 159.687 55.2359 141.306 48.9333ZM95.5893 20.319C108.159 9.39908 119.884 5.11873 125.222 8.18575C130.933 11.455 133.129 24.6668 129.547 42.0241C129.311 43.17 129.074 44.2823 128.77 45.3945C121.278 43.7013 113.681 42.5078 106.03 41.8219C101.641 35.5404 96.8319 29.5613 91.6359 23.9253C92.9537 22.6783 94.2377 21.4987 95.5893 20.319ZM56.4953 92.8491C58.2186 95.7813 59.9756 98.7135 61.834 101.578C56.5676 101.007 51.3345 100.163 46.1559 99.0505C47.7362 93.9614 49.5744 88.9556 51.6635 84.0525C53.2178 87.0184 54.8059 89.9506 56.4953 92.8491ZM46.2572 52.3037C51.1228 51.2252 56.2926 50.3489 61.665 49.6748C59.8742 52.4722 58.1172 55.337 56.4615 58.2355C54.8059 61.134 53.184 64.0325 51.6635 66.9985C49.5348 61.9766 47.7439 57.0559 46.2572 52.3037ZM55.5154 75.5255C57.7455 70.8744 60.1783 66.3244 62.7463 61.8418C65.3143 57.3592 68.085 53.0115 70.9908 48.7311C76.0592 48.3604 81.2289 48.1582 86.5 48.1582C91.7711 48.1582 96.9746 48.3604 102.009 48.7311C104.881 52.9778 107.618 57.3255 110.22 61.7744C112.822 66.2233 115.266 70.762 117.552 75.3906C115.3 80.0417 112.867 84.6254 110.254 89.1417C107.686 93.6243 104.949 97.972 102.077 102.286C97.0422 102.657 91.8049 102.825 86.5 102.825C81.1951 102.825 76.0592 102.657 71.0922 102.353C68.1525 98.0731 65.3818 93.6917 62.7801 89.2091C60.1783 84.7265 57.7793 80.1765 55.5154 75.5255ZM116.538 92.7817C118.262 89.8158 119.884 86.8161 121.472 83.7828C123.629 88.6594 125.535 93.6428 127.182 98.7135C121.941 99.8984 116.64 100.798 111.301 101.41C113.126 98.5787 114.849 95.6802 116.538 92.7817ZM121.404 66.9985C119.816 64.0325 118.194 61.0666 116.505 58.1681C114.815 55.2696 113.126 52.4722 111.335 49.6748C116.547 50.3118 121.723 51.2117 126.844 52.3711C125.288 57.3382 123.472 62.2207 121.404 66.9985ZM86.5676 29.082C90.1125 32.9251 93.451 36.9527 96.5691 41.1478C89.8789 40.8445 83.1549 40.8445 76.4647 41.1478C79.776 36.8001 83.1887 32.7556 86.5676 29.082ZM47.3723 8.42167C53.0488 5.11873 65.6522 9.83722 78.9313 21.5661C79.776 22.3075 80.6207 23.1164 81.4992 23.9253C76.2706 29.5599 71.4278 35.539 67.0037 41.8219C59.3672 42.5016 51.7827 43.6724 44.2975 45.3271C43.8582 43.6082 43.4865 41.8556 43.1148 40.103C39.9387 23.7905 42.0336 11.4887 47.3723 8.42167ZM39.0939 97.2643C37.6748 96.8598 36.2895 96.4217 34.9041 95.9498C27.707 93.6917 19.5301 90.1191 13.617 85.4343C11.9298 84.2706 10.4968 82.7774 9.40496 81.0453C8.31308 79.3131 7.58495 77.378 7.26465 75.3569C7.26465 69.1892 17.942 61.3026 33.3498 55.9437C35.2758 55.2696 37.2355 54.663 39.1953 54.09C41.4924 61.4044 44.2575 68.5642 47.4736 75.5255C44.2235 82.5882 41.4247 89.8489 39.0939 97.2643ZM78.492 130.294C72.9219 135.388 66.4628 139.42 59.435 142.191C57.5835 143.077 55.569 143.573 53.5169 143.649C51.4648 143.724 49.4192 143.377 47.5074 142.629C42.135 139.529 39.9049 127.631 42.9459 111.622C43.3176 109.735 43.723 107.847 44.1961 105.993C51.7589 107.617 59.4245 108.72 67.1389 109.296C71.6075 115.605 76.4835 121.617 81.7357 127.294C80.6545 128.339 79.5732 129.35 78.492 130.294ZM86.7703 122.104C83.3238 118.396 79.8773 114.285 76.5322 109.869C79.776 110.004 83.1211 110.072 86.5 110.072C89.9803 110.072 93.393 110.004 96.7719 109.836C93.6637 114.103 90.3249 118.198 86.7703 122.104ZM130.933 132.215C130.777 134.26 130.202 136.252 129.243 138.067C128.284 139.881 126.961 141.48 125.357 142.764C119.985 145.865 108.53 141.82 96.1637 131.237C94.7445 130.024 93.3254 128.71 91.8725 127.362C97.0366 121.674 101.801 115.638 106.131 109.296C113.886 108.655 121.586 107.473 129.176 105.758C129.513 107.139 129.818 108.521 130.088 109.869C131.737 117.204 132.024 124.778 130.933 132.215ZM137.082 95.9835C136.136 96.2868 135.19 96.5902 134.21 96.8598C131.828 89.5064 128.949 82.3224 125.594 75.3569C128.824 68.4823 131.589 61.4 133.872 54.1574C135.629 54.663 137.319 55.2022 138.941 55.7415C154.686 61.134 165.735 69.1555 165.735 75.2895C165.735 81.8954 153.943 90.4224 137.082 95.9835ZM86.5 90.928C89.5607 90.928 92.5528 90.0227 95.0977 88.3265C97.6426 86.6303 99.6261 84.2195 100.797 81.3989C101.969 78.5783 102.275 75.4746 101.678 72.4803C101.081 69.486 99.607 66.7355 97.4428 64.5767C95.2785 62.4179 92.521 60.9477 89.5191 60.3521C86.5172 59.7565 83.4056 60.0622 80.5778 61.2305C77.7501 62.3989 75.3331 64.3774 73.6327 66.9158C71.9322 69.4543 71.0246 72.4388 71.0246 75.4918C71.0242 77.519 71.4241 79.5265 72.2017 81.3995C72.9793 83.2725 74.1191 84.9743 75.5563 86.4078C76.9934 87.8413 78.6995 88.9783 80.5773 89.7539C82.4551 90.5294 84.4676 90.9284 86.5 90.928Z" fill="white"/>
</svg>
