<svg width="32" height="32" viewBox="0 0 32 32" fill="none" xmlns="http://www.w3.org/2000/svg">
<path d="M25.4841 11.2144C25.155 11.1051 24.8259 11.0019 24.4969 10.9048C24.5517 10.6801 24.6005 10.4555 24.6492 10.2309C25.3988 6.61249 24.9052 3.70443 23.2416 2.7452C21.6389 1.82846 19.0247 2.78162 16.38 5.0765C16.118 5.30113 15.862 5.5379 15.6183 5.77468C15.4537 5.61683 15.2831 5.45898 15.1125 5.3072C12.3398 2.85448 9.56109 1.82239 7.8975 2.78769C6.30094 3.7105 5.82562 6.44857 6.49594 9.87267C6.56297 10.2127 6.63609 10.5466 6.72141 10.8865C6.33141 10.9958 5.9475 11.1172 5.58797 11.2447C2.33391 12.3679 0 14.1407 0 15.9741C0 17.8683 2.48625 19.7686 5.86828 20.9221C6.1425 21.0131 6.41672 21.1042 6.69703 21.1831C6.60563 21.5474 6.52641 21.9056 6.45328 22.2759C5.81344 25.6454 6.31313 28.3167 7.90969 29.2334C9.555 30.1805 12.3216 29.2091 15.015 26.8596C15.2283 26.6714 15.4416 26.4771 15.6548 26.2707C15.923 26.5318 16.2033 26.7807 16.4836 27.0235C19.0917 29.2577 21.6694 30.1623 23.2598 29.2456C24.9052 28.2985 25.4414 25.4268 24.7467 21.9299C24.6919 21.6628 24.6309 21.3896 24.5639 21.1103C24.7589 21.0556 24.9478 20.9949 25.1367 20.9342C28.6528 19.7746 31.2 17.8987 31.2 15.9741C31.2 14.1346 28.7991 12.3497 25.4841 11.2144ZM17.2392 6.06002C19.5061 4.09298 21.6206 3.32195 22.5834 3.87442C23.6133 4.46332 24.0094 6.84319 23.3634 9.96981C23.3208 10.1762 23.2781 10.3766 23.2233 10.5769C21.8721 10.2719 20.502 10.0569 19.1222 9.93338C18.3306 8.80188 17.4633 7.72485 16.5263 6.70963C16.7639 6.485 16.9955 6.27251 17.2392 6.06002ZM10.1888 19.125C10.4995 19.6532 10.8164 20.1814 11.1516 20.6975C10.2018 20.5945 9.25802 20.4426 8.32406 20.2421C8.60906 19.3254 8.94058 18.4237 9.31734 17.5405C9.59766 18.0747 9.88406 18.6029 10.1888 19.125ZM8.34234 11.8215C9.21984 11.6272 10.1522 11.4694 11.1211 11.3479C10.7981 11.8519 10.4813 12.3679 10.1827 12.89C9.88406 13.4121 9.59156 13.9342 9.31734 14.4685C8.93344 13.5639 8.61047 12.6775 8.34234 11.8215ZM10.012 16.0045C10.4142 15.1667 10.853 14.3471 11.3161 13.5396C11.7792 12.7322 12.2789 11.949 12.803 11.178C13.717 11.1112 14.6494 11.0748 15.6 11.0748C16.5506 11.0748 17.4891 11.1112 18.397 11.178C18.915 11.9429 19.4086 12.7261 19.8778 13.5275C20.347 14.3289 20.7878 15.1464 21.2002 15.9802C20.7939 16.818 20.3552 17.6437 19.8839 18.4572C19.4208 19.2647 18.9272 20.0478 18.4092 20.8249C17.5013 20.8917 16.5567 20.9221 15.6 20.9221C14.6433 20.9221 13.717 20.8917 12.8212 20.8371C12.2911 20.0661 11.7914 19.2768 11.3222 18.4694C10.853 17.6619 10.4203 16.8423 10.012 16.0045ZM21.0173 19.1129C21.3281 18.5786 21.6206 18.0383 21.907 17.4919C22.2961 18.3703 22.6398 19.268 22.9369 20.1814C21.9917 20.3948 21.0356 20.557 20.0728 20.6671C20.4019 20.1571 20.7127 19.635 21.0173 19.1129ZM21.8948 14.4685C21.6084 13.9342 21.3159 13.4 21.0112 12.8779C20.7066 12.3558 20.4019 11.8519 20.0789 11.3479C21.0189 11.4627 21.9524 11.6248 22.8759 11.8336C22.5953 12.7284 22.2678 13.6079 21.8948 14.4685ZM15.6122 7.63851C16.2515 8.33078 16.8536 9.05628 17.4159 9.81196C16.2094 9.75732 14.9967 9.75732 13.7902 9.81196C14.3873 9.02879 15.0028 8.30026 15.6122 7.63851ZM8.54344 3.91692C9.56719 3.32195 11.8402 4.17191 14.235 6.28465C14.3873 6.41821 14.5397 6.56392 14.6981 6.70963C13.7552 7.72461 12.8818 8.80162 12.0839 9.93338C10.7067 10.0558 9.33884 10.2667 7.98891 10.5648C7.90969 10.2552 7.84266 9.93946 7.77563 9.62376C7.20281 6.68534 7.58063 4.46939 8.54344 3.91692ZM7.05047 19.9204C6.79453 19.8475 6.54469 19.7686 6.29484 19.6836C4.99688 19.2768 3.52219 18.6333 2.45578 17.7894C2.1515 17.5798 1.89307 17.3108 1.69615 16.9988C1.49924 16.6868 1.36792 16.3382 1.31016 15.9741C1.31016 14.8631 3.23578 13.4425 6.01453 12.4772C6.36188 12.3558 6.71531 12.2465 7.06875 12.1433C7.48302 13.4608 7.9817 14.7505 8.56172 16.0045C7.97558 17.2767 7.47082 18.5846 7.05047 19.9204ZM14.1558 25.87C13.1512 26.7876 11.9864 27.514 10.7189 28.0131C10.385 28.1727 10.0217 28.2621 9.65161 28.2757C9.28152 28.2892 8.91259 28.2267 8.56781 28.0921C7.59891 27.5335 7.19672 25.3904 7.74516 22.5066C7.81219 22.1667 7.88531 21.8267 7.97063 21.4928C9.33455 21.7852 10.717 21.984 12.1083 22.0877C12.9142 23.2242 13.7935 24.3071 14.7408 25.3297C14.5458 25.5179 14.3508 25.7 14.1558 25.87ZM15.6487 24.3948C15.0272 23.7269 14.4056 22.9863 13.8023 22.1909C14.3873 22.2152 14.9906 22.2274 15.6 22.2274C16.2277 22.2274 16.8431 22.2152 17.4525 22.1849C16.8919 22.9536 16.2898 23.6913 15.6487 24.3948ZM23.6133 26.2161C23.5852 26.5845 23.4815 26.9433 23.3086 27.2702C23.1356 27.5971 22.8971 27.8851 22.6078 28.1163C21.6389 28.6749 19.5731 27.9464 17.3428 26.04C17.0869 25.8215 16.8309 25.5847 16.5689 25.3418C17.5002 24.3174 18.3595 23.2301 19.1405 22.0877C20.539 21.9722 21.9277 21.7592 23.2964 21.4503C23.3573 21.6992 23.4122 21.9481 23.4609 22.1909C23.7584 23.5121 23.8101 24.8764 23.6133 26.2161ZM24.7223 19.6896C24.5517 19.7443 24.3811 19.7989 24.2044 19.8475C23.7747 18.5229 23.2556 17.2288 22.6505 15.9741C23.233 14.7358 23.7317 13.46 24.1434 12.1554C24.4603 12.2465 24.765 12.3436 25.0575 12.4407C27.8972 13.4121 29.8898 14.857 29.8898 15.962C29.8898 17.1519 27.7631 18.6879 24.7223 19.6896ZM15.6 18.779C16.152 18.779 16.6916 18.6159 17.1506 18.3104C17.6095 18.0048 17.9673 17.5706 18.1785 17.0625C18.3897 16.5544 18.445 15.9953 18.3373 15.456C18.2296 14.9166 17.9638 14.4211 17.5735 14.0323C17.1832 13.6434 16.6859 13.3786 16.1445 13.2713C15.6031 13.164 15.0419 13.2191 14.532 13.4295C14.022 13.64 13.5861 13.9964 13.2794 14.4536C12.9727 14.9109 12.8091 15.4485 12.8091 15.9984C12.809 16.3636 12.8811 16.7252 13.0213 17.0626C13.1616 17.4 13.3672 17.7065 13.6263 17.9648C13.8855 18.223 14.1932 18.4278 14.5319 18.5675C14.8705 18.7072 15.2335 18.7791 15.6 18.779Z" fill="#0755E9"/>
</svg>
