<svg width="40" height="31" viewBox="0 0 40 31" fill="none" xmlns="http://www.w3.org/2000/svg">
<path fill-rule="evenodd" clip-rule="evenodd" d="M23.303 26.6076V30.8422H16.48V26.5827C7.11303 25.4689 0 19.9881 0 13.3947C0 5.99703 8.95422 0 19.9997 0C31.0452 0 40 5.99703 40 13.3947C40 17.1701 37.6678 20.5807 33.9157 23.0155L38.5577 30.8422L30.8472 30.8455L28.081 25.651C26.5767 26.0966 24.9749 26.4215 23.303 26.6076ZM32.8107 21.7229C32.6456 21.6132 32.489 21.5264 32.3727 21.4675C31.6693 21.1114 30.4589 20.7464 30.4589 20.7464C30.4589 20.7464 36.4221 20.3026 36.4221 14.3671C36.4221 8.43168 30.1815 8.31741 30.1815 8.31741H16.48V22.6502C11.3817 21.1722 7.86199 18.0306 7.86199 14.3938C7.86199 9.33642 14.6656 5.23707 23.0612 5.23707C31.4574 5.23707 37.653 8.04116 37.653 14.3938C37.653 17.8433 35.8251 20.2467 32.8107 21.7229ZM26.7839 23.3469C25.6787 23.4754 24.5144 23.5424 23.303 23.5502V22.0222H25.1336C25.5086 22.0222 25.67 22.1315 26.0489 22.4383C26.2662 22.6142 26.5485 22.9962 26.7839 23.3469ZM23.3585 13.2022H27.4912C27.4912 13.2022 29.4049 13.0996 29.4049 15.0816C29.4049 17.0237 27.4912 17.0298 27.4912 17.0298H23.3585V13.2022Z" fill="white"/>
</svg>
