<svg width="70" height="70" viewBox="0 0 70 70" fill="none" xmlns="http://www.w3.org/2000/svg">
<path d="M17.4664 8.85375L35.0017 6.99988L52.5371 8.85375L66.1129 27.0782L35.0017 63.3073L3.89062 27.0782L17.4664 8.85375Z" fill="#FDB300"/>
<path d="M16.4922 27.0786L35.0017 63.3073L3.89062 27.0782L16.4922 27.0786Z" fill="#EA6C00"/>
<path d="M53.5109 27.0785L35.0017 63.3073L66.1129 27.0782L53.5109 27.0785Z" fill="#EA6C00"/>
<path d="M16.4922 27.0786L53.5109 27.0785L35.0017 63.3073L16.4922 27.0786Z" fill="#FDAD00"/>
<path d="M35.0017 6.99988L17.4664 8.85375L16.4922 27.0786L35.0017 6.99988Z" fill="#FDD231"/>
<path d="M35.0017 6.99988L52.5371 8.85375L53.5109 27.0785L35.0017 6.99988Z" fill="#FDD231"/>
<path d="M66.1129 27.0782L52.5371 8.85375L53.5109 27.0785L66.1129 27.0782Z" fill="#FDAD00"/>
<path d="M3.89062 27.0782L17.4664 8.85375L16.4922 27.0786L3.89062 27.0782Z" fill="#FDAD00"/>
<path d="M35.0017 6.99988L16.4922 27.0786L53.5109 27.0785L35.0017 6.99988Z" fill="#FEEEB7"/>
</svg>
