<svg width="95" height="99" viewBox="0 0 95 99" fill="none" xmlns="http://www.w3.org/2000/svg">
<path fill-rule="evenodd" clip-rule="evenodd" d="M11.5556 48.6309C11.5556 39.3978 15.3 31.0351 21.3503 24.9829C27.4034 18.9308 35.7643 15.1882 44.9991 15.1882C45.6457 15.1882 46.296 15.2065 46.9535 15.243C47.6129 15.2814 48.2622 15.3371 48.8988 15.412C51.0358 15.6604 53.3372 16.2184 55.6386 17.0011C58.0313 17.8139 60.4259 18.8732 62.6323 20.0787L62.267 20.75C60.0656 19.5485 57.7656 18.5372 55.392 17.7271C53.1418 16.9618 50.8951 16.4157 48.8111 16.1746C47.5455 16.0265 46.2724 15.9527 44.9982 15.9535C35.9752 15.9535 27.8043 19.6121 21.8928 25.5245C15.9813 31.4369 12.3218 39.607 12.3218 48.6299H11.5547L11.5556 48.6309ZM78.5431 46.4253L77.7806 46.4372C77.8065 48.0214 77.7465 49.6058 77.6007 51.1834C77.4657 52.6783 77.24 54.1635 76.9248 55.631C75.3056 63.0439 71.1713 69.518 65.4634 74.109C59.6665 78.7792 52.4433 81.3203 44.9991 81.3082C42.2612 81.3082 39.6036 80.9721 37.0657 80.3374C34.4786 79.6928 31.9809 78.7319 29.629 77.4761L29.271 78.1501C34.1099 80.7349 39.5131 82.0827 44.9991 82.0735C52.9262 82.0735 60.2113 79.3127 65.9429 74.7017C71.7878 70.002 76.0161 63.3772 77.671 55.7908C77.9842 54.3588 78.2144 52.8245 78.3614 51.2519C78.5099 49.6466 78.5709 48.0345 78.5441 46.4226L78.5431 46.4253Z" fill="#0755E9"/>
<path fill-rule="evenodd" clip-rule="evenodd" d="M1.53667 49.3788C1.53667 49.4805 1.49626 49.5781 1.42432 49.65C1.35239 49.722 1.25483 49.7624 1.1531 49.7624C1.05137 49.7624 0.953809 49.722 0.881876 49.65C0.809943 49.5781 0.769531 49.4805 0.769531 49.3788V31.1894C0.769531 31.1757 0.769531 31.162 0.771358 31.1483C0.817021 28.488 1.12753 26.5199 1.98325 24.8797C2.85085 23.2249 4.25727 21.9299 6.48562 20.6331L22.8101 11.2073L38.5638 2.11127L38.5821 2.10214C40.9182 0.80257 42.7831 0.083835 44.637 0.00712126C46.5037 -0.071419 48.3266 0.498454 50.5641 1.77884L50.5823 1.79163L66.8904 11.2073L66.9087 11.2183L82.6414 20.3034L82.6459 20.3052C84.9446 21.6806 86.5044 22.9381 87.4999 24.5062C88.5008 26.0834 88.9191 27.9492 88.9264 30.5301V67.6102C88.8807 70.2705 88.573 72.2386 87.7136 73.8788C86.8487 75.5364 85.4432 76.8305 83.2112 78.1273L66.8895 87.5521C66.8822 87.5567 66.8749 87.5613 66.8666 87.564L51.1348 96.6464L51.1312 96.6482C48.7914 97.9514 46.9211 98.672 45.0644 98.7505C43.1968 98.8281 41.3748 98.2573 39.1374 96.9751L39.1173 96.9642L22.811 87.5503C22.7658 87.526 22.7259 87.4928 22.6937 87.4528C22.6615 87.4128 22.6377 87.3667 22.6236 87.3173C22.6096 87.2679 22.6056 87.2161 22.6119 87.1652C22.6183 87.1142 22.6348 87.065 22.6604 87.0205C22.6861 86.9761 22.7205 86.9372 22.7615 86.9062C22.8025 86.8753 22.8493 86.8529 22.8991 86.8404C22.9489 86.8279 23.0008 86.8255 23.0515 86.8334C23.1023 86.8413 23.1509 86.8593 23.1946 86.8864L39.499 96.3048L39.5145 96.3139C41.6242 97.5231 43.3228 98.061 45.0306 97.9879C46.7539 97.9149 48.522 97.2263 50.7568 95.9815H50.7586L66.4849 86.9037L66.5032 86.8891L82.8277 77.4661C84.9282 76.2441 86.2433 75.0423 87.036 73.5263C87.8287 72.0057 88.1182 70.1399 88.1593 67.5974V30.5301C88.1529 28.1026 87.7702 26.3629 86.8506 24.9172C85.9282 23.4614 84.4487 22.2742 82.2532 20.9609L66.5269 11.8804L66.5041 11.8694L50.1997 2.45374L50.1841 2.44461C48.0745 1.23728 46.3759 0.698458 44.6635 0.770605C42.9466 0.843666 41.1812 1.52861 38.9511 2.77064L38.9465 2.77338L23.1928 11.8694L6.86827 21.2943C4.76778 22.5153 3.45269 23.7162 2.66089 25.2332C1.86636 26.7537 1.57685 28.6195 1.53576 31.162C1.53759 31.1711 1.5385 31.1802 1.5385 31.1894V49.3788H1.53667Z" fill="#9699A6"/>
<path fill-rule="evenodd" clip-rule="evenodd" d="M1.71499 62.8949C1.58477 62.97 1.441 63.0187 1.29192 63.0381C1.14285 63.0575 0.991419 63.0472 0.846316 63.0079C0.701213 62.9687 0.565298 62.9011 0.446375 62.8091C0.327451 62.7172 0.22786 62.6027 0.153319 62.4721C-0.162668 61.9242 0.025463 61.2246 0.573418 60.9086L4.10225 58.872L4.10042 58.8684L16.7335 51.4847C16.203 46.1346 17.1872 40.7431 19.5738 35.9255C22.0679 30.8908 25.9986 26.7085 30.869 23.907C35.7146 21.0985 41.282 19.7844 46.872 20.1298C52.4824 20.4746 57.8677 22.4611 62.3581 25.8422C62.5147 25.9613 62.6381 26.1186 62.7166 26.299C62.7951 26.4794 62.826 26.6769 62.8064 26.8727C62.7868 27.0685 62.7173 27.2559 62.6046 27.4172C62.4919 27.5785 62.3398 27.7081 62.1627 27.7938L42.1194 39.3667L38.1303 41.6681L38.1321 41.6708C37.796 41.8653 37.6006 42.0306 37.5074 42.2078C37.4006 42.4124 37.3613 42.7238 37.3522 43.1777H37.3568V52.2336H37.3522C37.354 52.6126 37.4006 52.8637 37.5111 53.0409C37.6371 53.2372 37.8855 53.4272 38.2718 53.6601L42.123 55.8829L46.1085 58.1844V58.1807C46.4464 58.3743 46.6903 58.4638 46.8921 58.4547C47.1204 58.4455 47.4081 58.3268 47.8035 58.1058L51.6556 55.8811C51.6766 55.8691 51.6979 55.8578 51.7196 55.8473L71.7747 44.2672C72.0382 44.1153 72.3511 44.0743 72.6448 44.153C72.9385 44.2318 73.1889 44.424 73.341 44.6873C73.4195 44.827 73.4661 44.9741 73.4834 45.122H73.488C74.171 50.6996 73.1992 56.3548 70.6934 61.3844C68.1965 66.3969 64.2747 70.5601 59.4202 73.3518L59.422 73.3536C54.5919 76.1516 49.0449 77.4656 43.4728 77.1317C38.1398 76.8137 33.0019 75.0106 28.6397 71.9262L18.0733 78.0267L12.0951 81.5738C11.8329 81.7264 11.521 81.769 11.2275 81.6924C10.934 81.6159 10.6827 81.4264 10.5283 81.1652C10.374 80.9041 10.3292 80.5925 10.4037 80.2985C10.4783 80.0045 10.666 79.7518 10.9261 79.5957L16.9061 76.0523L16.9153 76.0477L28.1347 69.5681V69.57C28.521 69.3471 29.0178 69.3599 29.3968 69.6448C33.5238 72.7283 38.4644 74.5341 43.6071 74.8385C48.5597 75.1344 53.6529 74.0321 58.2695 71.3654L58.2713 71.3672L58.2749 71.3645C62.7372 68.7965 66.3416 64.9678 68.6359 60.3588C70.673 56.266 71.612 51.7143 71.361 47.1494L52.8639 57.8328L52.8045 57.8693L48.9542 60.0931V60.0903L48.936 60.0995C48.2218 60.4976 47.6263 60.7205 46.9816 60.7479C46.3094 60.7734 45.6921 60.5926 44.9678 60.1771V60.1753L44.9605 60.1725L40.9696 57.8684L37.1193 55.6446L37.1047 55.6355C36.4015 55.2117 35.9111 54.8071 35.5686 54.2692C35.2124 53.7057 35.0626 53.0747 35.059 52.2308H35.0544V43.1749H35.059V43.1567C35.0718 42.3402 35.1777 41.7137 35.4754 41.1448C35.7878 40.5466 36.2572 40.1018 36.9796 39.6817L36.9814 39.6845L36.9851 39.6826L40.976 37.3794L59.5334 26.6641C55.706 24.1644 51.2949 22.7017 46.7323 22.4193C41.592 22.0999 36.472 23.3073 32.016 25.8897C27.5383 28.4659 23.9239 32.3104 21.6286 36.9383C19.338 41.5569 18.4515 46.7457 19.0788 51.8628C19.1288 52.0991 19.1029 52.3451 19.0048 52.5659C18.9067 52.7866 18.7415 52.9707 18.5327 53.092L5.25387 60.852V60.8474L5.24656 60.852L1.71043 62.8922L1.71499 62.8949Z" fill="#9699A6"/>
<path fill-rule="evenodd" clip-rule="evenodd" d="M66.5413 53.5822C65.8645 56.4942 64.5962 59.2359 62.8152 61.6371C61.0335 64.0376 58.7788 66.0476 56.1904 67.5431C53.7086 68.9795 50.9676 69.9116 48.1246 70.2857C45.2816 70.6598 42.3928 70.4686 39.6239 69.7231C36.8536 68.9844 34.2564 67.7059 31.9815 65.961C29.7065 64.216 27.7985 62.039 26.367 59.5549L26.3615 59.5494C24.9237 57.0674 23.9907 54.3256 23.6161 51.4817C23.2415 48.6379 23.4327 45.748 24.1788 42.9783C24.9172 40.2066 26.1961 37.6083 27.9421 35.3326C29.6881 33.0568 31.8666 31.1487 34.3525 29.7178C36.9298 28.2289 39.7843 27.2827 42.7406 26.9372C45.6969 26.5917 48.6926 26.8542 51.5437 27.7086L51.3264 28.4438C48.5755 27.619 45.6851 27.365 42.8325 27.6975C39.9799 28.0299 37.2254 28.9418 34.7379 30.3772C32.3388 31.7577 30.2362 33.5987 28.5509 35.7945C26.8656 37.9903 25.6309 40.4974 24.9177 43.1719C24.1981 45.8445 24.0134 48.633 24.3742 51.3771C24.7349 54.1213 25.6341 56.7673 27.02 59.1631L27.0218 59.1649C28.4031 61.5631 30.2444 63.6649 32.4401 65.3497C34.6358 67.0345 37.1425 68.269 39.8166 68.9824C42.4894 69.7021 45.278 69.8866 48.0223 69.5251C50.7666 69.1637 53.4124 68.2636 55.8077 66.8765C58.3062 65.4344 60.482 63.4948 62.2006 61.1777C63.9177 58.8611 65.1417 56.2169 65.797 53.4086L66.5413 53.5822Z" fill="#0755E9"/>
<path fill-rule="evenodd" clip-rule="evenodd" d="M22.8585 65.0388C22.9464 64.9881 23.0508 64.9745 23.1488 65.0009C23.2467 65.0273 23.3302 65.0915 23.3808 65.1794C23.4315 65.2673 23.4451 65.3718 23.4187 65.4697C23.3923 65.5677 23.3281 65.6512 23.2402 65.7018L5.2901 76.1212C5.20212 76.1715 5.09778 76.185 4.99989 76.1586C4.90201 76.1323 4.81853 76.0682 4.76772 75.9805C4.71757 75.8923 4.70422 75.7879 4.73055 75.69C4.75687 75.592 4.82077 75.5084 4.90836 75.4572L22.8585 65.0388ZM19.3515 59.2441L1.40236 69.6644C1.31443 69.7151 1.25022 69.7985 1.22385 69.8965C1.19747 69.9945 1.21109 70.0989 1.26172 70.1868C1.31234 70.2747 1.39581 70.3389 1.49378 70.3653C1.59175 70.3917 1.69618 70.3781 1.7841 70.3275L19.7388 59.9072C19.9214 59.8021 19.9826 59.5693 19.8758 59.3866C19.851 59.3427 19.8178 59.3042 19.778 59.2733C19.7382 59.2424 19.6926 59.2198 19.644 59.2068C19.5953 59.1938 19.5445 59.1906 19.4946 59.1975C19.4447 59.2044 19.3967 59.2212 19.3534 59.2469L19.3515 59.2441Z" fill="#0755E9"/>
<path fill-rule="evenodd" clip-rule="evenodd" d="M69.5382 36.1301L73.331 38.3201L76.9931 40.4334C78.0553 41.027 78.6827 41.0891 79.6909 40.5101L86.1276 36.7675L89.7897 34.6534L90.9404 33.9885C91.9843 33.3638 92.3523 32.8533 92.356 31.6889V23.0833C92.3377 21.8659 92.0783 21.2933 91.0728 20.707L87.2792 18.517L83.6216 16.4037C82.5585 15.8101 81.932 15.748 80.9211 16.327L79.7731 16.99L79.7704 16.9928L79.7612 16.9973L77.131 18.517L73.4707 20.6303C73.3218 20.7179 73.1876 20.8038 73.0689 20.8878L69.6734 22.8486C68.6304 23.4742 68.2615 23.9847 68.2578 25.1482V33.7565C68.2761 34.9739 68.5354 35.5465 69.5409 36.131L69.5382 36.1301Z" fill="white"/>
<path fill-rule="evenodd" clip-rule="evenodd" d="M70.4958 34.4752L74.2904 36.667L77.948 38.7794C78.2037 38.9237 78.3645 38.9986 78.4348 39.004C78.4558 39.004 78.5535 38.9547 78.7362 38.8488L78.738 38.8524L85.1673 35.1136L88.7227 33.0587L88.8277 32.9994L89.9784 32.3363L89.9802 32.3382C90.2268 32.1884 90.3747 32.0852 90.4186 32.0185C90.435 31.9911 90.4432 31.887 90.4441 31.6916H90.435V27.3125H90.4441V23.1161C90.4396 22.801 90.4259 22.611 90.3893 22.5444C90.3802 22.5261 90.2907 22.4713 90.1108 22.3654L86.318 20.1754L86.3199 20.1726L82.6887 18.0758H82.6869C82.4129 17.9242 82.244 17.842 82.1718 17.8384C82.1481 17.8384 82.0513 17.8868 81.8677 17.9936L81.8632 17.9863L80.7307 18.6411L80.7216 18.6466L80.7152 18.6539L80.7061 18.6575L80.7024 18.6621V18.6649L80.7006 18.663L78.0823 20.1763L74.4238 22.2905L74.2895 22.3754C74.2493 22.401 74.2073 22.4302 74.1662 22.4576L74.0155 22.5489L70.6502 24.4924V24.4951C70.3872 24.6504 70.2319 24.7599 70.1881 24.8275C70.1698 24.8549 70.1625 24.959 70.1625 25.1536H70.1698V29.5345H70.1625V33.7391C70.1661 34.0496 70.1808 34.2368 70.2173 34.3035C70.2264 34.3218 70.3132 34.3802 70.4931 34.4843L70.4958 34.4752ZM72.3735 39.9748L68.5789 37.7858C67.7542 37.3054 67.209 36.7812 66.8327 36.0624C66.4839 35.3921 66.3579 34.6852 66.3451 33.7775V29.5272H66.3359V25.1481H66.3451C66.3451 24.18 66.5241 23.4448 66.9533 22.77C67.3551 22.1398 67.9058 21.6777 68.6885 21.2083L68.7177 21.1955L71.9899 19.305L72.2182 19.1516L72.4831 18.9918L72.5059 18.9763L76.1653 16.863L78.7992 15.3433V15.3461L78.8302 15.3242L78.8321 15.3223L78.8357 15.3278L79.9681 14.6739V14.6666C80.7919 14.1917 81.5143 13.9844 82.3216 14.0182C83.0796 14.0502 83.7554 14.2949 84.5454 14.7351L84.5691 14.7534L88.2286 16.8657H88.2377L92.0305 19.0557C92.857 19.537 93.4022 20.0603 93.7766 20.779C94.1273 21.4494 94.2515 22.1553 94.2661 23.0576V27.3152H94.2734V31.6943H94.2661C94.2616 32.6624 94.0835 33.3966 93.6561 34.0715C93.2542 34.7062 92.7017 35.1674 91.9191 35.6332L91.8971 35.6496L90.8524 36.2551L90.7455 36.3154L87.087 38.4278L80.6504 42.1721L80.6412 42.1794C79.8156 42.6525 79.0933 42.8616 78.285 42.8279C77.527 42.795 76.853 42.5502 76.0621 42.111L76.0311 42.0954L72.3735 39.9748Z" fill="#0755E9"/>
<path fill-rule="evenodd" clip-rule="evenodd" d="M69.5361 36.1305L73.3289 38.3205L76.9911 40.4338C78.0532 41.0274 78.6806 41.0895 79.6888 40.5105L86.1255 36.7679L89.7876 34.6537C90.8306 34.0291 91.1977 33.5195 91.2032 32.3551V23.7467C91.1831 22.5293 90.9256 21.9567 89.9191 21.3704L86.1255 19.1804L82.466 17.0671C81.4021 16.4753 80.7765 16.4123 79.7655 16.9913L73.3289 20.7338L69.6695 22.848C68.6283 23.4736 68.2585 23.9832 68.2539 25.1476V33.756C68.2722 34.9706 68.5324 35.546 69.5379 36.1305H69.5361Z" fill="white"/>
<path fill-rule="evenodd" clip-rule="evenodd" d="M69.7326 35.8009L73.5253 37.9891L77.1875 40.1024C77.6624 40.3672 78.035 40.5133 78.3811 40.5279C78.7172 40.5435 79.0633 40.4302 79.5044 40.1782L85.9402 36.4356L89.6023 34.3224V34.3251C90.0681 34.0447 90.3813 33.7954 90.5686 33.5032C90.7494 33.2164 90.8243 32.8602 90.8279 32.3561V23.7532C90.8206 23.2053 90.7622 22.8089 90.5996 22.5002C90.4444 22.2016 90.175 21.9577 89.7357 21.7029L85.9456 19.5129H85.9429L82.2826 17.3997C81.8049 17.1348 81.4351 16.9887 81.0889 16.9741C80.7529 16.9595 80.4058 17.0727 79.9656 17.3248L73.5299 21.0664L69.8714 23.1797C69.4029 23.4582 69.0915 23.7066 68.9052 24.0016C68.7225 24.2847 68.6467 24.6427 68.6449 25.1468H68.6476V29.5268H68.6449V33.7488C68.654 34.2986 68.7134 34.694 68.8732 35.0027C69.0284 35.3014 69.3006 35.5443 69.738 35.8L69.7326 35.8009ZM73.1436 38.6503L69.3499 36.4612H69.3481C68.7819 36.1306 68.4184 35.7945 68.1901 35.3562C67.9654 34.9269 67.885 34.4265 67.875 33.758V25.1478C67.8777 24.4884 67.9882 24.0062 68.2522 23.5906C68.5115 23.1824 68.9042 22.8637 69.4778 22.5203L69.4814 22.5167L73.1436 20.4034L79.5775 16.659C80.1492 16.333 80.6204 16.1878 81.1154 16.2088C81.5994 16.2289 82.0716 16.4097 82.6543 16.7339L82.6607 16.7376L86.321 18.8508L90.111 21.0408H90.1138C90.6827 21.3696 91.0453 21.7075 91.2736 22.1459C91.4983 22.5751 91.5777 23.0747 91.5878 23.7422V32.3543C91.585 33.0118 91.4745 33.4959 91.2133 33.9096C90.9531 34.3169 90.5603 34.6365 89.985 34.9799L89.9813 34.9826L86.3219 37.0959L79.8862 40.8403C79.3145 41.1663 78.8432 41.3106 78.3501 41.2905C77.866 41.2695 77.3912 41.0896 76.8112 40.7654L76.8048 40.7608L73.1445 38.6466L73.1436 38.6503Z" fill="#0755E9"/>
<path fill-rule="evenodd" clip-rule="evenodd" d="M73.336 33.913L77.1297 36.1021L80.7891 38.2144C81.8558 38.8062 82.4814 38.8683 83.4923 38.2911L87.2824 36.0993L90.9445 33.9869C91.9893 33.3623 92.3573 32.8518 92.3601 31.6874V23.0817C92.3418 21.8643 92.0834 21.2917 91.0779 20.7045L87.2833 18.5163L83.6257 16.4031C82.5626 15.8113 81.9362 15.7473 80.9252 16.3263L77.1324 18.5163L73.4739 20.6296C72.4264 21.2543 72.0602 21.7657 72.0547 22.9283V31.5358C72.073 32.7522 72.3323 33.3257 73.3387 33.9121L73.336 33.913ZM78.3534 29.5339C77.7637 28.5121 77.6039 27.2979 77.9094 26.1584C78.2148 25.0188 78.9605 24.0473 79.9822 23.4575C81.004 22.8677 82.2182 22.708 83.3578 23.0135C84.4973 23.3189 85.4688 24.0646 86.0586 25.0863C86.6487 26.1076 86.809 27.3215 86.5041 28.4609C86.1993 29.6004 85.4543 30.5721 84.433 31.1622C83.411 31.752 82.1967 31.9117 81.057 31.6064C79.9173 31.301 78.9455 30.5556 78.3553 29.5339H78.3534Z" fill="white"/>
<path fill-rule="evenodd" clip-rule="evenodd" d="M73.5244 33.5821L77.3181 35.7712L80.9784 37.8845C81.456 38.1493 81.8259 38.2991 82.172 38.3137C82.5072 38.3265 82.8533 38.2133 83.2954 37.9621L87.0872 35.773L90.7466 33.6598C91.2124 33.3794 91.5247 33.1301 91.711 32.8378C91.8937 32.552 91.9704 32.1949 91.9713 31.6908V23.0851C91.9622 22.5372 91.9037 22.1445 91.743 21.8367C91.5877 21.5381 91.3183 21.2942 90.8791 21.0394L87.0872 18.8494L83.425 16.7362H83.4269C82.9483 16.4713 82.5775 16.3252 82.2323 16.3097C81.8944 16.296 81.5474 16.4083 81.109 16.6613L77.3172 18.8504L73.655 20.9636C73.1892 21.2449 72.876 21.4933 72.6897 21.7856C72.507 22.0732 72.4321 22.4285 72.4303 22.9335H72.4321V31.5401H72.4303C72.4394 32.088 72.4979 32.4807 72.6586 32.7894C72.8139 33.0881 73.086 33.331 73.5226 33.5858L73.5244 33.5821ZM76.9336 36.4342L73.1417 34.2424C72.5755 33.9136 72.2139 33.5757 71.9846 33.1374C71.76 32.7081 71.6805 32.2095 71.6705 31.5419L71.6677 31.5364V22.9299H71.6696C71.6696 22.2705 71.781 21.7883 72.044 21.3728C72.3025 20.9673 72.697 20.6477 73.2705 20.3043L73.2751 20.3015L76.9345 18.1882L80.7291 15.9983V15.9964C81.2981 15.6695 81.7702 15.5252 82.2634 15.5462C82.7474 15.5645 83.2223 15.7453 83.804 16.0704L83.8104 16.0741L87.4708 18.1873L91.2626 20.3773C91.8316 20.7061 92.1941 21.044 92.4225 21.4824C92.6462 21.9116 92.7266 22.4102 92.7375 23.0778V31.6899C92.7321 32.3502 92.6225 32.8314 92.3594 33.2479C92.1001 33.6552 91.7074 33.9748 91.1329 34.3182L91.1293 34.3219L87.4671 36.4333L83.6744 38.6224C83.1045 38.9494 82.6332 39.0937 82.1373 39.0727C81.6533 39.0526 81.1812 38.8717 80.5967 38.5475L80.5921 38.5448L76.9299 36.4315L76.9336 36.4342ZM78.0204 29.7254L78.0185 29.7218C77.7013 29.1731 77.4956 28.567 77.4133 27.9386C77.331 27.3101 77.3738 26.6715 77.5391 26.0596C77.7025 25.4466 77.9854 24.8719 78.3716 24.3685C78.7578 23.8651 79.2396 23.4429 79.7893 23.1262V23.129C80.3382 22.8112 80.9444 22.6048 81.5731 22.5218C82.2019 22.4387 82.8408 22.4806 83.4533 22.6449C84.6497 22.9646 85.721 23.7409 86.3886 24.8952H86.3867L86.3886 24.897C87.0552 26.0514 87.1922 27.3683 86.8726 28.5592C86.709 29.1726 86.4258 29.7475 86.0393 30.2511C85.6528 30.7546 85.1707 31.1769 84.6205 31.4935C84.0714 31.8116 83.4649 32.0181 82.8359 32.1012C82.2068 32.1842 81.5675 32.1422 80.9547 31.9775C80.3417 31.8143 79.767 31.5313 79.2639 31.1449C78.7607 30.7586 78.3391 30.2765 78.0231 29.7264L78.0204 29.7254ZM78.6816 29.3419C78.4143 28.8798 78.2409 28.3695 78.1713 27.8403C78.1017 27.311 78.1373 26.7733 78.2761 26.2578C78.4137 25.7416 78.652 25.2578 78.9772 24.834C79.3024 24.4102 79.7081 24.0549 80.1711 23.7883L80.1757 23.7847C80.6374 23.5186 81.147 23.3462 81.6754 23.2773C82.2038 23.2083 82.7406 23.2442 83.2552 23.3829C84.2597 23.6523 85.1639 24.3053 85.7237 25.277L85.7283 25.2824C85.9943 25.7442 86.1667 26.2538 86.2357 26.7822C86.3046 27.3106 86.2688 27.8474 86.1301 28.3619C85.9928 28.878 85.7548 29.3618 85.4297 29.7854C85.1046 30.2091 84.6989 30.5643 84.236 30.8305C83.7737 31.0984 83.2629 31.2722 82.7332 31.3419C82.2034 31.4117 81.6651 31.376 81.1492 31.2369C80.633 31.0993 80.1492 30.861 79.7254 30.5358C79.3016 30.2106 78.9462 29.8048 78.6797 29.3419H78.6816Z" fill="#0755E9"/>
</svg>
