<svg width="90" height="102" viewBox="0 0 90 102" fill="none" xmlns="http://www.w3.org/2000/svg">
<path fill-rule="evenodd" clip-rule="evenodd" d="M73.7355 34.8841L51.3999 47.8661L50.8245 46.8734L73.1583 33.8923L73.7355 34.886V34.8841ZM38.9951 55.0763L16.1691 68.3395L15.5938 67.3477L38.4207 54.0836L38.996 55.0754L38.9951 55.0763Z" fill="#0755E9"/>
<path fill-rule="evenodd" clip-rule="evenodd" d="M82.9862 79.8175C85.2182 78.4814 86.7214 77.2741 87.6621 75.7955C88.5954 74.3252 88.9863 72.558 88.9927 70.0876V32.4513C88.9534 29.8531 88.6593 27.949 87.8493 26.3964C87.0438 24.8548 85.7068 23.6338 83.5698 22.3909L66.9822 12.8163L50.9819 3.57408C48.7079 2.30922 46.9125 1.61058 45.1626 1.53569C43.4229 1.46263 41.6968 2.01058 39.5525 3.238L22.9677 12.8135L6.17654 22.5059L5.79297 21.8447L22.5832 12.1514H22.586L39.1726 2.57589C41.4466 1.27267 43.2978 0.694578 45.1928 0.774031C47.0796 0.852572 48.9773 1.58501 51.3573 2.90832L51.3591 2.91288L67.3631 12.1551H67.3667L83.9515 21.7306C86.2164 23.0484 87.6447 24.3626 88.5224 26.0448C89.3973 27.7161 89.7123 29.728 89.7552 32.4468V70.0867C89.7461 72.7114 89.3233 74.6037 88.3068 76.2056C87.2949 77.7964 85.7095 79.0759 83.3734 80.4723L82.9834 79.8175H82.9862Z" fill="#9699A6"/>
<path fill-rule="evenodd" clip-rule="evenodd" d="M41.6036 45.6665C39.1926 40.9541 36.0482 38.8243 32.3742 38.2846C28.6271 37.7366 24.2919 38.8052 19.6087 40.4874C16.7136 41.5258 13.8277 42.1404 11.172 42.0125C8.4596 41.8819 5.98832 40.9869 3.99194 39.0033C3.80711 38.8197 3.62979 38.6287 3.46042 38.4307C2.1983 36.9531 0.94896 34.637 0.843022 31.8498C0.738911 29.0735 1.76541 25.8469 5.04219 22.5464C5.46229 22.1245 5.91892 21.7016 6.41208 21.2788L7.15912 22.1491C6.68697 22.5528 6.25225 22.9546 5.8559 23.3546C2.84215 26.3903 1.89601 29.3155 1.98916 31.8087C2.08049 34.2909 3.20014 36.3604 4.33167 37.6828C4.48875 37.8654 4.64583 38.0353 4.79926 38.1878C6.57555 39.9504 8.78563 40.7467 11.224 40.8636C13.72 40.9824 16.457 40.3979 19.2214 39.4043C24.0654 37.6654 28.5732 36.5613 32.5368 37.1439C36.5734 37.7376 40.0127 40.0454 42.6191 45.1404L41.5999 45.661L41.6036 45.6665Z" fill="#0755E9"/>
<path fill-rule="evenodd" clip-rule="evenodd" d="M52.5318 51.2633C52.5187 51.5673 52.3854 51.8536 52.1612 52.0593C51.937 52.265 51.6403 52.3732 51.3363 52.3602C51.0323 52.3471 50.746 52.2138 50.5403 51.9896C50.3346 51.7654 50.2264 51.4687 50.2395 51.1647L50.245 51.0505C50.2468 50.9629 50.2413 51.1108 50.2413 50.9355C50.2423 50.2433 50.1065 49.5578 49.8416 48.9183C49.5767 48.2789 49.188 47.6981 48.6979 47.2094C48.2091 46.7194 47.6283 46.3308 46.9888 46.066C46.3494 45.8011 45.6639 45.6652 44.9718 45.666C43.5197 45.666 42.201 46.2559 41.2485 47.2094C40.2959 48.1628 39.7078 49.4797 39.7078 50.9355C39.706 51.926 39.9842 52.8969 40.5101 53.7363C41.036 54.5756 41.7883 55.2494 42.6804 55.6799C42.8161 55.7454 42.9376 55.837 43.0379 55.9495C43.1382 56.062 43.2153 56.1931 43.265 56.3354C43.3146 56.4777 43.3357 56.6284 43.327 56.7789C43.3184 56.9293 43.2802 57.0766 43.2147 57.2123C43.1492 57.348 43.0575 57.4695 42.945 57.5698C42.8326 57.6701 42.7014 57.7472 42.5591 57.7968C42.4168 57.8464 42.2661 57.8675 42.1157 57.8589C41.9652 57.8503 41.818 57.8121 41.6822 57.7466C40.4028 57.1275 39.3235 56.1606 38.568 54.9566C37.8094 53.7516 37.4067 52.3567 37.4064 50.9327C37.4064 48.8414 38.253 46.9509 39.6229 45.581C40.9927 44.2112 42.8832 43.3636 44.9746 43.3636C47.0659 43.3636 48.9564 44.2093 50.3262 45.5792C51.6961 46.9491 52.5427 48.8395 52.5427 50.9309C52.5427 51.0131 52.5409 50.9108 52.5363 51.0916C52.5363 51.1711 52.5327 51.2286 52.5327 51.2579L52.5318 51.2633Z" fill="#0755E9"/>
<path fill-rule="evenodd" clip-rule="evenodd" d="M46.5 53.3036L48.1165 88.0439C54.5823 87.5006 60.0929 90.6193 63.0026 96.3519C67.9662 93.4842 70.4155 92.2605 75.3772 89.3974C71.2347 83.5644 72.0621 77.5086 75.7791 72.0729C66.0182 65.8143 56.2609 59.5576 46.5 53.3018V53.3036ZM59.7194 76.199C60.743 75.608 61.9594 75.4479 63.1011 75.7538C64.2428 76.0596 65.2162 76.8065 65.8072 77.8301C66.1003 78.3366 66.2905 78.896 66.3672 79.4762C66.4438 80.0564 66.4052 80.646 66.2537 81.2113C66.1022 81.7766 65.8408 82.3064 65.4843 82.7705C65.1278 83.2346 64.6832 83.6239 64.1761 83.916C63.1528 84.507 61.9366 84.6673 60.7951 84.3616C59.6536 84.0559 58.6802 83.3092 58.0893 82.2859C57.4983 81.2625 57.338 80.0463 57.6437 78.9048C57.9494 77.7633 58.6961 76.79 59.7194 76.199Z" fill="white"/>
<path fill-rule="evenodd" clip-rule="evenodd" d="M48.5816 56.9092L49.936 86.0695C52.7917 86.1307 55.4548 86.8549 57.801 88.1645C60.1462 89.4723 62.1572 91.3591 63.7043 93.7445C65.444 92.7555 66.855 91.9765 68.2669 91.1966C69.6697 90.4249 71.0688 89.6531 72.6962 88.7308C71.2642 86.1508 70.6459 83.5325 70.7053 80.9315C70.7711 78.0822 71.6478 75.304 73.1528 72.662L48.5825 56.9092H48.5816ZM46.2044 88.1271L44.5934 53.4735C44.5618 53.1172 44.6308 52.7592 44.7925 52.4402C44.9542 52.1211 45.2021 51.8538 45.5081 51.6686C45.8141 51.4834 46.1659 51.3878 46.5236 51.3925C46.8812 51.3972 47.2304 51.5022 47.5314 51.6954L76.8132 70.4619H76.8104L76.8561 70.4911C77.2751 70.7774 77.5633 71.2183 77.6575 71.7169C77.7517 72.2156 77.6441 72.7312 77.3584 73.1506C75.6205 75.6958 74.5867 78.3525 74.5245 81.0064C74.4698 83.39 75.1985 85.8284 76.9045 88.2467C77.0676 88.4627 77.1829 88.7109 77.2429 88.9748C77.3028 89.2388 77.306 89.5124 77.2522 89.7777C77.1984 90.043 77.0889 90.2938 76.9308 90.5135C76.7728 90.7332 76.5699 90.9169 76.3355 91.0523C74.2734 92.2413 72.1983 93.4079 70.1108 94.5519C68.2422 95.5838 66.371 96.6158 63.9627 98.004C63.7375 98.1347 63.4879 98.2181 63.2293 98.249C62.9707 98.2799 62.7085 98.2576 62.4588 98.1836C62.2091 98.1095 61.9772 97.9852 61.7772 97.8184C61.5773 97.6515 61.4135 97.4455 61.296 97.2131C60.0138 94.687 58.169 92.7445 55.9443 91.5034C53.7324 90.2687 51.1186 89.7162 48.2729 89.9536V89.95L48.1999 89.9518C47.6934 89.9738 47.1989 89.7938 46.8252 89.4512C46.4515 89.1087 46.2292 88.6317 46.2071 88.1253L46.2044 88.1271ZM60.6668 77.8566L60.6695 77.8548C60.9596 77.6878 61.2798 77.5797 61.6117 77.5368C61.9436 77.4938 62.2808 77.5169 62.6038 77.6045C63.2339 77.7744 63.8001 78.1826 64.1518 78.7918L64.1554 78.789C64.3212 79.0785 64.4284 79.3979 64.4707 79.7289C64.513 80.0598 64.4896 80.3959 64.402 80.7178C64.2369 81.3391 63.8419 81.8745 63.2969 82.2156C63.2695 82.2311 63.244 82.2475 63.2148 82.2612C62.926 82.4281 62.6071 82.5362 62.2764 82.5795C61.9457 82.6227 61.6097 82.6002 61.2878 82.5133C60.9654 82.4281 60.663 82.2803 60.3979 82.0781C60.1327 81.8759 59.91 81.6235 59.7425 81.3352C59.5756 81.0448 59.4676 80.7243 59.4246 80.392C59.3817 80.0598 59.4047 79.7224 59.4923 79.3991C59.6644 78.7498 60.0871 78.1954 60.6677 77.8575L60.6668 77.8566ZM55.7927 78.4109C56.2107 76.8509 57.2074 75.5087 58.58 74.6574C58.6959 74.5714 58.8215 74.4993 58.9544 74.4428C60.3856 73.6754 62.0564 73.4855 63.6234 73.912C65.1904 74.3385 66.5344 75.3491 67.3792 76.736C67.4504 76.8392 67.5135 76.9497 67.5646 77.0648C68.3254 78.4873 68.5167 80.1458 68.0998 81.7041C67.6734 83.2872 66.6527 84.6448 65.2504 85.4942C65.2139 85.5216 65.1719 85.5435 65.1317 85.57C64.4078 85.9896 63.6081 86.2621 62.7785 86.3719C61.949 86.4816 61.1059 86.4263 60.2978 86.2092C59.489 85.9931 58.731 85.6191 58.0674 85.1087C57.4037 84.5984 56.8476 83.9618 56.4311 83.2357C56.012 82.5125 55.7398 81.7138 55.6301 80.8852C55.5204 80.0566 55.5753 79.2146 55.7918 78.4073L55.7927 78.4109Z" fill="#9699A6"/>
<path fill-rule="evenodd" clip-rule="evenodd" d="M46.5 53.3036L48.1165 88.0439C54.6152 87.18 60.7377 91.5481 63.0026 96.3519C67.9662 93.4842 70.4155 92.2605 75.3772 89.3974C71.5534 84.5736 71.8996 76.9077 75.7791 72.0729C66.0182 65.8143 56.2609 59.5576 46.5 53.3018V53.3036ZM59.7194 76.199C60.743 75.608 61.9594 75.4479 63.1011 75.7538C64.2428 76.0596 65.2162 76.8065 65.8072 77.8301C66.1003 78.3366 66.2905 78.896 66.3672 79.4762C66.4438 80.0564 66.4052 80.646 66.2537 81.2113C66.1022 81.7766 65.8408 82.3064 65.4843 82.7705C65.1278 83.2346 64.6832 83.6239 64.1761 83.916C63.1528 84.507 61.9366 84.6673 60.7951 84.3616C59.6536 84.0559 58.6802 83.3092 58.0893 82.2859C57.4983 81.2625 57.338 80.0463 57.6437 78.9048C57.9494 77.7633 58.6961 76.79 59.7194 76.199Z" fill="white"/>
<path fill-rule="evenodd" clip-rule="evenodd" d="M46.9128 54.0227L48.4745 87.616C51.4754 87.3165 54.3787 88.0818 56.86 89.4681C59.6363 91.0161 61.8884 93.3422 63.1615 95.8153C65.0975 94.7037 67.0446 93.6117 69.0027 92.5394C70.7653 91.5668 72.5279 90.5969 74.8083 89.2827C73.0457 86.8781 72.2329 83.858 72.3032 80.8351C72.3735 77.7364 73.3699 74.6277 75.2193 72.1655L46.9128 54.0227ZM47.7311 88.0599L46.1146 53.3378C46.1085 53.2665 46.1225 53.195 46.1549 53.1313C46.1873 53.0675 46.2369 53.0141 46.2981 52.9771C46.3593 52.9401 46.4296 52.9209 46.5011 52.9217C46.5726 52.9225 46.6424 52.9432 46.7027 52.9816L75.9791 71.7491C75.99 71.7582 76.001 71.7646 76.0129 71.7765C76.1745 71.9043 76.2028 72.1482 76.0695 72.3126C74.1626 74.6916 73.1325 77.7739 73.0603 80.8515C72.9936 83.8543 73.8366 86.848 75.6722 89.1595C75.6814 89.1732 75.6941 89.1896 75.7015 89.2051C75.7522 89.293 75.7661 89.3974 75.7401 89.4954C75.7141 89.5935 75.6503 89.6773 75.5626 89.7284C73.5104 90.9113 71.4454 92.0718 69.368 93.2098C67.2976 94.3426 65.2396 95.4979 63.1944 96.6756C63.1825 96.6811 63.1697 96.6902 63.1578 96.6957C63.0661 96.7385 62.9612 96.7434 62.8659 96.7092C62.7706 96.6749 62.6927 96.6044 62.6492 96.513C61.482 94.0381 59.261 91.6819 56.4865 90.133C54.0262 88.7604 51.1348 88.0279 48.1694 88.4197L48.1238 88.4252C48.0738 88.4273 48.0238 88.4195 47.9768 88.4022C47.9298 88.385 47.8867 88.3587 47.8499 88.3247C47.813 88.2908 47.7833 88.2499 47.7623 88.2045C47.7413 88.1591 47.7294 88.1099 47.7274 88.0599H47.7311ZM59.9012 76.5346L59.9039 76.5327C60.3669 76.2649 60.8782 76.091 61.4086 76.0211C61.9389 75.9513 62.4778 75.9867 62.9944 76.1254C63.5113 76.2633 63.9958 76.5019 64.4203 76.8276C64.8447 77.1532 65.2006 77.5596 65.4675 78.0232C66.0291 78.9958 66.1433 80.1054 65.8739 81.1127C65.5974 82.15 64.9226 83.0361 63.9962 83.5785L63.978 83.5877C63.5149 83.8555 63.0036 84.0294 62.4733 84.0993C61.943 84.1691 61.4041 84.1337 60.8875 83.995C60.3704 83.8576 59.8856 83.6192 59.4611 83.2934C59.0367 82.9677 58.6809 82.5612 58.4144 82.0972C58.1461 81.6342 57.972 81.1227 57.9021 80.5922C57.8322 80.0617 57.8678 79.5225 58.0071 79.0058C58.144 78.4893 58.3817 78.0049 58.7067 77.5806C59.0316 77.1563 59.4372 76.8005 59.9002 76.5337L59.9012 76.5346ZM57.2673 78.8068C57.4338 78.1868 57.7221 77.6062 58.1154 77.0988C58.5086 76.5914 58.9989 76.1674 59.5578 75.8514C60.6635 75.225 61.9712 75.0587 63.1985 75.3885C64.4258 75.7183 65.4741 76.5177 66.1168 77.614C66.1287 77.635 66.1415 77.6542 66.1515 77.6752C66.7781 78.7793 66.9448 80.0858 66.6154 81.3118C66.2861 82.5425 65.4834 83.5931 64.3825 84.2343L64.3606 84.248C63.8107 84.5663 63.2032 84.773 62.5732 84.8561C61.9432 84.9391 61.303 84.897 60.6893 84.732C60.075 84.5684 59.4991 84.2848 58.9949 83.8977C58.4907 83.5105 58.068 83.0274 57.7514 82.4762C57.4329 81.9263 57.2262 81.3189 57.1431 80.6889C57.06 80.0588 57.1023 79.4186 57.2673 78.8049V78.8068Z" fill="#9699A6"/>
<path fill-rule="evenodd" clip-rule="evenodd" d="M46.1641 53.4931C46.1136 53.4053 46.1 53.301 46.1264 53.2032C46.1528 53.1054 46.2169 53.0221 46.3047 52.9716C46.3925 52.9211 46.4968 52.9076 46.5946 52.934C46.6924 52.9603 46.7757 53.0245 46.8262 53.1123L60.0447 76.0095C60.1506 76.1922 60.0867 76.4259 59.9041 76.5301C59.7214 76.6342 59.4876 76.5739 59.3835 76.3894L46.1632 53.4931H46.1641Z" fill="#9699A6"/>
<path fill-rule="evenodd" clip-rule="evenodd" d="M17.9013 64.4384H13.862C13.4946 64.4392 13.1425 64.5855 12.8828 64.8453C12.6231 65.1052 12.477 65.4574 12.4766 65.8248V69.8632C12.4766 70.6267 13.0994 71.2513 13.862 71.2513H17.9013C18.6639 71.2513 19.2867 70.6267 19.2867 69.8632V65.8248C19.2863 65.4574 19.1402 65.1052 18.8805 64.8453C18.6208 64.5855 18.2687 64.4392 17.9013 64.4384ZM75.4659 30.9812H71.4265C71.0595 30.9822 70.7077 31.1285 70.4483 31.3881C70.1888 31.6477 70.0427 31.9996 70.042 32.3666V36.406C70.042 37.1685 70.663 37.7914 71.4265 37.7914H75.4659C75.8331 37.7906 76.185 37.6445 76.4447 37.3848C76.7044 37.1251 76.8505 36.7732 76.8513 36.406V32.3666C76.8505 31.9994 76.7044 31.6474 76.4447 31.3878C76.185 31.1281 75.8331 30.9819 75.4659 30.9812Z" fill="#0755E9"/>
<path fill-rule="evenodd" clip-rule="evenodd" d="M84.8775 76.0103C84.0508 76.0124 83.2585 76.3418 82.6739 76.9264C82.0894 77.511 81.76 78.3032 81.7578 79.1299V79.1336C81.7578 80.8505 83.1624 82.2533 84.8793 82.2533C86.5963 82.2533 87.999 80.8487 87.999 79.1327V79.1309C87.9961 78.3045 87.6665 77.5129 87.082 76.9287C86.4975 76.3446 85.7057 76.0154 84.8793 76.013L84.8775 76.0103Z" fill="white"/>
<path fill-rule="evenodd" clip-rule="evenodd" d="M84.8735 76.5866C84.1749 76.5866 83.5374 76.8725 83.0762 77.3327C82.8391 77.5686 82.6509 77.8489 82.5224 78.1577C82.3939 78.4664 82.3276 78.7975 82.3273 79.1319C82.3273 79.8296 82.6132 80.4652 83.0762 80.9282C83.5392 81.3913 84.1721 81.6771 84.8717 81.6771C85.5712 81.6771 86.2069 81.3904 86.669 80.9282C87.1302 80.4661 87.4178 79.8296 87.4178 79.1319C87.4178 78.4314 87.1302 77.7958 86.669 77.3327C86.4331 77.0964 86.1529 76.9089 85.8446 76.7809C85.5362 76.6528 85.2056 76.5868 84.8717 76.5866H84.8735ZM84.8735 75.4359V75.4341C85.3586 75.4347 85.8389 75.5311 86.2868 75.7175C86.7346 75.904 87.1413 76.177 87.4836 76.5209C87.8279 76.8631 88.1012 77.2701 88.2877 77.7183C88.4742 78.1666 88.5703 78.6473 88.5704 79.1328C88.5696 79.6178 88.4732 80.0979 88.2867 80.5456C88.1003 80.9933 87.8273 81.3998 87.4836 81.742C87.1414 82.0856 86.7347 82.3583 86.2868 82.5444C85.839 82.7305 85.3588 82.8264 84.8739 82.8266C84.3889 82.8268 83.9087 82.7312 83.4607 82.5454C83.0127 82.3596 82.6059 82.0872 82.2634 81.7438C81.9188 81.402 81.6452 80.9953 81.4586 80.5473C81.2719 80.0992 81.1758 79.6186 81.1758 79.1332C81.1758 78.6478 81.2719 78.1673 81.4586 77.7192C81.6452 77.2712 81.9188 76.8645 82.2634 76.5227C82.9543 75.8289 83.8925 75.438 84.8717 75.4359H84.8735Z" fill="#9699A6"/>
<path fill-rule="evenodd" clip-rule="evenodd" d="M0 42.7929C0 42.6403 0.0606177 42.4939 0.168517 42.386C0.276417 42.2781 0.42276 42.2175 0.575353 42.2175C0.727946 42.2175 0.87429 42.2781 0.982189 42.386C1.09009 42.4939 1.15071 42.6403 1.15071 42.7929V45.0943C1.15071 45.2469 1.09009 45.3932 0.982189 45.5011C0.87429 45.609 0.727946 45.6697 0.575353 45.6697C0.42276 45.6697 0.276417 45.609 0.168517 45.5011C0.0606177 45.3932 0 45.2469 0 45.0943V42.7929ZM52.5873 97.1437C52.8631 96.9848 53.2156 97.0797 53.3745 97.3537C53.5334 97.6277 53.4384 97.982 53.1645 98.1409L51.1735 99.2898C51.1082 99.3278 51.036 99.3525 50.9611 99.3625C50.8862 99.3726 50.81 99.3678 50.7369 99.3484C50.6639 99.329 50.5954 99.2955 50.5353 99.2496C50.4752 99.2037 50.4247 99.1465 50.3868 99.0811C50.3488 99.0158 50.3241 98.9436 50.314 98.8687C50.304 98.7937 50.3088 98.7176 50.3282 98.6445C50.3475 98.5715 50.3811 98.5029 50.427 98.4429C50.4728 98.3828 50.5301 98.3323 50.5955 98.2944L52.5864 97.1437H52.5873ZM46.5479 99.9994C46.6976 99.9694 46.8531 100 46.9801 100.085C47.1072 100.169 47.1955 100.301 47.2255 100.451C47.2556 100.6 47.2249 100.756 47.1403 100.883C47.0557 101.01 46.9241 101.098 46.7744 101.128H46.768L46.7223 101.137L46.6748 101.146L46.6292 101.156L46.5835 101.162L46.5378 101.169L46.4922 101.178L46.4465 101.186L46.4009 101.195L46.3552 101.2L46.3095 101.206L46.2639 101.213L46.2182 101.219L46.1698 101.228L46.1241 101.232L46.0785 101.238L46.0328 101.247L45.9871 101.25L45.9397 101.255L45.894 101.26L45.8483 101.262L45.8027 101.267L45.757 101.271L45.7113 101.274L45.6657 101.279L45.62 101.281L45.5744 101.284L45.5287 101.287L45.483 101.29L45.4374 101.292L45.3917 101.294H45.3004L45.252 101.296H44.9342L44.8885 101.294H44.7972L44.7515 101.293L44.7058 101.291L44.6602 101.288L44.6145 101.286L44.5689 101.283L44.5232 101.282L44.4775 101.278L44.4319 101.275L44.3862 101.27L44.3387 101.267L44.3204 101.265C44.1687 101.251 44.0289 101.176 43.9319 101.059C43.8349 100.941 43.7886 100.79 43.8031 100.638C43.8176 100.486 43.8918 100.347 44.0094 100.25C44.127 100.153 44.2783 100.106 44.43 100.121H44.4437L44.483 100.125L44.5223 100.128L44.5625 100.132L44.6017 100.134L44.6419 100.137L44.6821 100.139L44.7223 100.141L44.7606 100.143L44.8008 100.145L44.841 100.146L44.8794 100.148L44.9196 100.15H44.9588L44.9999 100.152H45.1935L45.2328 100.15H45.2712L45.3104 100.148L45.3497 100.146H45.389L45.431 100.143L45.4712 100.141L45.5077 100.139L45.547 100.137L45.5871 100.135L45.6273 100.132L45.6684 100.128L45.7077 100.125L45.7479 100.121L45.7881 100.119L45.8273 100.114L45.8657 100.11L45.9059 100.105L45.946 100.102L45.9853 100.098L46.0264 100.093L46.0657 100.088L46.1059 100.081L46.1479 100.075L46.1871 100.072L46.2264 100.065L46.2675 100.059L46.3077 100.051L46.3488 100.044L46.389 100.037L46.4282 100.028L46.4684 100.022L46.5104 100.013L46.5497 100.006L46.5552 100.004L46.5479 99.9994ZM40.2756 98.7683C40.4055 98.8402 40.5026 98.9595 40.5466 99.1013C40.5906 99.243 40.5781 99.3963 40.5117 99.5291C40.4453 99.6619 40.3302 99.7638 40.1904 99.8137C40.0506 99.8636 39.8969 99.8575 39.7615 99.7967L39.7368 99.7857L39.6838 99.7556L39.6318 99.7309L39.5797 99.7035L39.5286 99.6761L39.4756 99.6506L39.4226 99.6232L39.3706 99.5976L39.3158 99.5665L39.2656 99.5391L39.2126 99.5136L39.1578 99.4862L39.1048 99.456L39.05 99.425L38.9952 99.3976L38.9404 99.3684L38.8884 99.341L38.8336 99.3117L38.7788 99.2825L38.724 99.2551L38.6692 99.2241L38.6144 99.1921L38.5596 99.1601L38.514 99.1327L38.4957 99.1263L37.7158 98.6734C37.5903 98.5939 37.5004 98.4689 37.4649 98.3247C37.4294 98.1804 37.4511 98.028 37.5255 97.8994C37.5998 97.7708 37.721 97.6759 37.8637 97.6346C38.0064 97.5933 38.1596 97.6088 38.2911 97.6779L39.0701 98.1282L39.1158 98.1555L39.1706 98.1829L39.2254 98.2122L39.2765 98.2423L39.3286 98.2715L39.3815 98.3008L39.4336 98.3282L39.4866 98.3574L39.5386 98.3848L39.5907 98.4122L39.6427 98.4396L39.6948 98.467L39.745 98.4944L39.798 98.5218L39.8491 98.5492L39.8994 98.5747L39.9505 98.6003L40.0016 98.6277L40.0528 98.6533L40.1039 98.6788L40.1533 98.7062L40.2026 98.73L40.2528 98.7537L40.2802 98.7674H40.2784L40.2756 98.7683ZM38.5103 99.1336L39.0628 98.1245L38.5039 99.1309L38.513 99.1346L38.5103 99.1336ZM34.3057 95.3801C34.5815 95.5354 34.6746 95.8898 34.5157 96.1656C34.4393 96.2975 34.3137 96.3937 34.1665 96.4331C34.0192 96.4724 33.8623 96.4518 33.7303 96.3756L31.7394 95.2249C31.6694 95.1897 31.6074 95.1406 31.5571 95.0806C31.5067 95.0206 31.4692 94.951 31.4467 94.876C31.4242 94.801 31.4173 94.7222 31.4264 94.6444C31.4354 94.5666 31.4602 94.4915 31.4993 94.4236C31.5384 94.3558 31.591 94.2966 31.6537 94.2498C31.7165 94.203 31.7881 94.1694 31.8643 94.1512C31.9405 94.1331 32.0195 94.1306 32.0967 94.1441C32.1738 94.1575 32.2474 94.1866 32.3129 94.2295L34.3057 95.3801ZM28.3284 91.928C28.397 91.9641 28.4576 92.0136 28.5066 92.0737C28.5557 92.1337 28.592 92.2031 28.6136 92.2775C28.6351 92.352 28.6414 92.4301 28.632 92.507C28.6226 92.584 28.5978 92.6582 28.559 92.7253C28.5202 92.7924 28.4682 92.851 28.4063 92.8976C28.3443 92.9441 28.2735 92.9776 28.1982 92.9961C28.123 93.0146 28.0447 93.0177 27.9682 93.0053C27.8917 92.9928 27.8185 92.965 27.753 92.9235L25.7621 91.7728C25.6964 91.7354 25.6387 91.6853 25.5924 91.6254C25.5462 91.5656 25.5123 91.4971 25.4928 91.424C25.4732 91.3509 25.4684 91.2747 25.4786 91.1998C25.4888 91.1248 25.5137 91.0526 25.5521 90.9874C25.5897 90.9219 25.6399 90.8645 25.6998 90.8184C25.7597 90.7724 25.8281 90.7387 25.9011 90.7191C25.9741 90.6996 26.0502 90.6947 26.1251 90.7047C26.2 90.7147 26.2722 90.7394 26.3375 90.7773L28.3284 91.928ZM22.3529 88.4759C22.4852 88.5522 22.5817 88.6779 22.6213 88.8254C22.6608 88.9728 22.6402 89.13 22.5639 89.2622C22.4876 89.3945 22.3619 89.491 22.2144 89.5306C22.067 89.5701 21.9098 89.5495 21.7776 89.4732L19.7848 88.3225C19.7162 88.2864 19.6556 88.2369 19.6066 88.1768C19.5576 88.1168 19.5212 88.0474 19.4997 87.973C19.4781 87.8985 19.4719 87.8205 19.4812 87.7435C19.4906 87.6666 19.5154 87.5923 19.5542 87.5252C19.593 87.4581 19.645 87.3995 19.707 87.353C19.769 87.3064 19.8397 87.2729 19.915 87.2544C19.9903 87.2359 20.0685 87.2328 20.145 87.2453C20.2215 87.2578 20.2947 87.2856 20.3602 87.327L22.3511 88.4777H22.3529V88.4759ZM16.372 85.0284C16.4975 85.1078 16.5874 85.2328 16.6229 85.3771C16.6583 85.5213 16.6366 85.6737 16.5623 85.8024C16.4879 85.931 16.3667 86.0259 16.224 86.0671C16.0813 86.1084 15.9282 86.0929 15.7966 86.0238L13.8057 84.8731C13.7358 84.8379 13.6737 84.7888 13.6234 84.7289C13.5731 84.6689 13.5355 84.5992 13.5131 84.5242C13.4906 84.4492 13.4837 84.3704 13.4927 84.2926C13.5017 84.2148 13.5266 84.1397 13.5657 84.0719C13.6048 84.004 13.6573 83.9448 13.72 83.898C13.7828 83.8512 13.8545 83.8176 13.9306 83.7994C14.0068 83.7813 14.0859 83.7788 14.163 83.7923C14.2402 83.8057 14.3137 83.8348 14.3793 83.8777L16.3729 85.0284H16.372ZM10.3956 81.5762C10.5279 81.6525 10.6244 81.7783 10.664 81.9257C10.7035 82.0732 10.6829 82.2303 10.6066 82.3626C10.5303 82.4948 10.4046 82.5913 10.2571 82.6309C10.1097 82.6705 9.95252 82.6498 9.82027 82.5735L7.82754 81.4228C7.75891 81.3868 7.69828 81.3372 7.64927 81.2772C7.60027 81.2171 7.5639 81.1478 7.54236 81.0733C7.52082 80.9988 7.51455 80.9208 7.52393 80.8439C7.53331 80.7669 7.55814 80.6926 7.59693 80.6255C7.63572 80.5584 7.68767 80.4998 7.74966 80.4533C7.81166 80.4068 7.88241 80.3732 7.95769 80.3547C8.03296 80.3362 8.1112 80.3331 8.18771 80.3456C8.26421 80.3581 8.33741 80.3859 8.40289 80.4274L10.3956 81.5781V81.5762ZM4.56903 78.0419C4.68123 78.1388 4.75172 78.2752 4.7658 78.4228C4.77988 78.5703 4.73648 78.7176 4.64464 78.834C4.55279 78.9503 4.41959 79.0267 4.2728 79.0472C4.12601 79.0678 3.97695 79.0309 3.85669 78.9442L3.84208 78.9351L3.80098 78.9013L3.7608 78.8694L3.72244 78.8374L3.68317 78.8027L3.64299 78.7725L3.60463 78.7388L3.56536 78.705L3.52609 78.6721L3.48774 78.6392L3.44938 78.6072L3.41102 78.5734L3.37266 78.5397L3.33613 78.5059L3.29778 78.473L3.26125 78.4392L3.22289 78.4063L3.18636 78.3753L3.14983 78.3415L3.1133 78.305L3.07677 78.273L3.04024 78.2392L3.00554 78.2027L2.97083 78.1707L2.93613 78.136L2.8996 78.1022L2.86581 78.0684L2.82928 78.0319L2.7964 77.9999L2.76261 77.968L2.7279 77.9314L2.69503 77.8986L2.66032 77.862L2.62745 77.8255L2.59457 77.7944L2.56169 77.7579L2.52881 77.7232L2.49776 77.6867L2.4658 77.6538L2.43383 77.6173L2.40278 77.5826L2.37173 77.546L2.34068 77.5132L2.31054 77.4766L2.27949 77.4401L2.24844 77.4036L2.21831 77.3689L2.18817 77.3323L2.16077 77.294L2.13063 77.2602L2.11876 77.2438C2.07187 77.1845 2.0371 77.1166 2.01645 77.0439C1.9958 76.9712 1.98967 76.8952 1.9984 76.8201C2.00714 76.7451 2.03057 76.6725 2.06736 76.6065C2.10415 76.5405 2.15358 76.4824 2.21283 76.4355C2.27207 76.3886 2.33997 76.3539 2.41266 76.3332C2.48534 76.3125 2.56137 76.3064 2.63643 76.3152C2.71148 76.3239 2.78407 76.3473 2.85007 76.3841C2.91606 76.4209 2.97417 76.4703 3.02106 76.5296L3.03019 76.5387L3.05576 76.5725L3.08134 76.6026L3.10599 76.6346L3.13339 76.6647L3.15896 76.6967L3.18636 76.7287L3.21102 76.7606L3.23842 76.7926L3.26581 76.8227L3.29321 76.8547L3.32061 76.8857L3.34801 76.9186L3.3754 76.9488L3.40463 76.9789L3.43385 77.009L3.46308 77.0392L3.49048 77.0693L3.5197 77.1004L3.55075 77.1314L3.57997 77.1616L3.6092 77.1917L3.64116 77.2218L3.67221 77.2529L3.70235 77.283L3.7334 77.3132L3.76628 77.3405L3.79824 77.3734L3.83021 77.4027L3.86217 77.4328L3.89414 77.4629L3.9261 77.4922L3.95898 77.5196L3.99185 77.5515L4.02473 77.5789L4.05852 77.61L4.0914 77.6374L4.12793 77.6684L4.16263 77.7013L4.19734 77.7305L4.23113 77.7607L4.26766 77.7881L4.30236 77.8173L4.33889 77.8483L4.37542 77.8803L4.41013 77.9077L4.44666 77.9396L4.48319 77.9689L4.51972 77.9963L4.55807 78.0273L4.57269 78.0383L4.56903 78.0419ZM1.39455 72.5943C1.40695 72.669 1.4045 72.7454 1.38733 72.8191C1.37016 72.8928 1.33861 72.9624 1.2945 73.024C1.25038 73.0855 1.19457 73.1377 1.13024 73.1776C1.06592 73.2175 0.994355 73.2443 0.919652 73.2565C0.768997 73.2807 0.614891 73.2441 0.491236 73.1547C0.36758 73.0653 0.284503 72.9304 0.260279 72.7797V72.7779L0.251146 72.7286L0.242014 72.6765L0.235621 72.6245L0.229228 72.5733L0.220096 72.5213L0.213703 72.4683L0.206397 72.4181L0.19909 72.3633L0.189958 72.3131L0.185392 72.261L0.176259 72.2062L0.171693 72.1542L0.1653 72.0994L0.157994 72.0473L0.152515 71.9953L0.143382 71.9377L0.137902 71.8829L0.132423 71.8281L0.125117 71.7733L0.119637 71.7204L0.115071 71.6656L0.108678 71.6108L0.104112 71.556L0.0986322 71.5012L0.0931526 71.4427L0.0885862 71.3879L0.084933 71.3331L0.0803671 71.2756L0.077627 71.2208L0.0721474 71.1614L0.0684947 71.1048L0.0639283 71.0482L0.0611887 70.9907L0.0575355 70.9359L0.0538823 70.8783L0.0502295 70.8199L0.0456631 70.7605L0.0429231 70.703L0.0401835 70.6436L0.0374439 70.5852L0.0356171 70.5258L0.0328775 70.4683V70.4226C0.0252908 70.3449 0.0336136 70.2664 0.0573387 70.192C0.0810637 70.1176 0.119694 70.0487 0.170875 69.9897C0.222057 69.9307 0.284718 69.8828 0.355039 69.8488C0.42536 69.8148 0.501869 69.7954 0.579903 69.792C0.657937 69.7885 0.735862 69.8009 0.808928 69.8285C0.881995 69.8562 0.948673 69.8984 1.0049 69.9526C1.06113 70.0068 1.10572 70.0719 1.13597 70.1439C1.16622 70.2159 1.18149 70.2934 1.18084 70.3715L1.18358 70.4126L1.18541 70.4719L1.18815 70.5267L1.18998 70.5815L1.19363 70.6391L1.19546 70.6939L1.1982 70.7487L1.20368 70.8071L1.20642 70.8619L1.21007 70.9167L1.21372 70.9715L1.21646 71.0245L1.22194 71.0793L1.22559 71.1313L1.23016 71.1861L1.23381 71.2409L1.23655 71.292L1.24203 71.3468L1.24477 71.398L1.24934 71.4528L1.25482 71.503L1.25938 71.5551L1.26304 71.6071L1.26852 71.6583L1.27308 71.7112L1.27948 71.7615L1.28587 71.8108L1.29043 71.8628L1.29591 71.9131L1.30322 71.9605L1.30961 72.0108L1.31509 72.061L1.3224 72.1085L1.32879 72.1587L1.3361 72.208L1.34249 72.2537L1.34888 72.3048L1.35619 72.3532L1.36258 72.4016L1.37172 72.4473L1.37719 72.4948L1.38633 72.5423L1.39272 72.5907V72.5925L1.39455 72.5943ZM1.15071 65.7997C1.15071 65.9523 1.09009 66.0986 0.982189 66.2065C0.87429 66.3144 0.727946 66.3751 0.575353 66.3751C0.42276 66.3751 0.276417 66.3144 0.168517 66.2065C0.0606177 66.0986 0 65.9523 0 65.7997V63.4983C0 63.3457 0.0606177 63.1994 0.168517 63.0914C0.276417 62.9836 0.42276 62.9229 0.575353 62.9229C0.727946 62.9229 0.87429 62.9836 0.982189 63.0914C1.09009 63.1994 1.15071 63.3457 1.15071 63.4983V65.7997ZM1.15071 58.8973C1.15071 59.0499 1.09009 59.1962 0.982189 59.3041C0.87429 59.412 0.727946 59.4726 0.575353 59.4726C0.42276 59.4726 0.276417 59.412 0.168517 59.3041C0.0606177 59.1962 0 59.0499 0 58.8973V56.5959C0 56.4433 0.0606177 56.2969 0.168517 56.189C0.276417 56.0811 0.42276 56.0205 0.575353 56.0205C0.727946 56.0205 0.87429 56.0811 0.982189 56.189C1.09009 56.2969 1.15071 56.4433 1.15071 56.5959V58.8973ZM1.15071 51.9958C1.15071 52.1484 1.09009 52.2947 0.982189 52.4026C0.87429 52.5105 0.727946 52.5711 0.575353 52.5711C0.42276 52.5711 0.276417 52.5105 0.168517 52.4026C0.0606177 52.2947 0 52.1484 0 51.9958V49.6944C0 49.5418 0.0606177 49.3954 0.168517 49.2875C0.276417 49.1796 0.42276 49.119 0.575353 49.119C0.727946 49.119 0.87429 49.1796 0.982189 49.2875C1.09009 49.3954 1.15071 49.5418 1.15071 49.6944V51.9958Z" fill="#0755E9"/>
<path fill-rule="evenodd" clip-rule="evenodd" d="M64.3671 12.1865L50.5924 4.23661C48.4317 3.03385 46.7385 2.36991 45.133 2.30233C43.5503 2.23658 41.9494 2.74983 39.9338 3.90693L39.9301 3.90236L23.3499 13.4742V13.4779L6.76789 23.0516L5.61719 21.0652L22.202 11.4915H22.2065L38.7931 1.91237V1.9078C41.1932 0.532436 43.1695 -0.0794477 45.2225 0.00822513C47.2463 0.0922449 49.2463 0.857556 51.7267 2.23658L51.7431 2.24571L65.5169 10.1984L64.3662 12.1847L64.3671 12.1865Z" fill="#9699A6"/>
<path fill-rule="evenodd" clip-rule="evenodd" d="M8.63584 18.5979H4.93349C4.23576 18.5979 3.66406 19.1678 3.66406 19.8673V23.5679C3.66406 24.2665 4.23576 24.8373 4.93349 24.8373H8.63584C9.33357 24.8373 9.90527 24.2665 9.90527 23.5679V19.8673C9.90527 19.1678 9.33357 18.5979 8.63584 18.5979Z" fill="white"/>
<path fill-rule="evenodd" clip-rule="evenodd" d="M8.63607 19.1731H4.93463C4.75069 19.1736 4.57443 19.2469 4.44437 19.3769C4.31431 19.507 4.24103 19.6832 4.24055 19.8672V23.5677C4.24055 23.7595 4.31818 23.933 4.44329 24.059V24.0572C4.57115 24.1851 4.74467 24.2627 4.93463 24.2627H8.63607C8.72728 24.2629 8.81764 24.2451 8.90196 24.2104C8.98628 24.1756 9.06289 24.1244 9.12739 24.0599C9.19189 23.9954 9.243 23.9188 9.2778 23.8345C9.31259 23.7502 9.33038 23.6598 9.33014 23.5686V19.8672C9.33014 19.6831 9.25702 19.5066 9.12685 19.3764C8.99669 19.2462 8.82015 19.1731 8.63607 19.1731ZM4.93463 18.0224H8.63515C9.14201 18.0224 9.60321 18.2297 9.93746 18.564C10.2726 18.8973 10.4799 19.3585 10.4799 19.8672V23.5677C10.4799 23.8096 10.432 24.0491 10.339 24.2725C10.2461 24.4958 10.1099 24.6986 9.93837 24.8691V24.8709C9.59235 25.2159 9.12373 25.4096 8.63515 25.4097H4.93463C4.44543 25.4096 3.97632 25.2151 3.63049 24.8691V24.8664C3.45925 24.6956 3.32336 24.4928 3.23059 24.2695C3.13782 24.0462 3.08999 23.8068 3.08984 23.565V19.8663C3.08984 19.3585 3.29715 18.8964 3.63049 18.563C3.8016 18.3915 4.00485 18.2553 4.22863 18.1624C4.45241 18.0695 4.69232 18.0216 4.93463 18.0215V18.0224Z" fill="#9699A6"/>
<path fill-rule="evenodd" clip-rule="evenodd" d="M67.174 8.2959H63.4753C62.7748 8.2959 62.2031 8.86669 62.2031 9.56533V13.2668C62.2031 13.9654 62.7748 14.5362 63.4744 14.5362H67.1731C67.8726 14.5362 68.4443 13.9654 68.4443 13.2668V9.56533C68.4443 8.86669 67.8708 8.2959 67.1722 8.2959H67.174Z" fill="white"/>
<path fill-rule="evenodd" clip-rule="evenodd" d="M67.176 8.87141H63.4773C63.3861 8.87117 63.2958 8.88896 63.2114 8.92375C63.1271 8.95855 63.0505 9.00966 62.986 9.07416C62.9215 9.13866 62.8704 9.21527 62.8356 9.29959C62.8008 9.38391 62.783 9.47427 62.7833 9.56549V13.2678C62.7833 13.4596 62.86 13.6331 62.9842 13.7583H62.9878C63.052 13.8232 63.1283 13.8748 63.2125 13.91C63.2967 13.9453 63.387 13.9636 63.4782 13.9637H67.177C67.3611 13.9633 67.5375 13.89 67.6679 13.76C67.7982 13.63 67.8719 13.4538 67.8729 13.2697V9.56549C67.8725 9.47425 67.8542 9.38397 67.8189 9.29982C67.7837 9.21567 67.7322 9.13929 67.6674 9.07507H67.6692C67.6044 9.01039 67.5275 8.95911 67.4429 8.92417C67.3583 8.88922 67.2676 8.87129 67.176 8.87141ZM63.4773 7.7207H67.176C67.6829 7.7207 68.1441 7.92893 68.4783 8.26318H68.4802C68.8135 8.59652 69.0217 9.05771 69.0217 9.5664V13.2688C69.0217 13.7756 68.8117 14.2368 68.4783 14.5701H68.4765C68.3059 14.742 68.1031 14.8784 67.8796 14.9715C67.6561 15.0646 67.4163 15.1126 67.1742 15.1126H63.4755C63.2332 15.1128 62.9933 15.0652 62.7695 14.9724C62.5457 14.8796 62.3424 14.7435 62.1714 14.572V14.5701C61.9995 14.3998 61.8631 14.1971 61.77 13.9737C61.6769 13.7503 61.6289 13.5107 61.6289 13.2688V9.56549C61.6289 9.05771 61.8353 8.59743 62.1705 8.26318C62.341 8.09134 62.5439 7.95494 62.7674 7.86184C62.9909 7.76874 63.2307 7.72077 63.4728 7.7207H63.4773Z" fill="#9699A6"/>
</svg>
