<svg width="70" height="70" viewBox="0 0 70 70" fill="none" xmlns="http://www.w3.org/2000/svg">
<mask id="mask0_606_11466" style="mask-type:alpha" maskUnits="userSpaceOnUse" x="3" y="4" width="64" height="62">
<path fill-rule="evenodd" clip-rule="evenodd" d="M48.0116 65.6868C48.9916 66.0686 50.1091 66.0441 51.0982 65.5681L63.9087 59.404C65.2548 58.7562 66.1109 57.3939 66.1109 55.8993V14.1022C66.1109 12.6076 65.2549 11.2453 63.9088 10.5975L51.0982 4.43314C49.8001 3.8085 48.2809 3.9615 47.1415 4.7898C46.9788 4.90812 46.8237 5.04023 46.6783 5.18582L22.1541 27.5597L11.4718 19.451C10.4774 18.6962 9.08649 18.758 8.16292 19.5982L4.73678 22.7147C3.60708 23.7423 3.60579 25.5196 4.73398 26.5489L13.998 35.0006L4.73398 43.4524C3.60579 44.4816 3.60708 46.2589 4.73678 47.2865L8.16292 50.4031C9.08649 51.2433 10.4774 51.3051 11.4718 50.5502L22.1541 42.4416L46.6783 64.8154C47.0662 65.2036 47.5218 65.4959 48.0116 65.6868ZM50.5648 20.8755L31.9566 35.0006L50.5648 49.1258V20.8755Z" fill="white"/>
</mask>
<g mask="url(#mask0_606_11466)">
<path d="M63.9088 10.6068L51.0883 4.43399C49.6043 3.71948 47.8308 4.02087 46.6662 5.1855L4.69641 43.4521C3.56753 44.4813 3.56883 46.2586 4.69921 47.2862L8.12743 50.4028C9.05156 51.2429 10.4433 51.3048 11.4383 50.55L61.9796 12.2083C63.6753 10.9219 66.1106 12.1313 66.1106 14.2596V14.1108C66.1106 12.6168 65.2548 11.2549 63.9088 10.6068Z" fill="#0065A9"/>
<g filter="url(#filter0_d_606_11466)">
<path d="M63.9093 59.3929L51.0887 65.5658C49.6047 66.2804 47.8313 65.9789 46.6667 64.8142L4.6969 26.5477C3.56802 25.5184 3.56932 23.7411 4.6997 22.7135L8.12792 19.5969C9.05205 18.7568 10.4438 18.6949 11.4388 19.4498L61.9801 57.7915C63.6757 59.0778 66.1111 57.8684 66.1111 55.7402V55.889C66.1111 57.3829 65.2553 58.7448 63.9093 59.3929Z" fill="#007ACC"/>
</g>
<g filter="url(#filter1_d_606_11466)">
<path d="M51.0901 65.5674C49.6057 66.2815 47.8322 65.9794 46.6675 64.8147C48.1026 66.2498 50.5564 65.2334 50.5564 63.2039V6.79592C50.5564 4.76639 48.1026 3.74999 46.6675 5.18509C47.8322 4.02035 49.6057 3.71853 51.0901 4.43241L63.9085 10.5968C65.2554 11.2445 66.1119 12.6069 66.1119 14.1015V55.8986C66.1119 57.3931 65.2554 58.7555 63.9084 59.4032L51.0901 65.5674Z" fill="#1F9CF0"/>
</g>
<g style="mix-blend-mode:overlay" opacity="0.25">
<path fill-rule="evenodd" clip-rule="evenodd" d="M47.9745 65.6864C48.9545 66.0681 50.072 66.0437 51.0611 65.5677L63.8716 59.4036C65.2177 58.7558 66.0738 57.3935 66.0738 55.8988V14.1018C66.0738 12.6072 65.2178 11.2448 63.8717 10.5971L51.0611 4.43272C49.763 3.80808 48.2437 3.96107 47.1044 4.78936C46.9417 4.90769 46.7866 5.0398 46.6411 5.18539L22.1169 27.5593L11.4347 19.4506C10.4403 18.6957 9.04938 18.7576 8.12581 19.5977L4.69967 22.7143C3.56997 23.742 3.56868 25.5192 4.69687 26.5485L13.9609 35.0002L4.69687 43.452C3.56868 44.4812 3.56997 46.2585 4.69967 47.2861L8.12581 50.4027C9.04938 51.2428 10.4403 51.3047 11.4347 50.5498L22.1169 42.4411L46.6411 64.815C47.0291 65.2032 47.4846 65.4956 47.9745 65.6864ZM50.5277 20.8751L31.9194 35.0002L50.5277 49.1254V20.8751Z" fill="url(#paint0_linear_606_11466)"/>
</g>
</g>
<defs>
<filter id="filter0_d_606_11466" x="-2.8156" y="12.256" width="75.5936" height="60.3603" filterUnits="userSpaceOnUse" color-interpolation-filters="sRGB">
<feFlood flood-opacity="0" result="BackgroundImageFix"/>
<feColorMatrix in="SourceAlpha" type="matrix" values="0 0 0 0 0 0 0 0 0 0 0 0 0 0 0 0 0 0 127 0" result="hardAlpha"/>
<feOffset/>
<feGaussianBlur stdDeviation="3.33334"/>
<feColorMatrix type="matrix" values="0 0 0 0 0 0 0 0 0 0 0 0 0 0 0 0 0 0 0.25 0"/>
<feBlend mode="overlay" in2="BackgroundImageFix" result="effect1_dropShadow_606_11466"/>
<feBlend mode="normal" in="SourceGraphic" in2="effect1_dropShadow_606_11466" result="shape"/>
</filter>
<filter id="filter1_d_606_11466" x="40.0008" y="-2.61748" width="32.7777" height="75.2349" filterUnits="userSpaceOnUse" color-interpolation-filters="sRGB">
<feFlood flood-opacity="0" result="BackgroundImageFix"/>
<feColorMatrix in="SourceAlpha" type="matrix" values="0 0 0 0 0 0 0 0 0 0 0 0 0 0 0 0 0 0 127 0" result="hardAlpha"/>
<feOffset/>
<feGaussianBlur stdDeviation="3.33334"/>
<feColorMatrix type="matrix" values="0 0 0 0 0 0 0 0 0 0 0 0 0 0 0 0 0 0 0.25 0"/>
<feBlend mode="overlay" in2="BackgroundImageFix" result="effect1_dropShadow_606_11466"/>
<feBlend mode="normal" in="SourceGraphic" in2="effect1_dropShadow_606_11466" result="shape"/>
</filter>
<linearGradient id="paint0_linear_606_11466" x1="34.9627" y1="4.0495" x2="34.9627" y2="65.951" gradientUnits="userSpaceOnUse">
<stop stop-color="white"/>
<stop offset="1" stop-color="white" stop-opacity="0"/>
</linearGradient>
</defs>
</svg>
