<svg width="33" height="33" viewBox="0 0 33 33" fill="none" xmlns="http://www.w3.org/2000/svg">
<path d="M30.2096 7.10334C31.0296 9.01786 31.2303 11.1409 30.7837 13.1751C30.3371 15.2094 29.2655 17.0531 27.719 18.448C26.1724 19.843 24.2284 20.7194 22.159 20.9546C20.0896 21.1898 17.9985 20.772 16.1784 19.7596L7.41275 29.9158C6.70827 30.6203 5.75279 31.0161 4.7565 31.0161C3.76022 31.0161 2.80474 30.6203 2.10025 29.9158C1.39577 29.2114 1 28.2559 1 27.2596C1 26.2633 1.39577 25.3078 2.10025 24.6033L12.2565 15.8377C11.2441 14.0176 10.8263 11.9265 11.0615 9.85709C11.2967 7.7877 12.1731 5.84366 13.5681 4.29714C14.963 2.75061 16.8067 1.67903 18.841 1.23242C20.8752 0.78581 22.9982 0.986525 24.9128 1.80647L18.3503 8.35334L19.2409 12.7752L23.6628 13.6658L30.2096 7.10334Z" stroke="#0755E9" stroke-width="2" stroke-linecap="round" stroke-linejoin="round"/>
</svg>
