<svg width="40" height="30" viewBox="0 0 40 30" fill="none" xmlns="http://www.w3.org/2000/svg">
<path d="M34.9634 11.5921C34.5573 11.4025 34.0428 11.3211 33.3927 11.3211C29.9802 11.3211 27.7051 13.9472 27.7051 18.3088C27.7051 23.2923 30.0343 25.2964 33.0677 25.2964C33.7178 25.2964 34.4218 25.2153 34.9364 24.9985V11.5921H34.9634ZM22.8311 18.5256C22.8311 12.215 26.8937 7.28561 33.5563 7.28561C34.1249 7.28561 34.4229 7.28561 34.9647 7.33995V0.297967C34.9649 0.226582 34.9931 0.158129 35.0434 0.107458C35.0937 0.0567876 35.1619 0.0279845 35.2333 0.0273002H39.5939C39.8107 0.0273002 39.8648 0.108422 39.8648 0.243885V24.9985C39.8648 25.7299 39.8648 26.6508 40 27.6529C40 27.8424 40 27.8694 39.8378 27.9508C37.6721 28.9834 35.3034 29.5199 32.9042 29.5215C27.0281 29.5215 22.8311 25.8924 22.8311 18.5256ZM13.5944 14.1378L21.178 28.8445C21.3132 29.0611 21.232 29.2779 21.0155 29.2779H16.3029C16.0049 29.2779 15.8694 29.1965 15.734 28.9256C14.0005 25.3508 12.2403 21.6402 10.4257 17.7942H10.3714C8.74632 21.4234 6.95879 25.3778 5.22559 28.9529C5.09013 29.1695 4.95467 29.2509 4.73808 29.2509H0.242069C-0.0288565 29.2509 -0.0558971 29.0343 0.0795657 28.8718L7.50064 14.5975L0.323191 0.406388C0.160687 0.189804 0.323191 0 0.512735 0H5.17125C5.44217 0 5.57764 0.0543417 5.65876 0.297967C7.36517 3.90008 9.09837 7.44811 10.7234 11.0775H10.7777C12.3484 7.50245 14.0819 3.90138 15.734 0.352307C15.8694 0.135462 15.9506 0 16.2215 0H20.582C20.7986 0 20.88 0.162503 20.7445 0.406388L13.5944 14.1378Z" fill="#1B232E"/>
</svg>
