<svg width="93" height="68" viewBox="0 0 93 68" fill="none" xmlns="http://www.w3.org/2000/svg">
<path d="M81.29 26.7012C80.3457 26.2646 79.1494 26.0772 77.6381 26.0772C69.7039 26.0772 64.4144 32.1261 64.4144 42.1726C64.4144 53.6516 69.8296 58.2679 76.8825 58.2679C78.3938 58.2679 80.0308 58.0811 81.2271 57.5816V26.7012H81.29ZM53.0822 42.672C53.0822 28.1362 62.5277 16.7817 78.0184 16.7817C79.3404 16.7817 80.0332 16.7817 81.293 16.9069V0.686338C81.2933 0.52191 81.3591 0.364236 81.476 0.24752C81.5929 0.130805 81.7515 0.0644597 81.9175 0.0628835H92.0557C92.5599 0.0628835 92.6857 0.24974 92.6857 0.561766V57.5816C92.6857 59.2663 92.6857 61.3876 93 63.6957C93 64.1323 93 64.1946 92.6228 64.3821C87.5876 66.7604 82.0804 67.9964 76.5023 68C62.8403 68 53.0822 59.6406 53.0822 42.672ZM31.6069 32.565L49.2388 66.4405C49.5531 66.9394 49.3645 67.4388 48.8609 67.4388H37.9041C37.2114 67.4388 36.8964 67.2514 36.5815 66.6273C32.5512 58.3931 28.4586 49.8462 24.2397 40.9873H24.1134C20.3352 49.3467 16.1792 58.4554 12.1495 66.6902C11.8345 67.1891 11.5196 67.3765 11.016 67.3765H0.56281C-0.0670914 67.3765 -0.129961 66.8777 0.18499 66.5034L17.439 33.6239L0.751418 0.936077C0.373598 0.437195 0.751419 0 1.19211 0H12.0232C12.6531 0 12.968 0.125171 13.1566 0.686338C17.124 8.98346 21.1537 17.156 24.9319 25.516H25.0583C28.7101 17.2812 32.7404 8.98645 36.5815 0.811505C36.8964 0.312025 37.085 0 37.7149 0H47.8532C48.3568 0 48.546 0.374311 48.231 0.936077L31.6069 32.565Z" fill="white"/>
</svg>
