<svg width="40" height="40" viewBox="0 0 40 40" fill="none" xmlns="http://www.w3.org/2000/svg">
<circle cx="20" cy="20" r="20" fill="#0755E9"/>
<path d="M14.9811 12C15.6726 12 16.3114 12.0527 16.8976 12.2107C17.4837 12.3161 17.9645 12.5335 18.3926 12.7969C18.8207 13.0603 19.1368 13.4357 19.3541 13.9165C19.5649 14.3973 19.6768 14.9834 19.6768 15.6223C19.6768 16.3665 19.5188 17.0053 19.1434 17.4861C18.8207 17.9668 18.2938 18.3949 17.6484 18.7111C18.5572 18.9745 19.2487 19.4553 19.6702 20.0941C20.0917 20.7329 20.3618 21.5298 20.3618 22.4387C20.3618 23.1829 20.2037 23.8217 19.9337 24.3552C19.6702 24.8886 19.2422 25.3694 18.7614 25.6855C18.2806 26.0083 17.6945 26.2717 17.0556 26.4297C16.4168 26.5878 15.778 26.6932 15.1391 26.6932L8 26.7064V12H14.9811ZM14.553 17.9668C15.1391 17.9668 15.6199 17.8088 15.9887 17.5388C16.3575 17.2687 16.5222 16.7945 16.5222 16.2084C16.5222 15.8857 16.4695 15.5696 16.3641 15.3588C16.2587 15.1481 16.1007 14.9834 15.8833 14.8254C15.6726 14.72 15.4553 14.6146 15.1918 14.5619C14.9284 14.5092 14.6584 14.5092 14.3422 14.5092H11.2534V17.9734C11.2534 17.9668 14.553 17.9668 14.553 17.9668ZM14.7111 24.2564C15.0338 24.2564 15.3499 24.2037 15.6199 24.151C15.8833 24.0983 16.1534 23.993 16.3641 23.8283C16.5749 23.6637 16.7395 23.5056 16.8976 23.2422C17.003 22.9787 17.1083 22.656 17.1083 22.2806C17.1083 21.5364 16.8976 21.003 16.4695 20.6276C16.0414 20.3048 15.4553 20.1468 14.7637 20.1468H11.2534V24.2498H14.7111V24.2564Z" fill="white"/>
<path d="M24.9983 24.2036C25.4264 24.6317 26.0652 24.8425 26.9148 24.8425C27.5009 24.8425 28.0344 24.6844 28.4625 24.4144C28.8906 24.0917 29.154 23.7756 29.2594 23.4528H31.8674C31.4393 24.7305 30.8005 25.6394 29.9509 26.2255C29.1013 26.759 28.0871 27.0751 26.8621 27.0751C26.0125 27.0751 25.2617 26.917 24.5702 26.647C23.8787 26.3836 23.3452 26.0082 22.8644 25.4747C22.3837 24.9939 22.0149 24.4078 21.7975 23.7163C21.5341 23.0248 21.4221 22.2805 21.4221 21.4244C21.4221 20.6275 21.5275 19.8767 21.7975 19.1852C22.0675 18.4936 22.4364 17.9075 22.9171 17.374C23.3979 16.8933 23.984 16.4652 24.6229 16.2017C25.3144 15.9383 26.0059 15.7737 26.8621 15.7737C27.7709 15.7737 28.5678 15.9317 29.2594 16.3071C29.9509 16.6825 30.4843 17.104 30.9124 17.7428C31.3405 18.329 31.6566 19.0205 31.874 19.7647C31.9793 20.5089 32.032 21.2597 31.9793 22.1093H24.2541C24.2541 22.9787 24.5702 23.7756 24.9983 24.2036ZM28.3571 18.6056C27.9817 18.2302 27.3955 18.0195 26.704 18.0195C26.2233 18.0195 25.8544 18.1248 25.5317 18.2829C25.209 18.441 24.9983 18.6583 24.7875 18.869C24.5768 19.0798 24.4648 19.3498 24.4121 19.6133C24.3594 19.8767 24.3068 20.094 24.3068 20.3048H29.1013C28.9959 19.5145 28.7259 18.981 28.3571 18.6056ZM23.6679 13.0142H29.6348V14.4499H23.6679V13.0142Z" fill="white"/>
</svg>
