<svg width="40" height="40" viewBox="0 0 40 40" fill="none" xmlns="http://www.w3.org/2000/svg">
<circle cx="20" cy="20" r="20" fill="white"/>
<path d="M16.6719 19.7C17.4436 21.2938 18.7324 22.5792 20.3281 23.3469C20.4458 23.4026 20.576 23.4268 20.7059 23.4169C20.8358 23.407 20.9608 23.3635 21.0687 23.2907L23.4125 21.725C23.516 21.6548 23.6357 21.6119 23.7603 21.6005C23.8849 21.589 24.0104 21.6093 24.125 21.6594L28.5125 23.5438C28.6625 23.6062 28.7877 23.7162 28.869 23.8568C28.9504 23.9974 28.9832 24.1608 28.9625 24.3219C28.8234 25.4073 28.2937 26.4048 27.4723 27.1278C26.6509 27.8508 25.5943 28.2498 24.5 28.25C21.1185 28.25 17.8755 26.9067 15.4844 24.5156C13.0933 22.1246 11.75 18.8815 11.75 15.5C11.7502 14.4058 12.1492 13.3491 12.8722 12.5277C13.5952 11.7064 14.5927 11.1766 15.6781 11.0375C15.8392 11.0168 16.0027 11.0497 16.1433 11.131C16.2839 11.2123 16.3938 11.3376 16.4562 11.4875L18.3406 15.8844C18.3896 15.9972 18.4101 16.1204 18.4003 16.243C18.3905 16.3656 18.3507 16.4839 18.2844 16.5875L16.7187 18.9688C16.649 19.0765 16.6081 19.2003 16.5999 19.3283C16.5917 19.4563 16.6165 19.5843 16.6719 19.7V19.7Z" stroke="#1B232E" stroke-width="2" stroke-linecap="round" stroke-linejoin="round"/>
</svg>
